<?xml version="1.0" encoding="UTF-8" standalone="no"?>
<svg width="1920" height="1080" viewBox="0 0 1920 1080" fill="none" xmlns="http://www.w3.org/2000/svg" xmlns:xlink="http://www.w3.org/1999/xlink">
  <rect width="1920" height="1080" fill="#F4F1EA"/>
  <g clip-path="url(#clip0_0_1)">
    <path d="M1920 0H0V1080H1920V0Z" fill="#F4F1EA"/>
    <path d="M1920 0H0V120H1920V0Z" fill="#2C2C2C"/>
    <text fill="#F4F1EA" xml:space="preserve" style="white-space: pre" font-family="Noto Serif JP" font-size="36" letter-spacing="0em"><tspan x="706.734" y="54.9">Day1: AIエージェントの可能性</tspan></text>
    <text fill="#F4F1EA" xml:space="preserve" style="white-space: pre" font-family="Noto Serif JP" font-size="24" letter-spacing="0em"><tspan x="768" y="100.1">レベル別アプローチと実践的活用法</tspan></text>
    <path d="M520 83C524.418 83 528 79.4183 528 75C528 70.5817 524.418 67 520 67C515.582 67 512 70.5817 512 75C512 79.4183 515.582 83 520 83Z" fill="#B3322B"/>
    <path d="M540 75H740" stroke="#B3322B" stroke-width="3"/>
    <path d="M1380 83C1384.42 83 1388 79.4183 1388 75C1388 70.5817 1384.42 67 1380 67C1375.58 67 1372 70.5817 1372 75C1372 79.4183 1375.58 83 1380 83Z" fill="#B3322B"/>
    <path d="M1160 75H1360" stroke="#B3322B" stroke-width="3"/>
    
    <!-- 左カラム: AIモデルの種類 -->
    <path d="M640 160H40V1020H640V160Z" fill="#F4F1EA" stroke="#2C2C2C" stroke-width="2"/>
    <text fill="#2C2C2C" xml:space="preserve" style="white-space: pre" font-family="Noto Serif JP" font-size="28" letter-spacing="0em"><tspan x="165" y="210.2">主要AIモデルの比較</tspan></text>
    <path d="M140 220H540" stroke="#B3322B" stroke-width="3"/>
    <path d="M140 226C143.314 226 146 223.314 146 220C146 216.686 143.314 214 140 214C136.686 214 134 216.686 134 220C134 223.314 136.686 226 140 226Z" fill="#B3322B"/>
    <path d="M540 226C543.314 226 546 223.314 546 220C546 216.686 543.314 214 540 214C536.686 214 534 216.686 534 220C534 223.314 536.686 226 540 226Z" fill="#B3322B"/>
    
    <text fill="#B3322B" xml:space="preserve" style="white-space: pre" font-family="Noto Sans JP" font-size="20" letter-spacing="0em"><tspan x="70" y="270">🤖 主要AIモデルの特徴</tspan></text>
    
    <path d="M610 300H70V500H610V300Z" fill="#F4F1EA" stroke="#B3322B" stroke-width="2"/>
    <text fill="#B3322B" xml:space="preserve" style="white-space: pre" font-family="Noto Sans JP" font-size="18" font-weight="bold" letter-spacing="0em"><tspan x="90" y="330.2">OpenAI社のGPTシリーズ</tspan></text>
    <text fill="#2C2C2C" xml:space="preserve" style="white-space: pre" font-family="Noto Sans JP" font-size="14" letter-spacing="0em"><tspan x="90" y="360.1">• 汎用性の高いAIモデル</tspan></text>
    <text fill="#2C2C2C" xml:space="preserve" style="white-space: pre" font-family="Noto Sans JP" font-size="14" letter-spacing="0em"><tspan x="90" y="385.1">• GPT-4oが最新モデル（2023年5月リリース）</tspan></text>
    <text fill="#2C2C2C" xml:space="preserve" style="white-space: pre" font-family="Noto Sans JP" font-size="14" letter-spacing="0em"><tspan x="90" y="410.1">• マルチモーダル機能（画像、音声、テキスト）</tspan></text>
    <text fill="#2C2C2C" xml:space="preserve" style="white-space: pre" font-family="Noto Sans JP" font-size="14" letter-spacing="0em"><tspan x="90" y="435.1">• My GPTs機能でカスタムAI作成可能</tspan></text>
    <text fill="#2C2C2C" xml:space="preserve" style="white-space: pre" font-family="Noto Sans JP" font-size="14" letter-spacing="0em"><tspan x="90" y="460.1">• コンテキスト長：最大128K</tspan></text>
    
    <path d="M340 500H70V650H340V500Z" fill="#F4F1EA" stroke="#B3322B" stroke-width="2"/>
    <text fill="#B3322B" xml:space="preserve" style="white-space: pre" font-family="Noto Sans JP" font-size="18" font-weight="bold" letter-spacing="0em"><tspan x="90" y="530.2">Google Gemini</tspan></text>
    <text fill="#2C2C2C" xml:space="preserve" style="white-space: pre" font-family="Noto Sans JP" font-size="14" letter-spacing="0em"><tspan x="90" y="560.1">• Google検索との連携</tspan></text>
    <text fill="#2C2C2C" xml:space="preserve" style="white-space: pre" font-family="Noto Sans JP" font-size="14" letter-spacing="0em"><tspan x="90" y="585.1">• マルチモーダル能力</tspan></text>
    <text fill="#2C2C2C" xml:space="preserve" style="white-space: pre" font-family="Noto Sans JP" font-size="14" letter-spacing="0em"><tspan x="90" y="610.1">• NotebookLM機能</tspan></text>
    
    <path d="M610 500H350V650H610V500Z" fill="#F4F1EA" stroke="#B3322B" stroke-width="2"/>
    <text fill="#B3322B" xml:space="preserve" style="white-space: pre" font-family="Noto Sans JP" font-size="18" font-weight="bold" letter-spacing="0em"><tspan x="370" y="530.2">Anthropic Claude</tspan></text>
    <text fill="#2C2C2C" xml:space="preserve" style="white-space: pre" font-family="Noto Sans JP" font-size="14" letter-spacing="0em"><tspan x="370" y="560.1">• 安全性重視の設計</tspan></text>
    <text fill="#2C2C2C" xml:space="preserve" style="white-space: pre" font-family="Noto Sans JP" font-size="14" letter-spacing="0em"><tspan x="370" y="585.1">• 長文処理に優れる</tspan></text>
    <text fill="#2C2C2C" xml:space="preserve" style="white-space: pre" font-family="Noto Sans JP" font-size="14" letter-spacing="0em"><tspan x="370" y="610.1">• 最大200K+ tokens</tspan></text>
    
    <text fill="#B3322B" xml:space="preserve" style="white-space: pre" font-family="Noto Sans JP" font-size="20" letter-spacing="0em"><tspan x="70" y="700">📊 モデル選択のポイント</tspan></text>
    
    <path d="M610 730H70V920H610V730Z" fill="#F4F1EA" stroke="#B3322B" stroke-width="2"/>
    
    <text fill="#2C2C2C" xml:space="preserve" style="white-space: pre" font-family="Noto Sans JP" font-size="16" letter-spacing="0em"><tspan x="90" y="770.9">◯ 用途に応じた選択</tspan></text>
    <text fill="#2C2C2C" xml:space="preserve" style="white-space: pre" font-family="Noto Sans JP" font-size="14" letter-spacing="0em"><tspan x="110" y="800.1">・汎用的な使用：GPT-4o</tspan></text>
    <text fill="#2C2C2C" xml:space="preserve" style="white-space: pre" font-family="Noto Sans JP" font-size="14" letter-spacing="0em"><tspan x="110" y="825.1">・長文書類処理：Claude</tspan></text>
    <text fill="#2C2C2C" xml:space="preserve" style="white-space: pre" font-family="Noto Sans JP" font-size="14" letter-spacing="0em"><tspan x="110" y="850.1">・Google連携：Gemini</tspan></text>
    
    <text fill="#2C2C2C" xml:space="preserve" style="white-space: pre" font-family="Noto Sans JP" font-size="16" letter-spacing="0em"><tspan x="90" y="890.9">◯ レベル0.5エージェント作成ならMy GPTs</tspan></text>
    
    <text fill="#B3322B" xml:space="preserve" style="white-space: pre" font-family="Noto Sans JP" font-size="16" letter-spacing="0em"><tspan x="160" y="970.9">※本講座では主にGPT-4oを使用します</tspan></text>
    
    <!-- 中央カラム: プロンプトの重要性 -->
    <path d="M1260 160H660V1020H1260V160Z" fill="#F4F1EA" stroke="#2C2C2C" stroke-width="2"/>
    <text fill="#2C2C2C" xml:space="preserve" style="white-space: pre" font-family="Noto Serif JP" font-size="28" letter-spacing="0em"><tspan x="760" y="210.2">プロンプトエンジニアリング</tspan></text>
    <path d="M760 220H1160" stroke="#1A5B66" stroke-width="3"/>
    <path d="M760 226C763.314 226 766 223.314 766 220C766 216.686 763.314 214 760 214C756.686 214 754 216.686 754 220C754 223.314 756.686 226 760 226Z" fill="#1A5B66"/>
    <path d="M1160 226C1163.31 226 1166 223.314 1166 220C1166 216.686 1163.31 214 1160 214C1156.69 214 1154 216.686 1154 220C1154 223.314 1156.69 226 1160 226Z" fill="#1A5B66"/>
    
    <text fill="#1A5B66" xml:space="preserve" style="white-space: pre" font-family="Noto Sans JP" font-size="20" letter-spacing="0em"><tspan x="690" y="270">🧠 プロンプトの重要性</tspan></text>
    
    <path d="M1230 300H690V450H1230V300Z" fill="#F4F1EA" stroke="#1A5B66" stroke-width="2"/>
    <text fill="#1A5B66" xml:space="preserve" style="white-space: pre" font-family="Noto Sans JP" font-size="18" font-weight="bold" letter-spacing="0em"><tspan x="710" y="330.2">プロンプトとは</tspan></text>
    <text fill="#2C2C2C" xml:space="preserve" style="white-space: pre" font-family="Noto Sans JP" font-size="14" letter-spacing="0em"><tspan x="710" y="360.1">• AIに与える指示や質問のテキスト</tspan></text>
    <text fill="#2C2C2C" xml:space="preserve" style="white-space: pre" font-family="Noto Sans JP" font-size="14" letter-spacing="0em"><tspan x="710" y="385.1">• システムプロンプト：AIの行動指針</tspan></text>
    <text fill="#2C2C2C" xml:space="preserve" style="white-space: pre" font-family="Noto Sans JP" font-size="14" letter-spacing="0em"><tspan x="710" y="410.1">• プロンプトの質がAIの応答品質を左右</tspan></text>
    
    <text fill="#1A5B66" xml:space="preserve" style="white-space: pre" font-family="Noto Sans JP" font-size="20" letter-spacing="0em"><tspan x="690" y="500">🔄 システムプロンプトとは</tspan></text>
    
    <path d="M1230 530H690V650H1230V530Z" fill="#F4F1EA" stroke="#1A5B66" stroke-width="2"/>
    <text fill="#1A5B66" xml:space="preserve" style="white-space: pre" font-family="Noto Sans JP" font-size="18" font-weight="bold" letter-spacing="0em"><tspan x="710" y="560.2">AIエージェントの核となる指示文書</tspan></text>
    <text fill="#2C2C2C" xml:space="preserve" style="white-space: pre" font-family="Noto Sans JP" font-size="14" letter-spacing="0em"><tspan x="710" y="590.1">• AIの役割や行動の枠組みを定義</tspan></text>
    <text fill="#2C2C2C" xml:space="preserve" style="white-space: pre" font-family="Noto Sans JP" font-size="14" letter-spacing="0em"><tspan x="710" y="615.1">• 一貫した対話を実現するための基盤</tspan></text>
    
    <text fill="#1A5B66" xml:space="preserve" style="white-space: pre" font-family="Noto Sans JP" font-size="20" letter-spacing="0em"><tspan x="690" y="700">📝 効果的なプロンプトの要素</tspan></text>
    
    <path d="M1230 730H690V950H1230V730Z" fill="#F4F1EA" stroke="#1A5B66" stroke-width="2"/>
    
    <text fill="#1A5B66" xml:space="preserve" style="white-space: pre" font-family="Noto Sans JP" font-size="16" font-weight="bold" letter-spacing="0em"><tspan x="710" y="760.9">効果的なプロンプトの3要素</tspan></text>
    <text fill="#2C2C2C" xml:space="preserve" style="white-space: pre" font-family="Noto Sans JP" font-size="14" letter-spacing="0em"><tspan x="710" y="790.1">① 明確な指示：具体的なタスクの定義</tspan></text>
    <text fill="#2C2C2C" xml:space="preserve" style="white-space: pre" font-family="Noto Sans JP" font-size="14" letter-spacing="0em"><tspan x="710" y="820.1">② 制約条件：出力の形式や範囲の指定</tspan></text>
    <text fill="#2C2C2C" xml:space="preserve" style="white-space: pre" font-family="Noto Sans JP" font-size="14" letter-spacing="0em"><tspan x="710" y="850.1">③ コンテキスト：背景情報や前提条件</tspan></text>
    <text fill="#2C2C2C" xml:space="preserve" style="white-space: pre" font-family="Noto Sans JP" font-size="14" letter-spacing="0em"><tspan x="710" y="880.1">④ 人格設定：AIエージェントの個性</tspan></text>
    <text fill="#2C2C2C" xml:space="preserve" style="white-space: pre" font-family="Noto Sans JP" font-size="14" letter-spacing="0em"><tspan x="710" y="910.1">⑤ 例示：期待する入出力の具体例</tspan></text>
    
    <path d="M1230 970H690V1000H1230V970Z" fill="#1A5B66"/>
    <text fill="#F4F1EA" xml:space="preserve" style="white-space: pre" font-family="Noto Sans JP" font-size="16" letter-spacing="0em"><tspan x="878" y="990.9">質が9割</tspan></text>
    
    <!-- 右カラム: 実践ワークショップ -->
    <path d="M1880 160H1280V1020H1880V160Z" fill="#F4F1EA" stroke="#2C2C2C" stroke-width="2"/>
    <text fill="#2C2C2C" xml:space="preserve" style="white-space: pre" font-family="Noto Serif JP" font-size="28" letter-spacing="0em"><tspan x="1486" y="210.2">実践ワークショップ</tspan></text>
    <path d="M1380 220H1780" stroke="#653A5E" stroke-width="3"/>
    <path d="M1380 226C1383.31 226 1386 223.314 1386 220C1386 216.686 1383.31 214 1380 214C1376.69 214 1374 216.686 1374 220C1374 223.314 1376.69 226 1380 226Z" fill="#653A5E"/>
    <path d="M1780 226C1783.31 226 1786 223.314 1786 220C1786 216.686 1783.31 214 1780 214C1776.69 214 1774 216.686 1774 220C1774 223.314 1776.69 226 1780 226Z" fill="#653A5E"/>
    
    <text fill="#653A5E" xml:space="preserve" style="white-space: pre" font-family="Noto Sans JP" font-size="20" letter-spacing="0em"><tspan x="1310" y="270">✏️ 実践ワークショップ（30分）</tspan></text>
    
    <path d="M1850 300H1310V550H1850V300Z" fill="#F4F1EA" stroke="#653A5E" stroke-width="2"/>
    <text fill="#653A5E" xml:space="preserve" style="white-space: pre" font-family="Noto Sans JP" font-size="18" font-weight="bold" letter-spacing="0em"><tspan x="1330" y="330.2">自己紹介プロンプト作成ワーク</tspan></text>
    
    <path d="M1330 360C1332.21 360 1334 358.209 1334 356C1334 353.791 1332.21 352 1330 352C1327.79 352 1326 353.791 1326 356C1326 358.209 1327.79 360 1330 360Z" fill="#2C2C2C"/>
    <text fill="#2C2C2C" xml:space="preserve" style="white-space: pre" font-family="Noto Sans JP" font-size="14" letter-spacing="0em"><tspan x="1345" y="360.1">10チーム編成：2人1組のバディ制</tspan></text>
    
    <path d="M1330 390C1332.21 390 1334 388.209 1334 386C1334 383.791 1332.21 382 1330 382C1327.79 382 1326 383.791 1326 386C1326 388.209 1327.79 390 1330 390Z" fill="#2C2C2C"/>
    <text fill="#2C2C2C" xml:space="preserve" style="white-space: pre" font-family="Noto Sans JP" font-size="14" letter-spacing="0em"><tspan x="1345" y="390.1">1分間スピーチ（300文字程度）の作成</tspan></text>
    
    <path d="M1330 420C1332.21 420 1334 418.209 1334 416C1334 413.791 1332.21 412 1330 412C1327.79 412 1326 413.791 1326 416C1326 418.209 1327.79 420 1330 420Z" fill="#2C2C2C"/>
    <text fill="#2C2C2C" xml:space="preserve" style="white-space: pre" font-family="Noto Sans JP" font-size="14" letter-spacing="0em"><tspan x="1345" y="420.1">NotebookLMを活用したプロンプト構築</tspan></text>
    
    <text fill="#653A5E" xml:space="preserve" style="white-space: pre" font-family="Noto Sans JP" font-size="18" font-weight="bold" letter-spacing="0em"><tspan x="1330" y="450.2">使用ツール</tspan></text>
    <text fill="#2C2C2C" xml:space="preserve" style="white-space: pre" font-family="Noto Sans JP" font-size="14" letter-spacing="0em"><tspan x="1330" y="480.1">• NotebookLM：https://notebooklm.google/</tspan></text>
    <text fill="#2C2C2C" xml:space="preserve" style="white-space: pre" font-family="Noto Sans JP" font-size="14" letter-spacing="0em"><tspan x="1330" y="510.1">• または ChatGPT Plus （My GPTs）</tspan></text>
    
    <text fill="#653A5E" xml:space="preserve" style="white-space: pre" font-family="Noto Sans JP" font-size="20" letter-spacing="0em"><tspan x="1310" y="580">🎯 ワークの目的</tspan></text>
    
    <path d="M1850 610H1310V770H1850V610Z" fill="#F4F1EA" stroke="#653A5E" stroke-width="2"/>
    <text fill="#2C2C2C" xml:space="preserve" style="white-space: pre" font-family="Noto Sans JP" font-size="14" letter-spacing="0em"><tspan x="1330" y="640.1">• プロンプト作成の基本スキルを身につける</tspan></text>
    <text fill="#2C2C2C" xml:space="preserve" style="white-space: pre" font-family="Noto Sans JP" font-size="14" letter-spacing="0em"><tspan x="1330" y="670.1">• AIエージェント構築の基礎を実践的に学ぶ</tspan></text>
    <text fill="#2C2C2C" xml:space="preserve" style="white-space: pre" font-family="Noto Sans JP" font-size="14" letter-spacing="0em"><tspan x="1330" y="700.1">• NotebookLMの操作体験を得る</tspan></text>
    <text fill="#2C2C2C" xml:space="preserve" style="white-space: pre" font-family="Noto Sans JP" font-size="14" letter-spacing="0em"><tspan x="1330" y="730.1">• バディシステムでの協働作業を体験</tspan></text>
    
    <text fill="#653A5E" xml:space="preserve" style="white-space: pre" font-family="Noto Sans JP" font-size="20" letter-spacing="0em"><tspan x="1310" y="800">📚 Day 1のまとめと次回への準備</tspan></text>
    
    <path d="M1850 830H1310V1000H1850V830Z" fill="#F4F1EA" stroke="#653A5E" stroke-width="2"/>
    <text fill="#653A5E" xml:space="preserve" style="white-space: pre" font-family="Noto Sans JP" font-size="18" font-weight="bold" letter-spacing="0em"><tspan x="1330" y="860.2">本日のポイント</tspan></text>
    <text fill="#2C2C2C" xml:space="preserve" style="white-space: pre" font-family="Noto Sans JP" font-size="14" letter-spacing="0em"><tspan x="1330" y="890.1">• AIエージェントの概念とレベル分類</tspan></text>
    <text fill="#2C2C2C" xml:space="preserve" style="white-space: pre" font-family="Noto Sans JP" font-size="14" letter-spacing="0em"><tspan x="1330" y="915.1">• 効果的なプロンプト作成の基礎</tspan></text>
    <text fill="#2C2C2C" xml:space="preserve" style="white-space: pre" font-family="Noto Sans JP" font-size="14" letter-spacing="0em"><tspan x="1330" y="940.1">• AIエージェント活用の可能性</tspan></text>
    <text fill="#2C2C2C" xml:space="preserve" style="white-space: pre" font-family="Noto Sans JP" font-size="14" letter-spacing="0em"><tspan x="1330" y="970.1">• プロンプト実装の基本パターン</tspan></text>
    
    <!-- フッター -->
    <path d="M1920 1040H0V1080H1920V1040Z" fill="#2C2C2C"/>
    <text fill="#F4F1EA" xml:space="preserve" style="white-space: pre" font-family="Noto Sans JP" font-size="16" letter-spacing="0em"><tspan x="694.32" y="1064.9">TANREN株式会社 / 株式会社MVP | AI人材育成プログラム | 2025年春季講座</tspan></text>
  </g>
  <defs>
    <clipPath id="clip0_0_1">
      <rect width="1920" height="1080" fill="white"/>
    </clipPath>
  </defs>
</svg> 