<?xml version="1.0" encoding="UTF-8" standalone="no"?>
<svg width="1920" height="1080" viewBox="0 0 1920 1080" xmlns="http://www.w3.org/2000/svg">
  <!-- 背景 -->
  <rect width="1920" height="1080" fill="#f4f1ea"/>
  
  <!-- ヘッダーライン -->
  <rect x="40" y="40" width="1840" height="8" fill="#2c2c2c"/>
  <rect x="40" y="60" width="1840" height="3" fill="#2c2c2c"/>
  
  <!-- フッターライン -->
  <rect x="40" y="1020" width="1840" height="3" fill="#2c2c2c"/>
  <rect x="40" y="1035" width="1840" height="8" fill="#2c2c2c"/>
  
  <!-- 和風装飾（左上） -->
  <circle cx="150" cy="150" r="40" fill="#b3322b" fill-opacity="0.1"/>
  <circle cx="150" cy="150" r="60" stroke="#b3322b" stroke-width="2" fill="none"/>
  
  <!-- 和風装飾（右下） -->
  <circle cx="1770" cy="930" r="40" fill="#1a5b66" fill-opacity="0.1"/>
  <circle cx="1770" cy="930" r="60" stroke="#1a5b66" stroke-width="2" fill="none"/>
  
  <!-- 中央装飾ライン -->
  <line x1="960" y1="400" x2="960" y2="680" stroke="#2c2c2c" stroke-width="3"/>
  <circle cx="960" cy="400" r="8" fill="#653a5e"/>
  <circle cx="960" cy="680" r="8" fill="#653a5e"/>
  
  <!-- メインタイトル -->
  <text x="960" y="340" font-family="'Noto Serif JP', serif" font-size="70" font-weight="bold" text-anchor="middle" fill="#2c2c2c" letter-spacing="0.1em">IT系イノベーションフォーラム</text>
  
  <!-- 幾何学模様装飾 -->
  <rect x="730" y="370" width="460" height="4" fill="#b3322b"/>
  <rect x="830" y="385" width="260" height="4" fill="#1a5b66"/>
  
  <!-- サブタイトル -->
  <text x="960" y="480" font-family="'Noto Serif JP', serif" font-size="36" text-anchor="middle" fill="#2c2c2c" letter-spacing="0.05em">第一回 講師依頼 議事録</text>
  
  <!-- 参加者情報 -->
  <text x="960" y="580" font-family="'Noto Sans JP', sans-serif" font-size="28" text-anchor="middle" fill="#2c2c2c">
    <tspan x="960" dy="0">TANREN佐藤社長</tspan>
    <tspan x="960" dy="50">×</tspan>
    <tspan x="960" dy="50">クラウドサーカス斉藤氏</tspan>
    <tspan x="960" dy="50">×</tspan>
    <tspan x="960" dy="50">システムフォレスト富山社長</tspan>
  </text>
  
  <!-- 下部情報 -->
  <text x="960" y="900" font-family="'Noto Sans JP', sans-serif" font-size="24" text-anchor="middle" fill="#2c2c2c">打ち合わせ日：2024年4月</text>
  <text x="960" y="940" font-family="'Noto Sans JP', sans-serif" font-size="24" text-anchor="middle" fill="#2c2c2c">実施予定日：2024年5月16日（金）</text>
  
  <!-- 表紙 -->
  <text x="120" y="1060" font-family="'Noto Sans JP', sans-serif" font-size="16" fill="#2c2c2c">01</text>
  <text x="1800" y="1060" font-family="'Noto Sans JP', sans-serif" font-size="16" text-anchor="end" fill="#2c2c2c">IT系イノベーションフォーラム</text>
</svg> 