<?xml version="1.0" encoding="UTF-8"?>
<svg width="1920" height="1080" viewBox="0 0 1920 1080" xmlns="http://www.w3.org/2000/svg">
  <!-- 背景 -->
  <rect width="1920" height="1080" fill="#f4f1ea"/>
  
  <!-- ヘッダー装飾 -->
  <rect x="0" y="0" width="1920" height="65" fill="#2c2c2c"/>
  <text x="60" y="42" font-family="Noto Serif JP" font-size="24" font-weight="bold" fill="#f4f1ea">他AIとの連携とドキュメント生成機能</text>
  <rect x="60" y="65" width="3" height="25" fill="#b3322b"/>
  <rect x="70" y="65" width="3" height="25" fill="#1a5b66"/>
  <rect x="80" y="65" width="3" height="25" fill="#653a5e"/>
  
  <!-- フッター装飾 -->
  <rect x="0" y="1025" width="1920" height="55" fill="#2c2c2c"/>
  <text x="1830" y="1060" font-family="Noto Sans JP" font-size="16" fill="#f4f1ea" text-anchor="end">AI活用コンサルティング・教育および書籍執筆支援に関する相談</text>
  <text x="60" y="1060" font-family="Noto Sans JP" font-size="16" fill="#f4f1ea">4</text>
  
  <!-- 3カラムレイアウト -->
  <!-- カラム1: 他AI（Claude3）との連携 -->
  <rect x="60" y="110" width="580" height="885" fill="#ffffff" rx="5" ry="5" stroke="#2c2c2c" stroke-width="1"/>
  <rect x="60" y="110" width="580" height="50" fill="#b3322b" rx="5" ry="5"/>
  <text x="90" y="143" font-family="Noto Sans JP" font-size="20" font-weight="bold" fill="#ffffff">他AI（Claude3）との連携 🔗</text>
  
  <!-- カラム1コンテンツ -->
  <text x="90" y="195" font-family="Noto Sans JP" font-size="18" font-weight="bold" fill="#2c2c2c">複数AI連携の価値</text>
  <rect x="90" y="205" width="200" height="2" fill="#b3322b"/>
  <text x="110" y="235" font-family="Noto Sans JP" font-size="16" fill="#2c2c2c" font-weight="bold">• TANREN単体でなく他AIとの連携で価値向上</text>
  <text x="110" y="265" font-family="Noto Sans JP" font-size="16" fill="#2c2c2c">• 最新AI技術を組み合わせた活用</text>
  <text x="110" y="295" font-family="Noto Sans JP" font-size="16" fill="#2c2c2c">• Claude3.7 sonnetとの連携デモ</text>
  
  <!-- データビジュアライゼーション1 -->
  <rect x="110" y="325" width="480" height="200" fill="#f4f1ea" rx="3" ry="3"/>
  <text x="130" y="350" font-family="Noto Sans JP" font-size="16" font-weight="bold" fill="#2c2c2c">AIサービス連携の仕組み</text>
  <line x1="130" y1="360" x2="310" y2="360" stroke="#b3322b" stroke-width="2"/>
  
  <!-- AI連携図 -->
  <rect x="140" y="380" width="180" height="50" fill="#b3322b" rx="3" ry="3"/>
  <text x="230" y="412" font-family="Noto Sans JP" font-size="14" fill="#ffffff" text-anchor="middle">TANREN GPT</text>
  
  <line x1="320" y1="405" x2="380" y2="405" stroke="#2c2c2c" stroke-width="2" marker-end="url(#arrow1)"/>
  <defs>
    <marker id="arrow1" markerWidth="10" markerHeight="10" refX="9" refY="3" orient="auto" markerUnits="strokeWidth">
      <path d="M0,0 L0,6 L9,3 z" fill="#2c2c2c"/>
    </marker>
  </defs>
  
  <rect x="380" y="380" width="180" height="50" fill="#653a5e" rx="3" ry="3"/>
  <text x="470" y="412" font-family="Noto Sans JP" font-size="14" fill="#ffffff" text-anchor="middle">Claude3</text>
  
  <line x1="380" y1="430" x2="320" y2="460" stroke="#2c2c2c" stroke-width="2" marker-end="url(#arrow1)"/>
  <line x1="320" y1="460" x2="230" y2="460" stroke="#2c2c2c" stroke-width="1" stroke-dasharray="5,5"/>
  
  <text x="140" y="470" font-family="Noto Sans JP" font-size="12" fill="#2c2c2c">プロンプト</text>
  <text x="140" y="490" font-family="Noto Sans JP" font-size="12" fill="#2c2c2c">構成案生成</text>
  
  <text x="380" y="470" font-family="Noto Sans JP" font-size="12" fill="#2c2c2c">高品質な</text>
  <text x="380" y="490" font-family="Noto Sans JP" font-size="12" fill="#2c2c2c">成果物生成</text>
  
  <text x="90" y="545" font-family="Noto Sans JP" font-size="18" font-weight="bold" fill="#2c2c2c">サービス間往来の課題</text>
  <rect x="90" y="555" width="200" height="2" fill="#b3322b"/>
  <text x="110" y="585" font-family="Noto Sans JP" font-size="16" fill="#2c2c2c" font-weight="bold">• 複数AIサービスの使い分けは初心者に難しい</text>
  <text x="110" y="615" font-family="Noto Sans JP" font-size="16" fill="#2c2c2c">• サービス間の切り替えは煩雑</text>
  
  <!-- データビジュアライゼーション2 -->
  <rect x="110" y="645" width="480" height="180" fill="#f4f1ea" rx="3" ry="3"/>
  <text x="130" y="670" font-family="Noto Sans JP" font-size="16" font-weight="bold" fill="#2c2c2c">近年のAI進化の加速</text>
  <line x1="130" y1="680" x2="300" y2="680" stroke="#b3322b" stroke-width="2"/>
  
  <!-- 進化グラフ -->
  <line x1="170" y1="780" x2="510" y2="780" stroke="#2c2c2c" stroke-width="1"/>
  <line x1="170" y1="780" x2="170" y2="700" stroke="#2c2c2c" stroke-width="1"/>
  
  <text x="160" y="800" font-family="Noto Sans JP" font-size="12" fill="#2c2c2c" text-anchor="middle">1月</text>
  <text x="290" y="800" font-family="Noto Sans JP" font-size="12" fill="#2c2c2c" text-anchor="middle">2月</text>
  <text x="410" y="800" font-family="Noto Sans JP" font-size="12" fill="#2c2c2c" text-anchor="middle">3月</text>
  
  <text x="150" y="740" font-family="Noto Sans JP" font-size="10" fill="#2c2c2c" text-anchor="end">AI性能</text>
  
  <polyline points="170,760 290,740 410,710" fill="none" stroke="#b3322b" stroke-width="2"/>
  <circle cx="170" cy="760" r="4" fill="#b3322b"/>
  <circle cx="290" cy="740" r="4" fill="#b3322b"/>
  <circle cx="410" cy="710" r="4" fill="#b3322b"/>
  
  <text x="425" y="710" font-family="Noto Sans JP" font-size="12" fill="#b3322b">驚異的なスピードで進化</text>
  
  <text x="90" y="865" font-family="Noto Sans JP" font-size="18" font-weight="bold" fill="#2c2c2c">実践ポイント</text>
  <rect x="90" y="875" width="120" height="2" fill="#b3322b"/>
  <rect x="110" y="895" width="480" height="60" fill="#f4f1ea" rx="3" ry="3"/>
  <text x="130" y="925" font-family="Noto Sans JP" font-size="14" fill="#2c2c2c">• Claude3などの最新AIとの連携で高度な成果</text>
  <text x="130" y="950" font-family="Noto Sans JP" font-size="14" fill="#2c2c2c">• 各AIの強みを活かした複合的活用</text>
  
  <!-- カラム2: Claude3.7sonnetによるドキュメント生成 -->
  <rect x="670" y="110" width="580" height="885" fill="#ffffff" rx="5" ry="5" stroke="#2c2c2c" stroke-width="1"/>
  <rect x="670" y="110" width="580" height="50" fill="#1a5b66" rx="5" ry="5"/>
  <text x="700" y="143" font-family="Noto Sans JP" font-size="20" font-weight="bold" fill="#ffffff">Claude3.7sonnetによるドキュメント生成 📄</text>
  
  <!-- カラム2コンテンツ -->
  <text x="700" y="195" font-family="Noto Sans JP" font-size="18" font-weight="bold" fill="#2c2c2c">高品質なドキュメント生成能力</text>
  <rect x="700" y="205" width="200" height="2" fill="#1a5b66"/>
  <text x="720" y="235" font-family="Noto Sans JP" font-size="16" fill="#2c2c2c" font-weight="bold">• 提案書雛形の自動生成</text>
  <text x="720" y="265" font-family="Noto Sans JP" font-size="16" fill="#2c2c2c">• 洗練されたドキュメント品質</text>
  <text x="720" y="295" font-family="Noto Sans JP" font-size="16" fill="#2c2c2c">• プレゼントークの同時生成</text>
  
  <!-- データビジュアライゼーション3 -->
  <rect x="720" y="325" width="480" height="250" fill="#f4f1ea" rx="3" ry="3"/>
  <text x="740" y="350" font-family="Noto Sans JP" font-size="16" font-weight="bold" fill="#2c2c2c">ドキュメント生成例</text>
  <line x1="740" y1="360" x2="900" y2="360" stroke="#1a5b66" stroke-width="2"/>
  
  <!-- 提案書サンプル -->
  <rect x="760" y="380" width="400" height="180" fill="#ffffff" stroke="#1a5b66" stroke-width="1" rx="3" ry="3"/>
  
  <rect x="760" y="380" width="400" height="30" fill="#1a5b66" rx="3" ry="3"/>
  <text x="960" y="400" font-family="Noto Sans JP" font-size="13" fill="#ffffff" text-anchor="middle">AI活用による営業改革提案書</text>
  
  <line x1="780" y1="430" x2="1140" y2="430" stroke="#1a5b66" stroke-width="1" stroke-dasharray="2,2"/>
  <line x1="780" y1="460" x2="1140" y2="460" stroke="#1a5b66" stroke-width="1" stroke-dasharray="2,2"/>
  <line x1="780" y1="490" x2="1140" y2="490" stroke="#1a5b66" stroke-width="1" stroke-dasharray="2,2"/>
  <line x1="780" y1="520" x2="1140" y2="520" stroke="#1a5b66" stroke-width="1" stroke-dasharray="2,2"/>
  
  <rect x="780" y="535" width="80" height="15" fill="#1a5b66" opacity="0.2" rx="3" ry="3"/>
  <text x="795" y="546" font-family="Noto Sans JP" font-size="10" fill="#2c2c2c">プレゼントーク</text>
  
  <text x="700" y="615" font-family="Noto Sans JP" font-size="18" font-weight="bold" fill="#2c2c2c">他AIツール利用の推奨理由</text>
  <rect x="700" y="625" width="200" height="2" fill="#1a5b66"/>
  <text x="720" y="655" font-family="Noto Sans JP" font-size="16" fill="#2c2c2c" font-weight="bold">• 開発競争への対応</text>
  <text x="740" y="685" font-family="Noto Sans JP" font-size="14" fill="#2c2c2c">Geminiなど他のAIも急速に進化</text>
  <text x="720" y="715" font-family="Noto Sans JP" font-size="16" fill="#2c2c2c">• 自社開発だけでは対応困難</text>
  <text x="720" y="745" font-family="Noto Sans JP" font-size="16" fill="#2c2c2c">• 優れた外部ツールの活用を推奨</text>
  
  <!-- データビジュアライゼーション4 -->
  <rect x="720" y="775" width="480" height="120" fill="#f4f1ea" rx="3" ry="3"/>
  <text x="740" y="800" font-family="Noto Sans JP" font-size="16" font-weight="bold" fill="#2c2c2c">AI開発競争の構図</text>
  <line x1="740" y1="810" x2="900" y2="810" stroke="#1a5b66" stroke-width="2"/>
  
  <!-- AI開発競争マップ -->
  <rect x="770" y="830" width="100" height="30" fill="#653a5e" opacity="0.5" rx="3" ry="3"/>
  <text x="820" y="850" font-family="Noto Sans JP" font-size="12" fill="#ffffff" text-anchor="middle">Claude</text>
  
  <rect x="910" y="830" width="100" height="30" fill="#b3322b" opacity="0.5" rx="3" ry="3"/>
  <text x="960" y="850" font-family="Noto Sans JP" font-size="12" fill="#ffffff" text-anchor="middle">OpenAI</text>
  
  <rect x="1050" y="830" width="100" height="30" fill="#1a5b66" opacity="0.5" rx="3" ry="3"/>
  <text x="1100" y="850" font-family="Noto Sans JP" font-size="12" fill="#ffffff" text-anchor="middle">Gemini</text>
  
  <text x="700" y="930" font-family="Noto Sans JP" font-size="18" font-weight="bold" fill="#2c2c2c">実践ポイント</text>
  <rect x="700" y="940" width="120" height="2" fill="#1a5b66"/>
  <rect x="720" y="960" width="480" height="35" fill="#f4f1ea" rx="3" ry="3"/>
  <text x="740" y="983" font-family="Noto Sans JP" font-size="14" fill="#2c2c2c">• 最適なAIを選び、高品質文書を効率的に生成</text>
  <text x="740" y="950" font-family="Noto Sans JP" font-size="14" fill="#2c2c2c">• ナレッジベースとして組織内で共有・活用</text>
  
  <!-- カラム3: 生成物のTANRENへの取り込み -->
  <rect x="1280" y="110" width="580" height="885" fill="#ffffff" rx="5" ry="5" stroke="#2c2c2c" stroke-width="1"/>
  <rect x="1280" y="110" width="580" height="50" fill="#653a5e" rx="5" ry="5"/>
  <text x="1310" y="143" font-family="Noto Sans JP" font-size="20" font-weight="bold" fill="#ffffff">生成物のTANRENへの取り込み 📚</text>
  
  <!-- カラム3コンテンツ -->
  <text x="1310" y="195" font-family="Noto Sans JP" font-size="18" font-weight="bold" fill="#2c2c2c">メディアライブラリ機能</text>
  <rect x="1310" y="205" width="200" height="2" fill="#653a5e"/>
  <text x="1330" y="235" font-family="Noto Sans JP" font-size="16" fill="#2c2c2c" font-weight="bold">• PDF等のアップロード機能</text>
  <text x="1330" y="265" font-family="Noto Sans JP" font-size="16" fill="#2c2c2c">• 様々な資料を一元管理</text>
  <text x="1350" y="295" font-family="Noto Sans JP" font-size="14" fill="#2c2c2c">- 成功事例のスライド</text>
  <text x="1350" y="325" font-family="Noto Sans JP" font-size="14" fill="#2c2c2c">- 業務マニュアル</text>
  <text x="1350" y="355" font-family="Noto Sans JP" font-size="14" fill="#2c2c2c">- 参考動画</text>
  
  <!-- データビジュアライゼーション5 -->
  <rect x="1330" y="385" width="480" height="170" fill="#f4f1ea" rx="3" ry="3"/>
  <text x="1350" y="410" font-family="Noto Sans JP" font-size="16" font-weight="bold" fill="#2c2c2c">メディアライブラリのコンセプト</text>
  <line x1="1350" y1="420" x2="1580" y2="420" stroke="#653a5e" stroke-width="2"/>
  
  <!-- ライブラリイメージ -->
  <rect x="1380" y="440" width="380" height="100" fill="#ffffff" stroke="#653a5e" stroke-width="1" rx="3" ry="3"/>
  
  <rect x="1380" y="440" width="380" height="30" fill="#653a5e" rx="3" ry="3"/>
  <text x="1570" y="460" font-family="Noto Sans JP" font-size="13" fill="#ffffff" text-anchor="middle">TANREN メディアライブラリ</text>
  
  <rect x="1400" y="480" width="60" height="60" fill="#b3322b" opacity="0.2"/>
  <text x="1430" y="510" font-family="Noto Sans JP" font-size="12" fill="#2c2c2c" text-anchor="middle">PDF</text>
  
  <rect x="1470" y="480" width="60" height="60" fill="#1a5b66" opacity="0.2"/>
  <text x="1500" y="510" font-family="Noto Sans JP" font-size="12" fill="#2c2c2c" text-anchor="middle">動画</text>
  
  <rect x="1540" y="480" width="60" height="60" fill="#653a5e" opacity="0.2"/>
  <text x="1570" y="510" font-family="Noto Sans JP" font-size="12" fill="#2c2c2c" text-anchor="middle">画像</text>
  
  <rect x="1610" y="480" width="60" height="60" fill="#2c2c2c" opacity="0.2"/>
  <text x="1640" y="510" font-family="Noto Sans JP" font-size="12" fill="#2c2c2c" text-anchor="middle">音声</text>
  
  <text x="1310" y="595" font-family="Noto Sans JP" font-size="18" font-weight="bold" fill="#2c2c2c">ピンポイントキーワード集機能</text>
  <rect x="1310" y="605" width="200" height="2" fill="#653a5e"/>
  <text x="1330" y="635" font-family="Noto Sans JP" font-size="16" fill="#2c2c2c" font-weight="bold">• 動画内の重要箇所へのタイムスタンプ付きコメント</text>
  <text x="1330" y="665" font-family="Noto Sans JP" font-size="16" fill="#2c2c2c">• AIによるコメントの補強・重厚化</text>
  
  <!-- データビジュアライゼーション6 -->
  <rect x="1330" y="695" width="480" height="130" fill="#f4f1ea" rx="3" ry="3"/>
  <text x="1350" y="720" font-family="Noto Sans JP" font-size="16" font-weight="bold" fill="#2c2c2c">タイムスタンプ付きコメント例</text>
  <line x1="1350" y1="730" x2="1600" y2="730" stroke="#653a5e" stroke-width="2"/>
  
  <!-- コメント例 -->
  <rect x="1370" y="750" width="400" height="60" fill="#653a5e" opacity="0.1" rx="3" ry="3"/>
  <text x="1380" y="770" font-family="Noto Sans JP" font-size="13" fill="#2c2c2c">【00:15:23】顧客のニーズ分析手法について</text>
  <text x="1380" y="795" font-family="Noto Sans JP" font-size="12" fill="#2c2c2c">AIが自動補強：「このセクションでは、市場調査データと...</text>
  
  <text x="1310" y="865" font-family="Noto Sans JP" font-size="18" font-weight="bold" fill="#2c2c2c">実践ポイント</text>
  <rect x="1310" y="875" width="120" height="2" fill="#653a5e"/>
  <rect x="1330" y="895" width="480" height="60" fill="#f4f1ea" rx="3" ry="3"/>
  <text x="1350" y="925" font-family="Noto Sans JP" font-size="14" fill="#2c2c2c">• 外部AIで生成した資料をTANRENで一元管理</text>
  <text x="1350" y="950" font-family="Noto Sans JP" font-size="14" fill="#2c2c2c">• ナレッジベースとして組織内で共有・活用</text>
</svg> 