<?xml version="1.0" encoding="UTF-8"?>
<svg width="1920" height="1080" viewBox="0 0 1920 1080" xmlns="http://www.w3.org/2000/svg">
  <!-- 背景 -->
  <rect width="1920" height="1080" fill="#f4f1ea"/>
  
  <!-- ヘッダー装飾 -->
  <rect x="0" y="0" width="1920" height="65" fill="#2c2c2c"/>
  <text x="60" y="42" font-family="Noto Serif JP" font-size="24" font-weight="bold" fill="#f4f1ea">相談内容とソリューション概要</text>
  <rect x="60" y="65" width="3" height="25" fill="#b3322b"/>
  <rect x="70" y="65" width="3" height="25" fill="#1a5b66"/>
  <rect x="80" y="65" width="3" height="25" fill="#653a5e"/>
  
  <!-- フッター装飾 -->
  <rect x="0" y="1025" width="1920" height="55" fill="#2c2c2c"/>
  <text x="1830" y="1060" font-family="Noto Sans JP" font-size="16" fill="#f4f1ea" text-anchor="end">AI活用コンサルティング・教育および書籍執筆支援に関する相談</text>
  <text x="60" y="1060" font-family="Noto Sans JP" font-size="16" fill="#f4f1ea">1</text>
  
  <!-- 3カラムレイアウト -->
  <!-- カラム1: 内山氏の相談内容 -->
  <rect x="60" y="110" width="580" height="885" fill="#ffffff" rx="5" ry="5" stroke="#2c2c2c" stroke-width="1"/>
  <rect x="60" y="110" width="580" height="50" fill="#b3322b" rx="5" ry="5"/>
  <text x="90" y="143" font-family="Noto Sans JP" font-size="20" font-weight="bold" fill="#ffffff">内山氏からの相談内容 🔍</text>
  
  <!-- カラム1コンテンツ -->
  <text x="90" y="195" font-family="Noto Sans JP" font-size="18" font-weight="bold" fill="#2c2c2c">AI活用コンサル・教育への関心</text>
  <rect x="90" y="205" width="200" height="2" fill="#b3322b"/>
  <text x="110" y="235" font-family="Noto Sans JP" font-size="16" fill="#2c2c2c">• 教育プログラムへの関心</text>
  <text x="130" y="265" font-family="Noto Sans JP" font-size="14" fill="#2c2c2c">具体的なプログラム内容の確認要望</text>
  <text x="110" y="295" font-family="Noto Sans JP" font-size="16" fill="#2c2c2c">• 自身のAI学習意欲</text>
  
  <!-- データビジュアライゼーション1 -->
  <rect x="110" y="320" width="480" height="120" fill="#f4f1ea" rx="3" ry="3"/>
  <text x="130" y="345" font-family="Noto Sans JP" font-size="16" font-weight="bold" fill="#2c2c2c">AI活用への課題認識</text>
  <line x1="130" y1="355" x2="330" y2="355" stroke="#b3322b" stroke-width="2"/>
  <rect x="150" y="370" width="180" height="25" fill="#1a5b66" opacity="0.2"/>
  <rect x="150" y="400" width="390" height="25" fill="#b3322b" opacity="0.2"/>
  <text x="140" y="390" font-family="Noto Sans JP" font-size="14" fill="#2c2c2c">時間的制約:</text>
  <text x="340" y="390" font-family="Noto Sans JP" font-size="14" fill="#2c2c2c">少</text>
  <text x="140" y="420" font-family="Noto Sans JP" font-size="14" fill="#2c2c2c">AI活用ニーズ:</text>
  <text x="340" y="420" font-family="Noto Sans JP" font-size="14" fill="#2c2c2c">高</text>
  
  <text x="90" y="490" font-family="Noto Sans JP" font-size="18" font-weight="bold" fill="#2c2c2c">書籍執筆におけるAI活用ニーズ</text>
  <rect x="90" y="500" width="200" height="2" fill="#b3322b"/>
  <text x="110" y="530" font-family="Noto Sans JP" font-size="16" fill="#2c2c2c">• 自治体向け営業改革の書籍執筆必要性</text>
  <text x="130" y="560" font-family="Noto Sans JP" font-size="14" fill="#2c2c2c">- 急遽必要となった執筆案件</text>
  <text x="130" y="585" font-family="Noto Sans JP" font-size="14" fill="#2c2c2c">- 本業があり執筆時間の制約</text>
  <text x="110" y="615" font-family="Noto Sans JP" font-size="16" fill="#2c2c2c" font-weight="bold">• AIによる執筆代行の可能性模索</text>
  
  <!-- データビジュアライゼーション2 -->
  <rect x="110" y="640" width="480" height="200" fill="#f4f1ea" rx="3" ry="3"/>
  <text x="130" y="665" font-family="Noto Sans JP" font-size="16" font-weight="bold" fill="#2c2c2c">内山氏のニーズマップ</text>
  <line x1="130" y1="675" x2="330" y2="675" stroke="#b3322b" stroke-width="2"/>
  
  <!-- ニーズマップ -->
  <rect x="140" y="690" width="180" height="30" fill="#2c2c2c"/>
  <text x="230" y="712" font-family="Noto Sans JP" font-size="14" fill="#ffffff" text-anchor="middle">緊急度</text>
  <rect x="140" y="720" width="60" height="100" fill="#f4f1ea" stroke="#2c2c2c" stroke-width="1"/>
  <rect x="200" y="720" width="60" height="100" fill="#f4f1ea" stroke="#2c2c2c" stroke-width="1"/>
  <rect x="260" y="720" width="60" height="100" fill="#f4f1ea" stroke="#2c2c2c" stroke-width="1"/>
  <text x="170" y="775" font-family="Noto Sans JP" font-size="14" fill="#2c2c2c" text-anchor="middle">低</text>
  <text x="230" y="775" font-family="Noto Sans JP" font-size="14" fill="#2c2c2c" text-anchor="middle">中</text>
  <text x="290" y="775" font-family="Noto Sans JP" font-size="14" fill="#2c2c2c" text-anchor="middle">高</text>
  
  <rect x="140" y="690" width="60" height="130" fill="#2c2c2c"/>
  <text x="170" y="755" font-family="Noto Sans JP" font-size="14" fill="#ffffff" text-anchor="middle" transform="rotate(-90, 170, 755)">重要度</text>
  
  <!-- アイコン配置 -->
  <circle cx="230" cy="740" r="15" fill="#1a5b66"/>
  <text x="230" y="745" font-family="Noto Sans JP" font-size="12" fill="#ffffff" text-anchor="middle">AI教育</text>
  <circle cx="290" cy="780" r="15" fill="#b3322b"/>
  <text x="290" y="785" font-family="Noto Sans JP" font-size="12" fill="#ffffff" text-anchor="middle">書籍</text>
  
  <text x="90" y="890" font-family="Noto Sans JP" font-size="18" font-weight="bold" fill="#2c2c2c">実践ポイント</text>
  <rect x="90" y="900" width="120" height="2" fill="#b3322b"/>
  <rect x="110" y="920" width="480" height="60" fill="#f4f1ea" rx="3" ry="3"/>
  <text x="130" y="950" font-family="Noto Sans JP" font-size="14" fill="#2c2c2c">• AI活用教育と書籍執筆支援は優先度高</text>
  <text x="130" y="975" font-family="Noto Sans JP" font-size="14" fill="#2c2c2c">• 協業形態の明確化が必要</text>
  
  <!-- カラム2: TANRENのAI活用ソリューション -->
  <rect x="670" y="110" width="580" height="885" fill="#ffffff" rx="5" ry="5" stroke="#2c2c2c" stroke-width="1"/>
  <rect x="670" y="110" width="580" height="50" fill="#1a5b66" rx="5" ry="5"/>
  <text x="700" y="143" font-family="Noto Sans JP" font-size="20" font-weight="bold" fill="#ffffff">TANRENのAI活用ソリューション 🛠️</text>
  
  <!-- カラム2コンテンツ -->
  <text x="700" y="195" font-family="Noto Sans JP" font-size="18" font-weight="bold" fill="#2c2c2c">TANRENにおけるAI活用事例</text>
  <rect x="700" y="205" width="200" height="2" fill="#1a5b66"/>
  <text x="720" y="235" font-family="Noto Sans JP" font-size="16" fill="#2c2c2c">• マーケティングからカスタマーセンターまで</text>
  <text x="720" y="265" font-family="Noto Sans JP" font-size="16" fill="#2c2c2c">• フィールドセールスでの活用事例</text>
  
  <!-- データビジュアライゼーション3 -->
  <rect x="720" y="290" width="480" height="120" fill="#f4f1ea" rx="3" ry="3"/>
  <text x="740" y="315" font-family="Noto Sans JP" font-size="16" font-weight="bold" fill="#2c2c2c">AI活用による効率化</text>
  <line x1="740" y1="325" x2="900" y2="325" stroke="#1a5b66" stroke-width="2"/>
  
  <!-- 効率化データ -->
  <text x="740" y="350" font-family="Noto Sans JP" font-size="14" fill="#2c2c2c">企画立案時間:</text>
  <rect x="850" y="337" width="140" height="20" fill="#1a5b66" opacity="0.2"/>
  <text x="830" y="350" font-family="Noto Sans JP" font-size="14" fill="#2c2c2c">1週間</text>
  <text x="1010" y="350" font-family="Noto Sans JP" font-size="14" fill="#2c2c2c">→</text>
  <text x="1050" y="350" font-family="Noto Sans JP" font-size="16" font-weight="bold" fill="#b3322b">30分</text>
  
  <text x="740" y="380" font-family="Noto Sans JP" font-size="14" fill="#2c2c2c">会議録作成:</text>
  <rect x="850" y="367" width="140" height="20" fill="#1a5b66" opacity="0.2"/>
  <text x="830" y="380" font-family="Noto Sans JP" font-size="14" fill="#2c2c2c">手動</text>
  <text x="1010" y="380" font-family="Noto Sans JP" font-size="14" fill="#2c2c2c">→</text>
  <text x="1050" y="380" font-family="Noto Sans JP" font-size="16" font-weight="bold" fill="#b3322b">自動化</text>
  
  <text x="700" y="445" font-family="Noto Sans JP" font-size="18" font-weight="bold" fill="#2c2c2c">AI研修プログラムの詳細</text>
  <rect x="700" y="455" width="200" height="2" fill="#1a5b66"/>
  <text x="720" y="485" font-family="Noto Sans JP" font-size="16" fill="#2c2c2c" font-weight="bold">• プロンプト習得の重要性</text>
  <text x="740" y="515" font-family="Noto Sans JP" font-size="14" fill="#2c2c2c">AI活用の基本としてのプロンプト理解</text>
  <text x="720" y="545" font-family="Noto Sans JP" font-size="16" fill="#2c2c2c">• カスタマイズAI研修の必要性</text>
  <text x="740" y="575" font-family="Noto Sans JP" font-size="14" fill="#2c2c2c">部門別ニーズへの対応</text>
  
  <!-- データビジュアライゼーション4 -->
  <rect x="720" y="600" width="480" height="180" fill="#f4f1ea" rx="3" ry="3"/>
  <text x="740" y="625" font-family="Noto Sans JP" font-size="16" font-weight="bold" fill="#2c2c2c">研修・セミナー比較</text>
  <line x1="740" y1="635" x2="900" y2="635" stroke="#1a5b66" stroke-width="2"/>
  
  <!-- 比較表 -->
  <rect x="740" y="650" width="150" height="30" fill="#1a5b66"/>
  <rect x="890" y="650" width="150" height="30" fill="#1a5b66"/>
  <text x="815" y="672" font-family="Noto Sans JP" font-size="14" fill="#ffffff" text-anchor="middle">研修</text>
  <text x="965" y="672" font-family="Noto Sans JP" font-size="14" fill="#ffffff" text-anchor="middle">セミナー</text>
  
  <rect x="740" y="680" width="150" height="30" fill="#f4f1ea" stroke="#1a5b66" stroke-width="1"/>
  <rect x="890" y="680" width="150" height="30" fill="#f4f1ea" stroke="#1a5b66" stroke-width="1"/>
  <text x="750" y="700" font-family="Noto Sans JP" font-size="12" fill="#2c2c2c">目的:</text>
  <text x="815" y="700" font-family="Noto Sans JP" font-size="12" fill="#2c2c2c" text-anchor="middle">スキル習得</text>
  <text x="965" y="700" font-family="Noto Sans JP" font-size="12" fill="#2c2c2c" text-anchor="middle">危機感醸成</text>
  
  <rect x="740" y="710" width="150" height="30" fill="#f4f1ea" stroke="#1a5b66" stroke-width="1"/>
  <rect x="890" y="710" width="150" height="30" fill="#f4f1ea" stroke="#1a5b66" stroke-width="1"/>
  <text x="750" y="730" font-family="Noto Sans JP" font-size="12" fill="#2c2c2c">内容:</text>
  <text x="815" y="730" font-family="Noto Sans JP" font-size="12" fill="#2c2c2c" text-anchor="middle">具体的な方法</text>
  <text x="965" y="730" font-family="Noto Sans JP" font-size="12" fill="#2c2c2c" text-anchor="middle">意識改革</text>
  
  <rect x="740" y="740" width="150" height="30" fill="#f4f1ea" stroke="#1a5b66" stroke-width="1"/>
  <rect x="890" y="740" width="150" height="30" fill="#f4f1ea" stroke="#1a5b66" stroke-width="1"/>
  <text x="750" y="760" font-family="Noto Sans JP" font-size="12" fill="#2c2c2c">位置づけ:</text>
  <text x="815" y="760" font-family="Noto Sans JP" font-size="12" fill="#2c2c2c" text-anchor="middle">本格的学習</text>
  <text x="965" y="760" font-family="Noto Sans JP" font-size="12" fill="#2c2c2c" text-anchor="middle">ステップ1</text>
  
  <text x="700" y="820" font-family="Noto Sans JP" font-size="18" font-weight="bold" fill="#2c2c2c">実践ポイント</text>
  <rect x="700" y="830" width="120" height="2" fill="#1a5b66"/>
  <rect x="720" y="850" width="480" height="60" fill="#f4f1ea" rx="3" ry="3"/>
  <text x="740" y="880" font-family="Noto Sans JP" font-size="14" fill="#2c2c2c">• プロンプト研修が全ての基礎</text>
  <text x="740" y="905" font-family="Noto Sans JP" font-size="14" fill="#2c2c2c">• カスタマイズ研修前にプロンプト研修受講が条件</text>
  
  <!-- カラム3: 1on1アドバイザリーについて -->
  <rect x="1280" y="110" width="580" height="885" fill="#ffffff" rx="5" ry="5" stroke="#2c2c2c" stroke-width="1"/>
  <rect x="1280" y="110" width="580" height="50" fill="#653a5e" rx="5" ry="5"/>
  <text x="1310" y="143" font-family="Noto Sans JP" font-size="20" font-weight="bold" fill="#ffffff">1on1アドバイザリーについて 📚</text>
  
  <!-- カラム3コンテンツ -->
  <text x="1310" y="195" font-family="Noto Sans JP" font-size="18" font-weight="bold" fill="#2c2c2c">大手企業でのアドバイザリー実績</text>
  <rect x="1310" y="205" width="200" height="2" fill="#653a5e"/>
  <text x="1330" y="235" font-family="Noto Sans JP" font-size="16" fill="#2c2c2c">• 1on1形式での相談が主流</text>
  
  <text x="1310" y="285" font-family="Noto Sans JP" font-size="18" font-weight="bold" fill="#2c2c2c">プロトコル（リテラシー）の不一致問題</text>
  <rect x="1310" y="295" width="200" height="2" fill="#653a5e"/>
  <text x="1330" y="325" font-family="Noto Sans JP" font-size="16" fill="#2c2c2c" font-weight="bold">• コミュニケーション障壁</text>
  <text x="1350" y="355" font-family="Noto Sans JP" font-size="14" fill="#2c2c2c">AIリテラシーの差が相互理解を妨げる</text>
  
  <!-- データビジュアライゼーション5 -->
  <rect x="1330" y="380" width="480" height="140" fill="#f4f1ea" rx="3" ry="3"/>
  <text x="1350" y="405" font-family="Noto Sans JP" font-size="16" font-weight="bold" fill="#2c2c2c">言語の比喩</text>
  <line x1="1350" y1="415" x2="1480" y2="415" stroke="#653a5e" stroke-width="2"/>
  
  <!-- 比喩図 -->
  <rect x="1360" y="430" width="180" height="35" fill="#653a5e" opacity="0.2"/>
  <rect x="1360" y="470" width="180" height="35" fill="#653a5e" opacity="0.2"/>
  <rect x="1590" y="430" width="180" height="35" fill="#653a5e" opacity="0.2"/>
  <rect x="1590" y="470" width="180" height="35" fill="#653a5e" opacity="0.2"/>
  
  <text x="1450" y="455" font-family="Noto Sans JP" font-size="14" fill="#2c2c2c" text-anchor="middle">Python</text>
  <text x="1450" y="495" font-family="Noto Sans JP" font-size="14" fill="#2c2c2c" text-anchor="middle">英語</text>
  <text x="1680" y="455" font-family="Noto Sans JP" font-size="14" fill="#2c2c2c" text-anchor="middle">C言語</text>
  <text x="1680" y="495" font-family="Noto Sans JP" font-size="14" fill="#2c2c2c" text-anchor="middle">フランス語</text>
  
  <line x1="1540" y1="450" x2="1590" y2="450" stroke="#2c2c2c" stroke-width="1" stroke-dasharray="5,5"/>
  <line x1="1540" y1="490" x2="1590" y2="490" stroke="#2c2c2c" stroke-width="1" stroke-dasharray="5,5"/>
  
  <text x="1310" y="560" font-family="Noto Sans JP" font-size="18" font-weight="bold" fill="#2c2c2c">1on1実施の前提条件</text>
  <rect x="1310" y="570" width="200" height="2" fill="#653a5e"/>
  <text x="1330" y="600" font-family="Noto Sans JP" font-size="16" fill="#2c2c2c" font-weight="bold">• 研修受講によるプロトコル合わせの推奨</text>
  <text x="1350" y="630" font-family="Noto Sans JP" font-size="14" fill="#2c2c2c">円滑なコミュニケーションのための「佐藤流」理解</text>
  
  <!-- データビジュアライゼーション6 -->
  <rect x="1330" y="660" width="480" height="140" fill="#f4f1ea" rx="3" ry="3"/>
  <text x="1350" y="685" font-family="Noto Sans JP" font-size="16" font-weight="bold" fill="#2c2c2c">理想的なステップ</text>
  <line x1="1350" y1="695" x2="1510" y2="695" stroke="#653a5e" stroke-width="2"/>
  
  <!-- フロー図 -->
  <rect x="1350" y="715" width="120" height="35" fill="#2c2c2c" rx="3" ry="3"/>
  <text x="1410" y="738" font-family="Noto Sans JP" font-size="14" fill="#ffffff" text-anchor="middle">セミナー</text>
  
  <line x1="1470" y1="732" x2="1500" y2="732" stroke="#2c2c2c" stroke-width="2" marker-end="url(#arrow)"/>
  <defs>
    <marker id="arrow" markerWidth="10" markerHeight="10" refX="9" refY="3" orient="auto" markerUnits="strokeWidth">
      <path d="M0,0 L0,6 L9,3 z" fill="#2c2c2c"/>
    </marker>
  </defs>
  
  <rect x="1500" y="715" width="120" height="35" fill="#1a5b66" rx="3" ry="3"/>
  <text x="1560" y="738" font-family="Noto Sans JP" font-size="14" fill="#ffffff" text-anchor="middle">プロンプト研修</text>
  
  <line x1="1560" y1="750" x2="1560" y2="765" stroke="#2c2c2c" stroke-width="2" marker-end="url(#arrow)"/>
  
  <rect x="1500" y="765" width="120" height="35" fill="#653a5e" rx="3" ry="3"/>
  <text x="1560" y="788" font-family="Noto Sans JP" font-size="14" fill="#ffffff" text-anchor="middle">1on1アドバイザリー</text>
  
  <text x="1310" y="845" font-family="Noto Sans JP" font-size="18" font-weight="bold" fill="#2c2c2c">実践ポイント</text>
  <rect x="1310" y="855" width="120" height="2" fill="#653a5e"/>
  <rect x="1330" y="875" width="480" height="60" fill="#f4f1ea" rx="3" ry="3"/>
  <text x="1350" y="905" font-family="Noto Sans JP" font-size="14" fill="#2c2c2c">• 最低限プロンプト研修を受講することが望ましい</text>
  <text x="1350" y="930" font-family="Noto Sans JP" font-size="14" fill="#2c2c2c">• リテラシーの差によるミスリード回避が重要</text>
</svg> 