<?xml version="1.0" encoding="UTF-8"?>
<svg width="1920" height="1080" viewBox="0 0 1920 1080" xmlns="http://www.w3.org/2000/svg">
  <!-- 背景 -->
  <rect width="1920" height="1080" fill="#f4f1ea"/>
  
  <!-- ヘッダー装飾 -->
  <rect x="0" y="0" width="1920" height="65" fill="#2c2c2c"/>
  <text x="60" y="42" font-family="Noto Serif JP" font-size="24" font-weight="bold" fill="#f4f1ea">TANREN導入検討と書籍執筆支援</text>
  <rect x="60" y="65" width="3" height="25" fill="#b3322b"/>
  <rect x="70" y="65" width="3" height="25" fill="#1a5b66"/>
  <rect x="80" y="65" width="3" height="25" fill="#653a5e"/>
  
  <!-- フッター装飾 -->
  <rect x="0" y="1025" width="1920" height="55" fill="#2c2c2c"/>
  <text x="1830" y="1060" font-family="Noto Sans JP" font-size="16" fill="#f4f1ea" text-anchor="end">AI活用コンサルティング・教育および書籍執筆支援に関する相談</text>
  <text x="60" y="1060" font-family="Noto Sans JP" font-size="16" fill="#f4f1ea">5</text>
  
  <!-- 3カラムレイアウト -->
  <!-- カラム1: TANREN導入の検討 -->
  <rect x="60" y="110" width="580" height="885" fill="#ffffff" rx="5" ry="5" stroke="#2c2c2c" stroke-width="1"/>
  <rect x="60" y="110" width="580" height="50" fill="#b3322b" rx="5" ry="5"/>
  <text x="90" y="143" font-family="Noto Sans JP" font-size="20" font-weight="bold" fill="#ffffff">TANREN導入の検討 💼</text>
  
  <!-- カラム1コンテンツ -->
  <text x="90" y="195" font-family="Noto Sans JP" font-size="18" font-weight="bold" fill="#2c2c2c">内山氏のTANREN評価ポイント</text>
  <rect x="90" y="205" width="200" height="2" fill="#b3322b"/>
  <text x="110" y="235" font-family="Noto Sans JP" font-size="16" fill="#2c2c2c" font-weight="bold">• 700円プランの費用対効果</text>
  <text x="130" y="265" font-family="Noto Sans JP" font-size="14" fill="#2c2c2c">ChatGPT（月額3000円）に比べて低コスト</text>
  <text x="110" y="295" font-family="Noto Sans JP" font-size="16" fill="#2c2c2c" font-weight="bold">• エージェント機能の魅力</text>
  <text x="130" y="325" font-family="Noto Sans JP" font-size="14" fill="#2c2c2c">プリセットされたエージェントによる高度な活用</text>
  
  <!-- データビジュアライゼーション1 -->
  <rect x="110" y="355" width="480" height="170" fill="#f4f1ea" rx="3" ry="3"/>
  <text x="130" y="380" font-family="Noto Sans JP" font-size="16" font-weight="bold" fill="#2c2c2c">ChatGPTとTANRENの月額費用比較</text>
  <line x1="130" y1="390" x2="430" y2="390" stroke="#b3322b" stroke-width="2"/>
  
  <!-- 棒グラフ -->
  <rect x="170" y="410" width="100" height="30" fill="#2c2c2c" rx="3" ry="3"/>
  <text x="220" y="430" font-family="Noto Sans JP" font-size="14" fill="#ffffff" text-anchor="middle">サービス名</text>
  <rect x="270" y="410" width="100" height="30" fill="#2c2c2c" rx="3" ry="3"/>
  <text x="320" y="430" font-family="Noto Sans JP" font-size="14" fill="#ffffff" text-anchor="middle">月額/ID</text>
  <rect x="370" y="410" width="100" height="30" fill="#2c2c2c" rx="3" ry="3"/>
  <text x="420" y="430" font-family="Noto Sans JP" font-size="14" fill="#ffffff" text-anchor="middle">特徴</text>
  
  <rect x="170" y="440" width="100" height="35" fill="#f4f1ea" stroke="#2c2c2c" stroke-width="1"/>
  <rect x="270" y="440" width="100" height="35" fill="#f4f1ea" stroke="#2c2c2c" stroke-width="1"/>
  <rect x="370" y="440" width="100" height="35" fill="#f4f1ea" stroke="#2c2c2c" stroke-width="1"/>
  <text x="220" y="463" font-family="Noto Sans JP" font-size="12" fill="#2c2c2c" text-anchor="middle">ChatGPT</text>
  <text x="320" y="463" font-family="Noto Sans JP" font-size="12" fill="#2c2c2c" text-anchor="middle">3,000円</text>
  <text x="420" y="463" font-family="Noto Sans JP" font-size="12" fill="#2c2c2c" text-anchor="middle">使い放題</text>
  
  <rect x="170" y="475" width="100" height="35" fill="#f4f1ea" stroke="#2c2c2c" stroke-width="1"/>
  <rect x="270" y="475" width="100" height="35" fill="#f4f1ea" stroke="#2c2c2c" stroke-width="1"/>
  <rect x="370" y="475" width="100" height="35" fill="#f4f1ea" stroke="#2c2c2c" stroke-width="1"/>
  <text x="220" y="498" font-family="Noto Sans JP" font-size="12" fill="#b3322b" font-weight="bold" text-anchor="middle">TANREN</text>
  <text x="320" y="498" font-family="Noto Sans JP" font-size="12" fill="#b3322b" font-weight="bold" text-anchor="middle">700円</text>
  <text x="420" y="498" font-family="Noto Sans JP" font-size="12" fill="#2c2c2c" text-anchor="middle">エージェント機能</text>
  
  <text x="90" y="565" font-family="Noto Sans JP" font-size="18" font-weight="bold" fill="#2c2c2c">顧客展開の可能性</text>
  <rect x="90" y="575" width="200" height="2" fill="#b3322b"/>
  <text x="110" y="605" font-family="Noto Sans JP" font-size="16" fill="#2c2c2c">• 自社顧客へのAI活用方法提供</text>
  <text x="110" y="635" font-family="Noto Sans JP" font-size="16" fill="#2c2c2c" font-weight="bold">• 社内での実践が前提</text>
  
  <!-- データビジュアライゼーション2 -->
  <rect x="110" y="665" width="480" height="170" fill="#f4f1ea" rx="3" ry="3"/>
  <text x="130" y="690" font-family="Noto Sans JP" font-size="16" font-weight="bold" fill="#2c2c2c">導入検討の流れ</text>
  <line x1="130" y1="700" x2="300" y2="700" stroke="#b3322b" stroke-width="2"/>
  
  <!-- フロー図 -->
  <rect x="160" y="720" width="120" height="35" fill="#b3322b" opacity="0.7" rx="3" ry="3"/>
  <text x="220" y="743" font-family="Noto Sans JP" font-size="14" fill="#ffffff" text-anchor="middle">自社内実践</text>
  
  <line x1="220" y1="755" x2="220" y2="775" stroke="#2c2c2c" stroke-width="2" marker-end="url(#arrow5)"/>
  <defs>
    <marker id="arrow5" markerWidth="10" markerHeight="10" refX="9" refY="3" orient="auto" markerUnits="strokeWidth">
      <path d="M0,0 L0,6 L9,3 z" fill="#2c2c2c"/>
    </marker>
  </defs>
  
  <rect x="160" y="775" width="120" height="35" fill="#b3322b" opacity="0.7" rx="3" ry="3"/>
  <text x="220" y="798" font-family="Noto Sans JP" font-size="14" fill="#ffffff" text-anchor="middle">ノウハウ蓄積</text>
  
  <line x1="280" y1="793" x2="320" y2="793" stroke="#2c2c2c" stroke-width="2" marker-end="url(#arrow5)"/>
  
  <rect x="320" y="775" width="120" height="35" fill="#b3322b" opacity="0.7" rx="3" ry="3"/>
  <text x="380" y="798" font-family="Noto Sans JP" font-size="14" fill="#ffffff" text-anchor="middle">顧客展開</text>
  
  <text x="90" y="875" font-family="Noto Sans JP" font-size="18" font-weight="bold" fill="#2c2c2c">実践ポイント</text>
  <rect x="90" y="885" width="120" height="2" fill="#b3322b"/>
  <rect x="110" y="905" width="480" height="60" fill="#f4f1ea" rx="3" ry="3"/>
  <text x="130" y="935" font-family="Noto Sans JP" font-size="14" fill="#2c2c2c">• 20ID程度の導入を社内で検討</text>
  <text x="130" y="960" font-family="Noto Sans JP" font-size="14" fill="#2c2c2c">• 自社実践を通じて顧客展開の可能性を探る</text>
  
  <!-- カラム2: 料金体系と具体的導入プラン -->
  <rect x="670" y="110" width="580" height="885" fill="#ffffff" rx="5" ry="5" stroke="#2c2c2c" stroke-width="1"/>
  <rect x="670" y="110" width="580" height="50" fill="#1a5b66" rx="5" ry="5"/>
  <text x="700" y="143" font-family="Noto Sans JP" font-size="20" font-weight="bold" fill="#ffffff">料金体系と具体的導入プラン 💲</text>
  
  <!-- カラム2コンテンツ -->
  <text x="700" y="195" font-family="Noto Sans JP" font-size="18" font-weight="bold" fill="#2c2c2c">セットプランの提案</text>
  <rect x="700" y="205" width="200" height="2" fill="#1a5b66"/>
  <text x="720" y="235" font-family="Noto Sans JP" font-size="16" fill="#2c2c2c">• 最小構成（5ID）での導入例</text>
  <text x="740" y="265" font-family="Noto Sans JP" font-size="14" fill="#2c2c2c">セミナー10万円＋TANREN 5ID年間4.2万円</text>
  <text x="720" y="295" font-family="Noto Sans JP" font-size="16" fill="#2c2c2c" font-weight="bold">• セット割引によるメリット</text>
  <text x="740" y="325" font-family="Noto Sans JP" font-size="14" fill="#2c2c2c">単体セミナー（30万円）に比べ、ほぼ半額</text>
  
  <!-- データビジュアライゼーション3 -->
  <rect x="720" y="355" width="480" height="200" fill="#f4f1ea" rx="3" ry="3"/>
  <text x="740" y="380" font-family="Noto Sans JP" font-size="16" font-weight="bold" fill="#2c2c2c">20IDの初期費用計算</text>
  <line x1="740" y1="390" x2="900" y2="390" stroke="#1a5b66" stroke-width="2"/>
  
  <!-- 金額計算 -->
  <text x="760" y="430" font-family="Noto Sans JP" font-size="14" fill="#2c2c2c">セミナー費用（割引価格）</text>
  <text x="760" y="455" font-family="Noto Sans JP" font-size="13" fill="#2c2c2c">※単体では30万円→セット価格</text>
  <text x="1050" y="430" font-family="Noto Sans JP" font-size="16" fill="#b3322b" font-weight="bold" text-anchor="end">10万円</text>
  
  <line x1="760" y1="470" x2="1050" y2="470" stroke="#2c2c2c" stroke-width="1" stroke-dasharray="2,2"/>
  
  <text x="760" y="500" font-family="Noto Sans JP" font-size="14" fill="#2c2c2c">TANREN 20ID×700円×12ヵ月</text>
  <text x="1050" y="500" font-family="Noto Sans JP" font-size="16" fill="#b3322b" font-weight="bold" text-anchor="end">16.8万円</text>
  
  <line x1="760" y1="515" x2="1050" y2="515" stroke="#2c2c2c" stroke-width="1"/>
  
  <text x="760" y="545" font-family="Noto Sans JP" font-size="14" fill="#2c2c2c" font-weight="bold">合計初期費用</text>
  <text x="1050" y="545" font-family="Noto Sans JP" font-size="18" fill="#b3322b" font-weight="bold" text-anchor="end">26.8万円</text>
  
  <text x="700" y="595" font-family="Noto Sans JP" font-size="18" font-weight="bold" fill="#2c2c2c">セミナーと研修の違い再確認</text>
  <rect x="700" y="605" width="200" height="2" fill="#1a5b66"/>
  <text x="720" y="635" font-family="Noto Sans JP" font-size="16" fill="#2c2c2c" font-weight="bold">• セミナーは危機感伝達が目的</text>
  <text x="740" y="665" font-family="Noto Sans JP" font-size="14" fill="#2c2c2c">知識・スキルを「教える」場ではなく、</text>
  <text x="740" y="690" font-family="Noto Sans JP" font-size="14" fill="#2c2c2c">危機感を「伝える」ことが主眼</text>
  <text x="720" y="720" font-family="Noto Sans JP" font-size="16" fill="#2c2c2c">• 研修は学習・習得が目的</text>
  <text x="740" y="750" font-family="Noto Sans JP" font-size="14" fill="#2c2c2c">具体的知識・スキルを「咀嚼」「習得」</text>
  
  <!-- データビジュアライゼーション4 -->
  <rect x="720" y="780" width="480" height="120" fill="#f4f1ea" rx="3" ry="3"/>
  <text x="740" y="805" font-family="Noto Sans JP" font-size="16" font-weight="bold" fill="#2c2c2c">学習の段階モデル</text>
  <line x1="740" y1="815" x2="880" y2="815" stroke="#1a5b66" stroke-width="2"/>
  
  <!-- モデル図 -->
  <rect x="780" y="835" width="360" height="30" fill="#2c2c2c" opacity="0.1" rx="3" ry="3"/>
  <rect x="780" y="835" width="120" height="30" fill="#b3322b" opacity="0.5" rx="3" ry="3"/>
  <rect x="900" y="835" width="120" height="30" fill="#1a5b66" opacity="0.5" rx="3" ry="3"/>
  <rect x="1020" y="835" width="120" height="30" fill="#653a5e" opacity="0.5" rx="3" ry="3"/>
  
  <text x="840" y="855" font-family="Noto Sans JP" font-size="12" fill="#ffffff" text-anchor="middle">危機感醸成</text>
  <text x="960" y="855" font-family="Noto Sans JP" font-size="12" fill="#ffffff" text-anchor="middle">基礎習得</text>
  <text x="1080" y="855" font-family="Noto Sans JP" font-size="12" fill="#ffffff" text-anchor="middle">応用実践</text>
  
  <text x="840" y="875" font-family="Noto Sans JP" font-size="10" fill="#2c2c2c" text-anchor="middle">セミナー</text>
  <text x="960" y="875" font-family="Noto Sans JP" font-size="10" fill="#2c2c2c" text-anchor="middle">研修</text>
  <text x="1080" y="875" font-family="Noto Sans JP" font-size="10" fill="#2c2c2c" text-anchor="middle">1on1/自己学習</text>
  
  <text x="700" y="940" font-family="Noto Sans JP" font-size="18" font-weight="bold" fill="#2c2c2c">実践ポイント</text>
  <rect x="700" y="950" width="120" height="2" fill="#1a5b66"/>
  <rect x="720" y="970" width="480" height="25" fill="#f4f1ea" rx="3" ry="3"/>
  <text x="740" y="988" font-family="Noto Sans JP" font-size="14" fill="#2c2c2c">• 社内共有・検討を経た上での判断が必要</text>
  
  <!-- カラム3: 書籍執筆支援の詳細 -->
  <rect x="1280" y="110" width="580" height="885" fill="#ffffff" rx="5" ry="5" stroke="#2c2c2c" stroke-width="1"/>
  <rect x="1280" y="110" width="580" height="50" fill="#653a5e" rx="5" ry="5"/>
  <text x="1310" y="143" font-family="Noto Sans JP" font-size="20" font-weight="bold" fill="#ffffff">書籍執筆支援の詳細 📚</text>
  
  <!-- カラム3コンテンツ -->
  <text x="1310" y="195" font-family="Noto Sans JP" font-size="18" font-weight="bold" fill="#2c2c2c">1on1アドバイザリー形式での対応</text>
  <rect x="1310" y="205" width="200" height="2" fill="#653a5e"/>
  <text x="1330" y="235" font-family="Noto Sans JP" font-size="16" fill="#2c2c2c" font-weight="bold">• 料金体系</text>
  <text x="1350" y="265" font-family="Noto Sans JP" font-size="14" fill="#2c2c2c">1回の相談あたり5万円</text>
  <text x="1350" y="295" font-family="Noto Sans JP" font-size="14" fill="#2c2c2c">回数チケット制（例: 6回分購入）</text>
  <text x="1330" y="325" font-family="Noto Sans JP" font-size="16" fill="#2c2c2c">• 利用ペースの柔軟性</text>
  <text x="1350" y="355" font-family="Noto Sans JP" font-size="14" fill="#2c2c2c">月1回、3ヶ月で6回など調整可能</text>
  
  <!-- データビジュアライゼーション5 -->
  <rect x="1330" y="385" width="480" height="120" fill="#f4f1ea" rx="3" ry="3"/>
  <text x="1350" y="410" font-family="Noto Sans JP" font-size="16" font-weight="bold" fill="#2c2c2c">個別支援の費用</text>
  <line x1="1350" y1="420" x2="1480" y2="420" stroke="#653a5e" stroke-width="2"/>
  
  <!-- 費用計算 -->
  <text x="1370" y="450" font-family="Noto Sans JP" font-size="14" fill="#2c2c2c">1回あたり</text>
  <text x="1650" y="450" font-family="Noto Sans JP" font-size="14" fill="#2c2c2c" font-weight="bold" text-anchor="end">5万円</text>
  
  <text x="1370" y="480" font-family="Noto Sans JP" font-size="14" fill="#2c2c2c">6回分チケット</text>
  <text x="1650" y="480" font-family="Noto Sans JP" font-size="16" fill="#653a5e" font-weight="bold" text-anchor="end">30万円</text>
  
  <text x="1310" y="545" font-family="Noto Sans JP" font-size="18" font-weight="bold" fill="#2c2c2c">内山氏の執筆状況と課題</text>
  <rect x="1310" y="555" width="200" height="2" fill="#653a5e"/>
  <text x="1330" y="585" font-family="Noto Sans JP" font-size="16" fill="#2c2c2c">• コンテンツアウトラインは決定済み</text>
  <text x="1330" y="615" font-family="Noto Sans JP" font-size="16" fill="#2c2c2c" font-weight="bold">• AIによる執筆の課題</text>
  <text x="1350" y="645" font-family="Noto Sans JP" font-size="14" fill="#2c2c2c">- 不正確な情報（嘘）が多い</text>
  <text x="1350" y="675" font-family="Noto Sans JP" font-size="14" fill="#2c2c2c">- 目標文字数（10万文字）に達しない</text>
  <text x="1330" y="705" font-family="Noto Sans JP" font-size="16" fill="#2c2c2c">• 執筆コンセプト</text>
  <text x="1350" y="735" font-family="Noto Sans JP" font-size="14" fill="#2c2c2c">営業マンのストーリー（小説）と解説の併用</text>
  
  <!-- データビジュアライゼーション6 -->
  <rect x="1330" y="765" width="480" height="120" fill="#f4f1ea" rx="3" ry="3"/>
  <text x="1350" y="790" font-family="Noto Sans JP" font-size="16" font-weight="bold" fill="#2c2c2c">佐藤氏による解決策</text>
  <line x1="1350" y1="800" x2="1500" y2="800" stroke="#653a5e" stroke-width="2"/>
  
  <!-- 解決プロセス -->
  <rect x="1350" y="820" width="130" height="35" fill="#653a5e" opacity="0.2" rx="3" ry="3"/>
  <text x="1415" y="843" font-family="Noto Sans JP" font-size="12" fill="#2c2c2c" text-anchor="middle">Deep Research</text>
  
  <line x1="1480" y1="837" x2="1510" y2="837" stroke="#2c2c2c" stroke-width="1" marker-end="url(#arrow6)"/>
  <defs>
    <marker id="arrow6" markerWidth="10" markerHeight="10" refX="9" refY="3" orient="auto" markerUnits="strokeWidth">
      <path d="M0,0 L0,6 L9,3 z" fill="#2c2c2c"/>
    </marker>
  </defs>
  
  <rect x="1510" y="820" width="130" height="35" fill="#653a5e" opacity="0.2" rx="3" ry="3"/>
  <text x="1575" y="843" font-family="Noto Sans JP" font-size="12" fill="#2c2c2c" text-anchor="middle">AIによる編集</text>
  
  <text x="1350" y="870" font-family="Noto Sans JP" font-size="10" fill="#2c2c2c">大量情報収集（例:30万字）</text>
  <text x="1510" y="870" font-family="Noto Sans JP" font-size="10" fill="#2c2c2c">文字数調整（10万字に）</text>
  
  <text x="1310" y="925" font-family="Noto Sans JP" font-size="18" font-weight="bold" fill="#2c2c2c">実践ポイント</text>
  <rect x="1310" y="935" width="120" height="2" fill="#653a5e"/>
  <rect x="1330" y="955" width="480" height="25" fill="#f4f1ea" rx="3" ry="3"/>
  <text x="1350" y="973" font-family="Noto Sans JP" font-size="14" fill="#2c2c2c">• 個別支援（30万円・6回分）の正式依頼承諾</text>
</svg> 