<?xml version="1.0" encoding="UTF-8" standalone="no"?>
<svg width="1920" height="1080" viewBox="0 0 1920 1080" fill="none" xmlns="http://www.w3.org/2000/svg" xmlns:xlink="http://www.w3.org/1999/xlink">
  <rect width="1920" height="1080" fill="#F4F1EA"/>
  <g clip-path="url(#clip0_0_1)">
    <path d="M1920 0H0V1080H1920V0Z" fill="#F4F1EA"/>
    <path d="M1920 0H0V120H1920V0Z" fill="#2C2C2C"/>
    <text fill="#F4F1EA" xml:space="preserve" style="white-space: pre" font-family="Noto Serif JP" font-size="36" letter-spacing="0em"><tspan x="706.734" y="54.9">Day5: AIエージェントの魔法</tspan></text>
    <text fill="#F4F1EA" xml:space="preserve" style="white-space: pre" font-family="Noto Serif JP" font-size="24" letter-spacing="0em"><tspan x="838" y="100.1">次回への準備</tspan></text>
    <path d="M520 83C524.418 83 528 79.4183 528 75C528 70.5817 524.418 67 520 67C515.582 67 512 70.5817 512 75C512 79.4183 515.582 83 520 83Z" fill="#653A5E"/>
    <path d="M540 75H810" stroke="#653A5E" stroke-width="3"/>
    <path d="M1380 83C1384.42 83 1388 79.4183 1388 75C1388 70.5817 1384.42 67 1380 67C1375.58 67 1372 70.5817 1372 75C1372 79.4183 1375.58 83 1380 83Z" fill="#653A5E"/>
    <path d="M1090 75H1360" stroke="#653A5E" stroke-width="3"/>
    
    <!-- 左カラム: Day5の学び -->
    <path d="M640 160H40V1020H640V160Z" fill="#F4F1EA" stroke="#2C2C2C" stroke-width="2"/>
    <text fill="#2C2C2C" xml:space="preserve" style="white-space: pre" font-family="Noto Serif JP" font-size="28" letter-spacing="0em"><tspan x="237" y="210.2">Day5の学び</tspan></text>
    <path d="M140 220H540" stroke="#653A5E" stroke-width="3"/>
    <path d="M140 226C143.314 226 146 223.314 146 220C146 216.686 143.314 214 140 214C136.686 214 134 216.686 134 220C134 223.314 136.686 226 140 226Z" fill="#653A5E"/>
    <path d="M540 226C543.314 226 546 223.314 546 220C546 216.686 543.314 214 540 214C536.686 214 534 216.686 534 220C534 223.314 536.686 226 540 226Z" fill="#653A5E"/>
    
    <path d="M610 250H70V450H610V250Z" fill="#F4F1EA" stroke="#653A5E" stroke-width="2"/>
    <text fill="#653A5E" xml:space="preserve" style="white-space: pre" font-family="Noto Sans JP" font-size="20" letter-spacing="0em"><tspan x="180" y="280">個性・特性の重要性</tspan></text>
    
    <text fill="#2C2C2C" xml:space="preserve" style="white-space: pre" font-family="Noto Sans JP" font-size="16" letter-spacing="0em"><tspan x="90" y="320.9">• AIバディの本質：単なるツールから友へ</tspan></text>
    <text fill="#2C2C2C" xml:space="preserve" style="white-space: pre" font-family="Noto Sans JP" font-size="16" letter-spacing="0em"><tspan x="90" y="350.9">• 人間らしさを演出する要素の理解</tspan></text>
    <text fill="#2C2C2C" xml:space="preserve" style="white-space: pre" font-family="Noto Sans JP" font-size="16" letter-spacing="0em"><tspan x="90" y="380.9">• フィラーと口調の重要性</tspan></text>
    <text fill="#2C2C2C" xml:space="preserve" style="white-space: pre" font-family="Noto Sans JP" font-size="16" letter-spacing="0em"><tspan x="90" y="410.9">• 不気味の谷を越えるバランス感覚</tspan></text>
    
    <path d="M610 470H70V670H610V470Z" fill="#F4F1EA" stroke="#653A5E" stroke-width="2"/>
    <text fill="#653A5E" xml:space="preserve" style="white-space: pre" font-family="Noto Sans JP" font-size="20" letter-spacing="0em"><tspan x="155" y="500">パラメーター設定の方法</tspan></text>
    
    <text fill="#2C2C2C" xml:space="preserve" style="white-space: pre" font-family="Noto Sans JP" font-size="16" letter-spacing="0em"><tspan x="90" y="540.9">• 性格パラメーターの数値化と調整</tspan></text>
    <text fill="#2C2C2C" xml:space="preserve" style="white-space: pre" font-family="Noto Sans JP" font-size="16" letter-spacing="0em"><tspan x="90" y="570.9">• 論理性/感情性、簡潔さ/詳細さなどの軸</tspan></text>
    <text fill="#2C2C2C" xml:space="preserve" style="white-space: pre" font-family="Noto Sans JP" font-size="16" letter-spacing="0em"><tspan x="90" y="600.9">• SNS投稿やピアフィードバックからの個性抽出</tspan></text>
    <text fill="#2C2C2C" xml:space="preserve" style="white-space: pre" font-family="Noto Sans JP" font-size="16" letter-spacing="0em"><tspan x="90" y="630.9">• システムプロンプトへのフィラー実装例</tspan></text>
    
    <path d="M610 690H70V890H610V690Z" fill="#F4F1EA" stroke="#653A5E" stroke-width="2"/>
    <text fill="#653A5E" xml:space="preserve" style="white-space: pre" font-family="Noto Sans JP" font-size="20" letter-spacing="0em"><tspan x="175" y="720">知識ベース (RAG)</tspan></text>
    
    <text fill="#2C2C2C" xml:space="preserve" style="white-space: pre" font-family="Noto Sans JP" font-size="16" letter-spacing="0em"><tspan x="90" y="760.9">• Retrieval Augmented Generation の基礎</tspan></text>
    <text fill="#2C2C2C" xml:space="preserve" style="white-space: pre" font-family="Noto Sans JP" font-size="16" letter-spacing="0em"><tspan x="90" y="790.9">• AIエージェントにおける知識ベースの意義</tspan></text>
    <text fill="#2C2C2C" xml:space="preserve" style="white-space: pre" font-family="Noto Sans JP" font-size="16" letter-spacing="0em"><tspan x="90" y="820.9">• 知識ベース構築の実装手順と必要ツール</tspan></text>
    <text fill="#2C2C2C" xml:space="preserve" style="white-space: pre" font-family="Noto Sans JP" font-size="16" letter-spacing="0em"><tspan x="90" y="850.9">• ユーザーとの会話記憶としての活用方法</tspan></text>
    
    <path d="M610 910H70V1000H610V910Z" fill="#653A5E" fill-opacity="0.1"/>
    <text fill="#2C2C2C" xml:space="preserve" style="white-space: pre" font-family="Noto Sans JP" font-size="18" font-weight="bold" letter-spacing="0em"><tspan x="143" y="940.2">本日の成果：AI バディの完成</tspan></text>
    <text fill="#2C2C2C" xml:space="preserve" style="white-space: pre" font-family="Noto Sans JP" font-size="16" letter-spacing="0em"><tspan x="90" y="970.9">個性と専門知識を持つAIエージェントの構築</tspan></text>
    
    <!-- 中央カラム: 次回予告 -->
    <path d="M1260 160H660V1020H1260V160Z" fill="#F4F1EA" stroke="#2C2C2C" stroke-width="2"/>
    <text fill="#2C2C2C" xml:space="preserve" style="white-space: pre" font-family="Noto Serif JP" font-size="28" letter-spacing="0em"><tspan x="870" y="210.2">次回予告</tspan></text>
    <path d="M760 220H1160" stroke="#653A5E" stroke-width="3"/>
    <path d="M760 226C763.314 226 766 223.314 766 220C766 216.686 763.314 214 760 214C756.686 214 754 216.686 754 220C754 223.314 756.686 226 760 226Z" fill="#653A5E"/>
    <path d="M1160 226C1163.31 226 1166 223.314 1166 220C1166 216.686 1163.31 214 1160 214C1156.69 214 1154 216.686 1154 220C1154 223.314 1156.69 226 1160 226Z" fill="#653A5E"/>
    
    <path d="M1230 250H690V450H1230V250Z" fill="#F4F1EA" stroke="#653A5E" stroke-width="2"/>
    <text fill="#653A5E" xml:space="preserve" style="white-space: pre" font-family="Noto Sans JP" font-size="20" letter-spacing="0em"><tspan x="877.5" y="280">Day6テーマ</tspan></text>
    
    <path d="M1160 370C1193.14 370 1220 343.137 1220 310C1220 276.863 1193.14 250 1160 250C1126.86 250 1100 276.863 1100 310C1100 343.137 1126.86 370 1160 370Z" fill="#653A5E" fill-opacity="0.1"/>
    <text fill="#2C2C2C" xml:space="preserve" style="white-space: pre" font-family="Noto Serif JP" font-size="24" font-weight="bold" letter-spacing="0em"><tspan x="860" y="318.9">AIエージェント</tspan></text>
    <text fill="#2C2C2C" xml:space="preserve" style="white-space: pre" font-family="Noto Serif JP" font-size="24" font-weight="bold" letter-spacing="0em"><tspan x="820" y="348.9">デプロイと継続進化</tspan></text>
    
    <path d="M1230 470H690V700H1230V470Z" fill="#F4F1EA" stroke="#653A5E" stroke-width="2"/>
    <text fill="#653A5E" xml:space="preserve" style="white-space: pre" font-family="Noto Sans JP" font-size="20" letter-spacing="0em"><tspan x="870" y="500">主な内容</tspan></text>
    
    <path d="M750 530C755.523 530 760 525.523 760 520C760 514.477 755.523 510 750 510C744.477 510 740 514.477 740 520C740 525.523 744.477 530 750 530Z" fill="#653A5E"/>
    <text fill="#2C2C2C" xml:space="preserve" style="white-space: pre" font-family="Noto Sans JP" font-size="16" letter-spacing="0em"><tspan x="770" y="525.9">AIエージェントの公開方法</tspan></text>
    
    <path d="M750 570C755.523 570 760 565.523 760 560C760 554.477 755.523 550 750 550C744.477 550 740 554.477 740 560C740 565.523 744.477 570 750 570Z" fill="#653A5E"/>
    <text fill="#2C2C2C" xml:space="preserve" style="white-space: pre" font-family="Noto Sans JP" font-size="16" letter-spacing="0em"><tspan x="770" y="565.9">ユーザーフィードバックの収集・分析</tspan></text>
    
    <path d="M750 610C755.523 610 760 605.523 760 600C760 594.477 755.523 590 750 590C744.477 590 740 594.477 740 600C740 605.523 744.477 610 750 610Z" fill="#653A5E"/>
    <text fill="#2C2C2C" xml:space="preserve" style="white-space: pre" font-family="Noto Sans JP" font-size="16" letter-spacing="0em"><tspan x="770" y="605.9">AIエージェントの継続的な改良手法</tspan></text>
    
    <path d="M750 650C755.523 650 760 645.523 760 640C760 634.477 755.523 630 750 630C744.477 630 740 634.477 740 640C740 645.523 744.477 650 750 650Z" fill="#653A5E"/>
    <text fill="#2C2C2C" xml:space="preserve" style="white-space: pre" font-family="Noto Sans JP" font-size="16" letter-spacing="0em"><tspan x="770" y="645.9">ユースケース別の応用展開</tspan></text>
    
    <path d="M750 690C755.523 690 760 685.523 760 680C760 674.477 755.523 670 750 670C744.477 670 740 674.477 740 680C740 685.523 744.477 690 750 690Z" fill="#653A5E"/>
    <text fill="#2C2C2C" xml:space="preserve" style="white-space: pre" font-family="Noto Sans JP" font-size="16" letter-spacing="0em"><tspan x="770" y="685.9">最終プロジェクト発表の準備</tspan></text>
    
    <path d="M1230 720H690V850H1230V720Z" fill="#F4F1EA" stroke="#653A5E" stroke-width="2"/>
    <text fill="#653A5E" xml:space="preserve" style="white-space: pre" font-family="Noto Sans JP" font-size="20" letter-spacing="0em"><tspan x="877.5" y="750">事前準備</tspan></text>
    
    <text fill="#2C2C2C" xml:space="preserve" style="white-space: pre" font-family="Noto Sans JP" font-size="16" letter-spacing="0em"><tspan x="710" y="790.9">• 今回作成したAIエージェントを持参</tspan></text>
    <text fill="#2C2C2C" xml:space="preserve" style="white-space: pre" font-family="Noto Sans JP" font-size="16" letter-spacing="0em"><tspan x="710" y="820.9">• 最終プロジェクトのアイデアを考えてくる</tspan></text>
    
    <path d="M1230 870H690V1000H1230V870Z" fill="#653A5E" fill-opacity="0.05"/>
    <text fill="#2C2C2C" xml:space="preserve" style="white-space: pre" font-family="Noto Sans JP" font-size="18" font-weight="bold" letter-spacing="0em"><tspan x="860" y="910.2">開催情報</tspan></text>
    <text fill="#2C2C2C" xml:space="preserve" style="white-space: pre" font-family="Noto Sans JP" font-size="16" letter-spacing="0em"><tspan x="710" y="950.9">日時：2025年5月22日（木）19:30-21:30</tspan></text>
    <text fill="#2C2C2C" xml:space="preserve" style="white-space: pre" font-family="Noto Sans JP" font-size="16" letter-spacing="0em"><tspan x="710" y="980.9">場所：オンライン（Zoomリンクは当日送付）</tspan></text>
    
    <!-- 右カラム: 課題 -->
    <path d="M1880 160H1280V1020H1880V160Z" fill="#F4F1EA" stroke="#2C2C2C" stroke-width="2"/>
    <text fill="#2C2C2C" xml:space="preserve" style="white-space: pre" font-family="Noto Serif JP" font-size="28" letter-spacing="0em"><tspan x="1540" y="210.2">課題</tspan></text>
    <path d="M1380 220H1780" stroke="#653A5E" stroke-width="3"/>
    <path d="M1380 226C1383.31 226 1386 223.314 1386 220C1386 216.686 1383.31 214 1380 214C1376.69 214 1374 216.686 1374 220C1374 223.314 1376.69 226 1380 226Z" fill="#653A5E"/>
    <path d="M1780 226C1783.31 226 1786 223.314 1786 220C1786 216.686 1783.31 214 1780 214C1776.69 214 1774 216.686 1774 220C1774 223.314 1776.69 226 1780 226Z" fill="#653A5E"/>
    
    <path d="M1850 250H1310V400H1850V250Z" fill="#F4F1EA" stroke="#653A5E" stroke-width="2"/>
    <text fill="#653A5E" xml:space="preserve" style="white-space: pre" font-family="Noto Sans JP" font-size="20" letter-spacing="0em"><tspan x="1470" y="280">提出物①：AIバディ設計書</tspan></text>
    
    <text fill="#2C2C2C" xml:space="preserve" style="white-space: pre" font-family="Noto Sans JP" font-size="16" letter-spacing="0em"><tspan x="1330" y="320.9">• 今回作成したAIエージェントの設計内容</tspan></text>
    <text fill="#2C2C2C" xml:space="preserve" style="white-space: pre" font-family="Noto Sans JP" font-size="16" letter-spacing="0em"><tspan x="1330" y="350.9">• 個性パラメーターとシステムプロンプトを含む</tspan></text>
    <text fill="#2C2C2C" xml:space="preserve" style="white-space: pre" font-family="Noto Sans JP" font-size="16" letter-spacing="0em"><tspan x="1330" y="380.9">• テンプレートからPDF形式で提出</tspan></text>
    
    <path d="M1850 420H1310V720H1850V420Z" fill="#F4F1EA" stroke="#653A5E" stroke-width="2"/>
    <text fill="#653A5E" xml:space="preserve" style="white-space: pre" font-family="Noto Sans JP" font-size="20" letter-spacing="0em"><tspan x="1470" y="450">提出物②：デモ会話ログ</tspan></text>
    
    <text fill="#2C2C2C" xml:space="preserve" style="white-space: pre" font-family="Noto Sans JP" font-size="16" letter-spacing="0em"><tspan x="1330" y="490.9">• 作成したAIエージェントとの実際の会話を記録</tspan></text>
    <text fill="#2C2C2C" xml:space="preserve" style="white-space: pre" font-family="Noto Sans JP" font-size="16" letter-spacing="0em"><tspan x="1330" y="520.9">• 以下の要件を満たす会話内容を含めること：</tspan></text>
    
    <path d="M1830 540H1330V650H1830V540Z" fill="#F4F1EA" stroke="#653A5E" stroke-dasharray="5 5"/>
    <text fill="#2C2C2C" xml:space="preserve" style="white-space: pre" font-family="Noto Sans JP" font-size="16" letter-spacing="0em"><tspan x="1350" y="570.9">・個性を感じられる応答例（3例以上）</tspan></text>
    <text fill="#2C2C2C" xml:space="preserve" style="white-space: pre" font-family="Noto Sans JP" font-size="16" letter-spacing="0em"><tspan x="1350" y="600.9">・知識ベースの活用が確認できる会話</tspan></text>
    <text fill="#2C2C2C" xml:space="preserve" style="white-space: pre" font-family="Noto Sans JP" font-size="16" letter-spacing="0em"><tspan x="1350" y="630.9">・ユーザーの質問に対する具体的な対応例</tspan></text>
    
    <text fill="#2C2C2C" xml:space="preserve" style="white-space: pre" font-family="Noto Sans JP" font-size="16" letter-spacing="0em"><tspan x="1330" y="680.9">• 10往復以上の会話を記録してください</tspan></text>
    <text fill="#2C2C2C" xml:space="preserve" style="white-space: pre" font-family="Noto Sans JP" font-size="16" letter-spacing="0em"><tspan x="1330" y="710.9">• テキスト形式またはスクリーンショットで提出</tspan></text>
    
    <path d="M1850 740H1310V1000H1850V740Z" fill="#F4F1EA" stroke="#653A5E" stroke-width="2"/>
    <text fill="#653A5E" xml:space="preserve" style="white-space: pre" font-family="Noto Sans JP" font-size="20" letter-spacing="0em"><tspan x="1510" y="770">提出期限と注意事項</tspan></text>
    
    <path d="M1370 810C1375.52 810 1380 805.523 1380 800C1380 794.477 1375.52 790 1370 790C1364.48 790 1360 794.477 1360 800C1360 805.523 1364.48 810 1370 810Z" fill="#653A5E"/>
    <text fill="#2C2C2C" xml:space="preserve" style="white-space: pre" font-family="Noto Sans JP" font-size="16" font-weight="bold" letter-spacing="0em"><tspan x="1390" y="805.9">提出期限：2025年5月21日（水）23:59まで</tspan></text>
    
    <path d="M1370 860C1375.52 860 1380 855.523 1380 850C1380 844.477 1375.52 840 1370 840C1364.48 840 1360 844.477 1360 850C1360 855.523 1364.48 860 1370 860Z" fill="#653A5E"/>
    <text fill="#2C2C2C" xml:space="preserve" style="white-space: pre" font-family="Noto Sans JP" font-size="16" letter-spacing="0em"><tspan x="1390" y="855.9">提出フォーム：専用Googleフォーム</tspan></text>
    
    <path d="M1370 910C1375.52 910 1380 905.523 1380 900C1380 894.477 1375.52 890 1370 890C1364.48 890 1360 894.477 1360 900C1360 905.523 1364.48 910 1370 910Z" fill="#653A5E"/>
    <text fill="#2C2C2C" xml:space="preserve" style="white-space: pre" font-family="Noto Sans JP" font-size="16" letter-spacing="0em"><tspan x="1390" y="905.9">質問はSlackの#day5-questionチャンネルへ</tspan></text>
    
    <path d="M1370 960C1375.52 960 1380 955.523 1380 950C1380 944.477 1375.52 940 1370 940C1364.48 940 1360 944.477 1360 950C1360 955.523 1364.48 960 1370 960Z" fill="#653A5E"/>
    <text fill="#2C2C2C" xml:space="preserve" style="white-space: pre" font-family="Noto Sans JP" font-size="16" letter-spacing="0em"><tspan x="1390" y="955.9">最終講義で各自のAIエージェントを共有予定</tspan></text>
    
    <!-- フッター -->
    <path d="M1920 1040H0V1080H1920V1040Z" fill="#2C2C2C"/>
    <text fill="#F4F1EA" xml:space="preserve" style="white-space: pre" font-family="Noto Sans JP" font-size="16" letter-spacing="0em"><tspan x="694.32" y="1064.9">TANREN株式会社 / 株式会社MVP | AI人材育成プログラム | 2025年春季講座</tspan></text>
  </g>
  <defs>
    <clipPath id="clip0_0_1">
      <rect width="1920" height="1080" fill="white"/>
    </clipPath>
  </defs>
</svg> 