<?xml version="1.0" encoding="UTF-8" standalone="no"?>
<svg width="1920" height="1080" viewBox="0 0 1920 1080" fill="none" xmlns="http://www.w3.org/2000/svg" xmlns:xlink="http://www.w3.org/1999/xlink">
  <rect width="1920" height="1080" fill="#F4F1EA"/>
  <g clip-path="url(#clip0_0_1)">
    <path d="M1920 0H0V1080H1920V0Z" fill="#F4F1EA"/>
    <path d="M1920 0H0V120H1920V0Z" fill="#2C2C2C"/>
    <text fill="#F4F1EA" xml:space="preserve" style="white-space: pre" font-family="Noto Serif JP" font-size="36" letter-spacing="0em"><tspan x="706.734" y="54.9">Day5: AIエージェントの魔法</tspan></text>
    <text fill="#F4F1EA" xml:space="preserve" style="white-space: pre" font-family="Noto Serif JP" font-size="24" letter-spacing="0em"><tspan x="768" y="100.1">個性・特性のパラメーター設定</tspan></text>
    <path d="M520 83C524.418 83 528 79.4183 528 75C528 70.5817 524.418 67 520 67C515.582 67 512 70.5817 512 75C512 79.4183 515.582 83 520 83Z" fill="#B3322B"/>
    <path d="M540 75H740" stroke="#B3322B" stroke-width="3"/>
    <path d="M1380 83C1384.42 83 1388 79.4183 1388 75C1388 70.5817 1384.42 67 1380 67C1375.58 67 1372 70.5817 1372 75C1372 79.4183 1375.58 83 1380 83Z" fill="#B3322B"/>
    <path d="M1160 75H1360" stroke="#B3322B" stroke-width="3"/>
    
    <!-- 左カラム: 知識ベース (RAG) の基本 -->
    <path d="M640 160H40V1020H640V160Z" fill="#F4F1EA" stroke="#2C2C2C" stroke-width="2"/>
    <text fill="#2C2C2C" xml:space="preserve" style="white-space: pre" font-family="Noto Serif JP" font-size="28" letter-spacing="0em"><tspan x="170" y="210.2">知識ベース (RAG) の基本</tspan></text>
    <path d="M140 220H540" stroke="#653A5E" stroke-width="3"/>
    <path d="M140 226C143.314 226 146 223.314 146 220C146 216.686 143.314 214 140 214C136.686 214 134 216.686 134 220C134 223.314 136.686 226 140 226Z" fill="#653A5E"/>
    <path d="M540 226C543.314 226 546 223.314 546 220C546 216.686 543.314 214 540 214C536.686 214 534 216.686 534 220C534 223.314 536.686 226 540 226Z" fill="#653A5E"/>
    
    <text fill="#653A5E" xml:space="preserve" style="white-space: pre" font-family="Noto Sans JP" font-size="20" letter-spacing="0em"><tspan x="70" y="270">📚 RAGとは</tspan></text>
    <text fill="#2C2C2C" xml:space="preserve" style="white-space: pre" font-family="Noto Sans JP" font-size="16" letter-spacing="0em"><tspan x="70" y="309.9">Retrieval Augmented Generation</tspan></text>
    <text fill="#2C2C2C" xml:space="preserve" style="white-space: pre" font-family="Noto Sans JP" font-size="16" letter-spacing="0em"><tspan x="70" y="339.9">AIの回答を外部知識で拡張・強化する技術</tspan></text>
    
    <path d="M610 370H70V570H610V370Z" fill="#F4F1EA" stroke="#653A5E" stroke-width="2"/>
    <text fill="#653A5E" xml:space="preserve" style="white-space: pre" font-family="Noto Sans JP" font-size="18" letter-spacing="0em"><tspan x="285" y="400.2">RAGの仕組み</tspan></text>
    
    <!-- RAGの流れを図示 -->
    <path d="M140 430H250V480H140V430Z" fill="#F4F1EA" stroke="#653A5E" stroke-width="1.5"/>
    <text fill="#2C2C2C" xml:space="preserve" style="white-space: pre" font-family="Noto Sans JP" font-size="14" letter-spacing="0em"><tspan x="160" y="461.1">ユーザー質問</tspan></text>
    
    <path d="M250 455H300" stroke="#653A5E" stroke-width="1.5" stroke-dasharray="5 5"/>
    <path d="M295 450L300 455L295 460" stroke="#653A5E" stroke-width="1.5"/>
    
    <path d="M300 430H410V480H300V430Z" fill="#F4F1EA" stroke="#653A5E" stroke-width="1.5"/>
    <text fill="#2C2C2C" xml:space="preserve" style="white-space: pre" font-family="Noto Sans JP" font-size="14" letter-spacing="0em"><tspan x="315" y="461.1">関連知識検索</tspan></text>
    
    <path d="M410 455H460" stroke="#653A5E" stroke-width="1.5" stroke-dasharray="5 5"/>
    <path d="M455 450L460 455L455 460" stroke="#653A5E" stroke-width="1.5"/>
    
    <path d="M460 430H570V480H460V430Z" fill="#F4F1EA" stroke="#653A5E" stroke-width="1.5"/>
    <text fill="#2C2C2C" xml:space="preserve" style="white-space: pre" font-family="Noto Sans JP" font-size="14" letter-spacing="0em"><tspan x="475" y="461.1">回答生成</tspan></text>
    
    <path d="M140 510C147.732 510 154 503.732 154 496C154 488.268 147.732 482 140 482C132.268 482 126 488.268 126 496C126 503.732 132.268 510 140 510Z" fill="#F4F1EA" stroke="#653A5E" stroke-width="1.5"/>
    <text fill="#653A5E" xml:space="preserve" style="white-space: pre" font-family="Noto Sans JP" font-size="16" letter-spacing="0em"><tspan x="136" y="501.9">1</tspan></text>
    
    <path d="M355 510C362.732 510 369 503.732 369 496C369 488.268 362.732 482 355 482C347.268 482 341 488.268 341 496C341 503.732 347.268 510 355 510Z" fill="#F4F1EA" stroke="#653A5E" stroke-width="1.5"/>
    <text fill="#653A5E" xml:space="preserve" style="white-space: pre" font-family="Noto Sans JP" font-size="16" letter-spacing="0em"><tspan x="351" y="501.9">2</tspan></text>
    
    <path d="M515 510C522.732 510 529 503.732 529 496C529 488.268 522.732 482 515 482C507.268 482 501 488.268 501 496C501 503.732 507.268 510 515 510Z" fill="#F4F1EA" stroke="#653A5E" stroke-width="1.5"/>
    <text fill="#653A5E" xml:space="preserve" style="white-space: pre" font-family="Noto Sans JP" font-size="16" letter-spacing="0em"><tspan x="511" y="501.9">3</tspan></text>
    
    <text fill="#653A5E" xml:space="preserve" style="white-space: pre" font-family="Noto Sans JP" font-size="20" letter-spacing="0em"><tspan x="70" y="590">🔍 AIエージェントにおける意義</tspan></text>
    
    <path d="M610 610H70V770H610V610Z" fill="#F4F1EA" stroke="#653A5E" stroke-width="2"/>
    <text fill="#2C2C2C" xml:space="preserve" style="white-space: pre" font-family="Noto Sans JP" font-size="16" letter-spacing="0em"><tspan x="90" y="639.9">• 専門知識や最新情報をAIに提供</tspan></text>
    <text fill="#2C2C2C" xml:space="preserve" style="white-space: pre" font-family="Noto Sans JP" font-size="16" letter-spacing="0em"><tspan x="90" y="669.9">• 専門分野・ニッチな情報の回答精度向上</tspan></text>
    <text fill="#2C2C2C" xml:space="preserve" style="white-space: pre" font-family="Noto Sans JP" font-size="16" letter-spacing="0em"><tspan x="90" y="699.9">• AI学習データには含まれない個人的知識を反映</tspan></text>
    <text fill="#2C2C2C" xml:space="preserve" style="white-space: pre" font-family="Noto Sans JP" font-size="16" letter-spacing="0em"><tspan x="90" y="729.9">• オリジナルの情報源を引用・参照可能に</tspan></text>
    <text fill="#2C2C2C" xml:space="preserve" style="white-space: pre" font-family="Noto Sans JP" font-size="16" letter-spacing="0em"><tspan x="90" y="759.9">• ハルシネーション（誤情報生成）の低減</tspan></text>
    
    <path d="M610 790H70V970H610V790Z" fill="#F4F1EA" stroke="#653A5E" stroke-width="2"/>
    <text fill="#653A5E" xml:space="preserve" style="white-space: pre" font-family="Noto Sans JP" font-size="18" letter-spacing="0em"><tspan x="190" y="820.2">AIエージェントの記憶として</tspan></text>
    <text fill="#2C2C2C" xml:space="preserve" style="white-space: pre" font-family="Noto Sans JP" font-size="16" letter-spacing="0em"><tspan x="90" y="859.9">• ユーザーとの過去の会話履歴</tspan></text>
    <text fill="#2C2C2C" xml:space="preserve" style="white-space: pre" font-family="Noto Sans JP" font-size="16" letter-spacing="0em"><tspan x="90" y="889.9">• ユーザー好みや習慣の記録</tspan></text>
    <text fill="#2C2C2C" xml:space="preserve" style="white-space: pre" font-family="Noto Sans JP" font-size="16" letter-spacing="0em"><tspan x="90" y="919.9">• 重要な出来事・予定の保持</tspan></text>
    <text fill="#2C2C2C" xml:space="preserve" style="white-space: pre" font-family="Noto Sans JP" font-size="16" letter-spacing="0em"><tspan x="90" y="949.9">• 長期的な関係構築の土台に</tspan></text>
    
    <!-- 中央カラム: 知識ベースの構築方法 -->
    <path d="M1260 160H660V1020H1260V160Z" fill="#F4F1EA" stroke="#2C2C2C" stroke-width="2"/>
    <text fill="#2C2C2C" xml:space="preserve" style="white-space: pre" font-family="Noto Serif JP" font-size="28" letter-spacing="0em"><tspan x="820" y="210.2">知識ベースの構築方法</tspan></text>
    <path d="M760 220H1160" stroke="#653A5E" stroke-width="3"/>
    <path d="M760 226C763.314 226 766 223.314 766 220C766 216.686 763.314 214 760 214C756.686 214 754 216.686 754 220C754 223.314 756.686 226 760 226Z" fill="#653A5E"/>
    <path d="M1160 226C1163.31 226 1166 223.314 1166 220C1166 216.686 1163.31 214 1160 214C1156.69 214 1154 216.686 1154 220C1154 223.314 1156.69 226 1160 226Z" fill="#653A5E"/>
    
    <text fill="#653A5E" xml:space="preserve" style="white-space: pre" font-family="Noto Sans JP" font-size="20" letter-spacing="0em"><tspan x="690" y="270">📋 知識データの選定</tspan></text>
    <text fill="#2C2C2C" xml:space="preserve" style="white-space: pre" font-family="Noto Sans JP" font-size="16" letter-spacing="0em"><tspan x="690" y="309.9">AIエージェントに与える情報の精査</tspan></text>
    <text fill="#2C2C2C" xml:space="preserve" style="white-space: pre" font-family="Noto Sans JP" font-size="16" letter-spacing="0em"><tspan x="690" y="339.9">エージェントの専門性・個性を形成</tspan></text>
    
    <path d="M1230 370H690V550H1230V370Z" fill="#F4F1EA" stroke="#653A5E" stroke-width="2"/>
    <text fill="#653A5E" xml:space="preserve" style="white-space: pre" font-family="Noto Sans JP" font-size="18" letter-spacing="0em"><tspan x="895" y="400.2">活用例</tspan></text>
    
    <path d="M720 430H870V530H720V430Z" fill="#F4F1EA" stroke="#653A5E" stroke-width="1.5"/>
    <text fill="#653A5E" xml:space="preserve" style="white-space: pre" font-family="Noto Sans JP" font-size="16" letter-spacing="0em"><tspan x="730" y="455.9">料理専門家AI</tspan></text>
    <text fill="#2C2C2C" xml:space="preserve" style="white-space: pre" font-family="Noto Sans JP" font-size="14" letter-spacing="0em"><tspan x="730" y="485.1">• レシピ集</tspan></text>
    <text fill="#2C2C2C" xml:space="preserve" style="white-space: pre" font-family="Noto Sans JP" font-size="14" letter-spacing="0em"><tspan x="730" y="510.1">• 食材知識</tspan></text>
    
    <path d="M890 430H1040V530H890V430Z" fill="#F4F1EA" stroke="#653A5E" stroke-width="1.5"/>
    <text fill="#653A5E" xml:space="preserve" style="white-space: pre" font-family="Noto Sans JP" font-size="16" letter-spacing="0em"><tspan x="900" y="455.9">法律アドバイザー</tspan></text>
    <text fill="#2C2C2C" xml:space="preserve" style="white-space: pre" font-family="Noto Sans JP" font-size="14" letter-spacing="0em"><tspan x="900" y="485.1">• 判例データ</tspan></text>
    <text fill="#2C2C2C" xml:space="preserve" style="white-space: pre" font-family="Noto Sans JP" font-size="14" letter-spacing="0em"><tspan x="900" y="510.1">• 法律条文</tspan></text>
    
    <path d="M1060 430H1210V530H1060V430Z" fill="#F4F1EA" stroke="#653A5E" stroke-width="1.5"/>
    <text fill="#653A5E" xml:space="preserve" style="white-space: pre" font-family="Noto Sans JP" font-size="16" letter-spacing="0em"><tspan x="1085" y="455.9">個人秘書</tspan></text>
    <text fill="#2C2C2C" xml:space="preserve" style="white-space: pre" font-family="Noto Sans JP" font-size="14" letter-spacing="0em"><tspan x="1070" y="485.1">• スケジュール</tspan></text>
    <text fill="#2C2C2C" xml:space="preserve" style="white-space: pre" font-family="Noto Sans JP" font-size="14" letter-spacing="0em"><tspan x="1070" y="510.1">• 連絡先リスト</tspan></text>
    
    <text fill="#653A5E" xml:space="preserve" style="white-space: pre" font-family="Noto Sans JP" font-size="20" letter-spacing="0em"><tspan x="690" y="590">🔧 知識ベースの実装手順</tspan></text>
    
    <path d="M1230 610H690V790H1230V610Z" fill="#F4F1EA" stroke="#653A5E" stroke-width="2"/>
    
    <path d="M720 640C727.732 640 734 633.732 734 626C734 618.268 727.732 612 720 612C712.268 612 706 618.268 706 626C706 633.732 712.268 640 720 640Z" fill="#F4F1EA" stroke="#653A5E" stroke-width="1.5"/>
    <text fill="#653A5E" xml:space="preserve" style="white-space: pre" font-family="Noto Sans JP" font-size="16" letter-spacing="0em"><tspan x="716" y="631.9">1</tspan></text>
    <text fill="#2C2C2C" xml:space="preserve" style="white-space: pre" font-family="Noto Sans JP" font-size="16" letter-spacing="0em"><tspan x="740" y="630.9">データの収集・整理</tspan></text>
    <text fill="#2C2C2C" xml:space="preserve" style="white-space: pre" font-family="Noto Sans JP" font-size="14" letter-spacing="0em"><tspan x="740" y="655.1">PDFやテキストファイルの準備</tspan></text>
    
    <path d="M720 690C727.732 690 734 683.732 734 676C734 668.268 727.732 662 720 662C712.268 662 706 668.268 706 676C706 683.732 712.268 690 720 690Z" fill="#F4F1EA" stroke="#653A5E" stroke-width="1.5"/>
    <text fill="#653A5E" xml:space="preserve" style="white-space: pre" font-family="Noto Sans JP" font-size="16" letter-spacing="0em"><tspan x="716" y="681.9">2</tspan></text>
    <text fill="#2C2C2C" xml:space="preserve" style="white-space: pre" font-family="Noto Sans JP" font-size="16" letter-spacing="0em"><tspan x="740" y="680.9">データの分割（チャンク化）</tspan></text>
    <text fill="#2C2C2C" xml:space="preserve" style="white-space: pre" font-family="Noto Sans JP" font-size="14" letter-spacing="0em"><tspan x="740" y="705.1">検索効率向上のための適切なサイズ設定</tspan></text>
    
    <path d="M720 740C727.732 740 734 733.732 734 726C734 718.268 727.732 712 720 712C712.268 712 706 718.268 706 726C706 733.732 712.268 740 720 740Z" fill="#F4F1EA" stroke="#653A5E" stroke-width="1.5"/>
    <text fill="#653A5E" xml:space="preserve" style="white-space: pre" font-family="Noto Sans JP" font-size="16" letter-spacing="0em"><tspan x="716" y="731.9">3</tspan></text>
    <text fill="#2C2C2C" xml:space="preserve" style="white-space: pre" font-family="Noto Sans JP" font-size="16" letter-spacing="0em"><tspan x="740" y="730.9">埋め込みベクトル生成</tspan></text>
    <text fill="#2C2C2C" xml:space="preserve" style="white-space: pre" font-family="Noto Sans JP" font-size="14" letter-spacing="0em"><tspan x="740" y="755.1">文書の意味をAIが理解できる形式に変換</tspan></text>
    
    <path d="M720 790C727.732 790 734 783.732 734 776C734 768.268 727.732 762 720 762C712.268 762 706 768.268 706 776C706 783.732 712.268 790 720 790Z" fill="#F4F1EA" stroke="#653A5E" stroke-width="1.5"/>
    <text fill="#653A5E" xml:space="preserve" style="white-space: pre" font-family="Noto Sans JP" font-size="16" letter-spacing="0em"><tspan x="716" y="781.9">4</tspan></text>
    <text fill="#2C2C2C" xml:space="preserve" style="white-space: pre" font-family="Noto Sans JP" font-size="16" letter-spacing="0em"><tspan x="740" y="780.9">ベクトルデータベースへの保存</tspan></text>
    <text fill="#2C2C2C" xml:space="preserve" style="white-space: pre" font-family="Noto Sans JP" font-size="14" letter-spacing="0em"><tspan x="740" y="805.1">高速検索のための特殊DB活用</tspan></text>
    
    <text fill="#653A5E" xml:space="preserve" style="white-space: pre" font-family="Noto Sans JP" font-size="20" letter-spacing="0em"><tspan x="690" y="840">💻 ツール例</tspan></text>
    
    <path d="M1230 860H690V970H1230V860Z" fill="#653A5E" fill-opacity="0.1"/>
    <text fill="#2C2C2C" xml:space="preserve" style="white-space: pre" font-family="Noto Sans JP" font-size="16" letter-spacing="0em"><tspan x="710" y="890.9">• LangChain - 知識ベース構築フレームワーク</tspan></text>
    <text fill="#2C2C2C" xml:space="preserve" style="white-space: pre" font-family="Noto Sans JP" font-size="16" letter-spacing="0em"><tspan x="710" y="920.9">• Pinecone - ベクトルデータベース</tspan></text>
    <text fill="#2C2C2C" xml:space="preserve" style="white-space: pre" font-family="Noto Sans JP" font-size="16" letter-spacing="0em"><tspan x="710" y="950.9">• Chroma - オープンソースベクトルDB</tspan></text>
    
    <!-- 右カラム: バディAIの完成 -->
    <path d="M1880 160H1280V1020H1880V160Z" fill="#F4F1EA" stroke="#2C2C2C" stroke-width="2"/>
    <text fill="#2C2C2C" xml:space="preserve" style="white-space: pre" font-family="Noto Serif JP" font-size="28" letter-spacing="0em"><tspan x="1482" y="210.2">バディAIの完成</tspan></text>
    <path d="M1380 220H1780" stroke="#653A5E" stroke-width="3"/>
    <path d="M1380 226C1383.31 226 1386 223.314 1386 220C1386 216.686 1383.31 214 1380 214C1376.69 214 1374 216.686 1374 220C1374 223.314 1376.69 226 1380 226Z" fill="#653A5E"/>
    <path d="M1780 226C1783.31 226 1786 223.314 1786 220C1786 216.686 1783.31 214 1780 214C1776.69 214 1774 216.686 1774 220C1774 223.314 1776.69 226 1780 226Z" fill="#653A5E"/>
    
    <text fill="#653A5E" xml:space="preserve" style="white-space: pre" font-family="Noto Sans JP" font-size="20" letter-spacing="0em"><tspan x="1310" y="270">🧩 三要素の統合</tspan></text>
    <text fill="#2C2C2C" xml:space="preserve" style="white-space: pre" font-family="Noto Sans JP" font-size="16" letter-spacing="0em"><tspan x="1310" y="309.9">完成度の高いAIエージェントの構築には</tspan></text>
    <text fill="#2C2C2C" xml:space="preserve" style="white-space: pre" font-family="Noto Sans JP" font-size="16" letter-spacing="0em"><tspan x="1310" y="339.9">三つの要素の適切な統合が不可欠</tspan></text>
    
    <path d="M1846 370H1306V550H1846V370Z" fill="#F4F1EA" stroke="#653A5E" stroke-width="2"/>
    <text fill="#653A5E" xml:space="preserve" style="white-space: pre" font-family="Noto Sans JP" font-size="18" letter-spacing="0em"><tspan x="1468.07" y="400.2">AIエージェント完成の三要素</tspan></text>
    
    <path d="M1580 430L1380 530H1780L1580 430Z" stroke="#653A5E" stroke-width="2"/>
    <text fill="#653A5E" xml:space="preserve" style="white-space: pre" font-family="Noto Sans JP" font-size="16" letter-spacing="0em"><tspan x="1518.41" y="425.9">知識ベース (RAG)</tspan></text>
    <text fill="#653A5E" xml:space="preserve" style="white-space: pre" font-family="Noto Sans JP" font-size="16" letter-spacing="0em"><tspan x="1330.46" y="547.9">システムプロンプト</tspan></text>
    <text fill="#653A5E" xml:space="preserve" style="white-space: pre" font-family="Noto Sans JP" font-size="16" letter-spacing="0em"><tspan x="1703.24" y="547.9">個性パラメーター</tspan></text>
    
    <path d="M1580 510C1596.57 510 1610 496.569 1610 480C1610 463.431 1596.57 450 1580 450C1563.43 450 1550 463.431 1550 480C1550 496.569 1563.43 510 1580 510Z" fill="#F4F1EA" stroke="#653A5E" stroke-width="2"/>
    <text fill="#653A5E" xml:space="preserve" style="white-space: pre" font-family="Noto Sans JP" font-size="14" letter-spacing="0em"><tspan x="1566" y="485.1">完成</tspan></text>
    
    <text fill="#653A5E" xml:space="preserve" style="white-space: pre" font-family="Noto Sans JP" font-size="20" letter-spacing="0em"><tspan x="1310" y="590">🔄 統合アプローチ</tspan></text>
    
    <path d="M1846 610H1306V780H1846V610Z" fill="#F4F1EA" stroke="#653A5E" stroke-width="2"/>
    <text fill="#2C2C2C" xml:space="preserve" style="white-space: pre" font-family="Noto Sans JP" font-size="16" letter-spacing="0em"><tspan x="1326" y="639.9">① システムプロンプトに個性パラメーターを反映</tspan></text>
    <text fill="#2C2C2C" xml:space="preserve" style="white-space: pre" font-family="Noto Sans JP" font-size="14" letter-spacing="0em"><tspan x="1350" y="665.1">・フィラーや口調の特徴を具体的に指定</tspan></text>
    
    <text fill="#2C2C2C" xml:space="preserve" style="white-space: pre" font-family="Noto Sans JP" font-size="16" letter-spacing="0em"><tspan x="1326" y="695.9">② 知識ベースで専門性・記憶を強化</tspan></text>
    <text fill="#2C2C2C" xml:space="preserve" style="white-space: pre" font-family="Noto Sans JP" font-size="14" letter-spacing="0em"><tspan x="1350" y="721.1">・個性に関連する特定分野の知識を追加</tspan></text>
    <text fill="#2C2C2C" xml:space="preserve" style="white-space: pre" font-family="Noto Sans JP" font-size="14" letter-spacing="0em"><tspan x="1350" y="751.1">・ユーザーとの会話記録を保持</tspan></text>
    
    <text fill="#653A5E" xml:space="preserve" style="white-space: pre" font-family="Noto Sans JP" font-size="20" letter-spacing="0em"><tspan x="1310" y="820">✅ 完成チェックリスト</tspan></text>
    
    <path d="M1846 840H1306V970H1846V840Z" fill="#653A5E"/>
    <text fill="#F4F1EA" xml:space="preserve" style="white-space: pre" font-family="Noto Sans JP" font-size="18" letter-spacing="0em"><tspan x="1491.06" y="870.2">最終調整ポイント</tspan></text>
    <text fill="#F4F1EA" xml:space="preserve" style="white-space: pre" font-family="Noto Sans JP" font-size="16" letter-spacing="0em"><tspan x="1326" y="900.9">• 一貫性のある応答スタイルを確認</tspan></text>
    <text fill="#F4F1EA" xml:space="preserve" style="white-space: pre" font-family="Noto Sans JP" font-size="16" letter-spacing="0em"><tspan x="1326" y="930.9">• 知識の正確性と検索精度をテスト</tspan></text>
    <text fill="#F4F1EA" xml:space="preserve" style="white-space: pre" font-family="Noto Sans JP" font-size="16" letter-spacing="0em"><tspan x="1326" y="960.9">• 自然な会話感と反応速度を調整</tspan></text>
    
    <!-- フッター -->
    <path d="M1920 1040H0V1080H1920V1040Z" fill="#2C2C2C"/>
    <text fill="#F4F1EA" xml:space="preserve" style="white-space: pre" font-family="Noto Sans JP" font-size="16" letter-spacing="0em"><tspan x="694.32" y="1064.9">TANREN株式会社 / 株式会社MVP | AI人材育成プログラム | 2025年春季講座</tspan></text>
  </g>
  <defs>
    <clipPath id="clip0_0_1">
      <rect width="1920" height="1080" fill="white"/>
    </clipPath>
  </defs>
</svg> 