<?xml version="1.0" encoding="UTF-8" standalone="no"?>
<svg width="1920" height="1080" viewBox="0 0 1920 1080" fill="none" xmlns="http://www.w3.org/2000/svg" xmlns:xlink="http://www.w3.org/1999/xlink">
  <rect width="1920" height="1080" fill="#F4F1EA"/>
  <g clip-path="url(#clip0_0_1)">
    <path d="M1920 0H0V1080H1920V0Z" fill="#F4F1EA"/>
    <path d="M1920 0H0V120H1920V0Z" fill="#2C2C2C"/>
    <text fill="#F4F1EA" xml:space="preserve" style="white-space: pre" font-family="Noto Serif JP" font-size="36" letter-spacing="0em"><tspan x="724.734" y="54.9">Day6: AIエージェントの展開</tspan></text>
    <text fill="#F4F1EA" xml:space="preserve" style="white-space: pre" font-family="Noto Serif JP" font-size="24" letter-spacing="0em"><tspan x="871.016" y="100.1">実用化への第一歩</tspan></text>
    <path d="M520 83C524.418 83 528 79.4183 528 75C528 70.5817 524.418 67 520 67C515.582 67 512 75C512 79.4183 515.582 83 520 83Z" fill="#B3322B"/>
    <path d="M540 75H740" stroke="#B3322B" stroke-width="3"/>
    <path d="M1380 83C1384.42 83 1388 79.4183 1388 75C1388 70.5817 1384.42 67 1380 67C1375.58 67 1372 75C1372 79.4183 1375.58 83 1380 83Z" fill="#B3322B"/>
    <path d="M1160 75H1360" stroke="#B3322B" stroke-width="3"/>
    
    <!-- 左カラム: 最終プレゼンテーション -->
    <path d="M640 160H40V1020H640V160Z" fill="#F4F1EA" stroke="#2C2C2C" stroke-width="2"/>
    <text fill="#2C2C2C" xml:space="preserve" style="white-space: pre" font-family="Noto Serif JP" font-size="28" letter-spacing="0em"><tspan x="180" y="210.2">最終プレゼンテーション</tspan></text>
    <path d="M140 220H540" stroke="#B3322B" stroke-width="3"/>
    <path d="M140 226C143.314 226 146 223.314 146 220C146 216.686 143.314 214 140 214C136.686 214 134 216.686 134 220C134 223.314 136.686 226 140 226Z" fill="#B3322B"/>
    <path d="M540 226C543.314 226 546 223.314 546 220C546 216.686 543.314 214 540 214C536.686 214 534 216.686 534 220C534 223.314 536.686 226 540 226Z" fill="#B3322B"/>
    
    <text fill="#B3322B" xml:space="preserve" style="white-space: pre" font-family="Noto Sans JP" font-size="20" letter-spacing="0em"><tspan x="70" y="270">🎯 プレゼンの本質</tspan></text>
    <path d="M610 290H70V450H610V290Z" fill="#F4F1EA" stroke="#B3322B" stroke-width="1"/>
    <text fill="#2C2C2C" xml:space="preserve" style="white-space: pre" font-family="Noto Sans JP" font-size="16" font-weight="bold" letter-spacing="0em"><tspan x="90" y="330.9">1. 6日間の学びの集大成</tspan></text>
    <text fill="#2C2C2C" xml:space="preserve" style="white-space: pre" font-family="Noto Sans JP" font-size="16" letter-spacing="0em"><tspan x="110" y="365.9">• エージェント開発の成果披露</tspan></text>
    <text fill="#2C2C2C" xml:space="preserve" style="white-space: pre" font-family="Noto Sans JP" font-size="16" letter-spacing="0em"><tspan x="110" y="400.9">• 相互評価による学びの深化</tspan></text>
    
    <text fill="#B3322B" xml:space="preserve" style="white-space: pre" font-family="Noto Sans JP" font-size="20" letter-spacing="0em"><tspan x="70" y="500">🏗️ 効果的な発表構成</tspan></text>
    <path d="M610 520H70V670H610V520Z" fill="#F4F1EA" stroke="#B3322B" stroke-width="1"/>
    <text fill="#2C2C2C" xml:space="preserve" style="white-space: pre" font-family="Noto Sans JP" font-size="16" font-weight="bold" letter-spacing="0em"><tspan x="90" y="560.9">2. 5分間の効率的構成</tspan></text>
    <text fill="#2C2C2C" xml:space="preserve" style="white-space: pre" font-family="Noto Sans JP" font-size="16" letter-spacing="0em"><tspan x="110" y="595.9">• 目的・機能・実装・デモ・展望</tspan></text>
    <text fill="#2C2C2C" xml:space="preserve" style="white-space: pre" font-family="Noto Sans JP" font-size="16" letter-spacing="0em"><tspan x="110" y="630.9">• デモによる実用価値の提示</tspan></text>
    
    <path d="M610 700H70V950H610V700Z" fill="#F4F1EA" stroke="#B3322B" stroke-width="1"/>
    <text fill="#B3322B" xml:space="preserve" style="white-space: pre" font-family="Noto Sans JP" font-size="20" letter-spacing="0em"><tspan x="90" y="740">【評価と継続的改善】</tspan></text>
    
    <path d="M90 775C92.2091 775 94 773.209 94 771C94 768.791 92.2091 767 90 767C87.7909 767 86 768.791 86 771C86 773.209 87.7909 775 90 775Z" fill="#2C2C2C"/>
    <text fill="#2C2C2C" xml:space="preserve" style="white-space: pre" font-family="Noto Sans JP" font-size="16" letter-spacing="0em"><tspan x="110" y="775.9">実用性と問題解決力の評価</tspan></text>
    
    <path d="M90 810C92.2091 810 94 808.209 94 806C94 803.791 92.2091 802 90 802C87.7909 802 86 803.791 86 806C86 808.209 87.7909 810 90 810Z" fill="#2C2C2C"/>
    <text fill="#2C2C2C" xml:space="preserve" style="white-space: pre" font-family="Noto Sans JP" font-size="16" letter-spacing="0em"><tspan x="110" y="810.9">技術的完成度とデザイン性</tspan></text>
    
    <path d="M90 845C92.2091 845 94 843.209 94 841C94 838.791 92.2091 837 90 837C87.7909 837 86 838.791 86 841C86 843.209 87.7909 845 90 845Z" fill="#2C2C2C"/>
    <text fill="#2C2C2C" xml:space="preserve" style="white-space: pre" font-family="Noto Sans JP" font-size="16" letter-spacing="0em"><tspan x="110" y="845.9">プレゼンテーションの質</tspan></text>
    
    <path d="M610 970H70V1000H610V970Z" fill="#B3322B" fill-opacity="0.1"/>
    <text fill="#2C2C2C" xml:space="preserve" style="white-space: pre" font-family="Noto Sans JP" font-size="16" font-weight="bold" letter-spacing="0em"><tspan x="130" y="990.9">学びの共有と成長への第一歩</tspan></text>
    
    <!-- 中央カラム: AIエージェントの未来展望 -->
    <path d="M1260 160H660V1020H1260V160Z" fill="#F4F1EA" stroke="#2C2C2C" stroke-width="2"/>
    <text fill="#2C2C2C" xml:space="preserve" style="white-space: pre" font-family="Noto Serif JP" font-size="28" letter-spacing="0em"><tspan x="800" y="210.2">AIエージェントの未来展望</tspan></text>
    <path d="M760 220H1160" stroke="#1A5B66" stroke-width="3"/>
    <path d="M760 226C763.314 226 766 223.314 766 220C766 216.686 763.314 214 760 214C756.686 214 754 216.686 754 220C754 223.314 756.686 226 760 226Z" fill="#1A5B66"/>
    <path d="M1160 226C1163.31 226 1166 223.314 1166 220C1166 216.686 1163.31 214 1160 214C1156.69 214 1154 216.686 1154 220C1154 223.314 1156.69 226 1160 226Z" fill="#1A5B66"/>
    
    <text fill="#1A5B66" xml:space="preserve" style="white-space: pre" font-family="Noto Sans JP" font-size="20" letter-spacing="0em"><tspan x="690" y="270">📱 急速に進化する技術トレンド</tspan></text>
    
    <path d="M1230 290H690V370H1230V290Z" fill="#1A5B66" fill-opacity="0.1"/>
    <text fill="#2C2C2C" xml:space="preserve" style="white-space: pre" font-family="Noto Sans JP" font-size="24" font-weight="bold" letter-spacing="0em"><tspan x="770" y="340.1">進化の方向性と社会へのインパクト</tspan></text>
    
    <path d="M1230 390H690V650H1230V390Z" fill="#F4F1EA" stroke="#1A5B66" stroke-width="1"/>
    <text fill="#2C2C2C" xml:space="preserve" style="white-space: pre" font-family="Noto Sans JP" font-size="18" font-weight="bold" letter-spacing="0em"><tspan x="710" y="430.2">1. 主要な技術進化の方向性</tspan></text>
    <text fill="#2C2C2C" xml:space="preserve" style="white-space: pre" font-family="Noto Sans JP" font-size="16" letter-spacing="0em"><tspan x="730" y="460.9">• マルチモーダル能力の強化</tspan></text>
    <text fill="#2C2C2C" xml:space="preserve" style="white-space: pre" font-family="Noto Sans JP" font-size="16" letter-spacing="0em"><tspan x="730" y="490.9">• エージェント間連携の高度化</tspan></text>
    <text fill="#2C2C2C" xml:space="preserve" style="white-space: pre" font-family="Noto Sans JP" font-size="16" letter-spacing="0em"><tspan x="730" y="520.9">• 自律性と判断能力の向上</tspan></text>
    
    <text fill="#2C2C2C" xml:space="preserve" style="white-space: pre" font-family="Noto Sans JP" font-size="18" font-weight="bold" letter-spacing="0em"><tspan x="710" y="560.2">2. 社会的インパクト</tspan></text>
    <text fill="#2C2C2C" xml:space="preserve" style="white-space: pre" font-family="Noto Sans JP" font-size="16" letter-spacing="0em"><tspan x="730" y="590.9">• 産業構造と労働市場の再編</tspan></text>
    <text fill="#2C2C2C" xml:space="preserve" style="white-space: pre" font-family="Noto Sans JP" font-size="16" letter-spacing="0em"><tspan x="730" y="620.9">• 教育と人材育成の変革</tspan></text>
    
    <path d="M1230 670H690V810H1230V670Z" fill="#F4F1EA" stroke="#1A5B66" stroke-width="1"/>
    <text fill="#2C2C2C" xml:space="preserve" style="white-space: pre" font-family="Noto Sans JP" font-size="18" font-weight="bold" letter-spacing="0em"><tspan x="710" y="710.2">法規制と倫理的枠組み</tspan></text>
    <text fill="#2C2C2C" xml:space="preserve" style="white-space: pre" font-family="Noto Sans JP" font-size="16" letter-spacing="0em"><tspan x="730" y="740.9">• 国際的な法規制の動向</tspan></text>
    <text fill="#2C2C2C" xml:space="preserve" style="white-space: pre" font-family="Noto Sans JP" font-size="16" letter-spacing="0em"><tspan x="730" y="770.9">• 透明性と説明可能性の要件</tspan></text>
    
    <path d="M1230 830H690V950H1230V830Z" fill="#1A5B66" fill-opacity="0.1"/>
    <text fill="#1A5B66" xml:space="preserve" style="white-space: pre" font-family="Noto Sans JP" font-size="20" letter-spacing="0em"><tspan x="710" y="870">重要な示唆</tspan></text>
    <text fill="#2C2C2C" xml:space="preserve" style="white-space: pre" font-family="Noto Sans JP" font-size="16" letter-spacing="0em"><tspan x="730" y="910.9">• 技術トレンドの継続的モニタリング</tspan></text>
    
    <path d="M1230 970H690V1000H1230V970Z" fill="#1A5B66" fill-opacity="0.1"/>
    <text fill="#2C2C2C" xml:space="preserve" style="white-space: pre" font-family="Noto Sans JP" font-size="16" font-weight="bold" letter-spacing="0em"><tspan x="710" y="990.9">変化に適応し未来を先取りする視点</tspan></text>
    
    <!-- 右カラム: 共創とチャレンジ -->
    <path d="M1880 160H1280V1020H1880V160Z" fill="#F4F1EA" stroke="#2C2C2C" stroke-width="2"/>
    <text fill="#2C2C2C" xml:space="preserve" style="white-space: pre" font-family="Noto Serif JP" font-size="28" letter-spacing="0em"><tspan x="1520" y="210.2">共創とチャレンジ</tspan></text>
    <path d="M1380 220H1780" stroke="#653A5E" stroke-width="3"/>
    <path d="M1380 226C1383.31 226 1386 223.314 1386 220C1386 216.686 1383.31 214 1380 214C1376.69 214 1374 216.686 1374 220C1374 223.314 1376.69 226 1380 226Z" fill="#653A5E"/>
    <path d="M1780 226C1783.31 226 1786 223.314 1786 220C1786 276.686 1783.31 274 1780 274C1776.69 274 1774 276.686 1774 280C1774 283.314 1776.69 226 1780 226Z" fill="#653A5E"/>
    
    <text fill="#653A5E" xml:space="preserve" style="white-space: pre" font-family="Noto Sans JP" font-size="20" letter-spacing="0em"><tspan x="1310" y="270">🤝 人間とAIの協働モデル</tspan></text>
    
    <path d="M1850 290H1310V500H1850V290Z" fill="#F4F1EA" stroke="#653A5E" stroke-width="1"/>
    
    <text fill="#2C2C2C" xml:space="preserve" style="white-space: pre" font-family="Noto Sans JP" font-size="18" font-weight="bold" letter-spacing="0em"><tspan x="1330" y="330.2">1. 共創の本質</tspan></text>
    <text fill="#2C2C2C" xml:space="preserve" style="white-space: pre" font-family="Noto Sans JP" font-size="16" letter-spacing="0em"><tspan x="1350" y="365.9">• 競合ではなく協働するパートナーシップ</tspan></text>
    <text fill="#2C2C2C" xml:space="preserve" style="white-space: pre" font-family="Noto Sans JP" font-size="16" letter-spacing="0em"><tspan x="1350" y="400.9">• 人間の創造性とAIの処理能力の融合</tspan></text>
    <text fill="#2C2C2C" xml:space="preserve" style="white-space: pre" font-family="Noto Sans JP" font-size="16" letter-spacing="0em"><tspan x="1350" y="435.9">• 相互補完による価値最大化</tspan></text>
    <text fill="#2C2C2C" xml:space="preserve" style="white-space: pre" font-family="Noto Sans JP" font-size="16" letter-spacing="0em"><tspan x="1350" y="470.9">• 領域別の共創モデルの確立</tspan></text>
    
    <path d="M1850 520H1310V730H1850V520Z" fill="#F4F1EA" stroke="#653A5E" stroke-width="1"/>
    <text fill="#2C2C2C" xml:space="preserve" style="white-space: pre" font-family="Noto Sans JP" font-size="18" font-weight="bold" letter-spacing="0em"><tspan x="1330" y="560.2">2. これからの思考法</tspan></text>
    <text fill="#2C2C2C" xml:space="preserve" style="white-space: pre" font-family="Noto Sans JP" font-size="16" letter-spacing="0em"><tspan x="1350" y="595.9">• 柔軟性と継続的学習の姿勢</tspan></text>
    <text fill="#2C2C2C" xml:space="preserve" style="white-space: pre" font-family="Noto Sans JP" font-size="16" letter-spacing="0em"><tspan x="1350" y="630.9">• テクノロジーへの理解と活用力</tspan></text>
    <text fill="#2C2C2C" xml:space="preserve" style="white-space: pre" font-family="Noto Sans JP" font-size="16" letter-spacing="0em"><tspan x="1350" y="665.9">• 批判的思考とメタ認知能力</tspan></text>
    <text fill="#2C2C2C" xml:space="preserve" style="white-space: pre" font-family="Noto Sans JP" font-size="16" letter-spacing="0em"><tspan x="1350" y="700.9">• プロセス重視の問題解決アプローチ</tspan></text>
    
    <path d="M1850 750H1310V950H1850V750Z" fill="#653A5E" fill-opacity="0.1"/>
    <text fill="#653A5E" xml:space="preserve" style="white-space: pre" font-family="Noto Sans JP" font-size="20" letter-spacing="0em"><tspan x="1330" y="790">学習と成長の継続</tspan></text>
    <text fill="#2C2C2C" xml:space="preserve" style="white-space: pre" font-family="Noto Sans JP" font-size="16" letter-spacing="0em"><tspan x="1350" y="825.9">• コミュニティとの知見共有</tspan></text>
    <text fill="#2C2C2C" xml:space="preserve" style="white-space: pre" font-family="Noto Sans JP" font-size="16" letter-spacing="0em"><tspan x="1350" y="860.9">• AIエージェントの継続的進化</tspan></text>
    <text fill="#2C2C2C" xml:space="preserve" style="white-space: pre" font-family="Noto Sans JP" font-size="16" letter-spacing="0em"><tspan x="1350" y="895.9">• 最新技術トレンドのキャッチアップ</tspan></text>
    <text fill="#2C2C2C" xml:space="preserve" style="white-space: pre" font-family="Noto Sans JP" font-size="16" letter-spacing="0em"><tspan x="1350" y="930.9">• 実践プロジェクトでのスキル適用</tspan></text>
    
    <path d="M1850 970H1310V1000H1850V970Z" fill="#653A5E" fill-opacity="0.1"/>
    <text fill="#2C2C2C" xml:space="preserve" style="white-space: pre" font-family="Noto Sans JP" font-size="16" font-weight="bold" letter-spacing="0em"><tspan x="1420" y="990.9">学びの旅の始まり</tspan></text>
    
    <!-- フッター -->
    <path d="M1920 1040H0V1080H1920V1040Z" fill="#2C2C2C"/>
    <text fill="#F4F1EA" xml:space="preserve" style="white-space: pre" font-family="Noto Sans JP" font-size="16" letter-spacing="0em"><tspan x="694.32" y="1064.9">TANREN株式会社 / 株式会社MVP | AI人材育成プログラム | 2025年春季講座</tspan></text>
  </g>
  <defs>
    <clipPath id="clip0_0_1">
      <rect width="1920" height="1080" fill="white"/>
    </clipPath>
  </defs>
</svg> 