<?xml version="1.0" encoding="UTF-8" standalone="no"?>
<svg width="1920" height="1080" viewBox="0 0 1920 1080" fill="none" xmlns="http://www.w3.org/2000/svg" xmlns:xlink="http://www.w3.org/1999/xlink">
  <rect width="1920" height="1080" fill="#F4F1EA"/>
  <g clip-path="url(#clip0_0_1)">
    <path d="M1920 0H0V1080H1920V0Z" fill="#F4F1EA"/>
    <path d="M1920 0H0V120H1920V0Z" fill="#2C2C2C"/>
    <text fill="#F4F1EA" xml:space="preserve" style="white-space: pre" font-family="Noto Serif JP" font-size="36" letter-spacing="0em"><tspan x="724.734" y="54.9">Day6: AIエージェントの展開</tspan></text>
    <text fill="#F4F1EA" xml:space="preserve" style="white-space: pre" font-family="Noto Serif JP" font-size="24" letter-spacing="0em"><tspan x="871.016" y="100.1">実用化への第一歩</tspan></text>
    <path d="M520 83C524.418 83 528 79.4183 528 75C528 70.5817 524.418 67 520 67C515.582 67 512 70.5817 512 75C512 79.4183 515.582 83 520 83Z" fill="#B3322B"/>
    <path d="M540 75H740" stroke="#B3322B" stroke-width="3"/>
    <path d="M1380 83C1384.42 83 1388 79.4183 1388 75C1388 70.5817 1384.42 67 1380 67C1375.58 67 1372 70.5817 1372 75C1372 79.4183 1375.58 83 1380 83Z" fill="#B3322B"/>
    <path d="M1160 75H1360" stroke="#B3322B" stroke-width="3"/>
    
    <!-- メインタイトル -->
    <text fill="#2C2C2C" xml:space="preserve" style="white-space: pre" font-family="Noto Serif JP" font-size="42" font-weight="bold" letter-spacing="0em"><tspan x="700" y="180.9">AIエージェントの未来展望</tspan></text>
    
    <!-- 左カラム -->
    <path d="M640 220H40V1020H640V220Z" fill="#F4F1EA" stroke="#2C2C2C" stroke-width="2"/>
    <text fill="#2C2C2C" xml:space="preserve" style="white-space: pre" font-family="Noto Serif JP" font-size="28" letter-spacing="0em"><tspan x="170" y="270.2">技術トレンド</tspan></text>
    <path d="M140 280H540" stroke="#B3322B" stroke-width="3"/>
    <path d="M140 286C143.314 286 146 283.314 146 280C146 276.686 143.314 274 140 274C136.686 274 134 276.686 134 280C134 283.314 136.686 286 140 286Z" fill="#B3322B"/>
    <path d="M540 286C543.314 286 546 283.314 546 280C546 276.686 543.314 274 540 274C536.686 274 534 276.686 534 280C534 283.314 536.686 286 540 286Z" fill="#B3322B"/>
    
    <text fill="#B3322B" xml:space="preserve" style="white-space: pre" font-family="Noto Sans JP" font-size="20" letter-spacing="0em"><tspan x="70" y="330">📱 マルチモーダルの進化</tspan></text>
    <path d="M610 350H70V500H610V350Z" fill="#F4F1EA" stroke="#B3322B" stroke-width="1"/>
    <text fill="#2C2C2C" xml:space="preserve" style="white-space: pre" font-family="Noto Sans JP" font-size="16" letter-spacing="0em"><tspan x="90" y="380.9">• テキスト、画像、音声、動画を統合的に</tspan></text>
    <text fill="#2C2C2C" xml:space="preserve" style="white-space: pre" font-family="Noto Sans JP" font-size="16" letter-spacing="0em"><tspan x="90" y="410.9">　理解・生成する能力の向上</tspan></text>
    <text fill="#2C2C2C" xml:space="preserve" style="white-space: pre" font-family="Noto Sans JP" font-size="16" letter-spacing="0em"><tspan x="90" y="440.9">• 2025年中に実用化が進むと予測</tspan></text>
    <text fill="#2C2C2C" xml:space="preserve" style="white-space: pre" font-family="Noto Sans JP" font-size="16" letter-spacing="0em"><tspan x="90" y="470.9">• あらゆる感覚を横断した理解の実現</tspan></text>
    
    <text fill="#B3322B" xml:space="preserve" style="white-space: pre" font-family="Noto Sans JP" font-size="20" letter-spacing="0em"><tspan x="70" y="540">🤝 エージェント連携の高度化</tspan></text>
    <path d="M610 560H70V830H610V560Z" fill="#F4F1EA" stroke="#B3322B" stroke-width="1"/>
    <text fill="#2C2C2C" xml:space="preserve" style="white-space: pre" font-family="Noto Sans JP" font-size="16" letter-spacing="0em"><tspan x="90" y="590.9">• 複数のAIエージェントが連携して</tspan></text>
    <text fill="#2C2C2C" xml:space="preserve" style="white-space: pre" font-family="Noto Sans JP" font-size="16" letter-spacing="0em"><tspan x="90" y="620.9">　複雑なタスクを協調して解決</tspan></text>
    
    <text fill="#2C2C2C" xml:space="preserve" style="white-space: pre" font-family="Noto Sans JP" font-size="16" font-weight="bold" letter-spacing="0em"><tspan x="90" y="660.9">連携の発展例：</tspan></text>
    <text fill="#2C2C2C" xml:space="preserve" style="white-space: pre" font-family="Noto Sans JP" font-size="16" letter-spacing="0em"><tspan x="110" y="690.9">• 専門分野ごとの得意分野を持つエージェント</tspan></text>
    <text fill="#2C2C2C" xml:space="preserve" style="white-space: pre" font-family="Noto Sans JP" font-size="16" letter-spacing="0em"><tspan x="110" y="720.9">• タスク管理とサブタスク分担の自動化</tspan></text>
    <text fill="#2C2C2C" xml:space="preserve" style="white-space: pre" font-family="Noto Sans JP" font-size="16" letter-spacing="0em"><tspan x="110" y="750.9">• 自律的な判断基準と共通目標での協働</tspan></text>
    <text fill="#2C2C2C" xml:space="preserve" style="white-space: pre" font-family="Noto Sans JP" font-size="16" letter-spacing="0em"><tspan x="110" y="780.9">• 人間のような社会的相互作用の実現</tspan></text>
    
    <path d="M610 850H70V990H610V850Z" fill="#B3322B" fill-opacity="0.1"/>
    <text fill="#B3322B" xml:space="preserve" style="white-space: pre" font-family="Noto Sans JP" font-size="20" letter-spacing="0em"><tspan x="90" y="890">🚀 自律性の向上</tspan></text>
    <text fill="#2C2C2C" xml:space="preserve" style="white-space: pre" font-family="Noto Sans JP" font-size="16" letter-spacing="0em"><tspan x="90" y="925.9">• 人間の指示なしに目標達成のために</tspan></text>
    <text fill="#2C2C2C" xml:space="preserve" style="white-space: pre" font-family="Noto Sans JP" font-size="16" letter-spacing="0em"><tspan x="90" y="950.9">　自ら計画・行動する能力の強化</tspan></text>
    
    <!-- 中央カラム -->
    <path d="M1260 220H660V1020H1260V220Z" fill="#F4F1EA" stroke="#2C2C2C" stroke-width="2"/>
    <text fill="#2C2C2C" xml:space="preserve" style="white-space: pre" font-family="Noto Serif JP" font-size="28" letter-spacing="0em"><tspan x="800" y="270.2">社会的インパクト</tspan></text>
    <path d="M760 280H1160" stroke="#1A5B66" stroke-width="3"/>
    <path d="M760 286C763.314 286 766 283.314 766 280C766 276.686 763.314 274 760 274C756.686 274 754 276.686 754 280C754 283.314 756.686 286 760 286Z" fill="#1A5B66"/>
    <path d="M1160 286C1163.31 286 1166 283.314 1166 280C1166 276.686 1163.31 274 1160 274C1156.69 274 1154 276.686 1154 280C1154 283.314 1156.69 286 1160 286Z" fill="#1A5B66"/>
    
    <path d="M1230 330H690V550H1230V330Z" fill="#F4F1EA" stroke="#1A5B66" stroke-width="1"/>
    
    <text fill="#1A5B66" xml:space="preserve" style="white-space: pre" font-family="Noto Sans JP" font-size="20" letter-spacing="0em"><tspan x="710" y="370">🏭 産業構造の変化</tspan></text>
    <text fill="#2C2C2C" xml:space="preserve" style="white-space: pre" font-family="Noto Sans JP" font-size="16" letter-spacing="0em"><tspan x="730" y="405.9">• 自動化による労働市場の再編</tspan></text>
    <text fill="#2C2C2C" xml:space="preserve" style="white-space: pre" font-family="Noto Sans JP" font-size="16" letter-spacing="0em"><tspan x="730" y="435.9">• 新たな職種・スキルの台頭</tspan></text>
    <text fill="#2C2C2C" xml:space="preserve" style="white-space: pre" font-family="Noto Sans JP" font-size="16" letter-spacing="0em"><tspan x="730" y="465.9">• 人間とAIの協働モデルの確立</tspan></text>
    <text fill="#2C2C2C" xml:space="preserve" style="white-space: pre" font-family="Noto Sans JP" font-size="16" letter-spacing="0em"><tspan x="730" y="495.9">• クリエイティブ業界での共創関係</tspan></text>
    <text fill="#2C2C2C" xml:space="preserve" style="white-space: pre" font-family="Noto Sans JP" font-size="16" letter-spacing="0em"><tspan x="730" y="525.9">• 定型業務代替による人的資源再配分</tspan></text>
    
    <path d="M1230 570H690V770H1230V570Z" fill="#F4F1EA" stroke="#1A5B66" stroke-width="1"/>
    
    <text fill="#1A5B66" xml:space="preserve" style="white-space: pre" font-family="Noto Sans JP" font-size="20" letter-spacing="0em"><tspan x="710" y="610">🎓 教育と人材育成</tspan></text>
    <text fill="#2C2C2C" xml:space="preserve" style="white-space: pre" font-family="Noto Sans JP" font-size="16" letter-spacing="0em"><tspan x="730" y="645.9">• AI時代に必要な基礎能力の再定義</tspan></text>
    <text fill="#2C2C2C" xml:space="preserve" style="white-space: pre" font-family="Noto Sans JP" font-size="16" letter-spacing="0em"><tspan x="730" y="675.9">• パーソナライズド学習の普及</tspan></text>
    <text fill="#2C2C2C" xml:space="preserve" style="white-space: pre" font-family="Noto Sans JP" font-size="16" letter-spacing="0em"><tspan x="730" y="705.9">• 生涯学習のサポート技術</tspan></text>
    <text fill="#2C2C2C" xml:space="preserve" style="white-space: pre" font-family="Noto Sans JP" font-size="16" letter-spacing="0em"><tspan x="730" y="735.9">• AIと共に学ぶカリキュラム設計</tspan></text>
    
    <path d="M1230 790H690V990H1230V790Z" fill="#1A5B66" fill-opacity="0.1"/>
    <text fill="#1A5B66" xml:space="preserve" style="white-space: pre" font-family="Noto Sans JP" font-size="20" letter-spacing="0em"><tspan x="710" y="830">🤝 人間とAIの共創</tspan></text>
    <text fill="#2C2C2C" xml:space="preserve" style="white-space: pre" font-family="Noto Sans JP" font-size="16" letter-spacing="0em"><tspan x="730" y="870.9">• 競合ではなく協働するパートナーシップ</tspan></text>
    <text fill="#2C2C2C" xml:space="preserve" style="white-space: pre" font-family="Noto Sans JP" font-size="16" letter-spacing="0em"><tspan x="730" y="900.9">• 人間の創造性とAIの処理能力の融合</tspan></text>
    <text fill="#2C2C2C" xml:space="preserve" style="white-space: pre" font-family="Noto Sans JP" font-size="16" letter-spacing="0em"><tspan x="730" y="930.9">• 柔軟性と継続的学習の姿勢の重要性</tspan></text>
    <text fill="#2C2C2C" xml:space="preserve" style="white-space: pre" font-family="Noto Sans JP" font-size="16" letter-spacing="0em"><tspan x="730" y="960.9">• 批判的思考とメタ認知能力の価値向上</tspan></text>
    
    <!-- 右カラム -->
    <path d="M1880 220H1280V1020H1880V220Z" fill="#F4F1EA" stroke="#2C2C2C" stroke-width="2"/>
    <text fill="#2C2C2C" xml:space="preserve" style="white-space: pre" font-family="Noto Serif JP" font-size="28" letter-spacing="0em"><tspan x="1450" y="270.2">法規制の動向</tspan></text>
    <path d="M1380 280H1780" stroke="#653A5E" stroke-width="3"/>
    <path d="M1380 286C1383.31 286 1386 283.314 1386 280C1386 276.686 1383.31 274 1380 274C1376.69 274 1374 276.686 1374 280C1374 283.314 1376.69 286 1380 286Z" fill="#653A5E"/>
    <path d="M1780 286C1783.31 286 1786 283.314 1786 280C1786 276.686 1783.31 274 1780 274C1776.69 274 1774 276.686 1774 280C1774 283.314 1776.69 286 1780 286Z" fill="#653A5E"/>
    
    <path d="M1850 330H1310V480H1850V330Z" fill="#F4F1EA" stroke="#653A5E" stroke-width="1"/>
    <text fill="#653A5E" xml:space="preserve" style="white-space: pre" font-family="Noto Sans JP" font-size="20" letter-spacing="0em"><tspan x="1330" y="370">⚖️ AI法規制の国際動向</tspan></text>
    <text fill="#2C2C2C" xml:space="preserve" style="white-space: pre" font-family="Noto Sans JP" font-size="16" letter-spacing="0em"><tspan x="1350" y="405.9">• EU AI法：リスクベースのアプローチ</tspan></text>
    <text fill="#2C2C2C" xml:space="preserve" style="white-space: pre" font-family="Noto Sans JP" font-size="16" letter-spacing="0em"><tspan x="1350" y="435.9">• 米国：州ごとの個別規制と連邦指針</tspan></text>
    
    <path d="M1850 500H1310V680H1850V500Z" fill="#F4F1EA" stroke="#653A5E" stroke-width="1"/>
    <text fill="#653A5E" xml:space="preserve" style="white-space: pre" font-family="Noto Sans JP" font-size="20" letter-spacing="0em"><tspan x="1330" y="540">📝 日本の法規制と指針</tspan></text>
    <text fill="#2C2C2C" xml:space="preserve" style="white-space: pre" font-family="Noto Sans JP" font-size="16" letter-spacing="0em"><tspan x="1350" y="575.9">• AI社会実装原則の策定</tspan></text>
    <text fill="#2C2C2C" xml:space="preserve" style="white-space: pre" font-family="Noto Sans JP" font-size="16" letter-spacing="0em"><tspan x="1350" y="605.9">• 生成AIに関するガイドライン</tspan></text>
    <text fill="#2C2C2C" xml:space="preserve" style="white-space: pre" font-family="Noto Sans JP" font-size="16" letter-spacing="0em"><tspan x="1350" y="635.9">• AI倫理に関する基本方針</tspan></text>
    <text fill="#2C2C2C" xml:space="preserve" style="white-space: pre" font-family="Noto Sans JP" font-size="16" letter-spacing="0em"><tspan x="1350" y="665.9">• 個人情報保護法との整合性</tspan></text>
    
    <path d="M1850 700H1310V850H1850V700Z" fill="#F4F1EA" stroke="#653A5E" stroke-width="1"/>
    <text fill="#653A5E" xml:space="preserve" style="white-space: pre" font-family="Noto Sans JP" font-size="20" letter-spacing="0em"><tspan x="1330" y="740">🔍 主要な規制対象領域</tspan></text>
    <text fill="#2C2C2C" xml:space="preserve" style="white-space: pre" font-family="Noto Sans JP" font-size="16" letter-spacing="0em"><tspan x="1350" y="775.9">• 透明性と説明可能性の要件</tspan></text>
    <text fill="#2C2C2C" xml:space="preserve" style="white-space: pre" font-family="Noto Sans JP" font-size="16" letter-spacing="0em"><tspan x="1350" y="805.9">• バイアスと公平性の確保</tspan></text>
    <text fill="#2C2C2C" xml:space="preserve" style="white-space: pre" font-family="Noto Sans JP" font-size="16" letter-spacing="0em"><tspan x="1350" y="835.9">• 著作権と知的財産権の保護</tspan></text>
    
    <path d="M1850 870H1310V990H1850V870Z" fill="#653A5E" fill-opacity="0.1"/>
    <text fill="#653A5E" xml:space="preserve" style="white-space: pre" font-family="Noto Sans JP" font-size="20" letter-spacing="0em"><tspan x="1330" y="910">💼 ビジネスへの影響</tspan></text>
    <text fill="#2C2C2C" xml:space="preserve" style="white-space: pre" font-family="Noto Sans JP" font-size="16" letter-spacing="0em"><tspan x="1350" y="945.9">• コンプライアンス体制の構築必要性</tspan></text>
    <text fill="#2C2C2C" xml:space="preserve" style="white-space: pre" font-family="Noto Sans JP" font-size="16" letter-spacing="0em"><tspan x="1350" y="975.9">• 規制を先取りした自主ガイドライン</tspan></text>
    
    <!-- フッター -->
    <path d="M1920 1040H0V1080H1920V1040Z" fill="#2C2C2C"/>
    <text fill="#F4F1EA" xml:space="preserve" style="white-space: pre" font-family="Noto Sans JP" font-size="16" letter-spacing="0em"><tspan x="694.32" y="1064.9">TANREN株式会社 / 株式会社MVP | AI人材育成プログラム | 2025年春季講座</tspan></text>
  </g>
  <defs>
    <clipPath id="clip0_0_1">
      <rect width="1920" height="1080" fill="white"/>
    </clipPath>
  </defs>
</svg> 