<svg width="1280" height="720" viewBox="0 0 1280 720" xmlns="http://www.w3.org/2000/svg" style="background-color: #f4f1ea; font-family: 'Noto Sans JP', sans-serif;">
  <defs>
    <style>
      @import url('https://fonts.googleapis.com/css2?family=Noto+Sans+JP:wght@400;700&family=Noto+Serif+JP:wght@700&display=swap');
      .title { font-family: 'Noto Serif JP', serif; font-size: 24px; font-weight: 700; fill: #2c2c2c; letter-spacing: 0.1em; }
      .subtitle { font-size: 14px; fill: #555; letter-spacing: 0.05em; }
      .card-title { font-family: 'Noto Serif JP', serif; font-size: 18px; font-weight: 700; letter-spacing: 0.08em; }
      .card-text { font-size: 11px; fill: #2c2c2c; letter-spacing: 0.05em; line-height: 1.6; }
      .highlight-red { fill: #b3322b; font-weight: bold; }
      .highlight-blue { fill: #1a5b66; font-weight: bold; }
      .highlight-purple { fill: #653a5e; font-weight: bold; }
      .accent-line-red { stroke: #b3322b; stroke-width: 2; }
      .accent-dot-red { fill: #b3322b; }
      .accent-line-blue { stroke: #1a5b66; stroke-width: 2; }
      .accent-dot-blue { fill: #1a5b66; }
      .accent-line-purple { stroke: #653a5e; stroke-width: 2; }
      .accent-dot-purple { fill: #653a5e; }
      .table-header { font-weight: bold; fill: #f4f1ea; }
      .table-row-even { fill: #e8e5dd; }
      .table-row-odd { fill: #f4f1ea; }
      .table-text { font-size: 10px; fill: #2c2c2c; }
      .flow-arrow { fill: none; stroke: #2c2c2c; stroke-width: 1.5; marker-end: url(#arrowhead); }
      .flow-text { font-size: 9px; fill: #555; }
      .bar-chart-bar { fill: #b3322b; }
      .bar-chart-axis { stroke: #555; stroke-width: 1; }
      .bar-chart-label { font-size: 9px; fill: #555; }
      .bar-chart-value { font-size: 10px; fill: #2c2c2c; font-weight: bold; }
      .icon { font-size: 14px; margin-right: 5px; }
      .emphasis-box { fill: #e8e5dd; stroke: #ccc; stroke-width: 1; rx: 3; ry: 3; }
      .emphasis-text { font-size: 10px; fill: #2c2c2c; font-weight: bold; }
    </style>
    <marker id="arrowhead" markerWidth="10" markerHeight="7" refX="0" refY="3.5" orient="auto">
      <polygon points="0 0, 10 3.5, 0 7" fill="#2c2c2c" />
    </marker>
  </defs>

  <!-- Header -->
  <text x="40" y="50" class="title">マインドフルモーメント</text>
  <text x="40" y="75" class="subtitle">日常で心の平穏を見つける瞑想ガイド</text>
  <line x1="40" y1="85" x2="400" y2="85" stroke="#2c2c2c" stroke-width="1" />
  <circle cx="410" cy="85" r="3" fill="#2c2c2c" />

  <!-- Footer -->
  <text x="1200" y="700" text-anchor="end" font-size="12px" fill="#555">19 / 20</text>

  <!-- Column 1: ユーザー要件と効果 -->
  <rect x="40" y="110" width="380" height="570" fill="#f4f1ea" stroke="#ccc" stroke-width="0.5" rx="5" ry="5"/>
  <text x="60" y="145" class="card-title" fill="#b3322b">🎯 ユーザー要件</text>
  <line x1="60" y1="155" x2="220" y2="155" class="accent-line-red" />
  <circle cx="225" cy="155" r="3" class="accent-dot-red" />
  <text x="60" y="180" class="card-text"><tspan font-weight="bold">対象:</tspan> ストレス軽減したい人, マインドフルネス興味層, 睡眠改善したい人</text>
  <text x="60" y="210" class="card-text"><tspan font-weight="bold">ニーズ:</tspan> ストレス軽減, 心の平穏, 集中力向上, 睡眠改善, 習慣形成</text>
  <text x="60" y="240" class="card-text"><tspan font-weight="bold">ゴール:</tspan> ストレス低減, 精神安定, 集中力向上, 睡眠改善, 日常への統合</text>

  <!-- Expected Benefits -->
  <text x="60" y="290" class="card-text" font-weight="bold">期待効果:</text>
  <rect x="60" y="310" width="340" height="150" fill="#e8e5dd" rx="3" ry="3"/>
  <text x="70" y="330" class="card-text">
    <tspan x="70" dy="1.4em">😌 ストレス・不安軽減</tspan>
    <tspan x="70" dy="1.4em">🎯 集中力・注意力向上</tspan>
    <tspan x="70" dy="1.4em">🧘 感情バランス・自己認識向上</tspan>
    <tspan x="70" dy="1.4em">😴 睡眠の質改善</tspan>
    <tspan x="70" dy="1.4em">😊 全体的な幸福感増加</tspan>
  </text>

  <!-- Data Privacy -->
  <text x="60" y="480" class="card-text" font-weight="bold">データプライバシー:</text>
  <text x="70" y="500" class="card-text">
    <tspan x="70" dy="1.4em">🔒 個人の瞑想データはデバイス内保存</tspan>
    <tspan x="70" dy="1.4em">🚫 外部サーバーには送信しない設計</tspan>
  </text>

  <!-- Column 2: 機能と操作 -->
  <rect x="450" y="110" width="380" height="570" fill="#f4f1ea" stroke="#ccc" stroke-width="0.5" rx="5" ry="5"/>
  <text x="470" y="145" class="card-title" fill="#1a5b66">⚙️ 主要機能</text>
  <line x1="470" y1="155" x2="610" y2="155" class="accent-line-blue" />
  <circle cx="615" cy="155" r="3" class="accent-dot-blue" />
  <text x="470" y="180" class="card-text" font-weight="bold">コア機能:</text>
  <text x="480" y="200" class="card-text">
    <tspan x="480" dy="1.4em"><tspan class="icon">🎧</tspan>ガイド付き瞑想 (多様なテーマ/長さ)</tspan>
    <tspan x="480" dy="1.4em"><tspan class="icon">🌬️</tspan>呼吸エクササイズ (視覚ガイド付)</tspan>
    <tspan x="480" dy="1.4em"><tspan class="icon">⏱️</tspan>瞑想タイマー (カスタマイズ可)</tspan>
    <tspan x="480" dy="1.4em"><tspan class="icon">📜</tspan>瞑想記録 (継続追跡)</tspan>
    <tspan x="480" dy="1.4em"><tspan class="icon">😴</tspan>睡眠サポート (専用音声/サウンド)</tspan>
  </text>

  <text x="470" y="320" class="card-text" font-weight="bold">データ管理:</text>
  <rect x="470" y="340" width="340" height="75" fill="#1a5b66" rx="3" ry="3"/>
  <text x="480" y="358" class="table-header">データ種別</text>
  <text x="630" y="358" class="table-header">保存方法</text>
  <rect x="470" y="365" width="340" height="15" class="table-row-even"/>
  <text x="480" y="376" class="table-text">瞑想セッションデータ</text>
  <text x="630" y="376" class="table-text">ローカルストレージ</text>
  <rect x="470" y="380" width="340" height="15" class="table-row-odd"/>
  <text x="480" y="391" class="table-text">ユーザー記録データ</text>
  <text x="630" y="391" class="table-text">ローカルストレージ</text>
  <rect x="470" y="395" width="340" height="15" class="table-row-even"/>
  <text x="480" y="406" class="table-text">タイマー設定, 進捗データ</text>
  <text x="630" y="406" class="table-text">ローカルストレージ</text>

  <text x="470" y="435" class="card-text" font-weight="bold">ユーザー操作フロー:</text>
  <rect x="470" y="455" width="340" height="80" class="emphasis-box"/>
  <text x="485" y="475" class="flow-text">瞑想選択</text>
  <line x1="545" y1="473" x2="575" y2="473" class="flow-arrow"/>
  <text x="585" y="475" class="flow-text">セッション開始</text>
  <line x1="675" y1="473" x2="705" y2="473" class="flow-arrow"/>
  <text x="715" y="475" class="flow-text">呼吸エクササイズ</text>
  <line x1="585" y1="498" x2="615" y2="498" class="flow-arrow"/>
  <text x="625" y="500" class="flow-text">瞑想記録確認</text>
  <line x1="715" y1="498" x2="745" y2="498" class="flow-arrow"/>
  <text x="755" y="500" class="flow-text">カスタムタイマー設定</text>
  <line x1="675" y1="478" x2="675" y2="495" class="flow-arrow" style="marker-end: none;"/>
  <line x1="675" y1="498" x2="620" y2="498" class="flow-arrow"/>

  <text x="470" y="555" class="card-text" font-weight="bold">UI/UX デザイン:</text>
   <text x="480" y="575" class="card-text">
    <tspan x="480" dy="1.4em"><tspan class="icon">🧘</tspan>テーマ: 穏やか, 落ち着き, ミニマル</tspan>
    <tspan x="480" dy="1.4em"><tspan class="icon">🎨</tspan>配色: 白/オフホワイト, 穏やかな青/紫, 優しいグラデ</tspan>
    <tspan x="480" dy="1.4em"><tspan class="icon">📱</tspan>モバイルファースト, アクセシビリティ</tspan>
  </text>

  <!-- Column 3: 開発と将来性 -->
  <rect x="860" y="110" width="380" height="570" fill="#f4f1ea" stroke="#ccc" stroke-width="0.5" rx="5" ry="5"/>
  <text x="880" y="145" class="card-title" fill="#653a5e">🛠️ 開発と展望</text>
  <line x1="880" y1="155" x2="1020" y2="155" class="accent-line-purple" />
  <circle cx="1025" cy="155" r="3" class="accent-dot-purple" />
  <text x="880" y="180" class="card-text"><tspan font-weight="bold">開発PF:</tspan> Bolt.new (理由: オーディオ再生, アニメーション)</text>

  <text x="880" y="210" class="card-text" font-weight="bold">開発ステップ (見積):</text>
  <rect x="880" y="230" width="340" height="160" fill="#653a5e" rx="3" ry="3"/>
  <text x="890" y="248" class="table-header">ステップ</text>
  <text x="1150" y="248" class="table-header" text-anchor="end">時間</text>
  <rect x="880" y="255" width="340" height="15" class="table-row-even"/>
  <text x="890" y="266" class="table-text">1. プロジェクト設定</text>
  <text x="1210" y="266" class="table-text" text-anchor="end">3分</text>
  <rect x="880" y="270" width="340" height="15" class="table-row-odd"/>
  <text x="890" y="281" class="table-text">2. データモデル定義</text>
  <text x="1210" y="281" class="table-text" text-anchor="end">4分</text>
  <rect x="880" y="285" width="340" height="15" class="table-row-even"/>
  <text x="890" y="296" class="table-text">3. UI設計</text>
  <text x="1210" y="296" class="table-text" text-anchor="end">6分</text>
  <rect x="880" y="300" width="340" height="15" class="table-row-odd"/>
  <text x="890" y="311" class="table-text">4. 音声再生機能実装</text>
  <text x="1210" y="311" class="table-text" text-anchor="end">5分</text>
  <rect x="880" y="315" width="340" height="15" class="table-row-even"/>
  <text x="890" y="326" class="table-text">5. タイマー機能実装</text>
  <text x="1210" y="326" class="table-text" text-anchor="end">5分</text>
  <rect x="880" y="330" width="340" height="15" class="table-row-odd"/>
  <text x="890" y="341" class="table-text">6. 呼吸ガイド実装</text>
  <text x="1210" y="341" class="table-text" text-anchor="end">4分</text>
  <rect x="880" y="345" width="340" height="15" class="table-row-even"/>
  <text x="890" y="356" class="table-text">7. 記録機能実装</text>
  <text x="1210" y="356" class="table-text" text-anchor="end">3分</text>
  <rect x="880" y="360" width="340" height="20" class="table-row-odd" style="fill: #e8e5dd;"/>
  <text x="890" y="375" class="table-text" font-weight="bold">合計</text>
  <text x="1210" y="375" class="table-text highlight-purple" text-anchor="end" style="font-size: 12px;">30分</text>

  <text x="880" y="410" class="card-text" font-weight="bold">テスト計画:</text>
   <text x="890" y="430" class="card-text">
    <tspan x="890" dy="1.4em">🧪 シナリオ: 瞑想セッション, 呼吸エクササイズ, 記録</tspan>
    <tspan x="890" dy="1.4em">👍 UAT基準: 初心者が3分で瞑想開始できる</tspan>
  </text>

  <text x="880" y="480" class="card-text" font-weight="bold">制約:</text>
   <text x="890" y="500" class="card-text">
    <tspan x="890" dy="1.4em">🔒 Bolt.new無料プラン制限</tspan>
    <tspan x="890" dy="1.4em">⏱️ 開発時間30分 (複雑機能除外)</tspan>
    <tspan x="890" dy="1.4em">🛠️ 非エンジニア実装可能範囲</tspan>
  </text>

  <text x="880" y="570" class="card-text" font-weight="bold">将来の拡張可能性:</text>
   <text x="890" y="590" class="card-text">
    <tspan x="890" dy="1.4em"><tspan class="icon">🎶</tspan>バイノーラルビート</tspan>
    <tspan x="890" dy="1.4em"><tspan class="icon">👥</tspan>グループ瞑想</tspan>
    <tspan x="890" dy="1.4em"><tspan class="icon">📊</tspan>ストレス分析</tspan>
    <tspan x="890" dy="1.4em"><tspan class="icon">⌚</tspan>ウェアラブル連携</tspan>
    <tspan x="890" dy="1.4em"><tspan class="icon">🕶️</tspan>VR/AR瞑想</tspan>
  </text>

</svg>