<svg width="1280" height="720" viewBox="0 0 1280 720" xmlns="http://www.w3.org/2000/svg" style="background-color: #f4f1ea; font-family: 'Noto Sans JP', sans-serif;">
  <defs>
    <style>
      @import url('https://fonts.googleapis.com/css2?family=Noto+Sans+JP:wght@400;700&family=Noto+Serif+JP:wght@700&display=swap');
      .title { font-family: 'Noto Serif JP', serif; font-size: 24px; font-weight: 700; fill: #2c2c2c; letter-spacing: 0.1em; }
      .subtitle { font-size: 14px; fill: #555; letter-spacing: 0.05em; }
      .card-title { font-family: 'Noto Serif JP', serif; font-size: 18px; font-weight: 700; letter-spacing: 0.08em; }
      .card-text { font-size: 11px; fill: #2c2c2c; letter-spacing: 0.05em; line-height: 1.6; }
      .highlight-red { fill: #b3322b; font-weight: bold; }
      .highlight-blue { fill: #1a5b66; font-weight: bold; }
      .highlight-purple { fill: #653a5e; font-weight: bold; }
      .accent-line-red { stroke: #b3322b; stroke-width: 2; }
      .accent-dot-red { fill: #b3322b; }
      .accent-line-blue { stroke: #1a5b66; stroke-width: 2; }
      .accent-dot-blue { fill: #1a5b66; }
      .accent-line-purple { stroke: #653a5e; stroke-width: 2; }
      .accent-dot-purple { fill: #653a5e; }
      .table-header { font-weight: bold; fill: #f4f1ea; }
      .table-row-even { fill: #e8e5dd; }
      .table-row-odd { fill: #f4f1ea; }
      .table-text { font-size: 10px; fill: #2c2c2c; }
      .flow-arrow { fill: none; stroke: #2c2c2c; stroke-width: 1.5; marker-end: url(#arrowhead); }
      .flow-text { font-size: 9px; fill: #555; }
      .bar-chart-bar { fill: #b3322b; }
      .bar-chart-axis { stroke: #555; stroke-width: 1; }
      .bar-chart-label { font-size: 9px; fill: #555; }
      .bar-chart-value { font-size: 10px; fill: #2c2c2c; font-weight: bold; }
      .icon { font-size: 14px; margin-right: 5px; }
      .emphasis-box { fill: #e8e5dd; stroke: #ccc; stroke-width: 1; rx: 3; ry: 3; }
      .emphasis-text { font-size: 10px; fill: #2c2c2c; font-weight: bold; }
    </style>
    <marker id="arrowhead" markerWidth="10" markerHeight="7" refX="0" refY="3.5" orient="auto">
      <polygon points="0 0, 10 3.5, 0 7" fill="#2c2c2c" />
    </marker>
  </defs>

  <!-- Header -->
  <text x="40" y="50" class="title">ストーリーウィーバー</text>
  <text x="40" y="75" class="subtitle">自分だけの物語を簡単に創作・共有</text>
  <line x1="40" y1="85" x2="400" y2="85" stroke="#2c2c2c" stroke-width="1" />
  <circle cx="410" cy="85" r="3" fill="#2c2c2c" />

  <!-- Footer -->
  <text x="1200" y="700" text-anchor="end" font-size="12px" fill="#555">20 / 20</text>

  <!-- Column 1: ユーザー要件と効果 -->
  <rect x="40" y="110" width="380" height="570" fill="#f4f1ea" stroke="#ccc" stroke-width="0.5" rx="5" ry="5"/>
  <text x="60" y="145" class="card-title" fill="#b3322b">🎯 ユーザー要件</text>
  <line x1="60" y1="155" x2="220" y2="155" class="accent-line-red" />
  <circle cx="225" cy="155" r="3" class="accent-dot-red" />
  <text x="60" y="180" class="card-text"><tspan font-weight="bold">対象:</tspan> 創作興味層, 物語好き, 自己表現楽しみたい人, 創造的趣味探す人</text>
  <text x="60" y="210" class="card-text"><tspan font-weight="bold">ニーズ:</tspan> アイデア/きっかけ, 簡単構成, 整理保存, 共有, 創作プロセス楽しみたい</text>
  <text x="60" y="240" class="card-text"><tspan font-weight="bold">ゴール:</tspan> 創造性発揮・自己表現, スキル向上, 創作習慣, 読者との繋がり, 創作の喜び</text>

  <!-- Expected Benefits -->
  <text x="60" y="290" class="card-text" font-weight="bold">期待効果:</text>
  <rect x="60" y="310" width="340" height="150" fill="#e8e5dd" rx="3" ry="3"/>
  <text x="70" y="330" class="card-text">
    <tspan x="70" dy="1.4em">🎨 創造的な自己表現の機会</tspan>
    <tspan x="70" dy="1.4em">✍️ ライティングスキル向上</tspan>
    <tspan x="70" dy="1.4em">🏆 達成感・満足感の獲得</tspan>
    <tspan x="70" dy="1.4em">🤝 創作コミュニティとの繋がり</tspan>
    <tspan x="70" dy="1.4em">😌 ストレス解消・精神的リフレッシュ</tspan>
  </text>

  <!-- Data Privacy -->
  <text x="60" y="480" class="card-text" font-weight="bold">データプライバシー:</text>
  <text x="70" y="500" class="card-text">
    <tspan x="70" dy="1.4em">🔒 非公開作品は暗号化保存</tspan>
    <tspan x="70" dy="1.4em">⚙️ 公開範囲設定でアクセス制御</tspan>
  </text>

  <!-- Column 2: 機能と操作 -->
  <rect x="450" y="110" width="380" height="570" fill="#f4f1ea" stroke="#ccc" stroke-width="0.5" rx="5" ry="5"/>
  <text x="470" y="145" class="card-title" fill="#1a5b66">⚙️ 主要機能</text>
  <line x1="470" y1="155" x2="610" y2="155" class="accent-line-blue" />
  <circle cx="615" cy="155" r="3" class="accent-dot-blue" />
  <text x="470" y="180" class="card-text" font-weight="bold">コア機能:</text>
  <text x="480" y="200" class="card-text">
    <tspan x="480" dy="1.4em"><tspan class="icon">✍️</tspan>ストーリーエディタ (マルチメディア)</tspan>
    <tspan x="480" dy="1.4em"><tspan class="icon">💡</tspan>創作プロンプト (ジャンル別)</tspan>
    <tspan x="480" dy="1.4em"><tspan class="icon">📜</tspan>ストーリーテンプレート (構造ガイド)</tspan>
    <tspan x="480" dy="1.4em"><tspan class="icon">📚</tspan>作品ライブラリ (整理・管理)</tspan>
    <tspan x="480" dy="1.4em"><tspan class="icon">🔗</tspan>共有と公開 (リンク/PDF/コミュニティ)</tspan>
  </text>

  <text x="470" y="320" class="card-text" font-weight="bold">データ管理:</text>
  <rect x="470" y="340" width="340" height="75" fill="#1a5b66" rx="3" ry="3"/>
  <text x="480" y="358" class="table-header">データ種別</text>
  <text x="630" y="358" class="table-header">保存方法</text>
  <rect x="470" y="365" width="340" height="15" class="table-row-even"/>
  <text x="480" y="376" class="table-text">ストーリーデータ</text>
  <text x="630" y="376" class="table-text">Replit DB</text>
  <rect x="470" y="380" width="340" height="15" class="table-row-odd"/>
  <text x="480" y="391" class="table-text">テンプレートデータ, プロンプトデータ</text>
  <text x="630" y="391" class="table-text">Replit DB</text>
  <rect x="470" y="395" width="340" height="15" class="table-row-even"/>
  <text x="480" y="406" class="table-text">ユーザー作品ライブラリ</text>
  <text x="630" y="406" class="table-text">Replit DB</text>

  <text x="470" y="435" class="card-text" font-weight="bold">ユーザー操作フロー:</text>
  <rect x="470" y="455" width="340" height="80" class="emphasis-box"/>
  <text x="485" y="475" class="flow-text">新規作成(Template)</text>
  <line x1="585" y1="473" x2="615" y2="473" class="flow-arrow"/>
  <text x="625" y="475" class="flow-text">プロンプト活用</text>
  <line x1="710" y1="473" x2="740" y2="473" class="flow-arrow"/>
  <text x="750" y="475" class="flow-text">ストーリー編集</text>
  <line x1="625" y1="498" x2="655" y2="498" class="flow-arrow"/>
  <text x="665" y="500" class="flow-text">作品管理(ライブラリ)</text>
  <line x1="750" y1="498" x2="780" y2="498" class="flow-arrow"/>
  <text x="790" y="500" class="flow-text">作品共有</text>
  <line x1="710" y1="478" x2="710" y2="495" class="flow-arrow" style="marker-end: none;"/>
  <line x1="710" y1="498" x2="660" y2="498" class="flow-arrow"/>

  <text x="470" y="555" class="card-text" font-weight="bold">UI/UX デザイン:</text>
   <text x="480" y="575" class="card-text">
    <tspan x="480" dy="1.4em"><tspan class="icon">📖</tspan>テーマ: 創造性刺激, 明るく活気, 書籍風</tspan>
    <tspan x="480" dy="1.4em"><tspan class="icon">🎨</tspan>配色: 白/クリーム, 紫/赤アクセント, ジャンル色分け</tspan>
    <tspan x="480" dy="1.4em"><tspan class="icon">📱</tspan>モバイルファースト, アクセシビリティ</tspan>
  </text>

  <!-- Column 3: 開発と将来性 -->
  <rect x="860" y="110" width="380" height="570" fill="#f4f1ea" stroke="#ccc" stroke-width="0.5" rx="5" ry="5"/>
  <text x="880" y="145" class="card-title" fill="#653a5e">🛠️ 開発と展望</text>
  <line x1="880" y1="155" x2="1020" y2="155" class="accent-line-purple" />
  <circle cx="1025" cy="155" r="3" class="accent-dot-purple" />
  <text x="880" y="180" class="card-text"><tspan font-weight="bold">開発PF:</tspan> Replit (理由: テキスト処理, 構造化データ, AI活用)</text>

  <text x="880" y="210" class="card-text" font-weight="bold">開発ステップ (見積):</text>
  <rect x="880" y="230" width="340" height="160" fill="#653a5e" rx="3" ry="3"/>
  <text x="890" y="248" class="table-header">ステップ</text>
  <text x="1150" y="248" class="table-header" text-anchor="end">時間</text>
  <rect x="880" y="255" width="340" height="15" class="table-row-even"/>
  <text x="890" y="266" class="table-text">1. プロジェクト設定</text>
  <text x="1210" y="266" class="table-text" text-anchor="end">3分</text>
  <rect x="880" y="270" width="340" height="15" class="table-row-odd"/>
  <text x="890" y="281" class="table-text">2. データモデル定義</text>
  <text x="1210" y="281" class="table-text" text-anchor="end">4分</text>
  <rect x="880" y="285" width="340" height="15" class="table-row-even"/>
  <text x="890" y="296" class="table-text">3. UI設計</text>
  <text x="1210" y="296" class="table-text" text-anchor="end">6分</text>
  <rect x="880" y="300" width="340" height="15" class="table-row-odd"/>
  <text x="890" y="311" class="table-text">4. エディタ機能実装</text>
  <text x="1210" y="311" class="table-text" text-anchor="end">7分</text>
  <rect x="880" y="315" width="340" height="15" class="table-row-even"/>
  <text x="890" y="326" class="table-text">5. テンプレート機能実装</text>
  <text x="1210" y="326" class="table-text" text-anchor="end">4分</text>
  <rect x="880" y="330" width="340" height="15" class="table-row-odd"/>
  <text x="890" y="341" class="table-text">6. プロンプト機能実装</text>
  <text x="1210" y="341" class="table-text" text-anchor="end">3分</text>
  <rect x="880" y="345" width="340" height="15" class="table-row-even"/>
  <text x="890" y="356" class="table-text">7. 作品管理機能実装</text>
  <text x="1210" y="356" class="table-text" text-anchor="end">3分</text>
  <rect x="880" y="360" width="340" height="20" class="table-row-odd" style="fill: #e8e5dd;"/>
  <text x="890" y="375" class="table-text" font-weight="bold">合計</text>
  <text x="1210" y="375" class="table-text highlight-purple" text-anchor="end" style="font-size: 12px;">30分</text>

  <text x="880" y="410" class="card-text" font-weight="bold">テスト計画:</text>
   <text x="890" y="430" class="card-text">
    <tspan x="890" dy="1.4em">🧪 シナリオ: 新規作成, プロンプト活用, 共有</tspan>
    <tspan x="890" dy="1.4em">👍 UAT基準: 初心者が5分で基本操作完了</tspan>
  </text>

  <text x="880" y="480" class="card-text" font-weight="bold">制約:</text>
   <text x="890" y="500" class="card-text">
    <tspan x="890" dy="1.4em">🔒 Replit無料プラン制限</tspan>
    <tspan x="890" dy="1.4em">⏱️ 開発時間30分 (複雑機能除外)</tspan>
    <tspan x="890" dy="1.4em">🛠️ 非エンジニア実装可能範囲</tspan>
  </text>

  <text x="880" y="570" class="card-text" font-weight="bold">将来の拡張可能性:</text>
   <text x="890" y="590" class="card-text">
    <tspan x="890" dy="1.4em"><tspan class="icon">🤖</tspan>AI支援ストーリー生成</tspan>
    <tspan x="890" dy="1.4em"><tspan class="icon">🎤</tspan>音声ナレーション生成</tspan>
    <tspan x="890" dy="1.4em"><tspan class="icon">🌍</tspan>キャラ/ワールド構築ツール</tspan>
    <tspan x="890" dy="1.4em"><tspan class="icon">🔀</tspan>インタラクティブストーリー</tspan>
    <tspan x="890" dy="1.4em"><tspan class="icon">👥</tspan>コラボレーション執筆</tspan>
  </text>

</svg>