<?xml version="1.0" encoding="UTF-8" standalone="no"?>
<svg width="1920" height="1080" viewBox="0 0 1920 1080" xmlns="http://www.w3.org/2000/svg">
  <!-- 背景 -->
  <rect width="1920" height="1080" fill="#f4f1ea"/>
  
  <!-- ヘッダー -->
  <rect x="0" y="0" width="1920" height="100" fill="#2c2c2c"/>
  <text x="960" y="65" font-family="'Noto Serif JP', serif" font-size="40" fill="#f4f1ea" text-anchor="middle">LOOVインタラクティブ動画サービス概要</text>
  
  <!-- 下線アクセント -->
  <line x1="780" y1="110" x2="1140" y2="110" stroke="#b3322b" stroke-width="3"/>
  <circle cx="960" cy="110" r="6" fill="#b3322b"/>
  
  <!-- フッター -->
  <rect x="0" y="1030" width="1920" height="50" fill="#2c2c2c"/>
  <text x="960" y="1065" font-family="'Noto Sans JP', sans-serif" font-size="18" fill="#f4f1ea" text-anchor="middle">LOOV × TANREN 連携検討 - 1/3</text>

  <!-- ===== 左カラム ===== -->
  <g transform="translate(50, 130)">
    <!-- カラムタイトル -->
    <rect x="0" y="0" width="580" height="40" fill="#b3322b"/>
    <text x="20" y="28" font-family="'Noto Serif JP', serif" font-size="24" fill="#f4f1ea">📊 会社概要と成長データ</text>
    
    <!-- コンテンツ領域 -->
    <rect x="0" y="45" width="580" height="825" fill="white" stroke="#2c2c2c" stroke-width="1"/>
    
    <!-- コンテンツ -->
    <text x="20" y="80" font-family="'Noto Serif JP', serif" font-size="22" fill="#2c2c2c">LOOVの現状</text>
    <line x1="20" y1="90" x2="170" y2="90" stroke="#b3322b" stroke-width="2"/>
    
    <!-- 会社概要 -->
    <text x="20" y="120" font-family="'Noto Sans JP', sans-serif" font-size="18" fill="#2c2c2c">会社設立：<tspan font-weight="bold">3年前</tspan>（所在地：目黒区）</text>
    <text x="20" y="150" font-family="'Noto Sans JP', sans-serif" font-size="18" fill="#2c2c2c">資金調達：<tspan font-weight="bold">3.5億円</tspan>（グローバルブレイン、ANRI）</text>
    <text x="20" y="180" font-family="'Noto Sans JP', sans-serif" font-size="18" fill="#2c2c2c">導入実績：<tspan font-weight="bold">約150社</tspan>（B2B：7割、B2C：3割）</text>
    <text x="20" y="210" font-family="'Noto Sans JP', sans-serif" font-size="18" fill="#2c2c2c">成長率：<tspan font-weight="bold">直近1年で4倍</tspan>（2024年1月時点）</text>
    
    <!-- 成長グラフ -->
    <rect x="40" y="240" width="500" height="200" fill="#f9f7f4" stroke="#2c2c2c" stroke-width="1"/>
    <text x="290" y="265" font-family="'Noto Sans JP', sans-serif" font-size="16" fill="#2c2c2c" text-anchor="middle">過去1年の成長率推移</text>
    
    <!-- 棒グラフ -->
    <rect x="100" y="370" width="80" height="40" fill="#b3322b" opacity="0.4"/>
    <rect x="200" y="345" width="80" height="65" fill="#b3322b" opacity="0.6"/>
    <rect x="300" y="310" width="80" height="100" fill="#b3322b" opacity="0.8"/>
    <rect x="400" y="280" width="80" height="130" fill="#b3322b"/>
    
    <!-- 軸ラベル -->
    <text x="140" y="425" font-family="'Noto Sans JP', sans-serif" font-size="14" fill="#2c2c2c" text-anchor="middle">1Q</text>
    <text x="240" y="425" font-family="'Noto Sans JP', sans-serif" font-size="14" fill="#2c2c2c" text-anchor="middle">2Q</text>
    <text x="340" y="425" font-family="'Noto Sans JP', sans-serif" font-size="14" fill="#2c2c2c" text-anchor="middle">3Q</text>
    <text x="440" y="425" font-family="'Noto Sans JP', sans-serif" font-size="14" fill="#2c2c2c" text-anchor="middle">4Q</text>
    <line x1="50" y1="410" x2="530" y2="410" stroke="#2c2c2c" stroke-width="1"/>
    
    <!-- 値ラベル -->
    <text x="440" y="270" font-family="'Noto Sans JP', sans-serif" font-size="16" fill="#2c2c2c" text-anchor="middle" font-weight="bold">4倍</text>
    
    <!-- 顧客セグメント -->
    <text x="20" y="470" font-family="'Noto Serif JP', serif" font-size="22" fill="#2c2c2c">顧客セグメント</text>
    <line x1="20" y1="480" x2="170" y2="480" stroke="#b3322b" stroke-width="2"/>
    
    <!-- ドーナツグラフ -->
    <circle cx="290" cy="580" r="100" fill="#f9f7f4" stroke="#2c2c2c" stroke-width="1"/>
    <path d="M 290 580 L 290 480 A 100 100 0 0 1 376 550 Z" fill="#b3322b"/>
    <circle cx="290" cy="580" r="50" fill="#f4f1ea"/>
    
    <!-- 凡例 -->
    <rect x="80" y="700" width="20" height="20" fill="#b3322b"/>
    <text x="110" y="715" font-family="'Noto Sans JP', sans-serif" font-size="16" fill="#2c2c2c">B2B: 70%</text>
    
    <rect x="270" y="700" width="20" height="20" fill="#f9f7f4" stroke="#2c2c2c" stroke-width="1"/>
    <text x="300" y="715" font-family="'Noto Sans JP', sans-serif" font-size="16" fill="#2c2c2c">B2C: 30%</text>
    
    <!-- 実践ポイント -->
    <rect x="20" y="750" width="540" height="100" fill="#f4f1ea" stroke="#b3322b" stroke-width="1" rx="5"/>
    <text x="40" y="780" font-family="'Noto Sans JP', sans-serif" font-size="18" fill="#2c2c2c" font-weight="bold">📌 実践ポイント</text>
    <text x="60" y="810" font-family="'Noto Sans JP', sans-serif" font-size="16" fill="#2c2c2c">• 成長中のサービスであり今後のアップデートに期待</text>
    <text x="60" y="835" font-family="'Noto Sans JP', sans-serif" font-size="16" fill="#2c2c2c">• B2B向けの機能が充実、社内活用も視野に</text>
  </g>

  <!-- ===== 中央カラム ===== -->
  <g transform="translate(670, 130)">
    <!-- カラムタイトル -->
    <rect x="0" y="0" width="580" height="40" fill="#1a5b66"/>
    <text x="20" y="28" font-family="'Noto Serif JP', serif" font-size="24" fill="#f4f1ea">🎬 インタラクティブ動画の特徴</text>
    
    <!-- コンテンツ領域 -->
    <rect x="0" y="45" width="580" height="825" fill="white" stroke="#2c2c2c" stroke-width="1"/>
    
    <!-- コンテンツ -->
    <text x="20" y="80" font-family="'Noto Serif JP', serif" font-size="22" fill="#2c2c2c">LOOVの基本機能</text>
    <line x1="20" y1="90" x2="200" y2="90" stroke="#1a5b66" stroke-width="2"/>
    
    <!-- 基本機能 -->
    <text x="20" y="120" font-family="'Noto Sans JP', sans-serif" font-size="18" fill="#2c2c2c">• <tspan font-weight="bold">パーソナライズ化された動画体験</tspan></text>
    <text x="40" y="145" font-family="'Noto Sans JP', sans-serif" font-size="16" fill="#2c2c2c">  視聴者の選択に応じたコンテンツ表示</text>
    
    <text x="20" y="175" font-family="'Noto Sans JP', sans-serif" font-size="18" fill="#2c2c2c">• <tspan font-weight="bold">分岐構造による選択型視聴体験</tspan></text>
    <text x="40" y="200" font-family="'Noto Sans JP', sans-serif" font-size="16" fill="#2c2c2c">  興味のあるトピックだけを効率的に視聴可能</text>
    
    <text x="20" y="230" font-family="'Noto Sans JP', sans-serif" font-size="18" fill="#2c2c2c">• <tspan font-weight="bold">高い視聴完了率とアクション誘導</tspan></text>
    <text x="40" y="255" font-family="'Noto Sans JP', sans-serif" font-size="16" fill="#2c2c2c">  CTA（Call to Action）による成約率向上</text>
    
    <!-- フロー図 -->
    <rect x="40" y="290" width="500" height="180" fill="#f9f7f4" stroke="#2c2c2c" stroke-width="1"/>
    <text x="290" y="315" font-family="'Noto Sans JP', sans-serif" font-size="16" fill="#2c2c2c" text-anchor="middle">LOOVの基本フロー</text>
    
    <!-- フロー図の要素 -->
    <rect x="100" y="340" width="120" height="60" fill="#f4f1ea" stroke="#1a5b66" stroke-width="2" rx="5"/>
    <text x="160" y="377" font-family="'Noto Sans JP', sans-serif" font-size="14" fill="#2c2c2c" text-anchor="middle">オープニング</text>
    
    <rect x="230" y="340" width="120" height="60" fill="#f4f1ea" stroke="#1a5b66" stroke-width="2" rx="5"/>
    <text x="290" y="377" font-family="'Noto Sans JP', sans-serif" font-size="14" fill="#2c2c2c" text-anchor="middle">分岐選択</text>
    
    <rect x="360" y="340" width="120" height="60" fill="#f4f1ea" stroke="#1a5b66" stroke-width="2" rx="5"/>
    <text x="420" y="377" font-family="'Noto Sans JP', sans-serif" font-size="14" fill="#2c2c2c" text-anchor="middle">コンテンツ視聴</text>
    
    <rect x="230" y="420" width="120" height="30" fill="#1a5b66" stroke="#1a5b66" stroke-width="1" rx="5"/>
    <text x="290" y="440" font-family="'Noto Sans JP', sans-serif" font-size="14" fill="#f4f1ea" text-anchor="middle">CTA</text>
    
    <!-- 矢印 -->
    <line x1="220" y1="370" x2="230" y2="370" stroke="#2c2c2c" stroke-width="2"/>
    <polygon points="228,365 240,370 228,375" fill="#2c2c2c"/>
    
    <line x1="350" y1="370" x2="360" y2="370" stroke="#2c2c2c" stroke-width="2"/>
    <polygon points="358,365 370,370 358,375" fill="#2c2c2c"/>
    
    <line x1="420" y1="400" x2="420" y2="410" stroke="#2c2c2c" stroke-width="2"/>
    <polygon points="415,408 420,420 425,408" fill="#2c2c2c"/>
    
    <line x1="360" y1="435" x2="350" y2="435" stroke="#2c2c2c" stroke-width="2"/>
    <polygon points="352,430 340,435 352,440" fill="#2c2c2c"/>
    
    <line x1="290" y1="410" x2="290" y2="420" stroke="#2c2c2c" stroke-width="2"/>
    <polygon points="285,418 290,430 295,418" fill="#2c2c2c"/>
    
    <!-- 活用方法 -->
    <text x="20" y="510" font-family="'Noto Serif JP', serif" font-size="22" fill="#2c2c2c">活用方法</text>
    <line x1="20" y1="520" x2="120" y2="520" stroke="#1a5b66" stroke-width="2"/>
    
    <text x="20" y="550" font-family="'Noto Sans JP', sans-serif" font-size="18" fill="#2c2c2c">① <tspan font-weight="bold">Webサイトへのタグ付け</tspan></text>
    <text x="40" y="575" font-family="'Noto Sans JP', sans-serif" font-size="16" fill="#2c2c2c">  LP・Webサイトに埋め込み可能</text>
    
    <text x="20" y="605" font-family="'Noto Sans JP', sans-serif" font-size="18" fill="#2c2c2c">② <tspan font-weight="bold">URLでの発行</tspan></text>
    <text x="40" y="630" font-family="'Noto Sans JP', sans-serif" font-size="16" fill="#2c2c2c">  メール、チャット、SMS、QRコードで共有</text>
    
    <!-- 活用シーン比較表 -->
    <rect x="40" y="660" width="500" height="170" fill="#f9f7f4" stroke="#2c2c2c" stroke-width="1"/>
    <text x="290" y="685" font-family="'Noto Sans JP', sans-serif" font-size="16" fill="#2c2c2c" text-anchor="middle">活用シーン比較</text>
    
    <!-- 表ヘッダー -->
    <rect x="60" y="700" width="200" height="30" fill="#1a5b66"/>
    <text x="160" y="720" font-family="'Noto Sans JP', sans-serif" font-size="14" fill="#f4f1ea" text-anchor="middle">活用シーン</text>
    
    <rect x="260" y="700" width="260" height="30" fill="#1a5b66"/>
    <text x="390" y="720" font-family="'Noto Sans JP', sans-serif" font-size="14" fill="#f4f1ea" text-anchor="middle">期待効果</text>
    
    <!-- 表行1 -->
    <rect x="60" y="730" width="200" height="30" fill="#f4f1ea"/>
    <text x="70" y="750" font-family="'Noto Sans JP', sans-serif" font-size="14" fill="#2c2c2c">リード獲得</text>
    
    <rect x="260" y="730" width="260" height="30" fill="#f4f1ea"/>
    <text x="270" y="750" font-family="'Noto Sans JP', sans-serif" font-size="14" fill="#2c2c2c">Web問合せ増加・顧客理解促進</text>
    
    <!-- 表行2 -->
    <rect x="60" y="760" width="200" height="30" fill="#f9f7f4"/>
    <text x="70" y="780" font-family="'Noto Sans JP', sans-serif" font-size="14" fill="#2c2c2c">商談品質向上</text>
    
    <rect x="260" y="760" width="260" height="30" fill="#f9f7f4"/>
    <text x="270" y="780" font-family="'Noto Sans JP', sans-serif" font-size="14" fill="#2c2c2c">受注率向上・事前情報共有の効率化</text>
    
    <!-- 表行3 -->
    <rect x="60" y="790" width="200" height="30" fill="#f4f1ea"/>
    <text x="70" y="810" font-family="'Noto Sans JP', sans-serif" font-size="14" fill="#2c2c2c">社内利用</text>
    
    <rect x="260" y="790" width="260" height="30" fill="#f4f1ea"/>
    <text x="270" y="810" font-family="'Noto Sans JP', sans-serif" font-size="14" fill="#2c2c2c">上申・教育効率向上</text>
    
    <!-- 実践ポイント -->
    <rect x="20" y="850" width="540" height="100" fill="#f4f1ea" stroke="#1a5b66" stroke-width="1" rx="5"/>
    <text x="40" y="880" font-family="'Noto Sans JP', sans-serif" font-size="18" fill="#2c2c2c" font-weight="bold">📌 実践ポイント</text>
    <text x="60" y="910" font-family="'Noto Sans JP', sans-serif" font-size="16" fill="#2c2c2c">• CTA設定による明確な行動誘導が効果的</text>
    <text x="60" y="935" font-family="'Noto Sans JP', sans-serif" font-size="16" fill="#2c2c2c">• 分岐の複雑さを適切に設計することが重要</text>
  </g>

  <!-- ===== 右カラム ===== -->
  <g transform="translate(1290, 130)">
    <!-- カラムタイトル -->
    <rect x="0" y="0" width="580" height="40" fill="#653a5e"/>
    <text x="20" y="28" font-family="'Noto Serif JP', serif" font-size="24" fill="#f4f1ea">📱 導入事例と顧客体験</text>
    
    <!-- コンテンツ領域 -->
    <rect x="0" y="45" width="580" height="825" fill="white" stroke="#2c2c2c" stroke-width="1"/>
    
    <!-- コンテンツ -->
    <text x="20" y="80" font-family="'Noto Serif JP', serif" font-size="22" fill="#2c2c2c">視聴者体験のフロー</text>
    <line x1="20" y1="90" x2="220" y2="90" stroke="#653a5e" stroke-width="2"/>
    
    <!-- 視聴体験図 -->
    <rect x="40" y="110" width="500" height="300" fill="#f9f7f4" stroke="#2c2c2c" stroke-width="1"/>
    
    <!-- デバイス図 -->
    <rect x="120" y="140" width="160" height="240" rx="10" fill="#f4f1ea" stroke="#2c2c2c" stroke-width="2"/>
    <rect x="130" y="160" width="140" height="180" rx="5" fill="white" stroke="#2c2c2c" stroke-width="1"/>
    <circle cx="200" cy="355" r="15" fill="#f4f1ea" stroke="#2c2c2c" stroke-width="1"/>
    
    <!-- スマホ画面内コンテンツ -->
    <rect x="150" y="180" width="100" height="60" fill="#653a5e" opacity="0.7"/>
    <text x="200" y="215" font-family="'Noto Sans JP', sans-serif" font-size="10" fill="white" text-anchor="middle">オープニング</text>
    
    <rect x="150" y="250" width="45" height="30" fill="#653a5e" opacity="0.9" rx="3"/>
    <text x="172" y="270" font-family="'Noto Sans JP', sans-serif" font-size="8" fill="white" text-anchor="middle">選択肢A</text>
    
    <rect x="205" y="250" width="45" height="30" fill="#653a5e" opacity="0.9" rx="3"/>
    <text x="227" y="270" font-family="'Noto Sans JP', sans-serif" font-size="8" fill="white" text-anchor="middle">選択肢B</text>
    
    <!-- タップ表現 -->
    <circle cx="227" cy="265" r="10" fill="none" stroke="#b3322b" stroke-width="2" opacity="0.7">
      <animate attributeName="r" values="10;15;10" dur="2s" repeatCount="indefinite"/>
      <animate attributeName="opacity" values="0.7;0.2;0.7" dur="2s" repeatCount="indefinite"/>
    </circle>
    
    <!-- 右側画面遷移 -->
    <rect x="320" y="140" width="160" height="240" rx="10" fill="#f4f1ea" stroke="#2c2c2c" stroke-width="2"/>
    <rect x="330" y="160" width="140" height="180" rx="5" fill="white" stroke="#2c2c2c" stroke-width="1"/>
    <circle cx="400" cy="355" r="15" fill="#f4f1ea" stroke="#2c2c2c" stroke-width="1"/>
    
    <!-- スマホ画面内コンテンツ2 -->
    <rect x="350" y="180" width="100" height="90" fill="#653a5e" opacity="0.7"/>
    <text x="400" y="230" font-family="'Noto Sans JP', sans-serif" font-size="10" fill="white" text-anchor="middle">選択肢Bの</text>
    <text x="400" y="245" font-family="'Noto Sans JP', sans-serif" font-size="10" fill="white" text-anchor="middle">コンテンツ</text>
    
    <rect x="350" y="280" width="100" height="30" fill="#b3322b" rx="3"/>
    <text x="400" y="300" font-family="'Noto Sans JP', sans-serif" font-size="10" fill="white" text-anchor="middle">資料ダウンロード</text>
    
    <!-- 接続矢印 -->
    <line x1="290" y1="240" x2="320" y2="240" stroke="#2c2c2c" stroke-width="2"/>
    <polygon points="318,235 330,240 318,245" fill="#2c2c2c"/>
    
    <!-- ユーザーアクション説明 -->
    <text x="200" y="330" font-family="'Noto Sans JP', sans-serif" font-size="14" fill="#2c2c2c" text-anchor="middle">選択肢をタップ</text>
    <text x="400" y="330" font-family="'Noto Sans JP', sans-serif" font-size="14" fill="#2c2c2c" text-anchor="middle">CTAでコンバージョン</text>
    
    <!-- トラッキング機能 -->
    <text x="20" y="450" font-family="'Noto Serif JP', serif" font-size="22" fill="#2c2c2c">トラッキング・分析機能</text>
    <line x1="20" y1="460" x2="270" y2="460" stroke="#653a5e" stroke-width="2"/>
    
    <text x="20" y="490" font-family="'Noto Sans JP', sans-serif" font-size="18" fill="#2c2c2c">• <tspan font-weight="bold">個人別URL発行と視聴追跡</tspan></text>
    <text x="40" y="515" font-family="'Noto Sans JP', sans-serif" font-size="16" fill="#2c2c2c">  誰がいつ・どの分岐を選んだかを追跡</text>
    
    <text x="20" y="545" font-family="'Noto Sans JP', sans-serif" font-size="18" fill="#2c2c2c">• <tspan font-weight="bold">視聴通知機能</tspan></text>
    <text x="40" y="570" font-family="'Noto Sans JP', sans-serif" font-size="16" fill="#2c2c2c">  URLクリック時にリアルタイム通知</text>
    
    <text x="20" y="600" font-family="'Noto Sans JP', sans-serif" font-size="18" fill="#2c2c2c">• <tspan font-weight="bold">総合ダッシュボード</tspan></text>
    <text x="40" y="625" font-family="'Noto Sans JP', sans-serif" font-size="16" fill="#2c2c2c">  期間設定可能・CSVデータ抽出</text>
    
    <!-- 外部連携機能 -->
    <text x="20" y="670" font-family="'Noto Serif JP', serif" font-size="22" fill="#2c2c2c">外部連携</text>
    <line x1="20" y1="680" x2="120" y2="680" stroke="#653a5e" stroke-width="2"/>
    
    <text x="20" y="710" font-family="'Noto Sans JP', sans-serif" font-size="18" fill="#2c2c2c">現在の連携先：</text>
    
    <rect x="40" y="725" width="120" height="40" rx="5" fill="#f9f7f4" stroke="#653a5e" stroke-width="1"/>
    <text x="100" y="750" font-family="'Noto Sans JP', sans-serif" font-size="16" fill="#2c2c2c" text-anchor="middle">Salesforce</text>
    
    <rect x="180" y="725" width="120" height="40" rx="5" fill="#f9f7f4" stroke="#653a5e" stroke-width="1"/>
    <text x="240" y="750" font-family="'Noto Sans JP', sans-serif" font-size="16" fill="#2c2c2c" text-anchor="middle">HubSpot</text>
    
    <text x="20" y="790" font-family="'Noto Sans JP', sans-serif" font-size="18" fill="#2c2c2c">• <tspan font-weight="bold">APIキーによるカスタム連携</tspan>が可能</text>
    
    <!-- 実践ポイント -->
    <rect x="20" y="850" width="540" height="100" fill="#f4f1ea" stroke="#653a5e" stroke-width="1" rx="5"/>
    <text x="40" y="880" font-family="'Noto Sans JP', sans-serif" font-size="18" fill="#2c2c2c" font-weight="bold">📌 実践ポイント</text>
    <text x="60" y="910" font-family="'Noto Sans JP', sans-serif" font-size="16" fill="#2c2c2c">• 個別URLでの配信でMAツールと同等の追跡が可能</text>
    <text x="60" y="935" font-family="'Noto Sans JP', sans-serif" font-size="16" fill="#2c2c2c">• APIを活用した社内システムとの連携を検討</text>
  </g>
</svg> 