<?xml version="1.0" encoding="UTF-8" standalone="no"?>
<svg width="1920" height="1080" viewBox="0 0 1920 1080" fill="none" xmlns="http://www.w3.org/2000/svg" xmlns:xlink="http://www.w3.org/1999/xlink">
  <!-- 背景 -->
  <rect width="1920" height="1080" fill="#2c2c2c"/>
  
  <!-- 背景デザイン要素 -->
  <path opacity="0.05" d="M200 600C420.914 600 600 420.914 600 200C600 -20.9139 420.914 -200 200 -200C-20.9139 -200 -200 -20.9139 -200 200C-200 420.914 -20.9139 600 200 600Z" fill="url(#paint0_linear_0_1)"/>
  <path opacity="0.05" d="M1720 1180C1885.69 1180 2020 1045.69 2020 880C2020 714.315 1885.69 580 1720 580C1554.31 580 1420 714.315 1420 880C1420 1045.69 1554.31 1180 1720 1180Z" fill="url(#paint1_linear_0_1)"/>
  
  <!-- グリッド -->
  <g opacity="0.1">
    <path d="M1920 0H0V1080H1920V0Z" stroke="#F4F1EA"/>
    <path d="M0 270H1920" stroke="#F4F1EA"/>
    <path d="M0 540H1920" stroke="#F4F1EA"/>
    <path d="M0 810H1920" stroke="#F4F1EA"/>
    <path d="M480 0V1080" stroke="#F4F1EA"/>
    <path d="M960 0V1080" stroke="#F4F1EA"/>
    <path d="M1440 0V1080" stroke="#F4F1EA"/>
  </g>
  
  <!-- 装飾ライン -->
  <path d="M1678 200H242C240.895 200 240 200.895 240 202C240 203.105 240.895 204 242 204H1678C1679.1 204 1680 203.105 1680 202C1680 200.895 1679.1 200 1678 200Z" fill="url(#paint2_linear_0_1)"/>
  <path d="M1678.06 880H281.944C280.871 880 280 880.895 280 882C280 883.105 280.871 884 281.944 884H1678.06C1679.13 884 1680 883.105 1680 882C1680 880.895 1679.13 880 1678.06 880Z" fill="url(#paint3_linear_0_1)"/>
  
  <!-- ヘッダーテキスト -->
  <text fill="#F4F1EA" xml:space="preserve" style="white-space: pre" font-family="Noto Sans JP" font-size="28" letter-spacing="0em"><tspan x="240" y="160.2">MUSASHINO VALLEY × TANREN</tspan></text>
  
  <!-- メインタイトル -->
  <text fill="#F4F1EA" xml:space="preserve" style="white-space: pre" font-family="Noto Serif JP" font-size="72" font-weight="bold" letter-spacing="0em"><tspan x="240" y="299.8">AIアカデミア</tspan></text>
  <text fill="#FFEE00" xml:space="preserve" style="white-space: pre" font-family="Noto Serif JP" font-size="48" letter-spacing="0em"><tspan x="240" y="369.9">Day 3</tspan></text>
  <text fill="#F4F1EA" xml:space="preserve" style="white-space: pre" font-family="Noto Serif JP" font-size="48" letter-spacing="0em"><tspan x="380" y="369.9">AIエージェント設計</tspan></text>
  <text fill="#F4F1EA" xml:space="preserve" style="white-space: pre" font-family="Noto Serif JP" font-size="42" letter-spacing="0em"><tspan x="240" y="439.9">タグライン分解と知識構造化</tspan></text>
  
  <!-- キャッチコピー -->
  <text fill="#B3322B" xml:space="preserve" style="white-space: pre" font-family="Noto Sans JP" font-size="36" letter-spacing="0em"><tspan x="240" y="519.9">「タグラインで、知識を体系化する」</tspan></text>
  
  <!-- サブタイトル -->
  <text fill="#F4F1EA" xml:space="preserve" style="white-space: pre" font-family="Noto Sans JP" font-size="24" letter-spacing="0em"><tspan x="240" y="580.1">タグライン分解の手法</tspan></text>
  <text fill="#F4F1EA" xml:space="preserve" style="white-space: pre" font-family="Noto Sans JP" font-size="24" letter-spacing="0em"><tspan x="240" y="620.1">ディープリサーチの活用</tspan></text>
  <text fill="#F4F1EA" xml:space="preserve" style="white-space: pre" font-family="Noto Sans JP" font-size="24" letter-spacing="0em"><tspan x="240" y="660.1">RAG文章生成と構造化</tspan></text>
  
  <!-- 開催日ボタン -->
  <path d="M710 730H270C253.431 730 240 743.431 240 760C240 776.569 253.431 790 270 790H710C726.569 790 740 776.569 740 760C740 743.431 726.569 730 710 730Z" fill="#B3322B" fill-opacity="0.2"/>
  <text fill="#F4F1EA" xml:space="preserve" style="white-space: pre" font-family="Noto Sans JP" font-size="22" letter-spacing="0em"><tspan x="350" y="769.8">2025年4月24日 19:30-21:30</tspan></text>
  
  <!-- 講師情報 -->
  <text fill="#F4F1EA" xml:space="preserve" style="white-space: pre" font-family="Noto Sans JP" font-size="20" letter-spacing="0em"><tspan x="240" y="850">講師：伊藤 羊一（Musashino Valley 代表）</tspan></text>
  <text fill="#F4F1EA" xml:space="preserve" style="white-space: pre" font-family="Noto Sans JP" font-size="20" letter-spacing="0em"><tspan x="240" y="890">　　　佐藤 勝彦（TANREN株式会社 代表取締役CEO）</tspan></text>
  
  <!-- コンタクト -->
  <text fill="#F4F1EA" xml:space="preserve" style="white-space: pre" font-family="Noto Sans JP" font-size="20" letter-spacing="0em"><tspan x="240" y="960">お問い合わせ: mvp@musashino-valley.jp</tspan></text>
  
  <!-- ネットワーク図 -->
  <path opacity="0.8" d="M1067 607C1072.52 607 1077 602.523 1077 597C1077 591.477 1072.52 587 1067 587C1061.48 587 1057 591.477 1057 597C1057 602.523 1061.48 607 1067 607Z" fill="#B3322B"/>
  <path opacity="0.7" d="M1147 485C1151.42 485 1155 481.418 1155 477C1155 472.582 1151.42 469 1147 469C1142.58 469 1139 472.582 1139 477C1139 481.418 1142.58 485 1147 485Z" fill="#F4F1EA"/>
  <path opacity="0.6" d="M1217 553C1220.31 553 1223 550.314 1223 547C1223 543.686 1220.31 541 1217 541C1213.69 541 1211 543.686 1211 547C1211 550.314 1213.69 553 1217 553Z" fill="#F4F1EA"/>
  <path opacity="0.7" d="M1227 686C1231.97 686 1236 681.971 1236 677C1236 672.029 1231.97 668 1227 668C1222.03 668 1218 672.029 1218 677C1218 681.971 1222.03 686 1227 686Z" fill="#F4F1EA"/>
  <path opacity="0.6" d="M1137 744C1140.87 744 1144 740.866 1144 737C1144 733.134 1140.87 730 1137 730C1133.13 730 1130 733.134 1130 737C1130 740.866 1133.13 744 1137 744Z" fill="#F4F1EA"/>
  <path opacity="0.7" d="M1007 735C1011.42 735 1015 731.418 1015 727C1015 722.582 1011.42 719 1007 719C1002.58 719 999 722.582 999 727C999 731.418 1002.58 735 1007 735Z" fill="#F4F1EA"/>
  <path opacity="0.6" d="M937 663C940.314 663 943 660.314 943 657C943 653.686 940.314 651 937 651C933.686 651 931 653.686 931 657C931 660.314 933.686 663 937 663Z" fill="#F4F1EA"/>
  <path opacity="0.7" d="M927 536C931.971 536 936 531.971 936 527C936 522.029 931.971 518 927 518C922.029 518 918 522.029 918 527C918 531.971 922.029 536 927 536Z" fill="#F4F1EA"/>
  <path opacity="0.6" d="M1007 474C1010.87 474 1014 470.866 1014 467C1014 463.134 1010.87 460 1007 460C1003.13 460 1000 463.134 1000 467C1000 470.866 1003.13 474 1007 474Z" fill="#F4F1EA"/>
  <path opacity="0.4" d="M1067 597L1147 477" stroke="#F4F1EA"/>
  <path opacity="0.4" d="M1067 597L1217 547" stroke="#F4F1EA"/>
  <path opacity="0.4" d="M1067 597L1227 677" stroke="#F4F1EA"/>
  <path opacity="0.4" d="M1067 597L1137 737" stroke="#F4F1EA"/>
  <path opacity="0.4" d="M1067 597L1007 727" stroke="#F4F1EA"/>
  <path opacity="0.4" d="M1067 597L937 657" stroke="#F4F1EA"/>
  <path opacity="0.4" d="M1067 597L927 527" stroke="#F4F1EA"/>
  <path opacity="0.4" d="M1067 597L1007 467" stroke="#F4F1EA"/>
  <path opacity="0.2" d="M1147 477L1217 547" stroke="#F4F1EA"/>
  <path opacity="0.2" d="M1217 547L1227 677" stroke="#F4F1EA"/>
  <path opacity="0.2" d="M1227 677L1137 737" stroke="#F4F1EA"/>
  <path opacity="0.2" d="M1137 737L1007 727" stroke="#F4F1EA"/>
  <path opacity="0.2" d="M1007 727L937 657" stroke="#F4F1EA"/>
  <path opacity="0.2" d="M937 657L927 527" stroke="#F4F1EA"/>
  <path opacity="0.2" d="M927 527L1007 467" stroke="#F4F1EA"/>
  <path opacity="0.2" d="M1007 467L1147 477" stroke="#F4F1EA"/>
  
  <!-- デフイニション -->
  <defs>
    <linearGradient id="paint0_linear_0_1" x1="-200" y1="-200" x2="79800" y2="-200" gradientUnits="userSpaceOnUse">
      <stop stop-color="#B3322B"/>
      <stop offset="1" stop-color="#653A5E"/>
    </linearGradient>
    <linearGradient id="paint1_linear_0_1" x1="1420" y1="580" x2="61420" y2="580" gradientUnits="userSpaceOnUse">
      <stop stop-color="#B3322B"/>
      <stop offset="1" stop-color="#653A5E"/>
    </linearGradient>
    <linearGradient id="paint2_linear_0_1" x1="240" y1="200" x2="144240" y2="200" gradientUnits="userSpaceOnUse">
      <stop stop-color="#B3322B"/>
      <stop offset="1" stop-color="#653A5E"/>
    </linearGradient>
    <linearGradient id="paint3_linear_0_1" x1="280" y1="880" x2="140280" y2="880" gradientUnits="userSpaceOnUse">
      <stop stop-color="#B3322B"/>
      <stop offset="1" stop-color="#653A5E"/>
    </linearGradient>
  </defs>
</svg> 