<svg width="1920" height="1080" viewBox="0 0 1920 1080" fill="none" xmlns="http://www.w3.org/2000/svg">
<rect width="1920" height="1080" fill="#F5F5F5"/>
<g clip-path="url(#clip0_0_1)">
<path d="M1920 0H0V1080H1920V0Z" fill="#F4F1EA"/>
<path d="M1920 0H0V120H1920V0Z" fill="#2C2C2C"/>
<path d="M1712 200H208C203.582 200 200 203.582 200 208V872C200 876.418 203.582 880 208 880H1712C1716.42 880 1720 876.418 1720 872V208C1720 203.582 1716.42 200 1712 200Z" fill="white" stroke="#2C2C2C" stroke-width="4"/>
<path d="M350 280H1570" stroke="#B3322B" stroke-width="4"/>
<path d="M350 690H1570" stroke="#1A5B66" stroke-width="4"/>
<path d="M350 292C356.627 292 362 286.627 362 280C362 273.373 356.627 268 350 268C343.373 268 338 273.373 338 280C338 286.627 343.373 292 350 292Z" fill="#B3322B"/>
<path d="M1570 292C1576.63 292 1582 286.627 1582 280C1582 273.373 1576.63 268 1570 268C1563.37 268 1558 273.373 1558 280C1558 286.627 1563.37 292 1570 292Z" fill="#B3322B"/>
<path d="M350 702C356.627 702 362 696.627 362 690C362 683.373 356.627 678 350 678C343.373 678 338 683.373 338 690C338 696.627 343.373 702 350 702Z" fill="#1A5B66"/>
<path d="M1570 702C1576.63 702 1582 696.627 1582 690C1582 683.373 1576.63 678 1570 678C1563.37 678 1558 683.373 1558 690C1558 696.627 1563.37 702 1570 702Z" fill="#1A5B66"/>
<path d="M643.434 328.928L652.01 329.76C651.968 330.144 651.797 330.485 651.498 330.784C651.2 331.04 650.666 331.232 649.898 331.36V349.6C649.898 349.771 649.621 349.984 649.066 350.24C648.554 350.496 647.893 350.731 647.082 350.944C646.272 351.115 645.461 351.2 644.65 351.2H643.434V328.928ZM621.674 325.664L630.314 326.496C630.272 326.923 630.101 327.285 629.802 327.584C629.504 327.84 628.97 328.011 628.202 328.096V358.112C628.202 358.325 627.925 358.581 627.37 358.88C626.816 359.179 626.133 359.456 625.322 359.712C624.512 359.925 623.701 360.032 622.89 360.032H621.674V325.664ZM607.786 338.912H632.81L636.202 334.688C636.202 334.688 636.544 334.965 637.226 335.52C637.909 336.032 638.72 336.693 639.658 337.504C640.64 338.272 641.514 339.019 642.282 339.744C642.112 340.427 641.557 340.768 640.618 340.768H608.298L607.786 338.912ZM655.594 326.368L664.682 327.2C664.512 328.096 663.765 328.651 662.442 328.864V352.48C662.442 353.973 662.229 355.253 661.802 356.32C661.418 357.387 660.565 358.219 659.242 358.816C657.962 359.413 655.957 359.84 653.226 360.096C653.141 359.157 652.992 358.347 652.778 357.664C652.565 356.981 652.181 356.405 651.626 355.936C651.114 355.509 650.453 355.125 649.642 354.784C648.832 354.443 647.573 354.144 645.866 353.888V352.992C645.866 352.992 646.229 353.013 646.954 353.056C647.68 353.099 648.533 353.163 649.514 353.248C650.538 353.333 651.498 353.397 652.394 353.44C653.333 353.483 653.973 353.504 654.314 353.504C655.168 353.504 655.594 353.12 655.594 352.352V326.368ZM611.05 345.184V342.624L617.45 345.184H635.562V346.976H617.13V356C617.13 356.128 616.874 356.341 616.362 356.64C615.85 356.939 615.189 357.195 614.378 357.408C613.568 357.621 612.757 357.728 611.946 357.728H611.05V345.184ZM614.25 332.32H631.402L634.73 328.288C634.73 328.288 635.05 328.544 635.69 329.056C636.373 329.568 637.184 330.187 638.122 330.912C639.061 331.637 639.914 332.363 640.682 333.088C640.512 333.771 639.957 334.112 639.018 334.112H613.61L614.25 332.32ZM612.97 325.984L621.034 328.736C620.864 329.12 620.586 329.44 620.202 329.696C619.818 329.909 619.285 329.995 618.602 329.952C617.578 331.744 616.362 333.408 614.954 334.944C613.589 336.437 612.117 337.696 610.538 338.72L609.706 338.144C610.389 336.608 611.029 334.752 611.626 332.576C612.224 330.4 612.672 328.203 612.97 325.984ZM633.322 345.184H632.682L635.498 341.92L642.09 346.784C641.92 347.04 641.6 347.296 641.13 347.552C640.661 347.808 640.106 347.979 639.466 348.064V351.008C639.466 352.16 639.296 353.141 638.954 353.952C638.656 354.763 638.016 355.403 637.034 355.872C636.096 356.341 634.624 356.64 632.618 356.768C632.618 356.128 632.576 355.552 632.49 355.04C632.448 354.485 632.298 354.059 632.042 353.76C631.829 353.461 631.53 353.205 631.146 352.992C630.805 352.736 630.208 352.523 629.354 352.352V351.456C629.354 351.456 629.546 351.477 629.93 351.52C630.314 351.52 630.741 351.541 631.21 351.584C631.722 351.627 632.106 351.648 632.362 351.648C632.746 351.648 633.002 351.563 633.13 351.392C633.258 351.221 633.322 350.965 633.322 350.624V345.184ZM633.45 357.152L643.05 357.92C643.008 358.347 642.837 358.709 642.538 359.008C642.24 359.264 641.728 359.456 641.002 359.584V363.296H633.45V357.152ZM607.722 362.464H655.274L659.242 357.6C659.242 357.6 659.477 357.771 659.946 358.112C660.416 358.453 661.034 358.923 661.802 359.52C662.57 360.075 663.36 360.693 664.17 361.376C665.024 362.059 665.792 362.677 666.474 363.232C666.304 363.915 665.706 364.256 664.682 364.256H608.234L607.722 362.464ZM623.594 370.208L630.89 366.368V378.912C630.848 379.04 630.293 379.253 629.226 379.552C628.202 379.851 626.773 380 624.938 380H623.594V370.208ZM629.546 362.464H639.85V363.488C637.461 365.536 634.538 367.349 631.082 368.928C627.626 370.464 623.808 371.787 619.626 372.896C615.488 373.963 611.114 374.816 606.506 375.456L606.186 374.624C609.472 373.685 612.565 372.576 615.466 371.296C618.368 369.973 621.013 368.565 623.402 367.072C625.834 365.536 627.882 364 629.546 362.464ZM613.802 378.016C615.722 377.973 618.304 377.845 621.546 377.632C624.832 377.376 628.437 377.056 632.362 376.672C636.33 376.288 640.32 375.861 644.33 375.392L644.394 376.288C641.45 377.44 637.93 378.699 633.834 380.064C629.738 381.472 624.789 382.965 618.986 384.544C618.773 384.971 618.517 385.291 618.218 385.504C617.92 385.76 617.578 385.931 617.194 386.016L613.802 378.016ZM638.442 362.464C639.637 364.811 641.237 366.859 643.242 368.608C645.248 370.357 647.509 371.851 650.026 373.088C652.544 374.283 655.232 375.285 658.09 376.096C660.992 376.907 663.914 377.547 666.858 378.016V378.72C665.408 379.061 664.192 379.808 663.21 380.96C662.229 382.112 661.525 383.584 661.098 385.376C657.344 384.053 653.93 382.411 650.858 380.448C647.829 378.528 645.205 376.139 642.986 373.28C640.768 370.421 638.997 366.965 637.674 362.912L638.442 362.464ZM653.226 363.424L660.906 368.608C660.693 368.907 660.416 369.12 660.074 369.248C659.733 369.376 659.2 369.355 658.474 369.184C656.938 369.952 655.061 370.699 652.842 371.424C650.666 372.107 648.512 372.661 646.378 373.088L645.738 372.384C646.677 371.531 647.616 370.571 648.554 369.504C649.536 368.437 650.432 367.371 651.242 366.304C652.096 365.195 652.757 364.235 653.226 363.424ZM694.954 326.56L704.682 329.504C704.512 329.931 704.213 330.272 703.786 330.528C703.402 330.741 702.869 330.848 702.186 330.848C700.736 334.091 699.008 336.992 697.002 339.552C695.04 342.069 692.842 344.16 690.41 345.824L689.578 345.312C690.816 342.965 691.904 340.128 692.842 336.8C693.824 333.429 694.528 330.016 694.954 326.56ZM687.786 347.488H719.786L723.818 342.304C723.818 342.304 724.053 342.496 724.522 342.88C725.034 343.264 725.653 343.776 726.378 344.416C727.146 345.013 727.936 345.653 728.746 346.336C729.6 347.019 730.368 347.659 731.05 348.256C730.88 348.939 730.282 349.28 729.258 349.28H688.298L687.786 347.488ZM698.346 368.352H721.194V370.208H698.346V368.352ZM693.93 355.04V351.968L701.61 355.04H720.426V356.832H701.226V372.832C701.226 373.045 700.906 373.344 700.266 373.728C699.669 374.069 698.88 374.389 697.898 374.688C696.96 374.944 696 375.072 695.018 375.072H693.93V355.04ZM717.866 355.04H717.226L720.618 351.328L727.786 356.704C727.616 356.96 727.296 357.216 726.826 357.472C726.4 357.685 725.866 357.877 725.226 358.048V372.576C725.226 372.704 724.885 372.939 724.202 373.28C723.52 373.621 722.709 373.92 721.77 374.176C720.832 374.432 719.936 374.56 719.082 374.56H717.866V355.04ZM705.706 325.728L715.562 326.496C715.52 326.923 715.328 327.307 714.986 327.648C714.688 327.947 714.09 328.181 713.194 328.352V348.704H705.706V325.728ZM686.314 372.32C687.424 373.429 688.554 374.325 689.706 375.008C690.858 375.648 692.181 376.139 693.674 376.48C695.21 376.821 697.002 377.056 699.05 377.184C701.141 377.269 703.637 377.312 706.538 377.312C708.928 377.312 711.53 377.312 714.346 377.312C717.162 377.312 720 377.291 722.858 377.248C725.76 377.205 728.533 377.141 731.178 377.056V377.824C728.277 378.549 726.634 380.683 726.25 384.224C724.458 384.224 722.432 384.224 720.17 384.224C717.909 384.224 715.605 384.224 713.258 384.224C710.954 384.224 708.736 384.224 706.602 384.224C703.616 384.224 701.034 384.075 698.858 383.776C696.682 383.477 694.784 382.923 693.162 382.112C691.584 381.344 690.176 380.256 688.938 378.848C687.701 377.397 686.57 375.541 685.546 373.28C684.608 374.475 683.562 375.755 682.41 377.12C681.258 378.443 680.106 379.723 678.954 380.96C677.845 382.197 676.821 383.243 675.882 384.096C675.925 384.523 675.84 384.864 675.626 385.12C675.456 385.376 675.2 385.589 674.858 385.76L670.826 377.312C672.106 376.885 673.642 376.352 675.434 375.712C677.226 375.029 679.082 374.283 681.002 373.472C682.922 372.661 684.693 371.915 686.314 371.232V372.32ZM686.314 356.384V372.128L679.274 375.968V355.424H671.274L670.89 353.568H678.25L681.834 348.832L689.578 355.04C689.322 355.296 688.938 355.552 688.426 355.808C687.914 356.064 687.21 356.256 686.314 356.384ZM674.218 327.584C677.376 328.139 679.893 328.949 681.77 330.016C683.648 331.04 684.97 332.149 685.738 333.344C686.549 334.539 686.933 335.712 686.89 336.864C686.848 338.016 686.485 338.976 685.802 339.744C685.162 340.469 684.309 340.896 683.242 341.024C682.218 341.109 681.109 340.725 679.914 339.872C679.701 338.464 679.253 337.056 678.57 335.648C677.93 334.197 677.184 332.811 676.33 331.488C675.477 330.165 674.602 328.992 673.706 327.968L674.218 327.584ZM695.914 336.48H718.25L722.09 331.424C722.09 331.424 722.325 331.616 722.794 332C723.306 332.384 723.925 332.875 724.65 333.472C725.418 334.069 726.208 334.709 727.018 335.392C727.829 336.075 728.576 336.715 729.258 337.312C729.13 337.995 728.554 338.336 727.53 338.336H695.914V336.48ZM764.458 340.064H785.642V341.856H764.458V340.064ZM764.458 350.176H785.642V351.968H764.458V350.176ZM764.458 360.352H785.642V362.208H764.458V360.352ZM735.146 331.616H749.418L753.258 326.368C753.258 326.368 753.493 326.581 753.962 327.008C754.432 327.392 755.029 327.904 755.754 328.544C756.48 329.141 757.226 329.781 757.994 330.464C758.805 331.147 759.509 331.808 760.106 332.448C759.978 333.131 759.402 333.472 758.378 333.472H735.658L735.146 331.616ZM735.53 349.728H750.762L753.834 344.736C753.834 344.736 754.154 345.056 754.794 345.696C755.477 346.336 756.245 347.104 757.098 348C757.952 348.896 758.698 349.728 759.338 350.496C759.168 351.179 758.613 351.52 757.674 351.52H736.042L735.53 349.728ZM734.186 370.464C735.552 370.208 737.536 369.739 740.138 369.056C742.741 368.373 745.685 367.584 748.97 366.688C752.256 365.792 755.605 364.832 759.018 363.808L759.21 364.576C757.077 366.027 754.346 367.84 751.018 370.016C747.733 372.192 743.744 374.581 739.05 377.184C738.794 378.123 738.24 378.72 737.386 378.976L734.186 370.464ZM742.826 331.616H750.122V368.8L742.826 371.36V331.616ZM783.082 330.272H782.442L786.026 326.24L793.45 332C793.237 332.256 792.874 332.533 792.362 332.832C791.893 333.088 791.317 333.301 790.634 333.472V362.592C790.592 362.72 790.229 362.955 789.546 363.296C788.864 363.637 788.032 363.936 787.05 364.192C786.112 364.448 785.194 364.576 784.298 364.576H783.082V330.272ZM760.298 330.272V327.136L767.914 330.272H785.514V332.064H767.594V363.168C767.594 363.424 767.296 363.765 766.698 364.192C766.144 364.576 765.376 364.917 764.394 365.216C763.456 365.515 762.453 365.664 761.386 365.664H760.298V330.272ZM776.042 360.928H783.466C783.466 361.269 783.466 361.653 783.466 362.08C783.466 362.464 783.466 362.784 783.466 363.04V376.544C783.466 376.885 783.53 377.141 783.658 377.312C783.786 377.44 784.106 377.504 784.618 377.504H786.922C787.434 377.504 787.861 377.504 788.202 377.504C788.586 377.504 788.885 377.504 789.098 377.504C789.568 377.461 789.93 377.184 790.186 376.672C790.485 376.16 790.848 375.179 791.274 373.728C791.744 372.235 792.277 370.571 792.874 368.736H793.578L793.77 377.056C794.624 377.483 795.157 377.931 795.37 378.4C795.584 378.869 795.69 379.445 795.69 380.128C795.69 381.067 795.392 381.856 794.794 382.496C794.197 383.179 793.216 383.669 791.85 383.968C790.485 384.309 788.565 384.48 786.09 384.48H782.25C780.416 384.48 779.05 384.288 778.154 383.904C777.301 383.52 776.725 382.88 776.426 381.984C776.17 381.088 776.042 379.872 776.042 378.336V360.928ZM765.418 361.248H773.354C772.928 365.856 771.776 369.781 769.898 373.024C768.064 376.267 765.312 378.912 761.642 380.96C757.973 383.051 753.194 384.629 747.306 385.696L746.986 384.864C751.509 383.2 755.072 381.28 757.674 379.104C760.277 376.928 762.154 374.368 763.306 371.424C764.501 368.48 765.205 365.088 765.418 361.248ZM827.242 337.504H848.81V339.296H827.242V337.504ZM827.178 345.888H848.874V347.68H827.178V345.888ZM816.746 353.376H848.234L852.202 348.384C852.202 348.384 852.437 348.576 852.906 348.96C853.418 349.344 854.058 349.835 854.826 350.432C855.594 350.987 856.384 351.605 857.194 352.288C858.048 352.971 858.816 353.611 859.498 354.208C859.328 354.891 858.73 355.232 857.706 355.232H817.258L816.746 353.376ZM827.178 360.224H853.226V362.08H825.898L827.178 360.224ZM826.154 353.504H834.218V354.528C832.213 358.795 829.312 362.528 825.514 365.728C821.76 368.928 817.301 371.595 812.138 373.728L811.562 372.896C814.976 370.464 817.92 367.541 820.394 364.128C822.912 360.672 824.832 357.131 826.154 353.504ZM832.234 360.224H838.698V361.248C836.48 365.6 833.408 369.461 829.482 372.832C825.6 376.203 821.077 379.019 815.914 381.28L815.21 380.448C819.093 377.888 822.485 374.837 825.386 371.296C828.288 367.755 830.57 364.064 832.234 360.224ZM840.746 360.224H847.914V361.248C846.122 366.709 843.306 371.488 839.466 375.584C835.626 379.637 830.613 383.008 824.426 385.696L823.914 384.864C828.352 381.877 831.957 378.272 834.73 374.048C837.504 369.824 839.509 365.216 840.746 360.224ZM799.21 343.328H812.714L815.914 337.888C815.914 337.888 816.106 338.101 816.49 338.528C816.874 338.912 817.365 339.424 817.962 340.064C818.602 340.704 819.221 341.387 819.818 342.112C820.458 342.837 821.034 343.499 821.546 344.096C821.376 344.779 820.8 345.12 819.818 345.12H799.722L799.21 343.328ZM805.866 326.56L815.338 327.392C815.296 327.819 815.125 328.203 814.826 328.544C814.528 328.843 813.93 329.056 813.034 329.184V364.512L805.866 366.688V326.56ZM798.314 366.24C799.552 365.856 801.365 365.259 803.754 364.448C806.144 363.595 808.832 362.613 811.818 361.504C814.848 360.395 817.92 359.243 821.034 358.048L821.226 358.624C819.434 360.245 817.088 362.251 814.186 364.64C811.328 367.029 807.872 369.696 803.818 372.64C803.733 373.067 803.562 373.472 803.306 373.856C803.05 374.197 802.73 374.453 802.346 374.624L798.314 366.24ZM849.642 360.224H848.938L852.65 356.64L859.242 362.144C858.73 362.656 857.856 363.019 856.618 363.232C856.277 367.2 855.85 370.571 855.338 373.344C854.826 376.075 854.165 378.272 853.354 379.936C852.586 381.557 851.648 382.773 850.538 383.584C849.514 384.309 848.384 384.843 847.146 385.184C845.909 385.525 844.501 385.696 842.922 385.696C842.922 384.672 842.837 383.733 842.666 382.88C842.538 382.069 842.261 381.429 841.834 380.96C841.408 380.448 840.789 380 839.978 379.616C839.21 379.232 838.25 378.912 837.098 378.656L837.162 377.824C837.802 377.867 838.549 377.909 839.402 377.952C840.298 377.995 841.13 378.059 841.898 378.144C842.666 378.187 843.264 378.208 843.69 378.208C844.586 378.208 845.29 378.016 845.802 377.632C846.656 376.992 847.402 375.221 848.042 372.32C848.725 369.376 849.258 365.344 849.642 360.224ZM823.594 329.376V326.432L831.018 329.376H848.49V331.232H830.698V349.152C830.698 349.365 830.378 349.664 829.738 350.048C829.141 350.389 828.373 350.709 827.434 351.008C826.538 351.264 825.578 351.392 824.554 351.392H823.594V329.376ZM844.906 329.376H844.266L847.722 325.728L854.826 331.104C854.613 331.317 854.293 331.552 853.866 331.808C853.44 332.064 852.928 332.256 852.33 332.384V348C852.33 348.171 851.989 348.448 851.306 348.832C850.666 349.173 849.877 349.515 848.938 349.856C848 350.155 847.082 350.304 846.186 350.304H844.906V329.376ZM868.778 334.432L869.738 334.176C870.634 335.157 871.381 335.883 871.978 336.352C872.576 336.821 873.386 337.056 874.41 337.056C875.392 337.056 876.714 336.992 878.378 336.864C880.085 336.736 881.984 336.587 884.074 336.416C886.165 336.203 888.32 335.989 890.538 335.776C892.757 335.52 894.869 335.285 896.874 335.072C898.88 334.859 900.65 334.667 902.186 334.496C903.765 334.283 904.917 334.112 905.642 333.984C906.837 333.813 907.754 333.515 908.394 333.088C909.077 332.661 909.802 332.448 910.57 332.448C911.168 332.448 911.936 332.768 912.874 333.408C913.856 334.048 914.837 334.837 915.818 335.776C916.842 336.672 917.674 337.611 918.314 338.592C918.997 339.531 919.338 340.341 919.338 341.024C919.338 341.749 919.018 342.304 918.378 342.688C917.738 343.072 917.013 343.371 916.202 343.584C915.434 343.797 914.794 344.053 914.282 344.352C913.13 344.992 911.701 345.803 909.994 346.784C908.288 347.723 906.41 348.704 904.362 349.728C902.314 350.752 900.202 351.755 898.026 352.736L897.002 350.624C898.538 349.515 899.989 348.32 901.354 347.04C902.762 345.717 904 344.437 905.066 343.2C906.176 341.92 907.008 340.789 907.562 339.808C907.904 339.125 907.968 338.699 907.754 338.528C907.584 338.315 907.2 338.208 906.602 338.208C906.09 338.208 905.088 338.315 903.594 338.528C902.144 338.741 900.416 339.04 898.41 339.424C896.448 339.765 894.4 340.149 892.266 340.576C890.176 340.96 888.17 341.365 886.25 341.792C884.373 342.176 882.794 342.539 881.514 342.88C880.704 343.093 880 343.392 879.402 343.776C878.848 344.16 878.336 344.523 877.866 344.864C877.397 345.163 876.842 345.312 876.202 345.312C875.434 345.312 874.56 344.992 873.578 344.352C872.597 343.712 871.701 342.944 870.89 342.048C870.122 341.109 869.568 340.213 869.226 339.36C868.97 338.677 868.8 337.909 868.714 337.056C868.672 336.203 868.693 335.328 868.778 334.432ZM887.274 348.896L887.402 347.936C888.128 347.765 888.853 347.637 889.578 347.552C890.304 347.424 891.072 347.381 891.882 347.424C893.93 347.509 895.68 347.851 897.13 348.448C898.624 349.003 899.626 349.515 900.138 349.984C900.608 350.325 900.928 350.731 901.098 351.2C901.312 351.627 901.29 352.16 901.034 352.8C899.328 357.109 897.173 361.184 894.57 365.024C892.01 368.821 888.896 372.277 885.226 375.392C881.557 378.507 877.205 381.173 872.17 383.392L871.274 382.304C873.749 380.597 876.053 378.656 878.186 376.48C880.32 374.261 882.24 371.979 883.946 369.632C885.653 367.285 887.104 365.024 888.298 362.848C889.536 360.672 890.474 358.752 891.114 357.088C891.754 355.381 892.074 354.101 892.074 353.248C892.074 352.224 891.605 351.392 890.666 350.752C889.728 350.069 888.597 349.451 887.274 348.896ZM938.6 334.048L938.984 332.896C940.05 332.939 941.33 333.045 942.824 333.216C944.36 333.344 946.088 333.621 948.008 334.048C949.501 334.432 950.866 334.965 952.104 335.648C953.341 336.288 954.322 337.077 955.048 338.016C955.816 338.955 956.2 340.107 956.2 341.472C956.2 342.325 955.901 343.115 955.304 343.84C954.706 344.523 953.96 344.864 953.064 344.864C952.04 344.864 951.165 344.629 950.44 344.16C949.714 343.648 948.989 342.965 948.264 342.112C947.538 341.259 946.6 340.32 945.448 339.296C944.21 338.187 943.016 337.184 941.864 336.288C940.712 335.392 939.624 334.645 938.6 334.048ZM981.608 343.008L982.76 343.776C981.138 347.061 979.069 350.304 976.552 353.504C974.077 356.661 971.282 359.733 968.168 362.72C965.053 365.707 961.768 368.501 958.312 371.104C954.856 373.707 951.4 376.053 947.944 378.144C947.261 378.528 946.664 378.997 946.152 379.552C945.682 380.064 945.192 380.512 944.68 380.896C944.168 381.28 943.549 381.472 942.824 381.472C941.928 381.472 940.904 381.173 939.752 380.576C938.6 380.021 937.49 379.317 936.424 378.464C935.4 377.568 934.568 376.651 933.928 375.712C933.416 374.859 933.032 373.792 932.776 372.512C932.52 371.232 932.37 370.165 932.328 369.312L933.16 368.864C933.629 369.376 934.162 369.952 934.76 370.592C935.4 371.189 936.082 371.723 936.808 372.192C937.576 372.619 938.365 372.832 939.176 372.832C940.413 372.832 942.056 372.405 944.104 371.552C946.152 370.699 948.456 369.525 951.016 368.032C953.576 366.539 956.264 364.832 959.08 362.912C961.896 360.949 964.669 358.859 967.4 356.64C970.173 354.379 972.776 352.096 975.208 349.792C977.682 347.488 979.816 345.227 981.608 343.008ZM930.472 347.424L930.856 346.336C932.178 346.421 933.501 346.549 934.824 346.72C936.189 346.891 937.725 347.189 939.432 347.616C940.968 347.957 942.418 348.469 943.784 349.152C945.149 349.835 946.258 350.688 947.112 351.712C947.965 352.693 948.392 353.845 948.392 355.168C948.392 355.68 948.285 356.213 948.072 356.768C947.901 357.28 947.56 357.728 947.048 358.112C946.578 358.496 945.896 358.688 945 358.688C943.976 358.688 943.101 358.411 942.376 357.856C941.65 357.301 940.946 356.619 940.264 355.808C939.581 354.955 938.728 354.101 937.704 353.248C936.253 351.84 934.93 350.667 933.736 349.728C932.541 348.747 931.453 347.979 930.472 347.424ZM997.526 336.416L998.614 335.968C999.084 336.565 999.596 337.163 1000.15 337.76C1000.7 338.315 1001.3 338.784 1001.94 339.168C1002.58 339.509 1003.26 339.68 1003.99 339.68C1004.84 339.68 1005.93 339.595 1007.25 339.424C1008.62 339.253 1010.05 339.061 1011.54 338.848C1013.08 338.635 1014.57 338.4 1016.02 338.144C1017.52 337.845 1018.84 337.589 1019.99 337.376C1021.18 337.163 1022.08 336.971 1022.68 336.8C1023.23 336.672 1023.72 336.437 1024.15 336.096C1024.58 335.712 1025 335.371 1025.43 335.072C1025.86 334.731 1026.28 334.56 1026.71 334.56C1027.39 334.56 1028.2 334.816 1029.14 335.328C1030.12 335.84 1031.06 336.48 1031.96 337.248C1032.9 338.016 1033.66 338.805 1034.26 339.616C1034.9 340.384 1035.22 341.024 1035.22 341.536C1035.22 342.133 1034.97 342.667 1034.45 343.136C1033.94 343.563 1033.39 343.968 1032.79 344.352C1032.19 344.693 1031.77 345.056 1031.51 345.44C1030.74 346.549 1029.8 347.936 1028.69 349.6C1027.63 351.221 1026.43 352.928 1025.11 354.72C1023.83 356.469 1022.42 358.155 1020.89 359.776C1019.44 361.269 1017.69 362.955 1015.64 364.832C1013.63 366.667 1011.33 368.544 1008.73 370.464C1006.12 372.384 1003.16 374.197 999.83 375.904C996.502 377.568 992.79 379.04 988.694 380.32L987.99 378.976C991.02 377.397 994.028 375.541 997.014 373.408C1000 371.232 1002.88 368.885 1005.65 366.368C1008.47 363.808 1011.05 361.163 1013.4 358.432C1015.79 355.701 1017.9 352.971 1019.73 350.24C1021.57 347.467 1022.98 344.843 1023.96 342.368C1024.3 341.557 1024.06 341.152 1023.25 341.152C1022.61 341.237 1021.68 341.429 1020.44 341.728C1019.24 341.984 1017.92 342.325 1016.47 342.752C1015.06 343.136 1013.72 343.541 1012.44 343.968C1011.16 344.352 1010.11 344.672 1009.3 344.928C1008.58 345.141 1007.98 345.44 1007.51 345.824C1007.08 346.165 1006.66 346.485 1006.23 346.784C1005.8 347.04 1005.27 347.168 1004.63 347.168C1003.69 347.168 1002.75 346.827 1001.81 346.144C1000.92 345.461 1000.13 344.651 999.446 343.712C998.764 342.731 998.294 341.856 998.038 341.088C997.825 340.405 997.676 339.68 997.59 338.912C997.505 338.101 997.484 337.269 997.526 336.416ZM1017.69 359.136L1018.71 357.856C1021.61 358.581 1024.43 359.52 1027.16 360.672C1029.93 361.824 1032.41 363.168 1034.58 364.704C1036.8 366.197 1038.55 367.84 1039.83 369.632C1041.11 371.381 1041.75 373.216 1041.75 375.136C1041.75 376.117 1041.41 377.056 1040.73 377.952C1040.04 378.848 1039.06 379.296 1037.78 379.296C1036.93 379.296 1036.16 379.083 1035.48 378.656C1034.8 378.229 1034.13 377.632 1033.49 376.864C1032.9 376.053 1032.21 375.093 1031.45 373.984C1030.38 372.149 1029.27 370.379 1028.12 368.672C1026.97 366.965 1025.58 365.301 1023.96 363.68C1022.34 362.059 1020.25 360.544 1017.69 359.136ZM1070.87 350.624C1072.41 351.051 1074.11 351.563 1075.99 352.16C1077.87 352.757 1079.79 353.44 1081.75 354.208C1083.71 354.976 1085.53 355.829 1087.19 356.768C1088.94 357.792 1090.6 358.901 1092.18 360.096C1093.76 361.291 1095.04 362.549 1096.02 363.872C1097 365.195 1097.54 366.624 1097.62 368.16C1097.66 369.355 1097.34 370.315 1096.66 371.04C1095.98 371.765 1095.1 372.128 1094.04 372.128C1093.18 372.171 1092.46 372 1091.86 371.616C1091.26 371.189 1090.65 370.549 1090.01 369.696C1089.37 368.8 1088.56 367.691 1087.57 366.368C1086.64 365.045 1085.33 363.445 1083.67 361.568C1081.62 359.221 1079.47 357.344 1077.21 355.936C1074.94 354.528 1072.51 353.184 1069.91 351.904L1070.87 350.624ZM1054.61 361.312C1056.58 359.648 1058.52 357.792 1060.44 355.744C1062.36 353.653 1064.15 351.541 1065.81 349.408C1067.52 347.232 1069.01 345.141 1070.29 343.136C1071.57 341.131 1072.58 339.36 1073.3 337.824C1074.07 336.245 1074.45 335.051 1074.45 334.24C1074.45 333.6 1074.11 332.939 1073.43 332.256C1072.75 331.573 1071.89 330.955 1070.87 330.4L1071 329.504C1071.64 329.376 1072.28 329.269 1072.92 329.184C1073.6 329.056 1074.45 329.035 1075.48 329.12C1076.93 329.163 1078.36 329.44 1079.77 329.952C1081.17 330.464 1082.33 331.061 1083.22 331.744C1084.16 332.427 1084.63 333.045 1084.63 333.6C1084.63 334.283 1084.44 334.816 1084.05 335.2C1083.71 335.541 1083.26 336.117 1082.71 336.928C1081.26 339.232 1079.55 341.579 1077.59 343.968C1075.67 346.357 1073.54 348.704 1071.19 351.008C1068.89 353.312 1066.41 355.445 1063.77 357.408C1061.12 359.371 1058.35 361.035 1055.45 362.4L1054.61 361.312ZM1055.32 382.688C1059.84 380.427 1064.11 377.739 1068.12 374.624C1072.13 371.467 1075.8 368.117 1079.13 364.576C1082.5 360.992 1085.4 357.365 1087.83 353.696C1090.3 349.984 1092.2 346.421 1093.53 343.008C1093.82 342.197 1093.55 341.792 1092.69 341.792C1092.18 341.792 1091.37 341.899 1090.26 342.112C1089.15 342.325 1088.04 342.56 1086.93 342.816C1085.82 343.072 1084.95 343.307 1084.31 343.52C1083.63 343.733 1083.01 343.925 1082.45 344.096C1081.9 344.267 1081.32 344.352 1080.73 344.352C1080.17 344.352 1079.49 344.053 1078.68 343.456C1077.87 342.859 1077.04 342.197 1076.18 341.472L1077.33 339.168C1078.06 339.253 1078.64 339.317 1079.06 339.36C1079.53 339.403 1079.98 339.424 1080.41 339.424C1080.96 339.424 1081.79 339.36 1082.9 339.232C1084.05 339.104 1085.27 338.933 1086.55 338.72C1087.87 338.507 1089.07 338.315 1090.13 338.144C1091.24 337.931 1092.01 337.76 1092.44 337.632C1093.25 337.333 1093.95 336.907 1094.55 336.352C1095.19 335.797 1095.87 335.52 1096.6 335.52C1097.07 335.52 1097.73 335.733 1098.58 336.16C1099.44 336.587 1100.31 337.12 1101.21 337.76C1102.14 338.4 1102.91 339.104 1103.51 339.872C1104.15 340.597 1104.47 341.301 1104.47 341.984C1104.47 342.496 1104.24 342.965 1103.77 343.392C1103.3 343.776 1102.78 344.181 1102.23 344.608C1101.68 344.992 1101.27 345.44 1101.01 345.952C1098.45 350.389 1095.7 354.528 1092.76 358.368C1089.86 362.165 1086.61 365.664 1083.03 368.864C1079.45 372.064 1075.44 374.923 1071 377.44C1066.56 379.915 1061.57 382.069 1056.02 383.904L1055.32 382.688ZM1124.12 334.944C1126.29 335.2 1128.51 335.627 1130.77 336.224C1133.04 336.821 1135.13 337.589 1137.05 338.528C1138.97 339.467 1140.5 340.597 1141.65 341.92C1142.81 343.2 1143.38 344.672 1143.38 346.336C1143.38 347.488 1143 348.491 1142.23 349.344C1141.46 350.197 1140.46 350.624 1139.22 350.624C1138.2 350.624 1137.3 350.347 1136.53 349.792C1135.81 349.195 1135.04 348.341 1134.23 347.232C1133.46 346.165 1132.76 345.205 1132.12 344.352C1131.48 343.499 1130.77 342.645 1130.01 341.792C1129.28 340.939 1128.38 340.064 1127.32 339.168C1126.29 338.229 1125.01 337.184 1123.48 336.032L1124.12 334.944ZM1171.61 341.28L1172.76 342.048C1170.37 346.741 1167.47 351.136 1164.05 355.232C1160.68 359.285 1156.91 363.083 1152.73 366.624C1148.54 370.123 1143.98 373.387 1139.03 376.416C1138.35 376.843 1137.77 377.333 1137.3 377.888C1136.83 378.4 1136.36 378.848 1135.89 379.232C1135.47 379.616 1134.93 379.808 1134.29 379.808C1133.1 379.808 1131.84 379.467 1130.52 378.784C1129.24 378.059 1128.09 377.205 1127.06 376.224C1126.04 375.243 1125.31 374.325 1124.89 373.472C1124.46 372.747 1124.12 371.829 1123.86 370.72C1123.61 369.568 1123.48 368.544 1123.48 367.648L1124.37 367.072C1124.89 367.584 1125.46 368.16 1126.1 368.8C1126.74 369.397 1127.45 369.931 1128.21 370.4C1128.98 370.827 1129.73 371.04 1130.45 371.04C1131.61 371.04 1133.18 370.613 1135.19 369.76C1137.24 368.864 1139.54 367.648 1142.1 366.112C1144.7 364.576 1147.39 362.805 1150.17 360.8C1152.94 358.795 1155.67 356.683 1158.36 354.464C1161.09 352.245 1163.58 350.005 1165.85 347.744C1168.15 345.483 1170.07 343.328 1171.61 341.28ZM1194.84 331.296C1195.78 330.869 1196.74 330.464 1197.72 330.08C1198.74 329.653 1199.72 329.44 1200.66 329.44C1201.43 329.44 1202.33 329.632 1203.35 330.016C1204.37 330.357 1205.36 330.784 1206.29 331.296C1207.28 331.808 1208.06 332.384 1208.66 333.024C1209.26 333.621 1209.56 334.176 1209.56 334.688C1209.56 335.328 1209.43 335.861 1209.17 336.288C1208.96 336.715 1208.7 337.163 1208.41 337.632C1208.15 338.101 1207.96 338.741 1207.83 339.552C1207.7 340.491 1207.57 341.579 1207.45 342.816C1207.36 344.053 1207.3 345.376 1207.25 346.784C1207.21 348.192 1207.19 349.643 1207.19 351.136C1207.15 352.843 1207.1 354.635 1207.06 356.512C1207.06 358.389 1207.06 360.267 1207.06 362.144C1207.1 364.021 1207.15 365.813 1207.19 367.52C1207.23 369.227 1207.25 370.805 1207.25 372.256C1207.34 373.877 1207.4 375.243 1207.45 376.352C1207.49 377.419 1207.51 378.165 1207.51 378.592C1207.51 380.256 1207.28 381.451 1206.81 382.176C1206.38 382.901 1205.53 383.264 1204.25 383.264C1203.18 383.264 1202.26 382.901 1201.49 382.176C1200.73 381.451 1200.13 380.491 1199.7 379.296C1199.32 378.059 1199.13 376.651 1199.13 375.072C1199.13 374.219 1199.23 373.365 1199.45 372.512C1199.66 371.616 1199.85 370.464 1200.02 369.056C1200.15 367.861 1200.26 366.496 1200.34 364.96C1200.43 363.381 1200.47 361.76 1200.47 360.096C1200.51 358.432 1200.53 356.875 1200.53 355.424C1200.58 353.973 1200.6 352.779 1200.6 351.84C1200.6 350.475 1200.58 349.024 1200.53 347.488C1200.53 345.909 1200.49 344.352 1200.41 342.816C1200.36 341.28 1200.3 339.872 1200.21 338.592C1200.13 337.312 1200.02 336.309 1199.89 335.584C1199.68 334.517 1199.13 333.771 1198.23 333.344C1197.33 332.917 1196.22 332.576 1194.9 332.32L1194.84 331.296ZM1205.72 349.088C1209.22 349.387 1212.52 349.963 1215.64 350.816C1218.8 351.627 1221.31 352.608 1223.19 353.76C1224.6 354.571 1225.73 355.509 1226.58 356.576C1227.44 357.643 1227.86 359.029 1227.86 360.736C1227.86 361.76 1227.52 362.677 1226.84 363.488C1226.2 364.256 1225.3 364.64 1224.15 364.64C1223.13 364.64 1222.29 364.448 1221.65 364.064C1221.01 363.637 1220.42 363.061 1219.86 362.336C1219.31 361.568 1218.65 360.693 1217.88 359.712C1217.11 358.731 1216.11 357.685 1214.87 356.576C1213.76 355.637 1212.48 354.72 1211.03 353.824C1209.62 352.928 1207.85 352.032 1205.72 351.136V349.088ZM1241.24 380V377.888L1247.64 377.056H1248.79L1255.77 377.888V380H1241.24ZM1245.72 380L1261.59 332.32H1267.22L1283.41 380H1274.2L1260.69 338.016H1261.97L1261.78 338.912L1248.85 380H1245.72ZM1252.76 364.576L1253.27 362.4H1273.56L1274.01 364.576H1252.76ZM1266.77 380V377.888L1275.41 376.992H1278.61L1287.51 377.888V380H1266.77ZM1290.72 380V377.888L1300.52 376.992H1302.31L1312.16 377.888V380H1290.72ZM1296.74 380C1296.83 376.373 1296.87 372.725 1296.87 369.056C1296.91 365.344 1296.93 361.611 1296.93 357.856V354.784C1296.93 351.072 1296.91 347.381 1296.87 343.712C1296.87 340 1296.83 336.288 1296.74 332.576H1306.21C1306.13 336.203 1306.06 339.893 1306.02 343.648C1306.02 347.36 1306.02 351.072 1306.02 354.784V357.792C1306.02 361.504 1306.02 365.216 1306.02 368.928C1306.06 372.597 1306.13 376.288 1306.21 380H1296.74ZM1290.72 334.688V332.576H1312.16V334.688L1302.31 335.584H1300.52L1290.72 334.688Z" fill="#2C2C2C"/>
<path d="M828.169 418.728H851.353V421.536H831.121V464.808H828.169V418.728ZM888.937 435.072H912.769V437.088H888.937V435.072ZM888.937 446.448H912.769V448.464H888.937V446.448ZM888.937 457.896H912.769V459.984H888.937V457.896ZM855.961 425.568H872.017L876.337 419.664C876.337 419.664 876.601 419.904 877.129 420.384C877.657 420.816 878.329 421.392 879.145 422.112C879.961 422.784 880.801 423.504 881.665 424.272C882.577 425.04 883.369 425.784 884.041 426.504C883.897 427.272 883.249 427.656 882.097 427.656H856.537L855.961 425.568ZM856.393 445.944H873.529L876.985 440.328C876.985 440.328 877.345 440.688 878.065 441.408C878.833 442.128 879.697 442.992 880.657 444C881.617 445.008 882.457 445.944 883.177 446.808C882.985 447.576 882.361 447.96 881.305 447.96H856.969L856.393 445.944ZM854.881 469.272C856.417 468.984 858.649 468.456 861.577 467.688C864.505 466.92 867.817 466.032 871.513 465.024C875.209 464.016 878.977 462.936 882.817 461.784L883.033 462.648C880.633 464.28 877.561 466.32 873.817 468.768C870.121 471.216 865.633 473.904 860.353 476.832C860.065 477.888 859.441 478.56 858.481 478.848L854.881 469.272ZM864.601 425.568H872.809V467.4L864.601 470.28V425.568ZM909.889 424.056H909.169L913.201 419.52L921.553 426C921.313 426.288 920.905 426.6 920.329 426.936C919.801 427.224 919.153 427.464 918.385 427.656V460.416C918.337 460.56 917.929 460.824 917.161 461.208C916.393 461.592 915.457 461.928 914.353 462.216C913.297 462.504 912.265 462.648 911.257 462.648H909.889V424.056ZM884.257 424.056V420.528L892.825 424.056H912.625V426.072H892.465V461.064C892.465 461.352 892.129 461.736 891.457 462.216C890.833 462.648 889.969 463.032 888.865 463.368C887.809 463.704 886.681 463.872 885.481 463.872H884.257V424.056ZM901.969 458.544H910.321C910.321 458.928 910.321 459.36 910.321 459.84C910.321 460.272 910.321 460.632 910.321 460.92V476.112C910.321 476.496 910.393 476.784 910.537 476.976C910.681 477.12 911.041 477.192 911.617 477.192H914.209C914.785 477.192 915.265 477.192 915.649 477.192C916.081 477.192 916.417 477.192 916.657 477.192C917.185 477.144 917.593 476.832 917.881 476.256C918.217 475.68 918.625 474.576 919.105 472.944C919.633 471.264 920.233 469.392 920.905 467.328H921.697L921.913 476.688C922.873 477.168 923.473 477.672 923.713 478.2C923.953 478.728 924.073 479.376 924.073 480.144C924.073 481.2 923.737 482.088 923.065 482.808C922.393 483.576 921.289 484.128 919.753 484.464C918.217 484.848 916.057 485.04 913.273 485.04H908.953C906.889 485.04 905.353 484.824 904.345 484.392C903.385 483.96 902.737 483.24 902.401 482.232C902.113 481.224 901.969 479.856 901.969 478.128V458.544ZM890.017 458.904H898.945C898.465 464.088 897.169 468.504 895.057 472.152C892.993 475.8 889.897 478.776 885.769 481.08C881.641 483.432 876.265 485.208 869.641 486.408L869.281 485.472C874.369 483.6 878.377 481.44 881.305 478.992C884.233 476.544 886.345 473.664 887.641 470.352C888.985 467.04 889.777 463.224 890.017 458.904ZM934.297 428.736L935.377 428.448C936.385 429.552 937.225 430.368 937.897 430.896C938.569 431.424 939.481 431.688 940.633 431.688C941.737 431.688 943.225 431.616 945.097 431.472C947.017 431.328 949.153 431.16 951.505 430.968C953.857 430.728 956.281 430.488 958.777 430.248C961.273 429.96 963.649 429.696 965.905 429.456C968.161 429.216 970.153 429 971.881 428.808C973.657 428.568 974.953 428.376 975.769 428.232C977.113 428.04 978.145 427.704 978.865 427.224C979.633 426.744 980.449 426.504 981.313 426.504C981.985 426.504 982.849 426.864 983.905 427.584C985.009 428.304 986.113 429.192 987.217 430.248C988.369 431.256 989.305 432.312 990.025 433.416C990.793 434.472 991.177 435.384 991.177 436.152C991.177 436.968 990.817 437.592 990.097 438.024C989.377 438.456 988.561 438.792 987.649 439.032C986.785 439.272 986.065 439.56 985.489 439.896C984.193 440.616 982.585 441.528 980.665 442.632C978.745 443.688 976.633 444.792 974.329 445.944C972.025 447.096 969.649 448.224 967.201 449.328L966.049 446.952C967.777 445.704 969.409 444.36 970.945 442.92C972.529 441.432 973.921 439.992 975.121 438.6C976.369 437.16 977.305 435.888 977.929 434.784C978.313 434.016 978.385 433.536 978.145 433.344C977.953 433.104 977.521 432.984 976.849 432.984C976.273 432.984 975.145 433.104 973.465 433.344C971.833 433.584 969.889 433.92 967.633 434.352C965.425 434.736 963.121 435.168 960.721 435.648C958.369 436.08 956.113 436.536 953.953 437.016C951.841 437.448 950.065 437.856 948.625 438.24C947.713 438.48 946.921 438.816 946.249 439.248C945.625 439.68 945.049 440.088 944.521 440.472C943.993 440.808 943.369 440.976 942.649 440.976C941.785 440.976 940.801 440.616 939.697 439.896C938.593 439.176 937.585 438.312 936.673 437.304C935.809 436.248 935.185 435.24 934.801 434.28C934.513 433.512 934.321 432.648 934.225 431.688C934.177 430.728 934.201 429.744 934.297 428.736ZM955.105 445.008L955.249 443.928C956.065 443.736 956.881 443.592 957.697 443.496C958.513 443.352 959.377 443.304 960.289 443.352C962.593 443.448 964.561 443.832 966.193 444.504C967.873 445.128 969.001 445.704 969.577 446.232C970.105 446.616 970.465 447.072 970.657 447.6C970.897 448.08 970.873 448.68 970.585 449.4C968.665 454.248 966.241 458.832 963.313 463.152C960.433 467.424 956.929 471.312 952.801 474.816C948.673 478.32 943.777 481.32 938.113 483.816L937.105 482.592C939.889 480.672 942.481 478.488 944.881 476.04C947.281 473.544 949.441 470.976 951.361 468.336C953.281 465.696 954.913 463.152 956.257 460.704C957.649 458.256 958.705 456.096 959.425 454.224C960.145 452.304 960.505 450.864 960.505 449.904C960.505 448.752 959.977 447.816 958.921 447.096C957.865 446.328 956.593 445.632 955.105 445.008ZM1012.85 428.304L1013.28 427.008C1014.48 427.056 1015.92 427.176 1017.6 427.368C1019.33 427.512 1021.27 427.824 1023.43 428.304C1025.11 428.736 1026.65 429.336 1028.04 430.104C1029.43 430.824 1030.53 431.712 1031.35 432.768C1032.21 433.824 1032.65 435.12 1032.65 436.656C1032.65 437.616 1032.31 438.504 1031.64 439.32C1030.97 440.088 1030.13 440.472 1029.12 440.472C1027.97 440.472 1026.98 440.208 1026.17 439.68C1025.35 439.104 1024.53 438.336 1023.72 437.376C1022.9 436.416 1021.85 435.36 1020.55 434.208C1019.16 432.96 1017.81 431.832 1016.52 430.824C1015.22 429.816 1014 428.976 1012.85 428.304ZM1061.23 438.384L1062.53 439.248C1060.7 442.944 1058.37 446.592 1055.54 450.192C1052.76 453.744 1049.61 457.2 1046.11 460.56C1042.61 463.92 1038.91 467.064 1035.02 469.992C1031.13 472.92 1027.25 475.56 1023.36 477.912C1022.59 478.344 1021.92 478.872 1021.34 479.496C1020.81 480.072 1020.26 480.576 1019.69 481.008C1019.11 481.44 1018.41 481.656 1017.6 481.656C1016.59 481.656 1015.44 481.32 1014.14 480.648C1012.85 480.024 1011.6 479.232 1010.4 478.272C1009.25 477.264 1008.31 476.232 1007.59 475.176C1007.01 474.216 1006.58 473.016 1006.29 471.576C1006.01 470.136 1005.84 468.936 1005.79 467.976L1006.73 467.472C1007.25 468.048 1007.85 468.696 1008.53 469.416C1009.25 470.088 1010.01 470.688 1010.83 471.216C1011.69 471.696 1012.58 471.936 1013.49 471.936C1014.89 471.936 1016.73 471.456 1019.04 470.496C1021.34 469.536 1023.93 468.216 1026.81 466.536C1029.69 464.856 1032.72 462.936 1035.89 460.776C1039.05 458.568 1042.17 456.216 1045.25 453.72C1048.37 451.176 1051.29 448.608 1054.03 446.016C1056.81 443.424 1059.21 440.88 1061.23 438.384ZM1003.7 443.352L1004.13 442.128C1005.62 442.224 1007.11 442.368 1008.6 442.56C1010.13 442.752 1011.86 443.088 1013.78 443.568C1015.51 443.952 1017.14 444.528 1018.68 445.296C1020.21 446.064 1021.46 447.024 1022.42 448.176C1023.38 449.28 1023.86 450.576 1023.86 452.064C1023.86 452.64 1023.74 453.24 1023.5 453.864C1023.31 454.44 1022.93 454.944 1022.35 455.376C1021.82 455.808 1021.05 456.024 1020.05 456.024C1018.89 456.024 1017.91 455.712 1017.09 455.088C1016.28 454.464 1015.49 453.696 1014.72 452.784C1013.95 451.824 1012.99 450.864 1011.84 449.904C1010.21 448.32 1008.72 447 1007.37 445.944C1006.03 444.84 1004.81 443.976 1003.7 443.352ZM1091.83 486.552H1068.65V483.744H1088.88V440.472H1091.83V486.552Z" fill="#B3322B"/>
<path d="M764.856 552.208H788.472V582.304H785.592V554.908H767.628V582.484H764.856V552.208ZM766.728 564.664H786.816V567.328H766.728V564.664ZM766.656 577.444H786.852V580.144H766.656V577.444ZM797.616 556.852H827.676V559.516H797.616V556.852ZM796.392 578.632H828.684V581.296H796.392V578.632ZM811.044 549.76H813.852V558.328H811.044V549.76ZM819.612 561.172L822.708 561.748C822.324 563.212 821.904 564.76 821.448 566.392C820.992 568 820.524 569.608 820.044 571.216C819.564 572.8 819.072 574.312 818.568 575.752C818.088 577.192 817.62 578.488 817.164 579.64L814.572 578.992C815.028 577.84 815.496 576.532 815.976 575.068C816.456 573.58 816.912 572.032 817.344 570.424C817.8 568.792 818.22 567.184 818.604 565.6C819.012 564.016 819.348 562.54 819.612 561.172ZM802.44 562.036L804.996 561.388C805.644 562.972 806.208 564.652 806.688 566.428C807.192 568.204 807.6 569.932 807.912 571.612C808.248 573.292 808.464 574.804 808.56 576.148L805.788 576.832C805.74 575.512 805.56 574 805.248 572.296C804.936 570.592 804.54 568.852 804.06 567.076C803.58 565.276 803.04 563.596 802.44 562.036ZM841.356 552.352C841.884 552.64 842.508 553.012 843.228 553.468C843.948 553.924 844.692 554.404 845.46 554.908C846.228 555.412 846.936 555.892 847.584 556.348C848.256 556.78 848.784 557.14 849.168 557.428L847.476 559.876C847.044 559.564 846.504 559.18 845.856 558.724C845.208 558.268 844.512 557.8 843.768 557.32C843.024 556.816 842.292 556.348 841.572 555.916C840.876 555.46 840.264 555.076 839.736 554.764L841.356 552.352ZM835.956 578.092C837.276 577.852 838.632 577.54 840.024 577.156C841.416 576.748 842.796 576.28 844.164 575.752C845.532 575.2 846.816 574.576 848.016 573.88C850.008 572.728 851.856 571.456 853.56 570.064C855.264 568.672 856.8 567.184 858.168 565.6C859.536 564.016 860.7 562.384 861.66 560.704L863.388 563.656C861.828 566.08 859.848 568.408 857.448 570.64C855.072 572.872 852.444 574.84 849.564 576.544C848.34 577.24 847.008 577.888 845.568 578.488C844.152 579.064 842.748 579.568 841.356 580C839.988 580.432 838.74 580.768 837.612 581.008L835.956 578.092ZM835.92 560.452C836.448 560.716 837.084 561.076 837.828 561.532C838.572 561.964 839.328 562.42 840.096 562.9C840.864 563.356 841.584 563.8 842.256 564.232C842.928 564.664 843.456 565.024 843.84 565.312L842.184 567.832C841.728 567.496 841.164 567.112 840.492 566.68C839.844 566.224 839.148 565.768 838.404 565.312C837.66 564.832 836.928 564.376 836.208 563.944C835.488 563.512 834.864 563.164 834.336 562.9L835.92 560.452ZM895.32 555.916C895.2 556.06 895.044 556.3 894.852 556.636C894.684 556.948 894.54 557.236 894.42 557.5C893.964 558.676 893.364 559.984 892.62 561.424C891.876 562.84 891.048 564.244 890.136 565.636C889.224 567.028 888.264 568.288 887.256 569.416C885.936 570.904 884.484 572.356 882.9 573.772C881.316 575.164 879.648 576.472 877.896 577.696C876.144 578.896 874.32 579.928 872.424 580.792L870.12 578.38C872.064 577.612 873.924 576.664 875.7 575.536C877.5 574.384 879.18 573.136 880.74 571.792C882.324 570.424 883.728 569.056 884.952 567.688C885.768 566.752 886.572 565.708 887.364 564.556C888.18 563.38 888.9 562.192 889.524 560.992C890.172 559.768 890.64 558.664 890.928 557.68C890.736 557.68 890.28 557.68 889.56 557.68C888.84 557.68 887.988 557.68 887.004 557.68C886.02 557.68 884.988 557.68 883.908 557.68C882.828 557.68 881.796 557.68 880.812 557.68C879.828 557.68 878.976 557.68 878.256 557.68C877.56 557.68 877.104 557.68 876.888 557.68C876.48 557.68 876.012 557.692 875.484 557.716C874.98 557.74 874.512 557.764 874.08 557.788C873.672 557.812 873.396 557.836 873.252 557.86V554.584C873.42 554.608 873.72 554.644 874.152 554.692C874.608 554.716 875.088 554.74 875.592 554.764C876.096 554.788 876.528 554.8 876.888 554.8C877.152 554.8 877.632 554.8 878.328 554.8C879.024 554.8 879.852 554.8 880.812 554.8C881.796 554.8 882.816 554.8 883.872 554.8C884.928 554.8 885.936 554.8 886.896 554.8C887.88 554.8 888.72 554.8 889.416 554.8C890.112 554.8 890.568 554.8 890.784 554.8C891.384 554.8 891.912 554.776 892.368 554.728C892.848 554.68 893.22 554.608 893.484 554.512L895.32 555.916ZM887.724 567.508C888.708 568.324 889.716 569.224 890.748 570.208C891.804 571.192 892.836 572.212 893.844 573.268C894.852 574.3 895.788 575.296 896.652 576.256C897.516 577.192 898.26 578.044 898.884 578.812L896.364 580.972C895.524 579.82 894.516 578.584 893.34 577.264C892.164 575.92 890.916 574.588 889.596 573.268C888.3 571.924 886.992 570.688 885.672 569.56L887.724 567.508ZM910.26 553.36C910.764 553.408 911.28 553.456 911.808 553.504C912.36 553.552 912.924 553.576 913.5 553.576C913.932 553.576 914.628 553.576 915.588 553.576C916.572 553.576 917.688 553.576 918.936 553.576C920.184 553.576 921.432 553.576 922.68 553.576C923.928 553.576 925.032 553.576 925.992 553.576C926.976 553.576 927.672 553.576 928.08 553.576C928.584 553.576 929.136 553.564 929.736 553.54C930.36 553.492 930.924 553.432 931.428 553.36V556.348C930.9 556.3 930.336 556.276 929.736 556.276C929.16 556.252 928.608 556.24 928.08 556.24C927.672 556.24 926.988 556.24 926.028 556.24C925.068 556.24 923.964 556.24 922.716 556.24C921.468 556.24 920.22 556.24 918.972 556.24C917.724 556.24 916.608 556.24 915.624 556.24C914.64 556.24 913.944 556.24 913.536 556.24C912.96 556.24 912.384 556.252 911.808 556.276C911.232 556.276 910.716 556.3 910.26 556.348V553.36ZM905.94 562.396C906.444 562.444 906.948 562.492 907.452 562.54C907.98 562.564 908.52 562.576 909.072 562.576C909.384 562.576 909.996 562.576 910.908 562.576C911.844 562.576 912.972 562.576 914.292 562.576C915.636 562.576 917.076 562.576 918.612 562.576C920.148 562.576 921.684 562.576 923.22 562.576C924.756 562.576 926.184 562.576 927.504 562.576C928.824 562.576 929.94 562.576 930.852 562.576C931.788 562.576 932.388 562.576 932.652 562.576C933.036 562.576 933.492 562.564 934.02 562.54C934.548 562.516 935.028 562.468 935.46 562.396V565.384C935.076 565.36 934.62 565.348 934.092 565.348C933.588 565.324 933.108 565.312 932.652 565.312C932.388 565.312 931.788 565.312 930.852 565.312C929.94 565.312 928.824 565.312 927.504 565.312C926.184 565.312 924.756 565.312 923.22 565.312C921.684 565.312 920.148 565.312 918.612 565.312C917.076 565.312 915.636 565.312 914.292 565.312C912.972 565.312 911.844 565.312 910.908 565.312C909.996 565.312 909.384 565.312 909.072 565.312C908.544 565.312 908.016 565.312 907.488 565.312C906.96 565.312 906.444 565.336 905.94 565.384V562.396ZM922.896 563.872C922.896 566.128 922.728 568.204 922.392 570.1C922.08 571.972 921.528 573.652 920.736 575.14C920.304 575.956 919.716 576.772 918.972 577.588C918.252 578.38 917.436 579.136 916.524 579.856C915.636 580.576 914.676 581.2 913.644 581.728L910.98 579.748C912.372 579.172 913.68 578.392 914.904 577.408C916.128 576.424 917.088 575.368 917.784 574.24C918.696 572.8 919.272 571.216 919.512 569.488C919.752 567.736 919.872 565.864 919.872 563.872H922.896ZM956.222 553.144C956.054 553.6 955.862 554.08 955.646 554.584C955.454 555.088 955.238 555.724 954.998 556.492C954.782 557.092 954.506 557.932 954.17 559.012C953.834 560.092 953.45 561.292 953.018 562.612C952.61 563.908 952.166 565.252 951.686 566.644C951.23 568.036 950.774 569.392 950.318 570.712C949.862 572.032 949.442 573.22 949.058 574.276C948.698 575.308 948.386 576.136 948.122 576.76L944.846 576.868C945.158 576.148 945.518 575.236 945.926 574.132C946.334 573.028 946.778 571.792 947.258 570.424C947.738 569.056 948.206 567.664 948.662 566.248C949.142 564.808 949.598 563.416 950.03 562.072C950.462 560.728 950.834 559.516 951.146 558.436C951.482 557.356 951.746 556.504 951.938 555.88C952.154 555.04 952.31 554.38 952.406 553.9C952.502 553.396 952.574 552.904 952.622 552.424L956.222 553.144ZM963.062 565.204C963.71 566.14 964.406 567.244 965.15 568.516C965.918 569.788 966.674 571.132 967.418 572.548C968.186 573.94 968.882 575.272 969.506 576.544C970.154 577.816 970.67 578.92 971.054 579.856L968.03 581.224C967.67 580.24 967.19 579.088 966.59 577.768C965.99 576.424 965.33 575.044 964.61 573.628C963.914 572.212 963.194 570.868 962.45 569.596C961.706 568.324 961.01 567.268 960.362 566.428L963.062 565.204ZM943.442 576.004C944.306 575.956 945.35 575.884 946.574 575.788C947.822 575.668 949.166 575.548 950.606 575.428C952.046 575.284 953.51 575.128 954.998 574.96C956.51 574.792 957.974 574.636 959.39 574.492C960.806 574.324 962.102 574.168 963.278 574.024C964.454 573.856 965.426 573.724 966.194 573.628L966.986 576.4C966.17 576.52 965.138 576.652 963.89 576.796C962.642 576.94 961.286 577.096 959.822 577.264C958.382 577.408 956.882 577.576 955.322 577.768C953.786 577.936 952.286 578.104 950.822 578.272C949.358 578.44 948.002 578.584 946.754 578.704C945.506 578.824 944.462 578.92 943.622 578.992C943.166 579.04 942.686 579.1 942.182 579.172C941.678 579.244 941.162 579.316 940.634 579.388L940.094 576.04C940.646 576.064 941.21 576.076 941.786 576.076C942.386 576.052 942.938 576.028 943.442 576.004ZM1000.68 550.696C1000.99 551.128 1001.33 551.644 1001.69 552.244C1002.05 552.82 1002.4 553.408 1002.73 554.008C1003.09 554.608 1003.38 555.148 1003.6 555.628L1001.65 556.492C1001.29 555.772 1000.84 554.944 1000.29 554.008C999.758 553.048 999.254 552.22 998.774 551.524L1000.68 550.696ZM1004.75 549.436C1005.09 549.868 1005.43 550.384 1005.79 550.984C1006.18 551.584 1006.55 552.184 1006.91 552.784C1007.27 553.36 1007.56 553.876 1007.77 554.332L1005.83 555.196C1005.45 554.404 1004.98 553.552 1004.43 552.64C1003.9 551.728 1003.38 550.936 1002.88 550.264L1004.75 549.436ZM1001.51 556.564C1001.39 556.708 1001.23 556.948 1001.04 557.284C1000.87 557.596 1000.73 557.872 1000.61 558.112C1000.15 559.288 999.554 560.596 998.81 562.036C998.066 563.476 997.238 564.892 996.326 566.284C995.414 567.676 994.454 568.924 993.446 570.028C992.126 571.516 990.674 572.968 989.09 574.384C987.506 575.8 985.838 577.108 984.086 578.308C982.334 579.508 980.51 580.552 978.614 581.44L976.31 579.028C978.254 578.26 980.114 577.312 981.89 576.184C983.69 575.032 985.37 573.784 986.93 572.44C988.514 571.072 989.918 569.704 991.142 568.336C991.958 567.4 992.762 566.344 993.554 565.168C994.37 563.992 995.09 562.804 995.714 561.604C996.362 560.38 996.83 559.276 997.118 558.292C996.926 558.292 996.47 558.292 995.75 558.292C995.03 558.292 994.178 558.292 993.194 558.292C992.21 558.292 991.178 558.292 990.098 558.292C989.018 558.292 987.986 558.292 987.002 558.292C986.018 558.292 985.166 558.292 984.446 558.292C983.75 558.292 983.294 558.292 983.078 558.292C982.67 558.292 982.202 558.316 981.674 558.364C981.17 558.388 980.702 558.412 980.27 558.436C979.862 558.46 979.586 558.472 979.442 558.472V555.232C979.61 555.256 979.91 555.28 980.342 555.304C980.798 555.328 981.278 555.364 981.782 555.412C982.286 555.436 982.718 555.448 983.078 555.448C983.342 555.448 983.822 555.448 984.518 555.448C985.214 555.448 986.042 555.448 987.002 555.448C987.986 555.448 989.006 555.448 990.062 555.448C991.118 555.448 992.126 555.448 993.086 555.448C994.07 555.448 994.91 555.448 995.606 555.448C996.302 555.448 996.758 555.448 996.974 555.448C997.574 555.448 998.102 555.424 998.558 555.376C999.038 555.304 999.41 555.232 999.674 555.16L1001.51 556.564ZM993.914 568.156C994.898 568.972 995.906 569.872 996.938 570.856C997.994 571.84 999.026 572.848 1000.03 573.88C1001.04 574.912 1001.98 575.908 1002.84 576.868C1003.71 577.828 1004.45 578.68 1005.07 579.424L1002.55 581.62C1001.71 580.468 1000.71 579.232 999.53 577.912C998.354 576.568 997.106 575.224 995.786 573.88C994.49 572.536 993.182 571.3 991.862 570.172L993.914 568.156ZM1034.11 567.256H1036.85V570.712H1034.11V567.256ZM1034.08 570.244L1036.24 571.216C1035.3 572.032 1034.22 572.812 1033 573.556C1031.77 574.276 1030.45 574.948 1029.04 575.572C1027.62 576.172 1026.18 576.712 1024.72 577.192C1023.25 577.648 1021.81 578.032 1020.4 578.344C1020.23 578.032 1019.99 577.672 1019.68 577.264C1019.39 576.856 1019.11 576.532 1018.85 576.292C1020.24 576.052 1021.66 575.728 1023.1 575.32C1024.56 574.912 1025.96 574.456 1027.31 573.952C1028.68 573.424 1029.95 572.848 1031.12 572.224C1032.3 571.576 1033.28 570.916 1034.08 570.244ZM1037.14 570.136C1038.26 572.968 1040.1 575.296 1042.64 577.12C1045.19 578.92 1048.34 580.144 1052.11 580.792C1051.82 581.032 1051.54 581.368 1051.25 581.8C1050.96 582.256 1050.73 582.64 1050.56 582.952C1047.92 582.424 1045.58 581.608 1043.54 580.504C1041.53 579.424 1039.8 578.068 1038.36 576.436C1036.92 574.78 1035.76 572.86 1034.87 570.676L1037.14 570.136ZM1047.76 571.936L1049.74 573.376C1048.61 574.168 1047.34 574.936 1045.92 575.68C1044.53 576.424 1043.23 577.048 1042.03 577.552L1040.34 576.22C1041.13 575.836 1041.98 575.404 1042.9 574.924C1043.81 574.42 1044.7 573.916 1045.56 573.412C1046.42 572.884 1047.16 572.392 1047.76 571.936ZM1023.85 580.324C1025.05 580.156 1026.44 579.964 1028.03 579.748C1029.61 579.508 1031.29 579.244 1033.07 578.956C1034.87 578.668 1036.67 578.392 1038.47 578.128L1038.58 580.288C1036.03 580.696 1033.5 581.104 1030.98 581.512C1028.46 581.944 1026.24 582.304 1024.32 582.592L1023.85 580.324ZM1019.46 569.416H1051.54V571.648H1019.46V569.416ZM1039.4 551.164H1041.89V563.296H1039.4V551.164ZM1047.65 550.12H1050.13V565.132C1050.13 565.828 1050.04 566.356 1049.84 566.716C1049.68 567.076 1049.33 567.352 1048.8 567.544C1048.3 567.736 1047.61 567.856 1046.75 567.904C1045.91 567.928 1044.85 567.94 1043.58 567.94C1043.53 567.604 1043.42 567.232 1043.26 566.824C1043.09 566.392 1042.91 566.008 1042.72 565.672C1043.7 565.696 1044.59 565.72 1045.38 565.744C1046.17 565.744 1046.7 565.732 1046.96 565.708C1047.23 565.708 1047.41 565.672 1047.5 565.6C1047.6 565.504 1047.65 565.348 1047.65 565.132V550.12ZM1027.42 549.76H1029.83V568.048H1027.42V549.76ZM1034.18 560.308H1036.45V564.736C1036.45 565.24 1036.39 565.636 1036.27 565.924C1036.15 566.188 1035.9 566.392 1035.52 566.536C1035.16 566.704 1034.7 566.8 1034.15 566.824C1033.6 566.848 1032.91 566.86 1032.1 566.86C1032.05 566.596 1031.95 566.308 1031.81 565.996C1031.66 565.684 1031.52 565.396 1031.38 565.132C1031.98 565.156 1032.48 565.168 1032.89 565.168C1033.32 565.168 1033.62 565.156 1033.79 565.132C1034.05 565.132 1034.18 565 1034.18 564.736V560.308ZM1021.12 560.308H1035.23V562.144H1023.28V567.076H1021.12V560.308ZM1019.32 556.456H1037.5V558.4H1019.32V556.456ZM1023.06 552.316H1036.24V554.224H1022.3L1023.06 552.316ZM1022.74 549.868L1024.86 550.372C1024.48 551.476 1024.01 552.568 1023.46 553.648C1022.93 554.728 1022.38 555.652 1021.8 556.42C1021.58 556.252 1021.27 556.072 1020.86 555.88C1020.46 555.664 1020.11 555.484 1019.82 555.34C1020.47 554.62 1021.03 553.78 1021.51 552.82C1022.02 551.836 1022.42 550.852 1022.74 549.868ZM1027.56 575.356L1028.96 573.952L1030.19 574.348V581.26H1027.56V575.356ZM1064.35 553.864V560.704H1078.72V553.864H1064.35ZM1061.72 551.308H1081.49V563.296H1061.72V551.308ZM1056.47 567.148H1069.28V582.556H1066.58V569.704H1059.06V582.88H1056.47V567.148ZM1073.24 567.148H1086.78V582.664H1084.04V569.704H1075.84V582.88H1073.24V567.148ZM1057.66 578.308H1067.7V580.936H1057.66V578.308ZM1074.54 578.308H1085.23V580.936H1074.54V578.308ZM1112.09 551.74H1123.64V554.116H1112.09V551.74ZM1111.76 564.88H1124.04V567.256H1111.76V564.88ZM1113.53 552.496H1115.69V566.104H1113.53V552.496ZM1103.38 558.184H1110.11V560.344H1103.38V558.184ZM1107.34 569.848L1109.42 569.092C1109.88 569.98 1110.34 570.928 1110.79 571.936C1111.25 572.944 1111.64 573.916 1111.98 574.852C1112.34 575.788 1112.6 576.616 1112.77 577.336L1110.54 578.272C1110.37 577.528 1110.12 576.676 1109.78 575.716C1109.45 574.756 1109.06 573.76 1108.63 572.728C1108.2 571.696 1107.77 570.736 1107.34 569.848ZM1103.41 551.776H1111.19V567.004H1103.41V564.736H1108.96V554.044H1103.41V551.776ZM1099.96 576.94C1101.3 576.556 1102.9 576.064 1104.74 575.464C1106.59 574.864 1108.48 574.24 1110.4 573.592L1110.79 575.716C1109.09 576.388 1107.4 577.036 1105.72 577.66C1104.04 578.284 1102.49 578.86 1101.07 579.388L1099.96 576.94ZM1102.44 551.776H1104.71V576.76L1102.44 577.3V551.776ZM1091.24 557.392H1101.58V559.912H1091.24V557.392ZM1095.78 549.76H1098.3V582.844H1095.78V549.76ZM1095.67 558.94L1097.44 559.48C1097.2 560.896 1096.88 562.384 1096.5 563.944C1096.12 565.504 1095.68 567.04 1095.2 568.552C1094.72 570.04 1094.2 571.444 1093.62 572.764C1093.07 574.06 1092.49 575.176 1091.89 576.112C1091.75 575.752 1091.53 575.356 1091.24 574.924C1090.96 574.468 1090.7 574.096 1090.49 573.808C1091.04 572.968 1091.58 571.972 1092.11 570.82C1092.64 569.644 1093.13 568.384 1093.58 567.04C1094.06 565.696 1094.47 564.34 1094.81 562.972C1095.17 561.58 1095.46 560.236 1095.67 558.94ZM1098.19 562.828C1098.38 562.996 1098.67 563.284 1099.06 563.692C1099.44 564.1 1099.86 564.556 1100.32 565.06C1100.8 565.54 1101.22 565.996 1101.58 566.428C1101.96 566.836 1102.22 567.124 1102.37 567.292L1100.89 569.596C1100.7 569.26 1100.42 568.84 1100.06 568.336C1099.73 567.832 1099.36 567.304 1098.95 566.752C1098.54 566.2 1098.16 565.696 1097.8 565.24C1097.44 564.76 1097.15 564.376 1096.93 564.088L1098.19 562.828ZM1118.68 553.036H1120.98V557.608C1120.98 559.072 1120.91 560.644 1120.76 562.324C1120.64 563.98 1120.38 565.696 1119.97 567.472C1119.56 569.248 1118.94 571.036 1118.1 572.836C1117.28 574.612 1116.18 576.352 1114.79 578.056C1113.42 579.76 1111.69 581.368 1109.6 582.88C1109.48 582.712 1109.32 582.52 1109.1 582.304C1108.88 582.088 1108.66 581.884 1108.42 581.692C1108.2 581.5 1108 581.332 1107.8 581.188C1109.82 579.772 1111.49 578.272 1112.81 576.688C1114.15 575.08 1115.22 573.436 1116.01 571.756C1116.8 570.076 1117.38 568.408 1117.74 566.752C1118.12 565.096 1118.38 563.5 1118.5 561.964C1118.62 560.404 1118.68 558.952 1118.68 557.608V553.036ZM1117.56 567.976H1119.79V579.568C1119.79 579.688 1119.8 579.808 1119.83 579.928C1119.88 580.024 1119.92 580.096 1119.97 580.144C1120.12 580.264 1120.32 580.324 1120.58 580.324C1120.7 580.324 1120.84 580.324 1120.98 580.324C1121.15 580.324 1121.3 580.324 1121.45 580.324C1121.59 580.324 1121.72 580.312 1121.84 580.288C1121.99 580.264 1122.1 580.216 1122.17 580.144C1122.24 580.096 1122.31 580 1122.38 579.856C1122.46 579.688 1122.5 579.496 1122.53 579.28C1122.58 578.968 1122.6 578.452 1122.6 577.732C1122.62 577.012 1122.64 576.208 1122.64 575.32C1122.85 575.512 1123.14 575.704 1123.5 575.896C1123.86 576.088 1124.18 576.232 1124.47 576.328C1124.47 577.216 1124.44 578.104 1124.36 578.992C1124.32 579.856 1124.26 580.456 1124.18 580.792C1124.02 581.464 1123.69 581.956 1123.21 582.268C1122.8 582.508 1122.28 582.628 1121.63 582.628C1121.41 582.628 1121.14 582.628 1120.8 582.628C1120.46 582.628 1120.21 582.628 1120.04 582.628C1119.71 582.628 1119.37 582.592 1119.04 582.52C1118.7 582.448 1118.41 582.304 1118.17 582.088C1117.93 581.848 1117.76 581.548 1117.67 581.188C1117.6 580.828 1117.56 580.252 1117.56 579.46V567.976ZM1127.14 569.416H1159.86V571.684H1127.14V569.416ZM1127.96 551.308H1158.96V553.72H1127.96V551.308ZM1139.59 565.672L1142.26 566.356C1141.46 567.604 1140.6 568.924 1139.66 570.316C1138.73 571.708 1137.79 573.064 1136.86 574.384C1135.92 575.68 1135.06 576.82 1134.26 577.804L1131.71 576.904C1132.5 575.92 1133.36 574.78 1134.3 573.484C1135.24 572.188 1136.17 570.856 1137.11 569.488C1138.04 568.12 1138.87 566.848 1139.59 565.672ZM1150.39 570.244L1152.98 571C1152.22 572.968 1151.14 574.648 1149.74 576.04C1148.38 577.432 1146.7 578.584 1144.7 579.496C1142.71 580.408 1140.38 581.128 1137.72 581.656C1135.06 582.208 1132.04 582.604 1128.68 582.844C1128.61 582.46 1128.47 582.04 1128.25 581.584C1128.06 581.152 1127.84 580.78 1127.6 580.468C1131.9 580.228 1135.56 579.76 1138.58 579.064C1141.63 578.344 1144.12 577.276 1146.04 575.86C1147.98 574.444 1149.43 572.572 1150.39 570.244ZM1133.69 576.58L1135.02 574.6C1138 575.104 1140.95 575.704 1143.88 576.4C1146.8 577.072 1149.55 577.792 1152.12 578.56C1154.71 579.304 1156.93 580.036 1158.78 580.756L1157.12 582.952C1155.3 582.208 1153.14 581.452 1150.64 580.684C1148.17 579.916 1145.48 579.184 1142.58 578.488C1139.7 577.768 1136.74 577.132 1133.69 576.58ZM1137.79 552.208H1140.35V564.808H1137.79V552.208ZM1146.22 552.208H1148.77V564.808H1146.22V552.208ZM1132.32 559.012V563.908H1154.78V559.012H1132.32ZM1129.76 556.78H1157.45V566.104H1129.76V556.78Z" fill="#1A5B66"/>
<path d="M885.119 640V638.704C886.959 637.088 888.471 635.616 889.655 634.288C890.855 632.96 891.743 631.728 892.319 630.592C892.895 629.44 893.183 628.36 893.183 627.352C893.183 626.68 893.063 626.08 892.823 625.552C892.599 625.024 892.247 624.616 891.767 624.328C891.287 624.024 890.679 623.872 889.943 623.872C889.223 623.872 888.551 624.064 887.927 624.448C887.319 624.832 886.775 625.32 886.295 625.912L885.023 624.664C885.727 623.88 886.487 623.256 887.303 622.792C888.119 622.328 889.087 622.096 890.207 622.096C891.263 622.096 892.167 622.312 892.919 622.744C893.687 623.16 894.279 623.76 894.695 624.544C895.127 625.312 895.343 626.216 895.343 627.256C895.343 628.424 895.047 629.608 894.455 630.808C893.879 632.008 893.071 633.232 892.031 634.48C891.007 635.712 889.807 636.976 888.431 638.272C888.895 638.24 889.375 638.208 889.871 638.176C890.383 638.128 890.863 638.104 891.311 638.104H896.182V640H885.119ZM904.047 640.312C902.943 640.312 901.975 639.976 901.143 639.304C900.327 638.632 899.695 637.616 899.247 636.256C898.799 634.896 898.575 633.192 898.575 631.144C898.575 629.096 898.799 627.408 899.247 626.08C899.695 624.736 900.327 623.736 901.143 623.08C901.975 622.424 902.943 622.096 904.047 622.096C905.167 622.096 906.135 622.432 906.951 623.104C907.767 623.76 908.399 624.752 908.847 626.08C909.295 627.408 909.519 629.096 909.519 631.144C909.519 633.192 909.295 634.896 908.847 636.256C908.399 637.616 907.767 638.632 906.951 639.304C906.135 639.976 905.167 640.312 904.047 640.312ZM904.047 638.536C904.719 638.536 905.303 638.28 905.799 637.768C906.311 637.256 906.703 636.456 906.975 635.368C907.263 634.264 907.407 632.856 907.407 631.144C907.407 629.432 907.263 628.04 906.975 626.968C906.703 625.88 906.311 625.088 905.799 624.592C905.303 624.08 904.719 623.824 904.047 623.824C903.391 623.824 902.807 624.08 902.295 624.592C901.783 625.088 901.383 625.88 901.095 626.968C900.823 628.04 900.687 629.432 900.687 631.144C900.687 632.856 900.823 634.264 901.095 635.368C901.383 636.456 901.783 637.256 902.295 637.768C902.807 638.28 903.391 638.536 904.047 638.536ZM911.744 640V638.704C913.584 637.088 915.096 635.616 916.28 634.288C917.48 632.96 918.368 631.728 918.944 630.592C919.52 629.44 919.808 628.36 919.808 627.352C919.808 626.68 919.688 626.08 919.448 625.552C919.224 625.024 918.872 624.616 918.392 624.328C917.912 624.024 917.304 623.872 916.568 623.872C915.848 623.872 915.176 624.064 914.552 624.448C913.944 624.832 913.4 625.32 912.92 625.912L911.648 624.664C912.352 623.88 913.112 623.256 913.928 622.792C914.744 622.328 915.712 622.096 916.832 622.096C917.888 622.096 918.792 622.312 919.544 622.744C920.312 623.16 920.904 623.76 921.32 624.544C921.752 625.312 921.968 626.216 921.968 627.256C921.968 628.424 921.672 629.608 921.08 630.808C920.504 632.008 919.696 633.232 918.656 634.48C917.632 635.712 916.432 636.976 915.056 638.272C915.52 638.24 916 638.208 916.496 638.176C917.008 638.128 917.488 638.104 917.936 638.104H922.807V640H911.744ZM930.288 640.312C929.376 640.312 928.568 640.2 927.864 639.976C927.176 639.752 926.568 639.464 926.04 639.112C925.528 638.76 925.064 638.384 924.648 637.984L925.752 636.544C926.088 636.88 926.456 637.2 926.856 637.504C927.272 637.792 927.744 638.032 928.272 638.224C928.8 638.4 929.4 638.488 930.072 638.488C930.76 638.488 931.384 638.32 931.944 637.984C932.52 637.648 932.976 637.168 933.312 636.544C933.648 635.92 933.816 635.184 933.816 634.336C933.816 633.088 933.48 632.112 932.808 631.408C932.152 630.688 931.272 630.328 930.168 630.328C929.592 630.328 929.088 630.416 928.656 630.592C928.224 630.768 927.752 631.024 927.24 631.36L926.064 630.616L926.64 622.408H935.184V624.28H928.56L928.104 629.368C928.488 629.144 928.888 628.976 929.304 628.864C929.736 628.736 930.216 628.672 930.744 628.672C931.72 628.672 932.608 628.872 933.408 629.272C934.208 629.656 934.848 630.264 935.328 631.096C935.808 631.928 936.048 632.992 936.048 634.288C936.048 635.568 935.768 636.656 935.208 637.552C934.664 638.448 933.952 639.136 933.072 639.616C932.192 640.08 931.264 640.312 930.288 640.312ZM943.961 619.744L945.785 620.224C945.337 621.392 944.809 622.536 944.201 623.656C943.609 624.76 942.961 625.792 942.257 626.752C941.553 627.696 940.825 628.528 940.073 629.248C939.961 629.152 939.809 629.032 939.617 628.888C939.441 628.728 939.249 628.576 939.041 628.432C938.849 628.288 938.673 628.176 938.513 628.096C939.281 627.424 940.001 626.656 940.673 625.792C941.361 624.912 941.985 623.96 942.545 622.936C943.105 621.896 943.577 620.832 943.961 619.744ZM943.601 622.744H959.081V624.472H942.713L943.601 622.744ZM942.425 628.168H958.529V629.872H944.225V635.536H942.425V628.168ZM938.465 634.648H960.209V636.376H938.465V634.648ZM949.601 623.656H951.449V641.92H949.601V623.656ZM969.473 640V628C969.473 627.568 969.489 627.04 969.521 626.416C969.553 625.792 969.577 625.256 969.593 624.808H969.497C969.273 625.224 969.041 625.656 968.801 626.104C968.577 626.536 968.337 626.968 968.081 627.4L964.073 633.4H973.889V635.152H961.793V633.712L969.113 622.408H971.537V640H969.473ZM980.721 621.112H993.225V622.864H980.721V621.112ZM980.721 626.896H993.345V628.6H980.721V626.896ZM980.529 632.68H993.225V634.432H980.529V632.68ZM979.593 621.112H981.417V628.504C981.417 629.544 981.361 630.656 981.249 631.84C981.153 633.024 980.945 634.224 980.625 635.44C980.305 636.64 979.825 637.8 979.185 638.92C978.561 640.04 977.729 641.048 976.689 641.944C976.609 641.816 976.481 641.664 976.305 641.488C976.145 641.312 975.977 641.144 975.801 640.984C975.625 640.84 975.465 640.728 975.321 640.648C976.297 639.784 977.065 638.856 977.625 637.864C978.201 636.856 978.625 635.816 978.897 634.744C979.185 633.672 979.369 632.608 979.449 631.552C979.545 630.48 979.593 629.464 979.593 628.504V621.112ZM992.433 621.112H994.329V639.256C994.329 639.896 994.233 640.384 994.041 640.72C993.849 641.056 993.529 641.304 993.081 641.464C992.617 641.624 991.969 641.72 991.137 641.752C990.305 641.8 989.249 641.824 987.969 641.824C987.937 641.632 987.873 641.424 987.777 641.2C987.697 640.976 987.601 640.744 987.489 640.504C987.393 640.28 987.297 640.088 987.201 639.928C987.873 639.944 988.513 639.96 989.121 639.976C989.745 639.976 990.281 639.976 990.729 639.976C991.193 639.96 991.513 639.952 991.689 639.952C991.977 639.936 992.169 639.88 992.265 639.784C992.377 639.672 992.433 639.488 992.433 639.232V621.112ZM1004.27 640.312C1003.31 640.312 1002.47 640.144 1001.77 639.808C1001.08 639.456 1000.5 639.024 1000.02 638.512L1001.22 637.144C1001.6 637.56 1002.05 637.888 1002.56 638.128C1003.09 638.368 1003.63 638.488 1004.19 638.488C1004.79 638.488 1005.35 638.352 1005.87 638.08C1006.4 637.808 1006.87 637.36 1007.27 636.736C1007.68 636.096 1008 635.264 1008.23 634.24C1008.47 633.216 1008.59 631.952 1008.59 630.448C1008.59 629.008 1008.43 627.792 1008.13 626.8C1007.84 625.808 1007.41 625.064 1006.83 624.568C1006.26 624.056 1005.56 623.8 1004.75 623.8C1004.19 623.8 1003.68 623.968 1003.23 624.304C1002.79 624.64 1002.43 625.104 1002.15 625.696C1001.88 626.288 1001.75 626.992 1001.75 627.808C1001.75 628.592 1001.86 629.28 1002.08 629.872C1002.32 630.448 1002.67 630.896 1003.14 631.216C1003.62 631.536 1004.2 631.696 1004.89 631.696C1005.48 631.696 1006.1 631.512 1006.74 631.144C1007.39 630.76 1008.02 630.136 1008.61 629.272L1008.71 631.024C1008.35 631.472 1007.95 631.872 1007.48 632.224C1007.03 632.576 1006.55 632.848 1006.04 633.04C1005.55 633.232 1005.04 633.328 1004.53 633.328C1003.55 633.328 1002.7 633.12 1001.96 632.704C1001.24 632.288 1000.68 631.672 1000.28 630.856C999.881 630.024 999.681 629.008 999.681 627.808C999.681 626.656 999.913 625.656 1000.38 624.808C1000.84 623.944 1001.45 623.28 1002.2 622.816C1002.97 622.336 1003.81 622.096 1004.72 622.096C1005.57 622.096 1006.35 622.272 1007.07 622.624C1007.79 622.96 1008.42 623.48 1008.95 624.184C1009.47 624.872 1009.89 625.736 1010.19 626.776C1010.5 627.816 1010.65 629.04 1010.65 630.448C1010.65 632.224 1010.47 633.744 1010.12 635.008C1009.77 636.256 1009.29 637.272 1008.68 638.056C1008.07 638.84 1007.39 639.416 1006.62 639.784C1005.87 640.136 1005.08 640.312 1004.27 640.312ZM1016.16 621.472H1031.91V641.536H1029.99V623.272H1018.01V641.656H1016.16V621.472ZM1017.41 629.776H1030.8V631.552H1017.41V629.776ZM1017.36 638.296H1030.83V640.096H1017.36V638.296Z" fill="#2C2C2C"/>
<path d="M1620 320H300V328H1620V320Z" fill="#F4F1EA"/>
<path d="M1620 520H300V528H1620V520Z" fill="#F4F1EA"/>
<path d="M1620 620H300V628H1620V620Z" fill="#F4F1EA"/>
<path d="M1920 960H0V1080H1920V960Z" fill="#2C2C2C"/>
<g opacity="0.2">
<path d="M250 280C266.569 280 280 266.569 280 250C280 233.431 266.569 220 250 220C233.431 220 220 233.431 220 250C220 266.569 233.431 280 250 280Z" fill="#F4F1EA"/>
<path d="M300 230C316.569 230 330 216.569 330 200C330 183.431 316.569 170 300 170C283.431 170 270 183.431 270 200C270 216.569 283.431 230 300 230Z" fill="#F4F1EA"/>
<path d="M200 230C216.569 230 230 216.569 230 200C230 183.431 216.569 170 200 170C183.431 170 170 183.431 170 200C170 216.569 183.431 230 200 230Z" fill="#F4F1EA"/>
<path d="M1670 280C1686.57 280 1700 266.569 1700 250C1700 233.431 1686.57 220 1670 220C1653.43 220 1640 233.431 1640 250C1640 266.569 1653.43 280 1670 280Z" fill="#F4F1EA"/>
<path d="M1720 230C1736.57 230 1750 216.569 1750 200C1750 183.431 1736.57 170 1720 170C1703.43 170 1690 183.431 1690 200C1690 216.569 1703.43 230 1720 230Z" fill="#F4F1EA"/>
<path d="M1620 230C1636.57 230 1650 216.569 1650 200C1650 183.431 1636.57 170 1620 170C1603.43 170 1590 183.431 1590 200C1590 216.569 1603.43 230 1620 230Z" fill="#F4F1EA"/>
<path d="M250 860C266.569 860 280 846.569 280 830C280 813.431 266.569 800 250 800C233.431 800 220 813.431 220 830C220 846.569 233.431 860 250 860Z" fill="#F4F1EA"/>
<path d="M300 910C316.569 910 330 896.569 330 880C330 863.431 316.569 850 300 850C283.431 850 270 863.431 270 880C270 896.569 283.431 910 300 910Z" fill="#F4F1EA"/>
<path d="M200 910C216.569 910 230 896.569 230 880C230 863.431 216.569 850 200 850C183.431 850 170 863.431 170 880C170 896.569 183.431 910 200 910Z" fill="#F4F1EA"/>
<path d="M1670 860C1686.57 860 1700 846.569 1700 830C1700 813.431 1686.57 800 1670 800C1653.43 800 1640 813.431 1640 830C1640 846.569 1653.43 860 1670 860Z" fill="#F4F1EA"/>
<path d="M1720 910C1736.57 910 1750 896.569 1750 880C1750 863.431 1736.57 850 1720 850C1703.43 850 1690 863.431 1690 880C1690 896.569 1703.43 910 1720 910Z" fill="#F4F1EA"/>
<path d="M1620 910C1636.57 910 1650 896.569 1650 880C1650 863.431 1636.57 850 1620 850C1603.43 850 1590 863.431 1590 880C1590 896.569 1603.43 910 1620 910Z" fill="#F4F1EA"/>
</g>
<path d="M814.689 1008.63H829.949V1010.56H814.689V1008.63ZM817.405 1001.74H828.969V1003.68H817.405V1001.74ZM821.381 996.48H823.425V1022.21H821.381V996.48ZM820.597 1009.53L822.277 1010.06C821.717 1011.52 821.026 1012.93 820.205 1014.29C819.384 1015.65 818.488 1016.89 817.517 1018.01C816.565 1019.13 815.566 1020.07 814.521 1020.84C814.409 1020.67 814.269 1020.49 814.101 1020.28C813.933 1020.07 813.756 1019.88 813.569 1019.69C813.401 1019.51 813.242 1019.35 813.093 1019.22C814.101 1018.58 815.081 1017.75 816.033 1016.72C816.985 1015.7 817.853 1014.57 818.637 1013.34C819.44 1012.09 820.093 1010.82 820.597 1009.53ZM824.321 1009.64C824.769 1010.83 825.329 1012.03 826.001 1013.22C826.692 1014.42 827.438 1015.52 828.241 1016.53C829.062 1017.52 829.884 1018.34 830.705 1018.99C830.556 1019.1 830.378 1019.25 830.173 1019.44C829.986 1019.63 829.8 1019.82 829.613 1020.03C829.445 1020.23 829.305 1020.43 829.193 1020.62C828.353 1019.85 827.532 1018.91 826.729 1017.79C825.926 1016.67 825.18 1015.45 824.489 1014.12C823.817 1012.79 823.248 1011.47 822.781 1010.14L824.321 1009.64ZM817.209 997.796L819.169 998.132C818.889 999.98 818.488 1001.75 817.965 1003.45C817.442 1005.15 816.808 1006.6 816.061 1007.79C815.93 1007.7 815.762 1007.59 815.557 1007.46C815.352 1007.31 815.137 1007.17 814.913 1007.04C814.708 1006.91 814.512 1006.81 814.325 1006.76C815.09 1005.64 815.697 1004.29 816.145 1002.72C816.612 1001.14 816.966 999.495 817.209 997.796ZM804.805 1001.88H814.493V1003.84H804.805V1001.88ZM808.865 996.48H810.909V1022.21H808.865V996.48ZM808.809 1003.14L810.069 1003.59C809.845 1004.75 809.565 1005.93 809.229 1007.15C808.893 1008.34 808.52 1009.53 808.109 1010.7C807.698 1011.86 807.25 1012.94 806.765 1013.95C806.298 1014.96 805.813 1015.82 805.309 1016.53C805.253 1016.32 805.16 1016.1 805.029 1015.86C804.898 1015.59 804.758 1015.34 804.609 1015.1C804.46 1014.86 804.32 1014.65 804.189 1014.48C804.674 1013.87 805.141 1013.12 805.589 1012.24C806.056 1011.37 806.494 1010.41 806.905 1009.39C807.334 1008.36 807.708 1007.32 808.025 1006.25C808.342 1005.17 808.604 1004.13 808.809 1003.14ZM810.797 1004.66C810.965 1004.86 811.217 1005.22 811.553 1005.72C811.889 1006.22 812.244 1006.78 812.617 1007.4C813.009 1008 813.364 1008.56 813.681 1009.08C814.017 1009.58 814.25 1009.95 814.381 1010.17L813.121 1011.68C812.953 1011.31 812.72 1010.84 812.421 1010.28C812.141 1009.71 811.833 1009.1 811.497 1008.46C811.161 1007.83 810.834 1007.24 810.517 1006.7C810.218 1006.16 809.976 1005.74 809.789 1005.44L810.797 1004.66ZM851.145 997.852L852.573 996.676C853.04 996.993 853.534 997.357 854.057 997.768C854.58 998.16 855.065 998.561 855.513 998.972C855.98 999.364 856.353 999.728 856.633 1000.06L855.177 1001.38C854.897 1001.04 854.533 1000.67 854.085 1000.26C853.656 999.831 853.18 999.411 852.657 999C852.153 998.571 851.649 998.188 851.145 997.852ZM832.833 1001.72H857.809V1003.76H832.833V1001.72ZM833.813 1007.93H846.189V1009.98H833.813V1007.93ZM838.853 1009.02H840.953V1019.02H838.853V1009.02ZM832.945 1019.33C834.065 1019.1 835.381 1018.84 836.893 1018.54C838.424 1018.23 840.048 1017.89 841.765 1017.54C843.501 1017.16 845.228 1016.79 846.945 1016.42L847.113 1018.32C845.526 1018.69 843.921 1019.07 842.297 1019.44C840.692 1019.81 839.142 1020.17 837.649 1020.5C836.156 1020.84 834.812 1021.14 833.617 1021.4L832.945 1019.33ZM847.113 996.592H849.353C849.334 999.187 849.409 1001.66 849.577 1004.01C849.764 1006.36 850.025 1008.52 850.361 1010.48C850.716 1012.44 851.136 1014.14 851.621 1015.58C852.125 1017.01 852.676 1018.13 853.273 1018.94C853.889 1019.72 854.542 1020.11 855.233 1020.11C855.625 1020.11 855.914 1019.69 856.101 1018.85C856.288 1018.01 856.428 1016.66 856.521 1014.79C856.745 1015.02 857.034 1015.24 857.389 1015.46C857.744 1015.69 858.07 1015.86 858.369 1015.97C858.257 1017.59 858.08 1018.86 857.837 1019.78C857.594 1020.69 857.249 1021.33 856.801 1021.71C856.372 1022.1 855.793 1022.3 855.065 1022.3C854.132 1022.3 853.282 1021.98 852.517 1021.34C851.77 1020.71 851.108 1019.81 850.529 1018.66C849.95 1017.48 849.446 1016.11 849.017 1014.54C848.588 1012.95 848.233 1011.21 847.953 1009.3C847.692 1007.38 847.486 1005.35 847.337 1003.2C847.206 1001.05 847.132 998.851 847.113 996.592ZM862.009 1019.19C863.652 1019.13 865.556 1019.08 867.721 1019.02C869.905 1018.95 872.22 1018.86 874.665 1018.77C877.11 1018.67 879.546 1018.57 881.973 1018.46L881.917 1020.39C879.565 1020.5 877.194 1020.62 874.805 1020.73C872.416 1020.84 870.148 1020.93 868.001 1021.01C865.854 1021.1 863.95 1021.19 862.289 1021.26L862.009 1019.19ZM861.785 1010.54H884.997V1012.52H861.785V1010.54ZM866.573 1005.16H879.929V1007.12H866.573V1005.16ZM869.457 1011.8L871.809 1012.47C871.38 1013.35 870.913 1014.28 870.409 1015.27C869.924 1016.24 869.429 1017.18 868.925 1018.1C868.44 1019.01 867.964 1019.82 867.497 1020.53L865.649 1019.89C866.097 1019.16 866.554 1018.32 867.021 1017.37C867.506 1016.42 867.964 1015.45 868.393 1014.48C868.822 1013.49 869.177 1012.6 869.457 1011.8ZM876.093 1014.76L877.885 1013.78C878.762 1014.51 879.621 1015.31 880.461 1016.19C881.32 1017.07 882.104 1017.94 882.813 1018.8C883.522 1019.65 884.092 1020.44 884.521 1021.15L882.645 1022.32C882.216 1021.61 881.646 1020.82 880.937 1019.94C880.228 1019.05 879.453 1018.14 878.613 1017.23C877.792 1016.31 876.952 1015.49 876.093 1014.76ZM873.181 998.552C872.434 999.672 871.445 1000.83 870.213 1002.02C869 1003.2 867.646 1004.32 866.153 1005.38C864.678 1006.45 863.148 1007.38 861.561 1008.18C861.468 1008 861.346 1007.8 861.197 1007.6C861.066 1007.39 860.917 1007.19 860.749 1006.98C860.6 1006.77 860.45 1006.6 860.301 1006.45C861.925 1005.68 863.484 1004.76 864.977 1003.68C866.489 1002.57 867.852 1001.41 869.065 1000.18C870.297 998.925 871.268 997.703 871.977 996.508H874.161C874.908 997.553 875.757 998.561 876.709 999.532C877.661 1000.48 878.678 1001.38 879.761 1002.22C880.844 1003.06 881.945 1003.82 883.065 1004.49C884.204 1005.14 885.333 1005.69 886.453 1006.14C886.21 1006.4 885.968 1006.71 885.725 1007.06C885.501 1007.4 885.286 1007.72 885.081 1008.02C883.644 1007.33 882.169 1006.48 880.657 1005.47C879.164 1004.44 877.764 1003.33 876.457 1002.14C875.15 1000.94 874.058 999.747 873.181 998.552ZM898.633 1019.38H914.481V1021.43H898.633V1019.38ZM899.753 1005.64H913.865V1007.65H899.753V1005.64ZM905.745 996.704H907.901V1020.36H905.745V996.704ZM888.833 1001.74H898.129V1003.68H888.833V1001.74ZM893.257 1010.12L895.357 1007.65V1022.24H893.257V1010.12ZM893.257 996.48H895.357V1002.7H893.257V996.48ZM895.161 1008.18C895.404 1008.35 895.758 1008.63 896.225 1009.02C896.692 1009.42 897.196 1009.85 897.737 1010.31C898.278 1010.76 898.773 1011.18 899.221 1011.57C899.669 1011.96 899.986 1012.25 900.173 1012.44L898.885 1014.15C898.642 1013.85 898.306 1013.48 897.877 1013.03C897.448 1012.58 896.981 1012.11 896.477 1011.63C895.992 1011.14 895.525 1010.69 895.077 1010.28C894.629 1009.85 894.256 1009.52 893.957 1009.28L895.161 1008.18ZM897.345 1001.74H897.793L898.185 1001.66L899.361 1002.44C898.67 1004.16 897.765 1005.8 896.645 1007.37C895.525 1008.92 894.293 1010.33 892.949 1011.6C891.624 1012.87 890.298 1013.94 888.973 1014.82C888.898 1014.61 888.796 1014.39 888.665 1014.15C888.534 1013.91 888.394 1013.67 888.245 1013.45C888.114 1013.22 887.993 1013.05 887.881 1012.92C889.15 1012.17 890.401 1011.24 891.633 1010.12C892.865 1008.98 893.985 1007.73 894.993 1006.36C896.02 1004.98 896.804 1003.58 897.345 1002.16V1001.74ZM926.483 998.384H944.851V1021.79H942.611V1000.48H928.639V1021.93H926.483V998.384ZM927.939 1008.07H943.563V1010.14H927.939V1008.07ZM927.883 1018.01H943.591V1020.11H927.883V1018.01ZM951.963 1002H975.343V1004.07H951.963V1002ZM951.011 1018.94H976.127V1021.01H951.011V1018.94ZM962.407 996.48H964.591V1003.14H962.407V996.48ZM969.071 1005.36L971.479 1005.8C971.18 1006.94 970.853 1008.15 970.499 1009.42C970.144 1010.67 969.78 1011.92 969.407 1013.17C969.033 1014.4 968.651 1015.58 968.259 1016.7C967.885 1017.82 967.521 1018.82 967.167 1019.72L965.151 1019.22C965.505 1018.32 965.869 1017.3 966.243 1016.16C966.616 1015.01 966.971 1013.8 967.307 1012.55C967.661 1011.28 967.988 1010.03 968.287 1008.8C968.604 1007.57 968.865 1006.42 969.071 1005.36ZM955.715 1006.03L957.703 1005.52C958.207 1006.76 958.645 1008.06 959.019 1009.44C959.411 1010.83 959.728 1012.17 959.971 1013.48C960.232 1014.78 960.4 1015.96 960.475 1017L958.319 1017.54C958.281 1016.51 958.141 1015.33 957.899 1014.01C957.656 1012.68 957.348 1011.33 956.975 1009.95C956.601 1008.55 956.181 1007.24 955.715 1006.03ZM985.983 998.496C986.393 998.72 986.879 999.009 987.439 999.364C987.999 999.719 988.577 1000.09 989.175 1000.48C989.772 1000.88 990.323 1001.25 990.827 1001.6C991.349 1001.94 991.76 1002.22 992.059 1002.44L990.743 1004.35C990.407 1004.11 989.987 1003.81 989.483 1003.45C988.979 1003.1 988.437 1002.73 987.859 1002.36C987.28 1001.97 986.711 1001.6 986.151 1001.27C985.609 1000.91 985.133 1000.61 984.723 1000.37L985.983 998.496ZM981.783 1018.52C982.809 1018.33 983.864 1018.09 984.947 1017.79C986.029 1017.47 987.103 1017.11 988.167 1016.7C989.231 1016.27 990.229 1015.78 991.163 1015.24C992.712 1014.34 994.149 1013.35 995.475 1012.27C996.8 1011.19 997.995 1010.03 999.059 1008.8C1000.12 1007.57 1001.03 1006.3 1001.77 1004.99L1003.12 1007.29C1001.91 1009.17 1000.37 1010.98 998.499 1012.72C996.651 1014.46 994.607 1015.99 992.367 1017.31C991.415 1017.85 990.379 1018.36 989.259 1018.82C988.157 1019.27 987.065 1019.66 985.983 1020C984.919 1020.34 983.948 1020.6 983.071 1020.78L981.783 1018.52ZM981.755 1004.8C982.165 1005 982.66 1005.28 983.239 1005.64C983.817 1005.97 984.405 1006.33 985.003 1006.7C985.6 1007.05 986.16 1007.4 986.683 1007.74C987.205 1008.07 987.616 1008.35 987.915 1008.58L986.627 1010.54C986.272 1010.27 985.833 1009.98 985.311 1009.64C984.807 1009.29 984.265 1008.93 983.687 1008.58C983.108 1008.2 982.539 1007.85 981.979 1007.51C981.419 1007.18 980.933 1006.91 980.523 1006.7L981.755 1004.8ZM1027.95 1001.27C1027.86 1001.38 1027.74 1001.57 1027.59 1001.83C1027.46 1002.07 1027.35 1002.29 1027.25 1002.5C1026.9 1003.41 1026.43 1004.43 1025.85 1005.55C1025.28 1006.65 1024.63 1007.75 1023.92 1008.83C1023.21 1009.91 1022.47 1010.89 1021.68 1011.77C1020.66 1012.93 1019.53 1014.05 1018.29 1015.16C1017.06 1016.24 1015.77 1017.26 1014.4 1018.21C1013.04 1019.14 1011.62 1019.94 1010.15 1020.62L1008.35 1018.74C1009.87 1018.14 1011.31 1017.41 1012.69 1016.53C1014.09 1015.63 1015.4 1014.66 1016.61 1013.62C1017.85 1012.55 1018.94 1011.49 1019.89 1010.42C1020.53 1009.7 1021.15 1008.88 1021.77 1007.99C1022.4 1007.07 1022.96 1006.15 1023.45 1005.22C1023.95 1004.26 1024.31 1003.41 1024.54 1002.64C1024.39 1002.64 1024.03 1002.64 1023.47 1002.64C1022.91 1002.64 1022.25 1002.64 1021.49 1002.64C1020.72 1002.64 1019.92 1002.64 1019.08 1002.64C1018.24 1002.64 1017.44 1002.64 1016.67 1002.64C1015.91 1002.64 1015.24 1002.64 1014.68 1002.64C1014.14 1002.64 1013.79 1002.64 1013.62 1002.64C1013.3 1002.64 1012.94 1002.65 1012.53 1002.67C1012.13 1002.69 1011.77 1002.71 1011.43 1002.72C1011.12 1002.74 1010.9 1002.76 1010.79 1002.78V1000.23C1010.92 1000.25 1011.15 1000.28 1011.49 1000.32C1011.85 1000.33 1012.22 1000.35 1012.61 1000.37C1013 1000.39 1013.34 1000.4 1013.62 1000.4C1013.82 1000.4 1014.2 1000.4 1014.74 1000.4C1015.28 1000.4 1015.92 1000.4 1016.67 1000.4C1017.44 1000.4 1018.23 1000.4 1019.05 1000.4C1019.87 1000.4 1020.66 1000.4 1021.4 1000.4C1022.17 1000.4 1022.82 1000.4 1023.36 1000.4C1023.9 1000.4 1024.26 1000.4 1024.43 1000.4C1024.89 1000.4 1025.3 1000.38 1025.66 1000.34C1026.03 1000.31 1026.32 1000.25 1026.53 1000.18L1027.95 1001.27ZM1022.05 1010.28C1022.81 1010.92 1023.6 1011.62 1024.4 1012.38C1025.22 1013.15 1026.02 1013.94 1026.81 1014.76C1027.59 1015.57 1028.32 1016.34 1028.99 1017.09C1029.66 1017.82 1030.24 1018.48 1030.73 1019.08L1028.77 1020.76C1028.11 1019.86 1027.33 1018.9 1026.41 1017.87C1025.5 1016.83 1024.53 1015.79 1023.5 1014.76C1022.49 1013.72 1021.48 1012.76 1020.45 1011.88L1022.05 1010.28ZM1039.57 999.28C1039.97 999.317 1040.37 999.355 1040.78 999.392C1041.21 999.429 1041.65 999.448 1042.09 999.448C1042.43 999.448 1042.97 999.448 1043.72 999.448C1044.48 999.448 1045.35 999.448 1046.32 999.448C1047.29 999.448 1048.26 999.448 1049.23 999.448C1050.21 999.448 1051.06 999.448 1051.81 999.448C1052.58 999.448 1053.12 999.448 1053.43 999.448C1053.83 999.448 1054.26 999.439 1054.72 999.42C1055.21 999.383 1055.65 999.336 1056.04 999.28V1001.6C1055.63 1001.57 1055.19 1001.55 1054.72 1001.55C1054.27 1001.53 1053.85 1001.52 1053.43 1001.52C1053.12 1001.52 1052.59 1001.52 1051.84 1001.52C1051.09 1001.52 1050.23 1001.52 1049.26 1001.52C1048.29 1001.52 1047.32 1001.52 1046.35 1001.52C1045.38 1001.52 1044.51 1001.52 1043.75 1001.52C1042.98 1001.52 1042.44 1001.52 1042.12 1001.52C1041.67 1001.52 1041.23 1001.53 1040.78 1001.55C1040.33 1001.55 1039.93 1001.57 1039.57 1001.6V999.28ZM1036.21 1006.31C1036.61 1006.35 1037 1006.38 1037.39 1006.42C1037.8 1006.44 1038.22 1006.45 1038.65 1006.45C1038.89 1006.45 1039.37 1006.45 1040.08 1006.45C1040.81 1006.45 1041.68 1006.45 1042.71 1006.45C1043.76 1006.45 1044.88 1006.45 1046.07 1006.45C1047.27 1006.45 1048.46 1006.45 1049.65 1006.45C1050.85 1006.45 1051.96 1006.45 1052.99 1006.45C1054.01 1006.45 1054.88 1006.45 1055.59 1006.45C1056.32 1006.45 1056.79 1006.45 1056.99 1006.45C1057.29 1006.45 1057.64 1006.44 1058.05 1006.42C1058.47 1006.4 1058.84 1006.36 1059.17 1006.31V1008.63C1058.88 1008.61 1058.52 1008.6 1058.11 1008.6C1057.72 1008.59 1057.35 1008.58 1056.99 1008.58C1056.79 1008.58 1056.32 1008.58 1055.59 1008.58C1054.88 1008.58 1054.01 1008.58 1052.99 1008.58C1051.96 1008.58 1050.85 1008.58 1049.65 1008.58C1048.46 1008.58 1047.27 1008.58 1046.07 1008.58C1044.88 1008.58 1043.76 1008.58 1042.71 1008.58C1041.68 1008.58 1040.81 1008.58 1040.08 1008.58C1039.37 1008.58 1038.89 1008.58 1038.65 1008.58C1038.24 1008.58 1037.83 1008.58 1037.42 1008.58C1037.01 1008.58 1036.61 1008.59 1036.21 1008.63V1006.31ZM1049.4 1007.46C1049.4 1009.21 1049.27 1010.83 1049.01 1012.3C1048.77 1013.76 1048.34 1015.06 1047.72 1016.22C1047.39 1016.85 1046.93 1017.49 1046.35 1018.12C1045.79 1018.74 1045.16 1019.33 1044.45 1019.89C1043.76 1020.45 1043.01 1020.93 1042.21 1021.34L1040.13 1019.8C1041.22 1019.36 1042.23 1018.75 1043.19 1017.98C1044.14 1017.22 1044.89 1016.4 1045.43 1015.52C1046.14 1014.4 1046.58 1013.17 1046.77 1011.82C1046.96 1010.46 1047.05 1009.01 1047.05 1007.46H1049.4ZM1075.32 999.112C1075.19 999.467 1075.04 999.84 1074.88 1000.23C1074.73 1000.62 1074.56 1001.12 1074.37 1001.72C1074.2 1002.18 1073.99 1002.84 1073.73 1003.68C1073.47 1004.52 1073.17 1005.45 1072.83 1006.48C1072.51 1007.48 1072.17 1008.53 1071.8 1009.61C1071.44 1010.69 1071.09 1011.75 1070.73 1012.78C1070.38 1013.8 1070.05 1014.73 1069.75 1015.55C1069.47 1016.35 1069.23 1016.99 1069.02 1017.48L1066.48 1017.56C1066.72 1017 1067 1016.29 1067.32 1015.44C1067.63 1014.58 1067.98 1013.62 1068.35 1012.55C1068.72 1011.49 1069.09 1010.41 1069.44 1009.3C1069.82 1008.18 1070.17 1007.1 1070.51 1006.06C1070.84 1005.01 1071.13 1004.07 1071.38 1003.23C1071.64 1002.39 1071.84 1001.73 1071.99 1001.24C1072.16 1000.59 1072.28 1000.07 1072.36 999.7C1072.43 999.308 1072.49 998.925 1072.52 998.552L1075.32 999.112ZM1080.64 1008.49C1081.15 1009.22 1081.69 1010.08 1082.27 1011.07C1082.86 1012.06 1083.45 1013.1 1084.03 1014.2C1084.63 1015.29 1085.17 1016.32 1085.66 1017.31C1086.16 1018.3 1086.56 1019.16 1086.86 1019.89L1084.51 1020.95C1084.23 1020.19 1083.85 1019.29 1083.39 1018.26C1082.92 1017.22 1082.41 1016.15 1081.85 1015.04C1081.31 1013.94 1080.75 1012.9 1080.17 1011.91C1079.59 1010.92 1079.05 1010.1 1078.54 1009.44L1080.64 1008.49ZM1065.38 1016.89C1066.06 1016.85 1066.87 1016.8 1067.82 1016.72C1068.79 1016.63 1069.84 1016.54 1070.96 1016.44C1072.08 1016.33 1073.21 1016.21 1074.37 1016.08C1075.55 1015.95 1076.69 1015.83 1077.79 1015.72C1078.89 1015.59 1079.9 1015.46 1080.81 1015.35C1081.73 1015.22 1082.48 1015.12 1083.08 1015.04L1083.7 1017.2C1083.06 1017.29 1082.26 1017.4 1081.29 1017.51C1080.32 1017.62 1079.26 1017.74 1078.12 1017.87C1077 1017.98 1075.84 1018.11 1074.62 1018.26C1073.43 1018.39 1072.26 1018.53 1071.12 1018.66C1069.98 1018.79 1068.93 1018.9 1067.96 1018.99C1066.99 1019.09 1066.18 1019.16 1065.52 1019.22C1065.17 1019.25 1064.8 1019.3 1064.4 1019.36C1064.01 1019.41 1063.61 1019.47 1063.2 1019.52L1062.78 1016.92C1063.21 1016.94 1063.65 1016.95 1064.1 1016.95C1064.56 1016.93 1064.99 1016.91 1065.38 1016.89ZM1109.9 997.208C1110.15 997.544 1110.41 997.945 1110.69 998.412C1110.97 998.86 1111.24 999.317 1111.5 999.784C1111.78 1000.25 1112 1000.67 1112.17 1001.04L1110.66 1001.72C1110.38 1001.16 1110.02 1000.51 1109.6 999.784C1109.18 999.037 1108.79 998.393 1108.42 997.852L1109.9 997.208ZM1113.07 996.228C1113.33 996.564 1113.6 996.965 1113.88 997.432C1114.18 997.899 1114.47 998.365 1114.75 998.832C1115.03 999.28 1115.25 999.681 1115.42 1000.04L1113.91 1000.71C1113.61 1000.09 1113.24 999.429 1112.82 998.72C1112.4 998.011 1112 997.395 1111.61 996.872L1113.07 996.228ZM1110.55 1001.77C1110.45 1001.88 1110.33 1002.07 1110.18 1002.33C1110.05 1002.57 1109.94 1002.79 1109.85 1002.98C1109.49 1003.89 1109.03 1004.91 1108.45 1006.03C1107.87 1007.15 1107.22 1008.25 1106.52 1009.33C1105.81 1010.41 1105.06 1011.39 1104.28 1012.24C1103.25 1013.4 1102.12 1014.53 1100.89 1015.63C1099.66 1016.73 1098.36 1017.75 1097 1018.68C1095.63 1019.62 1094.21 1020.43 1092.74 1021.12L1090.95 1019.24C1092.46 1018.65 1093.91 1017.91 1095.29 1017.03C1096.69 1016.14 1097.99 1015.17 1099.21 1014.12C1100.44 1013.06 1101.53 1011.99 1102.48 1010.93C1103.12 1010.2 1103.74 1009.38 1104.36 1008.46C1104.99 1007.55 1105.55 1006.63 1106.04 1005.69C1106.54 1004.74 1106.91 1003.88 1107.13 1003.12C1106.98 1003.12 1106.63 1003.12 1106.07 1003.12C1105.51 1003.12 1104.84 1003.12 1104.08 1003.12C1103.31 1003.12 1102.51 1003.12 1101.67 1003.12C1100.83 1003.12 1100.03 1003.12 1099.26 1003.12C1098.5 1003.12 1097.84 1003.12 1097.28 1003.12C1096.73 1003.12 1096.38 1003.12 1096.21 1003.12C1095.89 1003.12 1095.53 1003.13 1095.12 1003.17C1094.73 1003.19 1094.36 1003.21 1094.03 1003.23C1093.71 1003.25 1093.5 1003.26 1093.38 1003.26V1000.74C1093.51 1000.75 1093.75 1000.77 1094.08 1000.79C1094.44 1000.81 1094.81 1000.84 1095.2 1000.88C1095.6 1000.89 1095.93 1000.9 1096.21 1000.9C1096.42 1000.9 1096.79 1000.9 1097.33 1000.9C1097.87 1000.9 1098.52 1000.9 1099.26 1000.9C1100.03 1000.9 1100.82 1000.9 1101.64 1000.9C1102.46 1000.9 1103.25 1000.9 1104 1000.9C1104.76 1000.9 1105.41 1000.9 1105.96 1000.9C1106.5 1000.9 1106.85 1000.9 1107.02 1000.9C1107.49 1000.9 1107.9 1000.89 1108.25 1000.85C1108.62 1000.79 1108.91 1000.74 1109.12 1000.68L1110.55 1001.77ZM1104.64 1010.79C1105.4 1011.42 1106.19 1012.12 1106.99 1012.89C1107.81 1013.65 1108.62 1014.44 1109.4 1015.24C1110.18 1016.04 1110.91 1016.82 1111.58 1017.56C1112.26 1018.31 1112.83 1018.97 1113.32 1019.55L1111.36 1021.26C1110.71 1020.36 1109.92 1019.4 1109.01 1018.38C1108.09 1017.33 1107.12 1016.29 1106.1 1015.24C1105.09 1014.19 1104.07 1013.23 1103.04 1012.36L1104.64 1010.79Z" fill="#F4F1EA"/>
</g>
<defs>
<clipPath id="clip0_0_1">
<rect width="1920" height="1080" fill="white"/>
</clipPath>
</defs>
</svg>
