<?xml version="1.0" encoding="UTF-8" standalone="no"?>
<svg width="1920" height="1080" viewBox="0 0 1920 1080" fill="none" xmlns="http://www.w3.org/2000/svg" xmlns:xlink="http://www.w3.org/1999/xlink">
  <rect width="1920" height="1080" fill="#F4F1EA"/>
  <g clip-path="url(#clip0_0_1)">
    <path d="M1920 0H0V1080H1920V0Z" fill="#F4F1EA"/>
    <path d="M1920 0H0V120H1920V0Z" fill="#2C2C2C"/>
    <text fill="#F4F1EA" xml:space="preserve" style="white-space: pre" font-family="Noto Serif JP" font-size="36" letter-spacing="0em"><tspan x="706.734" y="54.9">Day2: 自己理解とタグラインの確立</tspan></text>
    <text fill="#F4F1EA" xml:space="preserve" style="white-space: pre" font-family="Noto Serif JP" font-size="24" letter-spacing="0em"><tspan x="768" y="100.1">強み・特性の言語化とキーワード化</tspan></text>
    <path d="M520 83C524.418 83 528 79.4183 528 75C528 70.5817 524.418 67 520 67C515.582 67 512 70.5817 512 75C512 79.4183 515.582 83 520 83Z" fill="#B3322B"/>
    <path d="M540 75H740" stroke="#B3322B" stroke-width="3"/>
    <path d="M1380 83C1384.42 83 1388 79.4183 1388 75C1388 70.5817 1384.42 67 1380 67C1375.58 67 1372 70.5817 1372 75C1372 79.4183 1375.58 83 1380 83Z" fill="#B3322B"/>
    <path d="M1160 75H1360" stroke="#B3322B" stroke-width="3"/>
    
    <!-- 左カラム: キーワード抽出 -->
    <path d="M640 160H40V1020H640V160Z" fill="#F4F1EA" stroke="#2C2C2C" stroke-width="2"/>
    <text fill="#2C2C2C" xml:space="preserve" style="white-space: pre" font-family="Noto Serif JP" font-size="28" letter-spacing="0em"><tspan x="204" y="210.2">キーワード抽出</tspan></text>
    <path d="M140 220H540" stroke="#B3322B" stroke-width="3"/>
    <path d="M140 226C143.314 226 146 223.314 146 220C146 216.686 143.314 214 140 214C136.686 214 134 216.686 134 220C134 223.314 136.686 226 140 226Z" fill="#B3322B"/>
    <path d="M540 226C543.314 226 546 223.314 546 220C546 216.686 543.314 214 540 214C536.686 214 534 216.686 534 220C534 223.314 536.686 226 540 226Z" fill="#B3322B"/>
    
    <text fill="#B3322B" xml:space="preserve" style="white-space: pre" font-family="Noto Sans JP" font-size="20" letter-spacing="0em"><tspan x="70" y="270">🔑 スキルを言葉に</tspan></text>
    <text fill="#2C2C2C" xml:space="preserve" style="white-space: pre" font-family="Noto Sans JP" font-size="16" letter-spacing="0em"><tspan x="70" y="309.9">自分の能力や特性を具体的な言葉で</tspan></text>
    <text fill="#2C2C2C" xml:space="preserve" style="white-space: pre" font-family="Noto Sans JP" font-size="16" letter-spacing="0em"><tspan x="70" y="339.9">表現するための手法を学ぶ</tspan></text>
    
    <path d="M610 360H70V560H610V360Z" fill="#F4F1EA" stroke="#B3322B" stroke-width="2"/>
    <text fill="#B3322B" xml:space="preserve" style="white-space: pre" font-family="Noto Sans JP" font-size="18" letter-spacing="0em"><tspan x="260" y="390.2">スキルマッピング</tspan></text>
    
    <!-- スキルマッピング図 -->
    <path d="M340 450C362.091 450 380 432.091 380 410C380 387.909 362.091 370 340 370C317.909 370 300 387.909 300 410C300 432.091 317.909 450 340 450Z" fill="#B3322B" fill-opacity="0.2"/>
    <text fill="#2C2C2C" xml:space="preserve" style="white-space: pre" font-family="Noto Sans JP" font-size="12" font-weight="bold" letter-spacing="0em"><tspan x="320" y="414.8">中核スキル</tspan></text>
    
    <path d="M240 435C255.464 435 268 422.464 268 407C268 391.536 255.464 379 240 379C224.536 379 212 391.536 212 407C212 422.464 224.536 435 240 435Z" fill="#B3322B" fill-opacity="0.1"/>
    <text fill="#2C2C2C" xml:space="preserve" style="white-space: pre" font-family="Noto Sans JP" font-size="11" letter-spacing="0em"><tspan x="220" y="410.7">企画力</tspan></text>
    
    <path d="M180 490C193.807 490 205 478.807 205 465C205 451.193 193.807 440 180 440C166.193 440 155 451.193 155 465C155 478.807 166.193 490 180 490Z" fill="#B3322B" fill-opacity="0.1"/>
    <text fill="#2C2C2C" xml:space="preserve" style="white-space: pre" font-family="Noto Sans JP" font-size="11" letter-spacing="0em"><tspan x="160" y="468.7">分析力</tspan></text>
    
    <path d="M320 535C331.046 535 340 526.046 340 515C340 503.954 331.046 495 320 495C308.954 495 300 503.954 300 515C300 526.046 308.954 535 320 535Z" fill="#B3322B" fill-opacity="0.1"/>
    <text fill="#2C2C2C" xml:space="preserve" style="white-space: pre" font-family="Noto Sans JP" font-size="11" letter-spacing="0em"><tspan x="300" y="518.7">実行力</tspan></text>
    
    <path d="M430 520C441.046 520 450 511.046 450 500C450 488.954 441.046 480 430 480C418.954 480 410 488.954 410 500C410 511.046 418.954 520 430 520Z" fill="#B3322B" fill-opacity="0.1"/>
    <text fill="#2C2C2C" xml:space="preserve" style="white-space: pre" font-family="Noto Sans JP" font-size="11" letter-spacing="0em"><tspan x="417" y="503.7">対人力</tspan></text>
    
    <path d="M510 440C523.807 440 535 428.807 535 415C535 401.193 523.807 390 510 390C496.193 390 485 401.193 485 415C485 428.807 496.193 440 510 440Z" fill="#B3322B" fill-opacity="0.1"/>
    <text fill="#2C2C2C" xml:space="preserve" style="white-space: pre" font-family="Noto Sans JP" font-size="11" letter-spacing="0em"><tspan x="490" y="418.7">表現力</tspan></text>
    
    <text fill="#B3322B" xml:space="preserve" style="white-space: pre" font-family="Noto Sans JP" font-size="20" letter-spacing="0em"><tspan x="70" y="600">🔖 キーワード化のポイント</tspan></text>
    <path d="M610 610H70V750H610V610Z" fill="#F4F1EA" stroke="#B3322B" stroke-dasharray="5 5"/>
    <text fill="#2C2C2C" xml:space="preserve" style="white-space: pre" font-family="Noto Sans JP" font-size="16" letter-spacing="0em"><tspan x="90" y="639.9">① 抽象的な表現を避ける</tspan></text>
    <text fill="#2C2C2C" xml:space="preserve" style="white-space: pre" font-family="Noto Sans JP" font-size="14" letter-spacing="0em"><tspan x="110" y="669.8">「コミュニケーション能力」→「複雑な情報を</tspan></text>
    <text fill="#2C2C2C" xml:space="preserve" style="white-space: pre" font-family="Noto Sans JP" font-size="14" letter-spacing="0em"><tspan x="110" y="694.8">わかりやすく伝える力」</tspan></text>
    <text fill="#2C2C2C" xml:space="preserve" style="white-space: pre" font-family="Noto Sans JP" font-size="16" letter-spacing="0em"><tspan x="90" y="724.9">② 具体的なエピソードと紐づける</tspan></text>
    
    <path d="M610 770H70V1000H610V770Z" fill="#F4F1EA" stroke="#B3322B" stroke-width="2"/>
    <text fill="#B3322B" xml:space="preserve" style="white-space: pre" font-family="Noto Sans JP" font-size="18" letter-spacing="0em"><tspan x="201" y="800.2">強みワードクラウドの例</tspan></text>
    
    <!-- ワードクラウド -->
    <text fill="#B3322B" xml:space="preserve" style="white-space: pre" font-family="Noto Sans JP" font-size="24" font-weight="bold" letter-spacing="0em"><tspan x="250" y="850.1">問題解決力</tspan></text>
    <text fill="#2C2C2C" xml:space="preserve" style="white-space: pre" font-family="Noto Sans JP" font-size="20" letter-spacing="0em"><tspan x="120" y="890.1">分析思考</tspan></text>
    <text fill="#2C2C2C" xml:space="preserve" style="white-space: pre" font-family="Noto Sans JP" font-size="16" letter-spacing="0em"><tspan x="390" y="880.9">粘り強さ</tspan></text>
    <text fill="#2C2C2C" xml:space="preserve" style="white-space: pre" font-family="Noto Sans JP" font-size="18" letter-spacing="0em"><tspan x="200" y="950.2">チーム調整力</tspan></text>
    <text fill="#2C2C2C" xml:space="preserve" style="white-space: pre" font-family="Noto Sans JP" font-size="22" letter-spacing="0em"><tspan x="300" y="910.1">忍耐力</tspan></text>
    <text fill="#2C2C2C" xml:space="preserve" style="white-space: pre" font-family="Noto Sans JP" font-size="14" letter-spacing="0em"><tspan x="450" y="940.8">クリエイティブ思考</tspan></text>
    <text fill="#2C2C2C" xml:space="preserve" style="white-space: pre" font-family="Noto Sans JP" font-size="17" letter-spacing="0em"><tspan x="150" y="930">行動力</tspan></text>
    
    <!-- 中央カラム: 具体的表現への変換 -->
    <path d="M1260 160H660V1020H1260V160Z" fill="#F4F1EA" stroke="#2C2C2C" stroke-width="2"/>
    <text fill="#2C2C2C" xml:space="preserve" style="white-space: pre" font-family="Noto Serif JP" font-size="28" letter-spacing="0em"><tspan x="780" y="210.2">具体的表現への変換</tspan></text>
    <path d="M760 220H1160" stroke="#B3322B" stroke-width="3"/>
    <path d="M760 226C763.314 226 766 223.314 766 220C766 216.686 763.314 214 760 214C756.686 214 754 216.686 754 220C754 223.314 756.686 226 760 226Z" fill="#B3322B"/>
    <path d="M1160 226C1163.31 226 1166 223.314 1166 220C1166 216.686 1163.31 214 1160 214C1156.69 214 1154 216.686 1154 220C1154 223.314 1156.69 226 1160 226Z" fill="#B3322B"/>
    
    <text fill="#B3322B" xml:space="preserve" style="white-space: pre" font-family="Noto Sans JP" font-size="20" letter-spacing="0em"><tspan x="690" y="270">📝 抽象から具体へ</tspan></text>
    <text fill="#2C2C2C" xml:space="preserve" style="white-space: pre" font-family="Noto Sans JP" font-size="16" letter-spacing="0em"><tspan x="690" y="309.9">一般的な表現を具体的で魅力的な</tspan></text>
    <text fill="#2C2C2C" xml:space="preserve" style="white-space: pre" font-family="Noto Sans JP" font-size="16" letter-spacing="0em"><tspan x="690" y="339.9">表現に変換するテクニックを身につける</tspan></text>
    
    <path d="M1230 360H690V680H1230V360Z" fill="#F4F1EA" stroke="#B3322B" stroke-width="2"/>
    <text fill="#B3322B" xml:space="preserve" style="white-space: pre" font-family="Noto Sans JP" font-size="18" letter-spacing="0em"><tspan x="865" y="390.2">ビフォーアフター</tspan></text>
    
    <!-- 表現変換例 -->
    <path d="M1200 420H720V460H1200V420Z" fill="#B3322B" fill-opacity="0.1"/>
    <text fill="#2C2C2C" xml:space="preserve" style="white-space: pre" font-family="Noto Sans JP" font-size="16" font-weight="bold" letter-spacing="0em"><tspan x="845" y="445.9">BEFORE</tspan></text>
    
    <path d="M1200 470H720V510H1200V470Z" fill="#F4F1EA"/>
    <text fill="#2C2C2C" xml:space="preserve" style="white-space: pre" font-family="Noto Sans JP" font-size="15" letter-spacing="0em"><tspan x="730" y="495">「私はリーダーシップがあります」</tspan></text>
    
    <path d="M1200 530H720V570H1200V530Z" fill="#B3322B" fill-opacity="0.1"/>
    <text fill="#2C2C2C" xml:space="preserve" style="white-space: pre" font-family="Noto Sans JP" font-size="16" font-weight="bold" letter-spacing="0em"><tspan x="849" y="555.9">AFTER</tspan></text>
    
    <path d="M1200 580H720V660H1200V580Z" fill="#F4F1EA"/>
    <text fill="#2C2C2C" xml:space="preserve" style="white-space: pre" font-family="Noto Sans JP" font-size="15" letter-spacing="0em"><tspan x="730" y="605">「10人規模のプロジェクトで、メンバーの強みを</tspan></text>
    <text fill="#2C2C2C" xml:space="preserve" style="white-space: pre" font-family="Noto Sans JP" font-size="15" letter-spacing="0em"><tspan x="730" y="630">活かし、個々の意見を尊重しながら目標達成に</tspan></text>
    <text fill="#2C2C2C" xml:space="preserve" style="white-space: pre" font-family="Noto Sans JP" font-size="15" letter-spacing="0em"><tspan x="730" y="655">導くことができます」</tspan></text>
    
    <text fill="#B3322B" xml:space="preserve" style="white-space: pre" font-family="Noto Sans JP" font-size="20" letter-spacing="0em"><tspan x="690" y="720">🧩 具体化の3ステップ</tspan></text>
    <path d="M1230 730H690V880H1230V730Z" fill="#F4F1EA" stroke="#B3322B" stroke-width="1"/>
    
    <text fill="#2C2C2C" xml:space="preserve" style="white-space: pre" font-family="Noto Sans JP" font-size="16" font-weight="bold" letter-spacing="0em"><tspan x="710" y="760.9">1. 数値化する</tspan></text>
    <text fill="#2C2C2C" xml:space="preserve" style="white-space: pre" font-family="Noto Sans JP" font-size="15" letter-spacing="0em"><tspan x="730" y="790">「多くの」→「10件以上の」</tspan></text>
    
    <text fill="#2C2C2C" xml:space="preserve" style="white-space: pre" font-family="Noto Sans JP" font-size="16" font-weight="bold" letter-spacing="0em"><tspan x="710" y="820.9">2. 状況を描写する</tspan></text>
    <text fill="#2C2C2C" xml:space="preserve" style="white-space: pre" font-family="Noto Sans JP" font-size="15" letter-spacing="0em"><tspan x="730" y="850">「問題解決した」→「対立する意見をまとめた」</tspan></text>
    
    <path d="M1230 900H690V1000H1230V900Z" fill="#B3322B" fill-opacity="0.05"/>
    <text fill="#2C2C2C" xml:space="preserve" style="white-space: pre" font-family="Noto Sans JP" font-size="16" font-weight="bold" letter-spacing="0em"><tspan x="710" y="930.9">3. 成果を示す</tspan></text>
    <text fill="#2C2C2C" xml:space="preserve" style="white-space: pre" font-family="Noto Sans JP" font-size="15" letter-spacing="0em"><tspan x="730" y="960">「改善した」→「顧客満足度が15%向上した」</tspan></text>
    
    <!-- 右カラム: ケーススタディ -->
    <path d="M1880 160H1280V1020H1880V160Z" fill="#F4F1EA" stroke="#2C2C2C" stroke-width="2"/>
    <text fill="#2C2C2C" xml:space="preserve" style="white-space: pre" font-family="Noto Serif JP" font-size="28" letter-spacing="0em"><tspan x="1500" y="210.2">ケーススタディ</tspan></text>
    <path d="M1380 220H1780" stroke="#653A5E" stroke-width="3"/>
    <path d="M1380 226C1383.31 226 1386 223.314 1386 220C1386 216.686 1383.31 214 1380 214C1376.69 214 1374 216.686 1374 220C1374 223.314 1376.69 226 1380 226Z" fill="#653A5E"/>
    <path d="M1780 226C1783.31 226 1786 223.314 1786 220C1786 216.686 1783.31 214 1780 214C1776.69 214 1774 216.686 1774 220C1774 223.314 1776.69 226 1780 226Z" fill="#653A5E"/>
    
    <text fill="#653A5E" xml:space="preserve" style="white-space: pre" font-family="Noto Sans JP" font-size="20" letter-spacing="0em"><tspan x="1310" y="270">👥 グループワーク</tspan></text>
    <text fill="#2C2C2C" xml:space="preserve" style="white-space: pre" font-family="Noto Sans JP" font-size="16" letter-spacing="0em"><tspan x="1310" y="309.9">学んだテクニックを実際のケースで</tspan></text>
    <text fill="#2C2C2C" xml:space="preserve" style="white-space: pre" font-family="Noto Sans JP" font-size="16" letter-spacing="0em"><tspan x="1310" y="339.9">実践し、フィードバックを得る</tspan></text>
    
    <path d="M1850 360H1310V530H1850V360Z" fill="#F4F1EA" stroke="#653A5E" stroke-width="2"/>
    <text fill="#653A5E" xml:space="preserve" style="white-space: pre" font-family="Noto Sans JP" font-size="18" letter-spacing="0em"><tspan x="1472.18" y="390.2">ワークの流れ</tspan></text>
    
    <path d="M1350 420C1355.52 420 1360 415.523 1360 410C1360 404.477 1355.52 400 1350 400C1344.48 400 1340 404.477 1340 410C1340 415.523 1344.48 420 1350 420Z" fill="#653A5E"/>
    <text fill="#2C2C2C" xml:space="preserve" style="white-space: pre" font-family="Noto Sans JP" font-size="15" letter-spacing="0em"><tspan x="1370" y="415">自分の強みを3つ書き出す</tspan></text>
    
    <path d="M1350 460C1355.52 460 1360 455.523 1360 450C1360 444.477 1355.52 440 1350 440C1344.48 440 1340 444.477 1340 450C1340 455.523 1344.48 460 1350 460Z" fill="#653A5E"/>
    <text fill="#2C2C2C" xml:space="preserve" style="white-space: pre" font-family="Noto Sans JP" font-size="15" letter-spacing="0em"><tspan x="1370" y="455">学んだ技法で具体的表現に変換</tspan></text>
    
    <path d="M1350 500C1355.52 500 1360 495.523 1360 490C1360 484.477 1355.52 480 1350 480C1344.48 480 1340 484.477 1340 490C1340 495.523 1344.48 500 1350 500Z" fill="#653A5E"/>
    <text fill="#2C2C2C" xml:space="preserve" style="white-space: pre" font-family="Noto Sans JP" font-size="15" letter-spacing="0em"><tspan x="1370" y="495">グループ内で発表しフィードバック</tspan></text>
    
    <path d="M1850 550H1310V800H1850V550Z" fill="#F4F1EA" stroke="#653A5E" stroke-width="2"/>
    <text fill="#653A5E" xml:space="preserve" style="white-space: pre" font-family="Noto Sans JP" font-size="18" letter-spacing="0em"><tspan x="1472.5" y="580.2">変換事例</tspan></text>
    
    <path d="M1830 610H1330V750H1830V610Z" fill="#653A5E" fill-opacity="0.05"/>
    <text fill="#2C2C2C" xml:space="preserve" style="white-space: pre" font-family="Noto Sans JP" font-size="16" font-weight="bold" letter-spacing="0em"><tspan x="1350" y="640.9">「私は臨機応変に対応できます」</tspan></text>
    <text fill="#2C2C2C" xml:space="preserve" style="white-space: pre" font-family="Noto Sans JP" font-size="15" letter-spacing="0em"><tspan x="1380" y="680">↓</tspan></text>
    <text fill="#2C2C2C" xml:space="preserve" style="white-space: pre" font-family="Noto Sans JP" font-size="16" font-weight="bold" letter-spacing="0em"><tspan x="1350" y="720.9">「予期せぬトラブルが発生した際も、3つの代替案を</tspan></text>
    <text fill="#2C2C2C" xml:space="preserve" style="white-space: pre" font-family="Noto Sans JP" font-size="16" font-weight="bold" letter-spacing="0em"><tspan x="1350" y="750.9">迅速に提案し、最適解を見出すことができます」</tspan></text>
    
    <text fill="#653A5E" xml:space="preserve" style="white-space: pre" font-family="Noto Sans JP" font-size="20" letter-spacing="0em"><tspan x="1310" y="830">🎯 最終目標</tspan></text>
    <path d="M1850 840H1310V970H1850V840Z" fill="#653A5E"/>
    <text fill="#F4F1EA" xml:space="preserve" style="white-space: pre" font-family="Noto Sans JP" font-size="18" letter-spacing="0em"><tspan x="1497" y="870.2">成果物</tspan></text>
    <text fill="#F4F1EA" xml:space="preserve" style="white-space: pre" font-family="Noto Sans JP" font-size="16" letter-spacing="0em"><tspan x="1330" y="910.9">• 3つの強みを表現した具体的なステートメント</tspan></text>
    <text fill="#F4F1EA" xml:space="preserve" style="white-space: pre" font-family="Noto Sans JP" font-size="16" letter-spacing="0em"><tspan x="1330" y="950.9">• 各強みを裏付けるエピソード</tspan></text>
    
    <path d="M1850 980H1310V1000H1850V980Z" fill="#653A5E" fill-opacity="0.05"/>
    
    <!-- フッター -->
    <path d="M1920 1040H0V1080H1920V1040Z" fill="#2C2C2C"/>
    <text fill="#F4F1EA" xml:space="preserve" style="white-space: pre" font-family="Noto Sans JP" font-size="16" letter-spacing="0em"><tspan x="694.32" y="1064.9">TANREN株式会社 / 株式会社MVP | AI人材育成プログラム | 2025年春季講座</tspan></text>
  </g>
  <defs>
    <clipPath id="clip0_0_1">
      <rect width="1920" height="1080" fill="white"/>
    </clipPath>
  </defs>
</svg> 