<?xml version="1.0" encoding="UTF-8" standalone="no"?>
<svg width="1920" height="1080" viewBox="0 0 1920 1080" fill="none" xmlns="http://www.w3.org/2000/svg" xmlns:xlink="http://www.w3.org/1999/xlink">
  <rect width="1920" height="1080" fill="#F4F1EA"/>
  <g clip-path="url(#clip0_0_1)">
    <path d="M1920 0H0V1080H1920V0Z" fill="#F4F1EA"/>
    <path d="M1920 0H0V120H1920V0Z" fill="#2C2C2C"/>
    <text fill="#F4F1EA" xml:space="preserve" style="white-space: pre" font-family="Noto Serif JP" font-size="36" letter-spacing="0em"><tspan x="759.137" y="54.9">Day2: 自己理解</tspan></text>
    <text fill="#F4F1EA" xml:space="preserve" style="white-space: pre" font-family="Noto Serif JP" font-size="24" letter-spacing="0em"><tspan x="864.363" y="100.1">タグラインの確立</tspan></text>
    <path d="M520 83C524.418 83 528 79.4183 528 75C528 70.5817 524.418 67 520 67C515.582 67 512 70.5817 512 75C512 79.4183 515.582 83 520 83Z" fill="#B3322B"/>
    <path d="M540 75H740" stroke="#B3322B" stroke-width="3"/>
    <path d="M1380 83C1384.42 83 1388 79.4183 1388 75C1388 70.5817 1384.42 67 1380 67C1375.58 67 1372 70.5817 1372 75C1372 79.4183 1375.58 83 1380 83Z" fill="#B3322B"/>
    <path d="M1160 75H1360" stroke="#B3322B" stroke-width="3"/>
    
    <!-- 左カラム: 本日の戦略的洞察 -->
    <path d="M640 160H40V1020H640V160Z" fill="#F4F1EA" stroke="#2C2C2C" stroke-width="2"/>
    <text fill="#2C2C2C" xml:space="preserve" style="white-space: pre" font-family="Noto Serif JP" font-size="28" letter-spacing="0em"><tspan x="180" y="210.2">本日の戦略的洞察</tspan></text>
    <path d="M140 220H540" stroke="#B3322B" stroke-width="3"/>
    <path d="M140 226C143.314 226 146 223.314 146 220C146 216.686 143.314 214 140 214C136.686 214 134 216.686 134 220C134 223.314 136.686 226 140 226Z" fill="#B3322B"/>
    <path d="M540 226C543.314 226 546 223.314 546 220C546 216.686 543.314 214 540 214C536.686 214 534 216.686 534 220C534 223.314 536.686 226 540 226Z" fill="#B3322B"/>
    
    <text fill="#B3322B" xml:space="preserve" style="white-space: pre" font-family="Noto Sans JP" font-size="20" letter-spacing="0em"><tspan x="70" y="270">🔍 自分を知る</tspan></text>
    <path d="M610 290H70V450H610V290Z" fill="#F4F1EA" stroke="#B3322B" stroke-width="1"/>
    <text fill="#2C2C2C" xml:space="preserve" style="white-space: pre" font-family="Noto Sans JP" font-size="16" font-weight="bold" letter-spacing="0em"><tspan x="90" y="330.9">1. ライフラインチャートによる自己分析</tspan></text>
    <text fill="#2C2C2C" xml:space="preserve" style="white-space: pre" font-family="Noto Sans JP" font-size="16" letter-spacing="0em"><tspan x="110" y="365.9">• 過去の経験から見えてくる本質的な特性</tspan></text>
    <text fill="#2C2C2C" xml:space="preserve" style="white-space: pre" font-family="Noto Sans JP" font-size="16" letter-spacing="0em"><tspan x="110" y="400.9">• 転機となった出来事と成功体験の分析</tspan></text>
    
    <text fill="#B3322B" xml:space="preserve" style="white-space: pre" font-family="Noto Sans JP" font-size="20" letter-spacing="0em"><tspan x="70" y="500">🔤 特性のキーワード化</tspan></text>
    <path d="M610 520H70V670H610V520Z" fill="#F4F1EA" stroke="#B3322B" stroke-width="1"/>
    <text fill="#2C2C2C" xml:space="preserve" style="white-space: pre" font-family="Noto Sans JP" font-size="16" font-weight="bold" letter-spacing="0em"><tspan x="90" y="560.9">2. 抽象表現から具体的表現への変換</tspan></text>
    <text fill="#2C2C2C" xml:space="preserve" style="white-space: pre" font-family="Noto Sans JP" font-size="16" letter-spacing="0em"><tspan x="110" y="595.9">• 能力・スキルの具体的キーワード化</tspan></text>
    <text fill="#2C2C2C" xml:space="preserve" style="white-space: pre" font-family="Noto Sans JP" font-size="16" letter-spacing="0em"><tspan x="110" y="630.9">• AIが理解しやすい定量的な実績表現</tspan></text>
    
    <path d="M610 700H70V950H610V700Z" fill="#F4F1EA" stroke="#B3322B" stroke-width="1"/>
    <text fill="#B3322B" xml:space="preserve" style="white-space: pre" font-family="Noto Sans JP" font-size="20" letter-spacing="0em"><tspan x="90" y="740">【獲得した3つの譲れない価値】</tspan></text>
    
    <path d="M90 775C92.2091 775 94 773.209 94 771C94 768.791 92.2091 767 90 767C87.7909 767 86 768.791 86 771C86 773.209 87.7909 775 90 775Z" fill="#2C2C2C"/>
    <text fill="#2C2C2C" xml:space="preserve" style="white-space: pre" font-family="Noto Sans JP" font-size="16" letter-spacing="0em"><tspan x="110" y="775.9">自己分析と客観視による自己理解</tspan></text>
    
    <path d="M90 810C92.2091 810 94 808.209 94 806C94 803.791 92.2091 802 90 802C87.7909 802 86 803.791 86 806C86 808.209 87.7909 810 90 810Z" fill="#2C2C2C"/>
    <text fill="#2C2C2C" xml:space="preserve" style="white-space: pre" font-family="Noto Sans JP" font-size="16" letter-spacing="0em"><tspan x="110" y="810.9">特性の言語化と具体的表現力</tspan></text>
    
    <path d="M90 845C92.2091 845 94 843.209 94 841C94 838.791 92.2091 837 90 837C87.7909 837 86 838.791 86 841C86 843.209 87.7909 845 90 845Z" fill="#2C2C2C"/>
    <text fill="#2C2C2C" xml:space="preserve" style="white-space: pre" font-family="Noto Sans JP" font-size="16" letter-spacing="0em"><tspan x="110" y="845.9">他者視点を取り入れた自己検証能力</tspan></text>
    
    <path d="M610 970H70V1000H610V970Z" fill="#B3322B" fill-opacity="0.1"/>
    <text fill="#2C2C2C" xml:space="preserve" style="white-space: pre" font-family="Noto Sans JP" font-size="16" font-weight="bold" letter-spacing="0em"><tspan x="190" y="990.9">Day2：自己理解と言語化フェーズ</tspan></text>
    
    <!-- 中央カラム: 次回予告 -->
    <path d="M1260 160H660V1020H1260V160Z" fill="#F4F1EA" stroke="#2C2C2C" stroke-width="2"/>
    <text fill="#2C2C2C" xml:space="preserve" style="white-space: pre" font-family="Noto Serif JP" font-size="28" letter-spacing="0em"><tspan x="800" y="210.2">次回予告：Day3</tspan></text>
    <path d="M760 220H1160" stroke="#1A5B66" stroke-width="3"/>
    <path d="M760 226C763.314 226 766 223.314 766 220C766 216.686 763.314 214 760 214C756.686 214 754 216.686 754 220C754 223.314 756.686 226 760 226Z" fill="#1A5B66"/>
    <path d="M1160 226C1163.31 226 1166 223.314 1166 220C1166 216.686 1163.31 214 1160 214C1156.69 214 1154 216.686 1154 220C1154 223.314 1156.69 226 1160 226Z" fill="#1A5B66"/>
    
    <text fill="#1A5B66" xml:space="preserve" style="white-space: pre" font-family="Noto Sans JP" font-size="20" letter-spacing="0em"><tspan x="690" y="270">🗓 2025年5月1日 19:30-21:30</tspan></text>
    
    <path d="M1230 290H690V370H1230V290Z" fill="#1A5B66" fill-opacity="0.1"/>
    <text fill="#2C2C2C" xml:space="preserve" style="white-space: pre" font-family="Noto Sans JP" font-size="24" font-weight="bold" letter-spacing="0em"><tspan x="730" y="340.1">AIエージェント設計</tspan></text>
    
    <path d="M1230 390H690V650H1230V390Z" fill="#F4F1EA" stroke="#1A5B66" stroke-width="1"/>
    <text fill="#2C2C2C" xml:space="preserve" style="white-space: pre" font-family="Noto Sans JP" font-size="18" font-weight="bold" letter-spacing="0em"><tspan x="710" y="430.2">第1セッション：タグライン分解</tspan></text>
    <text fill="#1A5B66" xml:space="preserve" style="white-space: pre" font-family="Noto Sans JP" font-size="16" letter-spacing="0em"><tspan x="1030" y="430.9">30分</tspan></text>
    <text fill="#2C2C2C" xml:space="preserve" style="white-space: pre" font-family="Noto Sans JP" font-size="16" letter-spacing="0em"><tspan x="730" y="460.9">• 目的の明確化と対象者の特定</tspan></text>
    <text fill="#2C2C2C" xml:space="preserve" style="white-space: pre" font-family="Noto Sans JP" font-size="16" letter-spacing="0em"><tspan x="730" y="490.9">• テーマのサブカテゴリへの分類</tspan></text>
    
    <text fill="#2C2C2C" xml:space="preserve" style="white-space: pre" font-family="Noto Sans JP" font-size="18" font-weight="bold" letter-spacing="0em"><tspan x="710" y="530.2">第2セッション：ディープリサーチ</tspan></text>
    <text fill="#1A5B66" xml:space="preserve" style="white-space: pre" font-family="Noto Sans JP" font-size="16" letter-spacing="0em"><tspan x="1030" y="530.9">30分</tspan></text>
    <text fill="#2C2C2C" xml:space="preserve" style="white-space: pre" font-family="Noto Sans JP" font-size="16" letter-spacing="0em"><tspan x="730" y="560.9">• AIツールを活用した体系的知識構築</tspan></text>
    <text fill="#2C2C2C" xml:space="preserve" style="white-space: pre" font-family="Noto Sans JP" font-size="16" letter-spacing="0em"><tspan x="730" y="590.9">• 専門分野の最新情報の収集</tspan></text>
    
    <text fill="#2C2C2C" xml:space="preserve" style="white-space: pre" font-family="Noto Sans JP" font-size="18" font-weight="bold" letter-spacing="0em"><tspan x="710" y="630.2">第3セッション：視点の融合</tspan></text>
    <text fill="#1A5B66" xml:space="preserve" style="white-space: pre" font-family="Noto Sans JP" font-size="16" letter-spacing="0em"><tspan x="1030" y="630.9">30分</tspan></text>
    
    <path d="M1230 670H690V810H1230V670Z" fill="#F4F1EA" stroke="#1A5B66" stroke-width="1"/>
    <text fill="#2C2C2C" xml:space="preserve" style="white-space: pre" font-family="Noto Sans JP" font-size="18" font-weight="bold" letter-spacing="0em"><tspan x="710" y="710.2">獲得する実践スキル</tspan></text>
    <text fill="#2C2C2C" xml:space="preserve" style="white-space: pre" font-family="Noto Sans JP" font-size="16" letter-spacing="0em"><tspan x="730" y="740.9">• タグラインの体系的な知識構造化</tspan></text>
    <text fill="#2C2C2C" xml:space="preserve" style="white-space: pre" font-family="Noto Sans JP" font-size="16" letter-spacing="0em"><tspan x="730" y="770.9">• 効果的なプロンプト設計と情報収集</tspan></text>
    
    <path d="M1230 830H690V950H1230V830Z" fill="#1A5B66" fill-opacity="0.1"/>
    <text fill="#1A5B66" xml:space="preserve" style="white-space: pre" font-family="Noto Sans JP" font-size="20" letter-spacing="0em"><tspan x="710" y="870">成果物：RAG文章生成</tspan></text>
    <text fill="#2C2C2C" xml:space="preserve" style="white-space: pre" font-family="Noto Sans JP" font-size="16" letter-spacing="0em"><tspan x="730" y="910.9">• タグライン別の10万字知識データベース</tspan></text>
    
    <path d="M1230 970H690V1000H1230V970Z" fill="#1A5B66" fill-opacity="0.1"/>
    <text fill="#2C2C2C" xml:space="preserve" style="white-space: pre" font-family="Noto Sans JP" font-size="16" font-weight="bold" letter-spacing="0em"><tspan x="790" y="990.9">Day3：知識体系構築フェーズ</tspan></text>
    
    <!-- 右カラム: 全5回の講座ロードマップ -->
    <path d="M1880 160H1280V1020H1880V160Z" fill="#F4F1EA" stroke="#2C2C2C" stroke-width="2"/>
    <text fill="#2C2C2C" xml:space="preserve" style="white-space: pre" font-family="Noto Serif JP" font-size="28" letter-spacing="0em"><tspan x="1420" y="210.2">AIアカデミア全体像</tspan></text>
    <path d="M1380 220H1780" stroke="#653A5E" stroke-width="3"/>
    <path d="M1380 226C1383.31 226 1386 223.314 1386 220C1386 216.686 1383.31 214 1380 214C1376.69 214 1374 216.686 1374 220C1374 223.314 1376.69 226 1380 226Z" fill="#653A5E"/>
    <path d="M1780 226C1783.31 226 1786 223.314 1786 220C1786 216.686 1783.31 214 1780 214C1776.69 214 1774 216.686 1774 220C1774 223.314 1776.69 226 1780 226Z" fill="#653A5E"/>
    
    <text fill="#653A5E" xml:space="preserve" style="white-space: pre" font-family="Noto Sans JP" font-size="20" letter-spacing="0em"><tspan x="1310" y="270">🗺 変革推進ロードマップ</tspan></text>
    
    <path d="M1850 290H1310V800H1850V290Z" fill="#F4F1EA" stroke="#653A5E" stroke-width="1"/>
    
    <path d="M1310 330H1850" stroke="#2C2C2C" stroke-width="1" stroke-dasharray="2 2"/>
    <text fill="#653A5E" xml:space="preserve" style="white-space: pre" font-family="Noto Sans JP" font-size="18" font-weight="bold" letter-spacing="0em"><tspan x="1330" y="320.2">Day 1: AIエージェント基盤の習得</tspan></text>
    <text fill="#2C2C2C" xml:space="preserve" style="white-space: pre" font-family="Noto Sans JP" font-size="16" letter-spacing="0em"><tspan x="1350" y="350.9">• 戦略的導入のための知識体系の構築</tspan></text>
    <path d="M1830 330C1833.31 330 1836 327.314 1836 324C1836 320.686 1833.31 318 1830 318C1826.69 318 1824 320.686 1824 324C1824 327.314 1826.69 330 1830 330Z" fill="#B3322B"/>
    
    <path d="M1310 410H1850" stroke="#2C2C2C" stroke-width="1" stroke-dasharray="2 2"/>
    <text fill="#653A5E" xml:space="preserve" style="white-space: pre" font-family="Noto Sans JP" font-size="18" font-weight="bold" letter-spacing="0em"><tspan x="1330" y="400.2">Day 2: 自己理解とタグラインの確立</tspan></text>
    <text fill="#2C2C2C" xml:space="preserve" style="white-space: pre" font-family="Noto Sans JP" font-size="16" letter-spacing="0em"><tspan x="1350" y="430.9">• 個人特性の言語化と強みの発見</tspan></text>
    <path d="M1830 410C1833.31 410 1836 407.314 1836 404C1836 400.686 1833.31 398 1830 398C1826.69 398 1824 400.686 1824 404C1824 407.314 1826.69 410 1830 410Z" fill="#1A5B66"/>
    
    <path d="M1310 490H1850" stroke="#2C2C2C" stroke-width="1" stroke-dasharray="2 2"/>
    <text fill="#653A5E" xml:space="preserve" style="white-space: pre" font-family="Noto Sans JP" font-size="18" font-weight="bold" letter-spacing="0em"><tspan x="1330" y="480.2">Day 3: エージェント実装演習</tspan></text>
    <text fill="#2C2C2C" xml:space="preserve" style="white-space: pre" font-family="Noto Sans JP" font-size="16" letter-spacing="0em"><tspan x="1350" y="510.9">• RAG知識ベースの構築と活用</tspan></text>
    <path d="M1830 490C1833.31 490 1836 487.314 1836 484C1836 480.686 1833.31 478 1830 478C1826.69 478 1824 480.686 1824 484C1824 487.314 1826.69 490 1830 490Z" fill="#653A5E"/>
    
    <path d="M1310 570H1850" stroke="#2C2C2C" stroke-width="1" stroke-dasharray="2 2"/>
    <text fill="#653A5E" xml:space="preserve" style="white-space: pre" font-family="Noto Sans JP" font-size="18" font-weight="bold" letter-spacing="0em"><tspan x="1330" y="560.2">Day 4: GPTsによる実装</tspan></text>
    <text fill="#2C2C2C" xml:space="preserve" style="white-space: pre" font-family="Noto Sans JP" font-size="16" letter-spacing="0em"><tspan x="1350" y="590.9">• システムプロンプトと知識ベースの融合</tspan></text>
    <path d="M1830 570C1833.31 570 1836 567.314 1836 564C1836 560.686 1833.31 558 1830 558C1826.69 558 1824 560.686 1824 564C1824 567.314 1826.69 570 1830 570Z" fill="#B3322B"/>
    
    <path d="M1310 650H1850" stroke="#2C2C2C" stroke-width="1" stroke-dasharray="2 2"/>
    <text fill="#653A5E" xml:space="preserve" style="white-space: pre" font-family="Noto Sans JP" font-size="18" font-weight="bold" letter-spacing="0em"><tspan x="1330" y="640.2">Day 5: パーソナリティ設計</tspan></text>
    <text fill="#2C2C2C" xml:space="preserve" style="white-space: pre" font-family="Noto Sans JP" font-size="16" letter-spacing="0em"><tspan x="1350" y="670.9">• 個性と特性のパラメーター設定</tspan></text>
    <path d="M1830 650C1833.31 650 1836 647.314 1836 644C1836 640.686 1833.31 638 1830 638C1826.69 638 1824 640.686 1824 644C1824 647.314 1826.69 650 1830 650Z" fill="#1A5B66"/>
    
    <path d="M1310 730H1850" stroke="#2C2C2C" stroke-width="1" stroke-dasharray="2 2"/>
    <text fill="#653A5E" xml:space="preserve" style="white-space: pre" font-family="Noto Sans JP" font-size="18" font-weight="bold" letter-spacing="0em"><tspan x="1330" y="720.2">Day 6: 実用化と展開</tspan></text>
    <text fill="#2C2C2C" xml:space="preserve" style="white-space: pre" font-family="Noto Sans JP" font-size="16" letter-spacing="0em"><tspan x="1350" y="749.9">• 最終プレゼンテーションと評価</tspan></text>
    <path d="M1830 730C1833.31 730 1836 727.314 1836 724C1836 720.686 1833.31 718 1830 718C1826.69 718 1824 720.686 1824 724C1824 727.314 1826.69 730 1830 730Z" fill="#653A5E"/>
    
    <path d="M1830 330L1830 730" stroke="#2C2C2C" stroke-width="2"/>
    
    <path d="M1850 830H1310V950H1850V830Z" fill="#653A5E" fill-opacity="0.1"/>
    <text fill="#653A5E" xml:space="preserve" style="white-space: pre" font-family="Noto Sans JP" font-size="20" letter-spacing="0em"><tspan x="1330" y="870">特典資料</tspan></text>
    <text fill="#2C2C2C" xml:space="preserve" style="white-space: pre" font-family="Noto Sans JP" font-size="16" letter-spacing="0em"><tspan x="1350" y="910.9">• タグライン別・実践的AI活用レシピ集</tspan></text>
    
    <path d="M1850 970H1310V1000H1850V970Z" fill="#653A5E" fill-opacity="0.1"/>
    <text fill="#2C2C2C" xml:space="preserve" style="white-space: pre" font-family="Noto Sans JP" font-size="16" font-weight="bold" letter-spacing="0em"><tspan x="1415" y="990.9">Day1-6：総合変革フレームワーク</tspan></text>
    
    <!-- フッター -->
    <path d="M1920 1040H0V1080H1920V1040Z" fill="#2C2C2C"/>
    <text fill="#F4F1EA" xml:space="preserve" style="white-space: pre" font-family="Noto Sans JP" font-size="16" letter-spacing="0em"><tspan x="694.32" y="1064.9">TANREN株式会社 / 株式会社MVP | AI人材育成プログラム | 2025年春季講座</tspan></text>
  </g>
  <defs>
    <clipPath id="clip0_0_1">
      <rect width="1920" height="1080" fill="white"/>
    </clipPath>
  </defs>
</svg> 