<?xml version="1.0" encoding="UTF-8" standalone="no"?>
<svg width="1920" height="1080" viewBox="0 0 1920 1080" fill="none" xmlns="http://www.w3.org/2000/svg" xmlns:xlink="http://www.w3.org/1999/xlink">
  <rect width="1920" height="1080" fill="#F4F1EA"/>
  <g clip-path="url(#clip0_0_1)">
    <path d="M1920 0H0V1080H1920V0Z" fill="#F4F1EA"/>
    <path d="M1920 0H0V120H1920V0Z" fill="#2C2C2C"/>
    <text fill="#F4F1EA" xml:space="preserve" style="white-space: pre" font-family="Noto Serif JP" font-size="36" letter-spacing="0em"><tspan x="706.734" y="54.9">Day2: 自己理解とタグラインの確立</tspan></text>
    <text fill="#F4F1EA" xml:space="preserve" style="white-space: pre" font-family="Noto Serif JP" font-size="24" letter-spacing="0em"><tspan x="768" y="100.1">他者視点と検証プロセス</tspan></text>
    <path d="M520 83C524.418 83 528 79.4183 528 75C528 70.5817 524.418 67 520 67C515.582 67 512 70.5817 512 75C512 79.4183 515.582 83 520 83Z" fill="#653A5E"/>
    <path d="M540 75H740" stroke="#653A5E" stroke-width="3"/>
    <path d="M1380 83C1384.42 83 1388 79.4183 1388 75C1388 70.5817 1384.42 67 1380 67C1375.58 67 1372 70.5817 1372 75C1372 79.4183 1375.58 83 1380 83Z" fill="#653A5E"/>
    <path d="M1160 75H1360" stroke="#653A5E" stroke-width="3"/>
    
    <!-- 左カラム: フィードバックの力 -->
    <path d="M640 160H40V1020H640V160Z" fill="#F4F1EA" stroke="#2C2C2C" stroke-width="2"/>
    <text fill="#2C2C2C" xml:space="preserve" style="white-space: pre" font-family="Noto Serif JP" font-size="28" letter-spacing="0em"><tspan x="184" y="210.2">フィードバックの力</tspan></text>
    <path d="M140 220H540" stroke="#653A5E" stroke-width="3"/>
    <path d="M140 226C143.314 226 146 223.314 146 220C146 216.686 143.314 214 140 214C136.686 214 134 216.686 134 220C134 223.314 136.686 226 140 226Z" fill="#653A5E"/>
    <path d="M540 226C543.314 226 546 223.314 546 220C546 216.686 543.314 214 540 214C536.686 214 534 216.686 534 220C534 223.314 536.686 226 540 226Z" fill="#653A5E"/>
    
    <text fill="#653A5E" xml:space="preserve" style="white-space: pre" font-family="Noto Sans JP" font-size="20" letter-spacing="0em"><tspan x="70" y="270">👥 他者の目を通して</tspan></text>
    <text fill="#2C2C2C" xml:space="preserve" style="white-space: pre" font-family="Noto Sans JP" font-size="16" letter-spacing="0em"><tspan x="70" y="309.9">自分では気づかない特性や強みを</tspan></text>
    <text fill="#2C2C2C" xml:space="preserve" style="white-space: pre" font-family="Noto Sans JP" font-size="16" letter-spacing="0em"><tspan x="70" y="339.9">他者の視点から発見する</tspan></text>
    
    <path d="M610 360H70V630H610V360Z" fill="#F4F1EA" stroke="#653A5E" stroke-width="2"/>
    <text fill="#653A5E" xml:space="preserve" style="white-space: pre" font-family="Noto Sans JP" font-size="18" letter-spacing="0em"><tspan x="269" y="390.2">ジョハリの窓</tspan></text>
    
    <!-- ジョハリの窓図 -->
    <path d="M330 452H70V630H330V452Z" fill="#653A5E" fill-opacity="0.1"/>
    <path d="M610 452H350V630H610V452Z" fill="#653A5E" fill-opacity="0.05"/>
    <path d="M330 412H70V442H330V412Z" fill="#653A5E" fill-opacity="0.2"/>
    <path d="M610 412H350V442H610V412Z" fill="#653A5E" fill-opacity="0.2"/>
    <text fill="#2C2C2C" xml:space="preserve" style="white-space: pre" font-family="Noto Sans JP" font-size="14" font-weight="bold" letter-spacing="0em"><tspan x="111" y="431.8">自分が知っている</tspan></text>
    <text fill="#2C2C2C" xml:space="preserve" style="white-space: pre" font-family="Noto Sans JP" font-size="14" font-weight="bold" letter-spacing="0em"><tspan x="391" y="431.8">自分が知らない</tspan></text>
    
    <text fill="#2C2C2C" xml:space="preserve" style="white-space: pre" font-family="Noto Sans JP" font-size="14" font-weight="bold" letter-spacing="0em" transform="rotate(90 50 500)"><tspan x="50" y="500">他者が知っている</tspan></text>
    <text fill="#2C2C2C" xml:space="preserve" style="white-space: pre" font-family="Noto Sans JP" font-size="14" font-weight="bold" letter-spacing="0em" transform="rotate(90 50 600)"><tspan x="50" y="600">他者が知らない</tspan></text>
    
    <text fill="#2C2C2C" xml:space="preserve" style="white-space: pre" font-family="Noto Sans JP" font-size="18" letter-spacing="0em"><tspan x="145" y="500.2">開放の窓</tspan></text>
    <text fill="#2C2C2C" xml:space="preserve" style="white-space: pre" font-family="Noto Sans JP" font-size="18" letter-spacing="0em"><tspan x="425" y="500.2">盲点の窓</tspan></text>
    <text fill="#2C2C2C" xml:space="preserve" style="white-space: pre" font-family="Noto Sans JP" font-size="18" letter-spacing="0em"><tspan x="145" y="580.2">秘密の窓</tspan></text>
    <text fill="#2C2C2C" xml:space="preserve" style="white-space: pre" font-family="Noto Sans JP" font-size="18" letter-spacing="0em"><tspan x="425" y="580.2">未知の窓</tspan></text>
    
    <text fill="#653A5E" xml:space="preserve" style="white-space: pre" font-family="Noto Sans JP" font-size="20" letter-spacing="0em"><tspan x="70" y="670">🔍 なぜ他者視点が重要か</tspan></text>
    <path d="M610 680H70V800H610V680Z" fill="#F4F1EA" stroke="#653A5E" stroke-dasharray="5 5"/>
    <text fill="#2C2C2C" xml:space="preserve" style="white-space: pre" font-family="Noto Sans JP" font-size="16" letter-spacing="0em"><tspan x="90" y="709.9">① 自己認識の盲点を発見できる</tspan></text>
    <text fill="#2C2C2C" xml:space="preserve" style="white-space: pre" font-family="Noto Sans JP" font-size="16" letter-spacing="0em"><tspan x="90" y="739.9">② 客観的な強みの確認ができる</tspan></text>
    <text fill="#2C2C2C" xml:space="preserve" style="white-space: pre" font-family="Noto Sans JP" font-size="16" letter-spacing="0em"><tspan x="90" y="769.9">③ 自己認識と他者認識のギャップを埋める</tspan></text>
    
    <path d="M610 820H70V1000H610V820Z" fill="#F4F1EA" stroke="#653A5E" stroke-width="2"/>
    <text fill="#653A5E" xml:space="preserve" style="white-space: pre" font-family="Noto Sans JP" font-size="18" letter-spacing="0em"><tspan x="168" y="850.2">効果的なフィードバックのコツ</tspan></text>
    <text fill="#2C2C2C" xml:space="preserve" style="white-space: pre" font-family="Noto Sans JP" font-size="16" letter-spacing="0em"><tspan x="90" y="890.9">• 具体的なエピソードを伝える</tspan></text>
    <text fill="#2C2C2C" xml:space="preserve" style="white-space: pre" font-family="Noto Sans JP" font-size="16" letter-spacing="0em"><tspan x="90" y="920.9">• 主観と客観を区別する</tspan></text>
    <text fill="#2C2C2C" xml:space="preserve" style="white-space: pre" font-family="Noto Sans JP" font-size="16" letter-spacing="0em"><tspan x="90" y="950.9">• 肯定的な側面に焦点を当てる</tspan></text>
    <text fill="#2C2C2C" xml:space="preserve" style="white-space: pre" font-family="Noto Sans JP" font-size="16" letter-spacing="0em"><tspan x="90" y="980.9">• 批判ではなく観察を伝える</tspan></text>
    
    <!-- 中央カラム: 相互フィードバック -->
    <path d="M1260 160H660V1020H1260V160Z" fill="#F4F1EA" stroke="#2C2C2C" stroke-width="2"/>
    <text fill="#2C2C2C" xml:space="preserve" style="white-space: pre" font-family="Noto Serif JP" font-size="28" letter-spacing="0em"><tspan x="810" y="210.2">相互フィードバック</tspan></text>
    <path d="M760 220H1160" stroke="#653A5E" stroke-width="3"/>
    <path d="M760 226C763.314 226 766 223.314 766 220C766 216.686 763.314 214 760 214C756.686 214 754 216.686 754 220C754 223.314 756.686 226 760 226Z" fill="#653A5E"/>
    <path d="M1160 226C1163.31 226 1166 223.314 1166 220C1166 216.686 1163.31 214 1160 214C1156.69 214 1154 216.686 1154 220C1154 223.314 1156.69 226 1160 226Z" fill="#653A5E"/>
    
    <text fill="#653A5E" xml:space="preserve" style="white-space: pre" font-family="Noto Sans JP" font-size="20" letter-spacing="0em"><tspan x="690" y="270">💬 グループ対話ワーク</tspan></text>
    <text fill="#2C2C2C" xml:space="preserve" style="white-space: pre" font-family="Noto Sans JP" font-size="16" letter-spacing="0em"><tspan x="690" y="309.9">少人数グループで相互フィードバックを</tspan></text>
    <text fill="#2C2C2C" xml:space="preserve" style="white-space: pre" font-family="Noto Sans JP" font-size="16" letter-spacing="0em"><tspan x="690" y="339.9">行い、気づきを深める</tspan></text>
    
    <path d="M1230 360H690V600H1230V360Z" fill="#F4F1EA" stroke="#653A5E" stroke-width="2"/>
    <text fill="#653A5E" xml:space="preserve" style="white-space: pre" font-family="Noto Sans JP" font-size="18" letter-spacing="0em"><tspan x="887" y="390.2">ワークの流れ</tspan></text>
    
    <path d="M750 430C755.523 430 760 425.523 760 420C760 414.477 755.523 410 750 410C744.477 410 740 414.477 740 420C740 425.523 744.477 430 750 430Z" fill="#653A5E"/>
    <text fill="#2C2C2C" xml:space="preserve" style="white-space: pre" font-family="Noto Sans JP" font-size="15" letter-spacing="0em"><tspan x="770" y="425">3～4人のグループを作る（5分）</tspan></text>
    
    <path d="M750 470C755.523 470 760 465.523 760 460C760 454.477 755.523 450 750 450C744.477 450 740 454.477 740 460C740 465.523 744.477 470 750 470Z" fill="#653A5E"/>
    <text fill="#2C2C2C" xml:space="preserve" style="white-space: pre" font-family="Noto Sans JP" font-size="15" letter-spacing="0em"><tspan x="770" y="465">一人ずつ自己分析結果を共有（各3分）</tspan></text>
    
    <path d="M750 510C755.523 510 760 505.523 760 500C760 494.477 755.523 490 750 490C744.477 490 740 494.477 740 500C740 505.523 744.477 510 750 510Z" fill="#653A5E"/>
    <text fill="#2C2C2C" xml:space="preserve" style="white-space: pre" font-family="Noto Sans JP" font-size="15" letter-spacing="0em"><tspan x="770" y="505">グループからのフィードバック（各3分）</tspan></text>
    
    <path d="M750 550C755.523 550 760 545.523 760 540C760 534.477 755.523 530 750 530C744.477 530 740 534.477 740 540C740 545.523 744.477 550 750 550Z" fill="#653A5E"/>
    <text fill="#2C2C2C" xml:space="preserve" style="white-space: pre" font-family="Noto Sans JP" font-size="15" letter-spacing="0em"><tspan x="770" y="545">気づきをメモし、質問に回答する（各1分）</tspan></text>
    
    <path d="M750 590C755.523 590 760 585.523 760 580C760 574.477 755.523 570 750 570C744.477 570 740 574.477 740 580C740 585.523 744.477 590 750 590Z" fill="#653A5E"/>
    <text fill="#2C2C2C" xml:space="preserve" style="white-space: pre" font-family="Noto Sans JP" font-size="15" letter-spacing="0em"><tspan x="770" y="585">全体で得られた気づきを共有（15分）</tspan></text>
    
    <text fill="#653A5E" xml:space="preserve" style="white-space: pre" font-family="Noto Sans JP" font-size="20" letter-spacing="0em"><tspan x="690" y="640">📋 フィードバックシート</tspan></text>
    <path d="M1230 650H690V890H1230V650Z" fill="#F4F1EA" stroke="#653A5E" stroke-width="1"/>
    
    <path d="M1210 680H710V720H1210V680Z" fill="#653A5E" fill-opacity="0.1"/>
    <text fill="#2C2C2C" xml:space="preserve" style="white-space: pre" font-family="Noto Sans JP" font-size="16" font-weight="bold" letter-spacing="0em"><tspan x="710" y="705.9">私が見た【氏名】さんの強み</tspan></text>
    
    <path d="M1210 730H710V770H1210V730Z" fill="#F4F1EA" stroke="#653A5E" stroke-width="0.5"/>
    <text fill="#2C2C2C" xml:space="preserve" style="white-space: pre" font-family="Noto Sans JP" font-size="15" letter-spacing="0em"><tspan x="730" y="755">強み1：</tspan></text>
    
    <path d="M1210 780H710V820H1210V780Z" fill="#F4F1EA" stroke="#653A5E" stroke-width="0.5"/>
    <text fill="#2C2C2C" xml:space="preserve" style="white-space: pre" font-family="Noto Sans JP" font-size="15" letter-spacing="0em"><tspan x="730" y="805">強み2：</tspan></text>
    
    <path d="M1210 830H710V870H1210V830Z" fill="#F4F1EA" stroke="#653A5E" stroke-width="0.5"/>
    <text fill="#2C2C2C" xml:space="preserve" style="white-space: pre" font-family="Noto Sans JP" font-size="15" letter-spacing="0em"><tspan x="730" y="855">強み3：</tspan></text>
    
    <path d="M1230 910H690V1000H1230V910Z" fill="#653A5E" fill-opacity="0.05"/>
    <text fill="#2C2C2C" xml:space="preserve" style="white-space: pre" font-family="Noto Sans JP" font-size="16" font-weight="bold" letter-spacing="0em"><tspan x="710" y="940.9">フィードバックのルール：</tspan></text>
    <text fill="#2C2C2C" xml:space="preserve" style="white-space: pre" font-family="Noto Sans JP" font-size="15" letter-spacing="0em"><tspan x="730" y="970">必ず具体的な観察結果や例を添えて伝える</tspan></text>
    
    <!-- 右カラム: タグラインの確立 -->
    <path d="M1880 160H1280V1020H1880V160Z" fill="#F4F1EA" stroke="#2C2C2C" stroke-width="2"/>
    <text fill="#2C2C2C" xml:space="preserve" style="white-space: pre" font-family="Noto Serif JP" font-size="28" letter-spacing="0em"><tspan x="1500" y="210.2">タグラインの確立</tspan></text>
    <path d="M1380 220H1780" stroke="#653A5E" stroke-width="3"/>
    <path d="M1380 226C1383.31 226 1386 223.314 1386 220C1386 216.686 1383.31 214 1380 214C1376.69 214 1374 216.686 1374 220C1374 223.314 1376.69 226 1380 226Z" fill="#653A5E"/>
    <path d="M1780 226C1783.31 226 1786 223.314 1786 220C1786 216.686 1783.31 214 1780 214C1776.69 214 1774 216.686 1774 220C1774 223.314 1776.69 226 1780 226Z" fill="#653A5E"/>
    
    <text fill="#653A5E" xml:space="preserve" style="white-space: pre" font-family="Noto Sans JP" font-size="20" letter-spacing="0em"><tspan x="1310" y="270">🏷️ あなたを表す3つのキーワード</tspan></text>
    <text fill="#2C2C2C" xml:space="preserve" style="white-space: pre" font-family="Noto Sans JP" font-size="16" letter-spacing="0em"><tspan x="1310" y="309.9">自己分析と他者フィードバックを統合し、</tspan></text>
    <text fill="#2C2C2C" xml:space="preserve" style="white-space: pre" font-family="Noto Sans JP" font-size="16" letter-spacing="0em"><tspan x="1310" y="339.9">あなたを象徴する3つのタグラインを確立</tspan></text>
    
    <path d="M1850 360H1310V580H1850V360Z" fill="#F4F1EA" stroke="#653A5E" stroke-width="2"/>
    <text fill="#653A5E" xml:space="preserve" style="white-space: pre" font-family="Noto Sans JP" font-size="18" letter-spacing="0em"><tspan x="1498" y="390.2">タグラインとは</tspan></text>
    
    <text fill="#2C2C2C" xml:space="preserve" style="white-space: pre" font-family="Noto Sans JP" font-size="16" letter-spacing="0em"><tspan x="1330" y="429.9">あなたの強み・特性を簡潔に表現した</tspan></text>
    <text fill="#2C2C2C" xml:space="preserve" style="white-space: pre" font-family="Noto Sans JP" font-size="16" letter-spacing="0em"><tspan x="1330" y="459.9">キーワードやフレーズです。</tspan></text>
    
    <text fill="#2C2C2C" xml:space="preserve" style="white-space: pre" font-family="Noto Sans JP" font-size="16" letter-spacing="0em"><tspan x="1330" y="499.9">• 自己紹介や自己PRの核となる</tspan></text>
    <text fill="#2C2C2C" xml:space="preserve" style="white-space: pre" font-family="Noto Sans JP" font-size="16" letter-spacing="0em"><tspan x="1330" y="529.9">• キャリア戦略の指針となる</tspan></text>
    <text fill="#2C2C2C" xml:space="preserve" style="white-space: pre" font-family="Noto Sans JP" font-size="16" letter-spacing="0em"><tspan x="1330" y="559.9">• 自分のブランディングの基盤になる</tspan></text>
    
    <path d="M1850 600H1310V850H1850V600Z" fill="#F4F1EA" stroke="#653A5E" stroke-width="2"/>
    <text fill="#653A5E" xml:space="preserve" style="white-space: pre" font-family="Noto Sans JP" font-size="18" letter-spacing="0em"><tspan x="1465" y="630.2">タグライン事例</tspan></text>
    
    <path d="M1830 660H1330V700H1830V660Z" fill="#653A5E" fill-opacity="0.1"/>
    <text fill="#2C2C2C" xml:space="preserve" style="white-space: pre" font-family="Noto Sans JP" font-size="16" font-weight="bold" letter-spacing="0em"><tspan x="1525" y="685.9">例1</tspan></text>
    
    <path d="M1830 710H1330V810H1830V710Z" fill="#F4F1EA"/>
    <text fill="#2C2C2C" xml:space="preserve" style="white-space: pre" font-family="Noto Sans JP" font-size="16" letter-spacing="0em"><tspan x="1350" y="739.9">①「困難を乗り越える粘り強さ」</tspan></text>
    <text fill="#2C2C2C" xml:space="preserve" style="white-space: pre" font-family="Noto Sans JP" font-size="16" letter-spacing="0em"><tspan x="1350" y="769.9">②「複雑な課題を構造化する思考力」</tspan></text>
    <text fill="#2C2C2C" xml:space="preserve" style="white-space: pre" font-family="Noto Sans JP" font-size="16" letter-spacing="0em"><tspan x="1350" y="799.9">③「多様な視点を統合する調整力」</tspan></text>
    
    <text fill="#653A5E" xml:space="preserve" style="white-space: pre" font-family="Noto Sans JP" font-size="20" letter-spacing="0em"><tspan x="1310" y="880">🎯 最終成果物</tspan></text>
    <path d="M1850 890H1310V980H1850V890Z" fill="#653A5E"/>
    <text fill="#F4F1EA" xml:space="preserve" style="white-space: pre" font-family="Noto Sans JP" font-size="18" letter-spacing="0em"><tspan x="1490" y="925.2">3つのタグライン</tspan></text>
    <text fill="#F4F1EA" xml:space="preserve" style="white-space: pre" font-family="Noto Sans JP" font-size="16" letter-spacing="0em"><tspan x="1330" y="955.9">• 自己分析とフィードバックに基づく確定版</tspan></text>
    
    <!-- フッター -->
    <path d="M1920 1040H0V1080H1920V1040Z" fill="#2C2C2C"/>
    <text fill="#F4F1EA" xml:space="preserve" style="white-space: pre" font-family="Noto Sans JP" font-size="16" letter-spacing="0em"><tspan x="694.32" y="1064.9">TANREN株式会社 / 株式会社MVP | AI人材育成プログラム | 2025年春季講座</tspan></text>
  </g>
  <defs>
    <clipPath id="clip0_0_1">
      <rect width="1920" height="1080" fill="white"/>
    </clipPath>
  </defs>
</svg> 